<?xml version="1.0" encoding="utf-8"?>
<!-- Generator: Adobe Illustrator 16.0.0, SVG Export Plug-In . SVG Version: 6.00 Build 0)  -->
<!DOCTYPE svg PUBLIC "-//W3C//DTD SVG 1.1//EN" "http://www.w3.org/Graphics/SVG/1.1/DTD/svg11.dtd">
<svg version="1.1" id="Layer_1" xmlns="http://www.w3.org/2000/svg" xmlns:xlink="http://www.w3.org/1999/xlink" x="0px" y="0px"
	 width="700px" height="490px" viewBox="0 0 700 490" enable-background="new 0 0 700 490" xml:space="preserve">
<g>
	<g>
		<g>
			<path fill="#333333" d="M362.4,454.9c0.3,0,0.7,0.3,0.7,0.3l-5.7,11.8c-0.6,0-2.1,0.1-2.5,0.1c-0.3,0-0.7-0.3-0.7-0.3l-1.9-11.8
				c1.2,0,2.7-0.1,3.1-0.1c0.3,0,0.7,0.3,0.7,0.3l0.6,5.8c0.1,0.5,0.1,1.2,0,1.9c0.2-0.8,0.4-1.5,0.6-2.1l2.4-5.8
				C360.7,455,362,454.9,362.4,454.9L362.4,454.9z"/>
		</g>
		<g>
			<path fill="#333333" d="M368.3,460.7c0,1.3-0.7,2.1-2.6,2.5l-1.9,0.4c0.2,0.8,0.7,1.2,1.5,1.2c1.1,0,1.8-0.8,1.8-0.8
				s0.5,0.3,0.5,0.9c0,1.1-1.7,2.2-3.7,2.2c-2,0-3.3-1.2-3.3-3.3c0-2.4,1.7-5.6,4.8-5.6C367.2,458.2,368.3,459.2,368.3,460.7
				L368.3,460.7z M365,461.9c0.4-0.1,0.5-0.5,0.5-0.8c0-0.4-0.1-0.9-0.5-0.9c-0.8,0-1.1,1.2-1.2,2.1L365,461.9z"/>
		</g>
		<g>
			<path fill="#333333" d="M373.5,458.2c1.6,0,2.7,0.8,2.7,1.9c0,1.3-1.6,1.8-1.6,1.8s-0.5-1.4-1.6-1.4c-0.7,0-1.2,0.7-1.2,2.3
				c0,1.4,0.4,2.1,1.3,2.1c1,0,1.6-0.6,1.6-0.6s0.5,0.3,0.5,0.9c0,1-1.6,2.1-3.5,2.1c-2,0-3.3-1.2-3.3-3.3
				C368.5,461.5,370.3,458.2,373.5,458.2L373.5,458.2z"/>
		</g>
		<g>
			<path fill="#333333" d="M381,456.3c0.4,0,0.6,0.3,0.6,0.3l-0.3,1.8h2l-0.4,1.4c-0.1,0.4-0.4,0.7-0.8,0.7h-1l-0.6,3.5
				c-0.1,0.6,0,0.8,0.4,0.8c0.4,0,0.7-0.2,0.7-0.2s0.5,0.3,0.5,0.9c0,0.9-1.3,1.7-2.9,1.7c-1.7,0-2.4-1-2.1-2.8l0.6-3.9h-1.1
				l0.5-1.4c0.1-0.4,0.4-0.6,0.8-0.6h0.5l0.6-1.7C379.9,456.6,380.6,456.3,381,456.3L381,456.3z"/>
		</g>
		<g>
			<path fill="#333333" d="M390.5,460.7c0,1.3-0.7,2.1-2.6,2.5l-1.9,0.4c0.2,0.8,0.7,1.2,1.5,1.2c1.1,0,1.8-0.8,1.8-0.8
				s0.5,0.3,0.5,0.9c0,1.1-1.7,2.2-3.7,2.2c-2,0-3.3-1.2-3.3-3.3c0-2.4,1.7-5.6,4.8-5.6C389.5,458.2,390.5,459.2,390.5,460.7
				L390.5,460.7z M387.3,461.9c0.4-0.1,0.5-0.5,0.5-0.8c0-0.4-0.1-0.9-0.5-0.9c-0.8,0-1.1,1.2-1.2,2.1L387.3,461.9z"/>
		</g>
		<g>
			<path fill="#333333" d="M398.4,460.7c0,1.3-0.7,2.1-2.6,2.5l-1.9,0.4c0.1,0.8,0.7,1.2,1.5,1.2c1.1,0,1.8-0.8,1.8-0.8
				s0.5,0.3,0.5,0.9c0,1.1-1.7,2.2-3.7,2.2c-2,0-3.3-1.2-3.3-3.3c0-2.4,1.7-5.6,4.8-5.6C397.3,458.2,398.4,459.2,398.4,460.7
				L398.4,460.7z M395.1,461.9c0.4-0.1,0.5-0.5,0.5-0.8c0-0.4-0.1-0.9-0.5-0.9c-0.8,0-1.1,1.2-1.2,2.1L395.1,461.9z"/>
		</g>
		<g>
			<path fill="#333333" d="M404.8,463.9c0,0,0.7,0.6,0.7,1.6c0,1.3-1.1,1.7-2.1,1.7c-1.3,0-2.2-0.6-3.1-0.9
				c-0.3,0.3-0.5,0.6-0.8,0.9c0,0-1.4,0-1.4-1c0-1.1,2-3.1,4.1-5.3c-0.2,0-0.5-0.1-0.7-0.1c-1.2,0-1.7,0.6-1.7,0.6s-0.6-0.7-0.6-1.6
				c0.1-1.2,1.3-1.6,2.2-1.6c1,0,1.8,0.4,2.5,0.7l0.6-0.7c0,0,1.4,0,1.4,1c0,1.1-1.9,3-3.9,5.2c0.4,0.1,0.8,0.2,1.2,0.2
				C404.3,464.6,404.8,463.9,404.8,463.9L404.8,463.9z"/>
		</g>
		<g>
			<path fill="#333333" d="M414,466.4c-0.5,3-2.6,4.5-5.3,4.5c-1.7,0-3-0.9-3-1.9c0-0.7,0.6-1,0.6-1s0.6,0.5,1.7,0.5
				c1.1,0,2.5-0.4,2.8-2l0.2-1.2c-0.7,1-1.7,1.8-2.9,1.8c-1.4,0-2-1.1-1.6-3.3l0.4-2.4c0.2-1.5,0.3-2.6,0.3-2.6
				c1-0.2,2.2-0.6,2.7-0.6c0.3,0,0.7,0.3,0.7,0.3l-0.5,3l-0.4,2.8c0,0.3,0,0.4,0.2,0.4c1.1,0,1.8-3.1,1.8-3.1
				c0.2-1.5,0.3-2.6,0.3-2.6c1-0.2,2.2-0.6,2.7-0.6c0.3,0,0.7,0.3,0.7,0.3l-0.5,3L414,466.4z"/>
		</g>
	</g>
	<g>
		<path fill="#333333" d="M283.2,458.7h3c0.7,0,1.2,0.1,1.6,0.2c0.5,0.1,0.9,0.4,1.2,0.7c0.3,0.4,0.6,0.8,0.8,1.3
			c0.2,0.5,0.3,1.1,0.3,1.9c0,0.7-0.1,1.2-0.3,1.7c-0.2,0.6-0.5,1.1-0.9,1.4c-0.3,0.3-0.7,0.5-1.2,0.6c-0.4,0.1-0.9,0.2-1.5,0.2
			h-3.1V458.7z M284.9,460.1v5.3h1.2c0.5,0,0.8,0,1-0.1c0.3-0.1,0.5-0.2,0.7-0.3c0.2-0.2,0.3-0.4,0.4-0.8c0.1-0.4,0.2-0.8,0.2-1.5
			s-0.1-1.1-0.2-1.4c-0.1-0.3-0.3-0.6-0.5-0.8c-0.2-0.2-0.5-0.3-0.8-0.4c-0.2-0.1-0.7-0.1-1.4-0.1H284.9z"/>
		<path fill="#333333" d="M294.7,464.9l1.6,0.3c-0.2,0.6-0.5,1-1,1.3c-0.4,0.3-1,0.4-1.6,0.4c-1,0-1.8-0.3-2.3-1
			c-0.4-0.5-0.6-1.2-0.6-2c0-1,0.3-1.7,0.8-2.3s1.2-0.8,2-0.8c0.9,0,1.6,0.3,2.1,0.9c0.5,0.6,0.8,1.4,0.7,2.6h-4
			c0,0.5,0.1,0.8,0.4,1.1c0.2,0.3,0.5,0.4,0.9,0.4c0.2,0,0.5-0.1,0.6-0.2C294.5,465.4,294.7,465.2,294.7,464.9z M294.8,463.3
			c0-0.4-0.1-0.8-0.4-1s-0.5-0.3-0.8-0.3c-0.3,0-0.6,0.1-0.9,0.4s-0.3,0.6-0.3,1H294.8z"/>
		<path fill="#333333" d="M296.9,465.1l1.6-0.2c0.1,0.3,0.2,0.5,0.4,0.7c0.2,0.2,0.5,0.2,0.9,0.2c0.4,0,0.7-0.1,0.9-0.2
			c0.1-0.1,0.2-0.2,0.2-0.4c0-0.1,0-0.2-0.1-0.3c-0.1-0.1-0.3-0.1-0.5-0.2c-1.3-0.3-2.1-0.5-2.4-0.7c-0.5-0.3-0.7-0.7-0.7-1.3
			c0-0.5,0.2-0.9,0.6-1.3c0.4-0.3,1-0.5,1.9-0.5c0.8,0,1.4,0.1,1.8,0.4c0.4,0.3,0.7,0.6,0.8,1.1l-1.5,0.3c-0.1-0.2-0.2-0.4-0.4-0.5
			c-0.2-0.1-0.4-0.2-0.8-0.2c-0.4,0-0.7,0.1-0.9,0.2c-0.1,0.1-0.2,0.2-0.2,0.3c0,0.1,0.1,0.2,0.2,0.3c0.1,0.1,0.6,0.2,1.5,0.4
			c0.8,0.2,1.4,0.4,1.8,0.7c0.3,0.3,0.5,0.7,0.5,1.1c0,0.5-0.2,1-0.7,1.4c-0.5,0.4-1.1,0.6-2,0.6c-0.8,0-1.5-0.2-1.9-0.5
			C297.4,466,297.1,465.6,296.9,465.1z"/>
		<path fill="#333333" d="M303.6,460.1v-1.4h1.6v1.4H303.6z M303.6,466.7v-5.8h1.6v5.8H303.6z"/>
		<path fill="#333333" d="M306.4,467.1l1.8,0.2c0,0.2,0.1,0.3,0.2,0.4c0.2,0.1,0.4,0.2,0.7,0.2c0.4,0,0.7-0.1,0.9-0.2
			c0.1-0.1,0.2-0.2,0.3-0.4c0-0.1,0.1-0.4,0.1-0.7v-0.8c-0.5,0.6-1.1,0.9-1.8,0.9c-0.8,0-1.4-0.3-1.9-1c-0.4-0.5-0.5-1.2-0.5-1.9
			c0-1,0.2-1.7,0.7-2.2c0.5-0.5,1.1-0.8,1.8-0.8c0.7,0,1.3,0.3,1.8,0.9v-0.8h1.5v5.2c0,0.7-0.1,1.2-0.2,1.5
			c-0.1,0.3-0.3,0.6-0.5,0.8c-0.2,0.2-0.5,0.3-0.8,0.5s-0.8,0.2-1.3,0.2c-1,0-1.7-0.2-2.2-0.5c-0.4-0.3-0.6-0.8-0.6-1.3
			C306.4,467.2,306.4,467.2,306.4,467.1z M307.9,463.7c0,0.6,0.1,1.1,0.4,1.4c0.2,0.3,0.5,0.4,0.9,0.4c0.4,0,0.7-0.1,1-0.4
			c0.3-0.3,0.4-0.7,0.4-1.3c0-0.6-0.1-1-0.4-1.3c-0.3-0.3-0.6-0.4-1-0.4c-0.4,0-0.7,0.1-0.9,0.4C308,462.7,307.9,463.1,307.9,463.7z
			"/>
		<path fill="#333333" d="M318.8,466.7h-1.6v-3c0-0.6,0-1-0.1-1.2c-0.1-0.2-0.2-0.3-0.3-0.4c-0.1-0.1-0.3-0.2-0.5-0.2
			c-0.3,0-0.5,0.1-0.7,0.2c-0.2,0.1-0.4,0.3-0.4,0.6c-0.1,0.2-0.1,0.7-0.1,1.3v2.6h-1.6v-5.8h1.5v0.9c0.5-0.7,1.2-1,2-1
			c0.3,0,0.7,0.1,1,0.2c0.3,0.1,0.5,0.3,0.7,0.5c0.1,0.2,0.3,0.4,0.3,0.6c0.1,0.2,0.1,0.6,0.1,1V466.7z"/>
		<path fill="#333333" d="M323.6,464.9l1.6,0.3c-0.2,0.6-0.5,1-1,1.3c-0.4,0.3-1,0.4-1.6,0.4c-1,0-1.8-0.3-2.3-1
			c-0.4-0.5-0.6-1.2-0.6-2c0-1,0.3-1.7,0.8-2.3c0.5-0.5,1.2-0.8,2-0.8c0.9,0,1.6,0.3,2.1,0.9c0.5,0.6,0.8,1.4,0.7,2.6h-4
			c0,0.5,0.1,0.8,0.4,1.1c0.2,0.3,0.5,0.4,0.9,0.4c0.2,0,0.5-0.1,0.6-0.2S323.5,465.2,323.6,464.9z M323.7,463.3
			c0-0.4-0.1-0.8-0.4-1c-0.2-0.2-0.5-0.3-0.8-0.3c-0.3,0-0.6,0.1-0.9,0.4s-0.3,0.6-0.3,1H323.7z"/>
		<path fill="#333333" d="M331.8,466.7h-1.5v-0.9c-0.2,0.3-0.5,0.6-0.9,0.7c-0.3,0.2-0.7,0.2-1,0.2c-0.7,0-1.3-0.3-1.8-0.8
			c-0.5-0.5-0.7-1.3-0.7-2.2c0-1,0.2-1.7,0.7-2.2c0.5-0.5,1.1-0.8,1.8-0.8c0.7,0,1.2,0.3,1.7,0.8v-2.9h1.6V466.7z M327.6,463.7
			c0,0.6,0.1,1.1,0.3,1.3c0.3,0.4,0.6,0.6,1.1,0.6c0.4,0,0.7-0.2,0.9-0.4c0.3-0.3,0.4-0.7,0.4-1.3c0-0.7-0.1-1.1-0.4-1.4
			c-0.2-0.3-0.6-0.4-0.9-0.4c-0.4,0-0.7,0.1-0.9,0.4C327.7,462.7,327.6,463.1,327.6,463.7z"/>
		<path fill="#333333" d="M336,466.7v-8h1.6v2.9c0.5-0.5,1.1-0.8,1.7-0.8c0.7,0,1.3,0.3,1.8,0.8c0.5,0.5,0.7,1.2,0.7,2.2
			c0,1-0.2,1.8-0.7,2.3c-0.5,0.5-1.1,0.8-1.8,0.8c-0.3,0-0.7-0.1-1-0.2c-0.3-0.2-0.6-0.4-0.9-0.7v0.9H336z M337.6,463.7
			c0,0.6,0.1,1,0.3,1.3c0.3,0.4,0.6,0.6,1.1,0.6c0.3,0,0.6-0.1,0.9-0.4s0.4-0.7,0.4-1.4c0-0.7-0.1-1.1-0.4-1.4
			c-0.2-0.3-0.6-0.4-0.9-0.4c-0.4,0-0.7,0.1-0.9,0.4S337.6,463.1,337.6,463.7z"/>
		<path fill="#333333" d="M348,460.4c-0.4,0-0.7,0.2-0.9,0.5h-0.5l-1.4,4.1l-1.4-4.1h-1.7l2.3,5.8c-0.1,0.3-0.2,0.6-0.4,0.8
			c-0.2,0.2-0.4,0.3-0.8,0.3c-0.2,0-0.4,0-0.7-0.1l0.1,1.2c0.3,0.1,0.6,0.1,0.9,0.1c0.3,0,0.6,0,0.8-0.1c0.2-0.1,0.4-0.1,0.6-0.3
			s0.3-0.3,0.4-0.4c0.1-0.2,0.3-0.4,0.4-0.8l0.4-1l1.5-4c0.1,0,0.2,0.1,0.3,0.1C349.4,462.6,349.4,460.4,348,460.4z"/>
	</g>
</g>
<g>
	<path fill="#E4C6C6" d="M97.4,143.9v1.4l17,0v18.8l-17,0v1.4l17,0v18.8l-17,0v1.4l17,0v18.8l-17,0v1.4l17,0v18.8l-17,0v1.4l17,0
		V245l-17,0v1.4l17,0v18.8l-17,0v1.4l17,0v6.3h1.4v-6.3l18.8,0.1v6.3h1.4v-6.3l18.8,0.1v6.2h1.4v-6.2l18.8,0.1v6.2h1.4v-6.2
		l18.8,0.1v6.1h1.4v-6.1l18.8,0.1v6.1h1.4v-6.1l9.4,0v-1.4l-9.4,0v-18.8l9.4,0v-1.4l-9.4,0v-18.8l9.4,0v-1.4l-9.4,0v-18.8l9.4,0
		v-1.4l-9.4,0v-18.8l9.4,0v-1.4l-9.4,0v-18.8l9.4,0v-1.4l-9.4,0v-18.8l9.4,0v-1.4l-9.4,0v-15.4h-1.4v15.4l-18.8-0.1v-15.4h-1.4v15.4
		l-18.8-0.1v-15.3H175v15.3l-18.8-0.1v-15.2h-1.4v15.2L136,144v-15.2h-1.4V144l-18.8-0.1v-15.1h-1.4v15.1L97.4,143.9z M196.6,145.6
		l18.8,0.1v18.8l-18.8-0.1V145.6z M196.6,165.8l18.8,0.1v18.8l-18.8-0.1V165.8z M196.6,186l18.8,0.1v18.8l-18.8-0.1V186z
		 M196.6,206.2l18.8,0.1v18.8l-18.8-0.1V206.2z M196.6,226.5l18.8,0.1v18.8l-18.8-0.1V226.5z M196.6,246.7l18.8,0.1v18.8l-18.8-0.1
		V246.7z M176.4,145.5l18.8,0.1v18.8l-18.8-0.1V145.5z M176.4,165.7l18.8,0.1v18.8l-18.8-0.1V165.7z M176.4,186l18.8,0.1v18.8
		l-18.8-0.1V186z M176.4,206.2l18.8,0.1v18.8l-18.8-0.1V206.2z M176.4,226.4l18.8,0.1v18.8l-18.8-0.1V226.4z M176.4,246.6l18.8,0.1
		v18.8l-18.8-0.1V246.6z M156.2,145.5l18.8,0.1v18.8l-18.8-0.1V145.5z M156.2,165.7l18.8,0.1v18.8l-18.8-0.1V165.7z M156.2,185.9
		L175,186v18.8l-18.8-0.1V185.9z M156.2,206.1l18.8,0.1V225l-18.8-0.1V206.1z M156.2,226.3l18.8,0.1v18.8l-18.8-0.1V226.3z
		 M156.2,246.6l18.8,0.1v18.8l-18.8-0.1V246.6z M136,145.4l18.8,0.1v18.8l-18.8-0.1V145.4z M136,165.6l18.8,0.1v18.8l-18.8-0.1
		V165.6z M136,185.8l18.8,0.1v18.8l-18.8-0.1V185.8z M136,206.1l18.8,0.1v18.8l-18.8-0.1V206.1z M136,226.3l18.8,0.1v18.8l-18.8-0.1
		V226.3z M136,246.5l18.8,0.1v18.8l-18.8-0.1V246.5z M115.7,145.3l18.8,0.1v18.8l-18.8-0.1V145.3z M115.7,165.6l18.8,0.1v18.8
		l-18.8-0.1V165.6z M115.7,185.8l18.8,0.1v18.8l-18.8-0.1V185.8z M115.7,206l18.8,0.1v18.8l-18.8-0.1V206z M115.7,226.2l18.8,0.1
		v18.8l-18.8-0.1V226.2z M115.7,246.4l18.8,0.1v18.8l-18.8-0.1V246.4z"/>
	<path fill="#333333" d="M222.6,157.6h-0.5v-15.3c0-1.8-2.8-1.8-2.8,0v15.3h-55.6v-21.8h57.5c1.8,0,1.8-2.8,0-2.8h-29.4
		c3.7-0.9,7-2.5,9.5-5.5c0.7-0.9,0.3-2.4-1-2.4c-1.8,0-3.5,0-5.2,0.1c0.4-0.3,0.7-0.7,1.1-1c1.3-1.1-0.4-2.8-1.7-2.2
		c-1.4,0.6-3.1,1.6-5,2.5c1.4-1.4,2.8-3,4.1-4.8c0.7-1.1-0.5-2.3-1.6-2c-1.9,0.4-3.6,1.2-5.2,2c0.8-1.3,1.5-2.7,2.2-4.1
		c0.6-1.4-1.1-2.9-2.2-1.7c-4.9,5.4-10.5,9.5-16.7,13c4.8-5.9,8.3-14.9-0.1-17.8c-6.8-2.3-11.9,1.2-14.8,6.5
		c-1.4-5.8-4.6-11.2-9.1-14.9c-6.9-5.8-17.3-3.8-22.2,3.7c-5.8,8.9,3.6,23.3,14.1,28.6h-33.7c-1.8,0-1.8,2.8,0,2.8h44v21.8h-48.1
		c0.2-0.2,0.4-0.5,0.4-0.9v-20.4c0-1.8-2.8-1.8-2.8,0v20.4c0,0.5,0.2,0.8,0.5,1c-1.3,0.4-1.1,2.7,0.5,2.7h4.2V260
		c0,0.3,0.1,0.5,0.2,0.7c-1,0.6-0.8,2.6,0.7,2.6h44.5v2.8c0,1.8,2.8,1.8,2.8,0v-2.8h9.7v0.9c0,1.8,2.8,1.8,2.8,0v-0.9h53.8
		c1.8,0,1.8-2.8,0-2.8h-53.8V160.4h58.9C224.4,160.4,224.4,157.6,222.6,157.6z M148.5,260.5h-42.7c0-0.1,0.1-0.3,0.1-0.5v-99.6h42.6
		V260.5z M190.3,127.3c0.1,0.6,0.6,1.2,1.3,1.1c1.7-0.2,3.4-0.3,5.1-0.4c-4.8,3.3-11.6,3.4-17.7,3.3c0.8-0.3,1.6-0.6,2.3-1
		C184,130.2,187.3,128.8,190.3,127.3z M182,122.3c-0.2,0.2-0.3,0.5-0.5,0.7c-0.8,1.2,0.7,2.6,1.9,1.9c1.5-0.9,2.9-1.8,4.4-2.6
		c-2.2,2.1-4.6,3.8-7.2,5.1c-0.1,0-0.2,0-0.3,0c-0.6,0-1,0.3-1.2,0.7c-3.7,1.7-7.8,2.7-12.1,3.6C172.5,129.1,177.5,126,182,122.3z
		 M157.4,133h-3.9C154.8,132.6,156.2,132.6,157.4,133z M149.8,131.7C149.8,131.7,149.8,131.7,149.8,131.7
		c-4.3-1.6-14.9-8.4-11.6-13.9c3-5,10.8,6.7,11.2,9.5c0.3,1.8,2.9,1,2.7-0.7c-0.8-5.4-10-17.1-15.8-10.9c-5.4,5.8,2.7,13.2,8.9,16.8
		c-10.4,0.2-21.9-16.4-19.5-25.2c2.6-9.5,15-8.1,20.5-2.8c4.3,4.1,6.9,10.5,7.1,16.7c-0.4,1.9-0.6,3.8-0.6,5.6c0,0.1,0,0.2-0.1,0.3
		c-0.1,0.4,0,0.8,0.2,1.1c0.1,0.7,0.2,1.4,0.3,2c0,0,0,0.1,0,0.1C152,130.5,150.9,131,149.8,131.7z M161,260.5h-9.7V160.4h9.7V260.5
		z M161,157.6h-9.7v-21.8h9.6c0.1,0.1,0.1,0.2,0.2,0.3V157.6z M159.8,131c-0.3-0.2-0.7-0.3-1-0.5c0-0.2,0-0.4-0.1-0.7
		c-0.7-1.7-0.7-3.8-0.5-5.6c0.1-1.2,0.3-2.6,1.4-3.3c0.6-0.4,1.8-0.5,2.2,0.3C162.7,123.9,161.1,128.3,159.8,131z M163.4,130.5
		c-0.1,0.1-0.3,0.1-0.4,0.2c1.7-4.1,3.2-10.3-0.4-12.4c-2.4-1.4-5,0.2-6.3,2.3c1.6-5.8,5.8-10.7,12.3-9c9.2,2.3-0.3,14.9-4.6,17.4
		C163.4,129.4,163.3,130,163.4,130.5z"/>
	<path fill="#333333" d="M217.1,173.8v84.4c0,1.8,2.8,1.8,2.8,0v-84.4C219.8,172,217.1,172,217.1,173.8z"/>
</g>
<g>
	<g>
		<polygon fill="#FFE5A0" points="438.5,141.4 438.5,158.9 449,141.4 438.5,141.4 		"/>
		<polygon fill="#FFE5A0" points="486.4,141.4 475.8,141.4 438.5,203.3 438.5,220.8 		"/>
		<polygon fill="#FFE5A0" points="468.5,141.4 458,141.4 438.5,173.7 438.5,191.2 		"/>
		<polygon fill="#FFE5A0" points="519.4,148.6 519.4,141.4 513.2,141.4 465.3,220.8 475.8,220.8 		"/>
		<polygon fill="#FFE5A0" points="519.4,180.9 519.4,163.4 484.8,220.8 495.3,220.8 		"/>
		<polygon fill="#FFE5A0" points="447.4,220.8 458,220.8 505.9,141.4 495.3,141.4 		"/>
		<polygon fill="#FFE5A0" points="519.4,210.5 519.4,193 502.6,220.8 513.2,220.8 		"/>
	</g>
	<path fill="#333333" d="M520.2,144.2H485v-10.3c0.3,0.1,0.7,0.2,1.2-0.1c0.2-0.1,0.4-0.2,0.5-0.3h33.1c1.8,0,1.8-2.8,0-2.8h-27.5
		c5.9-2.9,12-5.5,18.2-7.9c1-0.4,1.4-1.5,0.6-2.3c-4.5-5-8.5-10.4-12.3-15.9c-0.6-0.9-2.3-0.9-2.5,0.3c-1.9,9-9.2,15.6-13.6,23.5
		c-1.4-1.9-3.5-3.2-6.1-3.1c-1.8,0.1-3.3,1-4.1,2.4c-7.8-4.7-15.3-10.8-24.1-13.6c-0.8-0.2-1.5,0.3-1.7,1c-1.3,3.8-2.2,7.6-2.8,11.6
		c-0.1,0.8,0.2,1.4,1,1.7c2.9,1,5.8,1.7,8.8,2.4h-15.8c-1.8,0-1.8,2.8,0,2.8h33.4v10.7h-32.4c-1.8,0-1.8,2.8,0,2.8h3.2v64.9
		c0,1.8,2.8,1.8,2.8,0v-64.9h26.4v67.7h-19.5c-1.8,0-1.8,2.8,0,2.8h57c1.8,0,1.8-2.8,0-2.8H485v-67.7h29.6c-0.2,0.2-0.4,0.5-0.4,0.9
		v63c0,1.8,2.8,1.8,2.8,0v-63c0-0.4-0.2-0.7-0.4-0.9h3.6C522,146.9,522,144.2,520.2,144.2z M476.8,128c1.9-0.1,3.3,1.1,4,2.7h-6
		c0-0.1,0-0.2-0.1-0.4C474.2,128.8,475.3,128.1,476.8,128z M446.7,126c0.5-3,1.2-5.9,2.1-8.9c8.3,2.9,15.4,8.9,23,13.3
		c0.1,0,0.1,0,0.2,0.1c0,0,0,0.1,0,0.1h-0.1C463.4,129.6,454.8,128.7,446.7,126z M482.2,214.6h-8.3v-67.7h8.3V214.6z M482.2,144.2
		h-8.3v-10.4c0.3,0,0.7,0.1,1,0.1c0.5,0.1,0.9-0.1,1.2-0.4h6.1V144.2z M484.4,130.7c4-7.7,10.7-14.1,13.6-22.3
		c3,4.3,6.2,8.5,9.7,12.5c-7.4,3-14.6,6.2-21.7,9.8H484.4z"/>
	<path fill="#333333" d="M436.8,136.7v6c0,1.8,2.8,1.8,2.8,0v-6C439.5,134.9,436.8,134.9,436.8,136.7z"/>
</g>
<g>
	<g>
		<g>
			<ellipse fill="#FAAF6C" cx="399.1" cy="290.2" rx="1.4" ry="1.7"/>
			<ellipse fill="#FAAF6C" cx="404.2" cy="290.2" rx="1.4" ry="1.7"/>
			<ellipse fill="#FAAF6C" cx="409.2" cy="290.2" rx="1.4" ry="1.7"/>
			<ellipse fill="#FAAF6C" cx="414.3" cy="290.2" rx="1.4" ry="1.7"/>
			<ellipse fill="#FAAF6C" cx="419.3" cy="290.2" rx="1.4" ry="1.7"/>
			<ellipse fill="#FAAF6C" cx="424.4" cy="290.2" rx="1.4" ry="1.7"/>
			<ellipse fill="#FAAF6C" cx="429.4" cy="290.2" rx="1.4" ry="1.7"/>
			<ellipse fill="#FAAF6C" cx="434.5" cy="290.2" rx="1.4" ry="1.7"/>
			<ellipse fill="#FAAF6C" cx="439.5" cy="290.2" rx="1.4" ry="1.7"/>
			<ellipse fill="#FAAF6C" cx="444.6" cy="290.2" rx="1.4" ry="1.7"/>
			<ellipse fill="#FAAF6C" cx="449.6" cy="290.2" rx="1.4" ry="1.7"/>
			<ellipse fill="#FAAF6C" cx="454.7" cy="290.2" rx="1.4" ry="1.7"/>
			<ellipse fill="#FAAF6C" cx="459.7" cy="290.2" rx="1.4" ry="1.7"/>
			<ellipse fill="#FAAF6C" cx="464.8" cy="290.2" rx="1.4" ry="1.7"/>
			<ellipse fill="#FAAF6C" cx="469.8" cy="290.2" rx="1.4" ry="1.7"/>
			<ellipse fill="#FAAF6C" cx="474.9" cy="290.2" rx="1.4" ry="1.7"/>
			<ellipse fill="#FAAF6C" cx="480" cy="290.2" rx="1.4" ry="1.7"/>
		</g>
		<g>
			<ellipse fill="#FAAF6C" cx="399.1" cy="295.2" rx="1.4" ry="1.7"/>
			<ellipse fill="#FAAF6C" cx="404.2" cy="295.2" rx="1.4" ry="1.7"/>
			<ellipse fill="#FAAF6C" cx="409.2" cy="295.2" rx="1.4" ry="1.7"/>
			<ellipse fill="#FAAF6C" cx="414.3" cy="295.2" rx="1.4" ry="1.7"/>
			<ellipse fill="#FAAF6C" cx="419.3" cy="295.2" rx="1.4" ry="1.7"/>
			<ellipse fill="#FAAF6C" cx="424.4" cy="295.2" rx="1.4" ry="1.7"/>
			<ellipse fill="#FAAF6C" cx="429.4" cy="295.2" rx="1.4" ry="1.7"/>
			<ellipse fill="#FAAF6C" cx="434.5" cy="295.2" rx="1.4" ry="1.7"/>
			<ellipse fill="#FAAF6C" cx="439.5" cy="295.2" rx="1.4" ry="1.7"/>
			<ellipse fill="#FAAF6C" cx="444.6" cy="295.2" rx="1.4" ry="1.7"/>
			<ellipse fill="#FAAF6C" cx="449.6" cy="295.2" rx="1.4" ry="1.7"/>
			<ellipse fill="#FAAF6C" cx="454.7" cy="295.2" rx="1.4" ry="1.7"/>
			<ellipse fill="#FAAF6C" cx="459.7" cy="295.2" rx="1.4" ry="1.7"/>
			<ellipse fill="#FAAF6C" cx="464.8" cy="295.2" rx="1.4" ry="1.7"/>
			<ellipse fill="#FAAF6C" cx="469.8" cy="295.2" rx="1.4" ry="1.7"/>
			<ellipse fill="#FAAF6C" cx="474.9" cy="295.2" rx="1.4" ry="1.7"/>
			<ellipse fill="#FAAF6C" cx="480" cy="295.2" rx="1.4" ry="1.7"/>
		</g>
		<g>
			<ellipse fill="#FAAF6C" cx="399.1" cy="300.2" rx="1.4" ry="1.7"/>
			<ellipse fill="#FAAF6C" cx="404.2" cy="300.2" rx="1.4" ry="1.7"/>
			<ellipse fill="#FAAF6C" cx="409.2" cy="300.2" rx="1.4" ry="1.7"/>
			<ellipse fill="#FAAF6C" cx="414.3" cy="300.2" rx="1.4" ry="1.7"/>
			<ellipse fill="#FAAF6C" cx="419.3" cy="300.2" rx="1.4" ry="1.7"/>
			<ellipse fill="#FAAF6C" cx="424.4" cy="300.2" rx="1.4" ry="1.7"/>
			<ellipse fill="#FAAF6C" cx="429.4" cy="300.2" rx="1.4" ry="1.7"/>
			<ellipse fill="#FAAF6C" cx="434.5" cy="300.2" rx="1.4" ry="1.7"/>
			<ellipse fill="#FAAF6C" cx="439.5" cy="300.2" rx="1.4" ry="1.7"/>
			<ellipse fill="#FAAF6C" cx="444.6" cy="300.2" rx="1.4" ry="1.7"/>
			<ellipse fill="#FAAF6C" cx="449.6" cy="300.2" rx="1.4" ry="1.7"/>
			<ellipse fill="#FAAF6C" cx="454.7" cy="300.2" rx="1.4" ry="1.7"/>
			<ellipse fill="#FAAF6C" cx="459.7" cy="300.2" rx="1.4" ry="1.7"/>
			<ellipse fill="#FAAF6C" cx="464.8" cy="300.2" rx="1.4" ry="1.7"/>
			<ellipse fill="#FAAF6C" cx="469.8" cy="300.2" rx="1.4" ry="1.7"/>
			<ellipse fill="#FAAF6C" cx="474.9" cy="300.2" rx="1.4" ry="1.7"/>
			<ellipse fill="#FAAF6C" cx="480" cy="300.2" rx="1.4" ry="1.7"/>
		</g>
		<g>
			<ellipse fill="#FAAF6C" cx="399.1" cy="305.2" rx="1.4" ry="1.7"/>
			<ellipse fill="#FAAF6C" cx="404.2" cy="305.2" rx="1.4" ry="1.7"/>
			<ellipse fill="#FAAF6C" cx="409.2" cy="305.2" rx="1.4" ry="1.7"/>
			<ellipse fill="#FAAF6C" cx="414.3" cy="305.2" rx="1.4" ry="1.7"/>
			<ellipse fill="#FAAF6C" cx="419.3" cy="305.2" rx="1.4" ry="1.7"/>
			<ellipse fill="#FAAF6C" cx="424.4" cy="305.2" rx="1.4" ry="1.7"/>
			<ellipse fill="#FAAF6C" cx="429.4" cy="305.2" rx="1.4" ry="1.7"/>
			<ellipse fill="#FAAF6C" cx="434.5" cy="305.2" rx="1.4" ry="1.7"/>
			<ellipse fill="#FAAF6C" cx="439.5" cy="305.2" rx="1.4" ry="1.7"/>
			<ellipse fill="#FAAF6C" cx="444.6" cy="305.2" rx="1.4" ry="1.7"/>
			<ellipse fill="#FAAF6C" cx="449.6" cy="305.2" rx="1.4" ry="1.7"/>
			<ellipse fill="#FAAF6C" cx="454.7" cy="305.2" rx="1.4" ry="1.7"/>
			<ellipse fill="#FAAF6C" cx="459.7" cy="305.2" rx="1.4" ry="1.7"/>
			<ellipse fill="#FAAF6C" cx="464.8" cy="305.2" rx="1.4" ry="1.7"/>
			<ellipse fill="#FAAF6C" cx="469.8" cy="305.2" rx="1.4" ry="1.7"/>
			<ellipse fill="#FAAF6C" cx="474.9" cy="305.2" rx="1.4" ry="1.7"/>
			<ellipse fill="#FAAF6C" cx="480" cy="305.2" rx="1.4" ry="1.7"/>
		</g>
		<g>
			<ellipse fill="#FAAF6C" cx="399.1" cy="310.2" rx="1.4" ry="1.7"/>
			<ellipse fill="#FAAF6C" cx="404.2" cy="310.2" rx="1.4" ry="1.7"/>
			<ellipse fill="#FAAF6C" cx="409.2" cy="310.2" rx="1.4" ry="1.7"/>
			<ellipse fill="#FAAF6C" cx="414.3" cy="310.2" rx="1.4" ry="1.7"/>
			<ellipse fill="#FAAF6C" cx="419.3" cy="310.2" rx="1.4" ry="1.7"/>
			<ellipse fill="#FAAF6C" cx="424.4" cy="310.2" rx="1.4" ry="1.7"/>
			<ellipse fill="#FAAF6C" cx="429.4" cy="310.2" rx="1.4" ry="1.7"/>
			<ellipse fill="#FAAF6C" cx="434.5" cy="310.2" rx="1.4" ry="1.7"/>
			<ellipse fill="#FAAF6C" cx="439.5" cy="310.2" rx="1.4" ry="1.7"/>
			<ellipse fill="#FAAF6C" cx="444.6" cy="310.2" rx="1.4" ry="1.7"/>
			<ellipse fill="#FAAF6C" cx="449.6" cy="310.2" rx="1.4" ry="1.7"/>
			<ellipse fill="#FAAF6C" cx="454.7" cy="310.2" rx="1.4" ry="1.7"/>
			<ellipse fill="#FAAF6C" cx="459.7" cy="310.2" rx="1.4" ry="1.7"/>
			<ellipse fill="#FAAF6C" cx="464.8" cy="310.2" rx="1.4" ry="1.7"/>
			<ellipse fill="#FAAF6C" cx="469.8" cy="310.2" rx="1.4" ry="1.7"/>
			<ellipse fill="#FAAF6C" cx="474.9" cy="310.2" rx="1.4" ry="1.7"/>
			<ellipse fill="#FAAF6C" cx="480" cy="310.2" rx="1.4" ry="1.7"/>
		</g>
		<g>
			<ellipse fill="#FAAF6C" cx="399.1" cy="315.2" rx="1.4" ry="1.7"/>
			<ellipse fill="#FAAF6C" cx="404.2" cy="315.2" rx="1.4" ry="1.7"/>
			<ellipse fill="#FAAF6C" cx="409.2" cy="315.2" rx="1.4" ry="1.7"/>
			<ellipse fill="#FAAF6C" cx="414.3" cy="315.2" rx="1.4" ry="1.7"/>
			<ellipse fill="#FAAF6C" cx="419.3" cy="315.2" rx="1.4" ry="1.7"/>
			<ellipse fill="#FAAF6C" cx="424.4" cy="315.2" rx="1.4" ry="1.7"/>
			<ellipse fill="#FAAF6C" cx="429.4" cy="315.2" rx="1.4" ry="1.7"/>
			<ellipse fill="#FAAF6C" cx="434.5" cy="315.2" rx="1.4" ry="1.7"/>
			<ellipse fill="#FAAF6C" cx="439.5" cy="315.2" rx="1.4" ry="1.7"/>
			<ellipse fill="#FAAF6C" cx="444.6" cy="315.2" rx="1.4" ry="1.7"/>
			<ellipse fill="#FAAF6C" cx="449.6" cy="315.2" rx="1.4" ry="1.7"/>
			<ellipse fill="#FAAF6C" cx="454.7" cy="315.2" rx="1.4" ry="1.7"/>
			<ellipse fill="#FAAF6C" cx="459.7" cy="315.2" rx="1.4" ry="1.7"/>
			<ellipse fill="#FAAF6C" cx="464.8" cy="315.2" rx="1.4" ry="1.7"/>
			<ellipse fill="#FAAF6C" cx="469.8" cy="315.2" rx="1.4" ry="1.7"/>
			<ellipse fill="#FAAF6C" cx="474.9" cy="315.2" rx="1.4" ry="1.7"/>
			<ellipse fill="#FAAF6C" cx="480" cy="315.2" rx="1.4" ry="1.7"/>
		</g>
		<g>
			<ellipse fill="#FAAF6C" cx="399.1" cy="320.3" rx="1.4" ry="1.7"/>
			<ellipse fill="#FAAF6C" cx="404.2" cy="320.3" rx="1.4" ry="1.7"/>
			<ellipse fill="#FAAF6C" cx="409.2" cy="320.3" rx="1.4" ry="1.7"/>
			<ellipse fill="#FAAF6C" cx="414.3" cy="320.3" rx="1.4" ry="1.7"/>
			<ellipse fill="#FAAF6C" cx="419.3" cy="320.3" rx="1.4" ry="1.7"/>
			<ellipse fill="#FAAF6C" cx="424.4" cy="320.3" rx="1.4" ry="1.7"/>
			<ellipse fill="#FAAF6C" cx="429.4" cy="320.3" rx="1.4" ry="1.7"/>
			<ellipse fill="#FAAF6C" cx="434.5" cy="320.3" rx="1.4" ry="1.7"/>
			<ellipse fill="#FAAF6C" cx="439.5" cy="320.3" rx="1.4" ry="1.7"/>
			<ellipse fill="#FAAF6C" cx="444.6" cy="320.3" rx="1.4" ry="1.7"/>
			<ellipse fill="#FAAF6C" cx="449.6" cy="320.3" rx="1.4" ry="1.7"/>
			<ellipse fill="#FAAF6C" cx="454.7" cy="320.3" rx="1.4" ry="1.7"/>
			<ellipse fill="#FAAF6C" cx="459.7" cy="320.3" rx="1.4" ry="1.7"/>
			<ellipse fill="#FAAF6C" cx="464.8" cy="320.3" rx="1.4" ry="1.7"/>
			<ellipse fill="#FAAF6C" cx="469.8" cy="320.3" rx="1.4" ry="1.7"/>
			<ellipse fill="#FAAF6C" cx="474.9" cy="320.3" rx="1.4" ry="1.7"/>
			<ellipse fill="#FAAF6C" cx="480" cy="320.3" rx="1.4" ry="1.7"/>
		</g>
		<g>
			<ellipse fill="#FAAF6C" cx="399.1" cy="325.3" rx="1.4" ry="1.7"/>
			<ellipse fill="#FAAF6C" cx="404.2" cy="325.3" rx="1.4" ry="1.7"/>
			<ellipse fill="#FAAF6C" cx="409.2" cy="325.3" rx="1.4" ry="1.7"/>
			<ellipse fill="#FAAF6C" cx="414.3" cy="325.3" rx="1.4" ry="1.7"/>
			<ellipse fill="#FAAF6C" cx="419.3" cy="325.3" rx="1.4" ry="1.7"/>
			<ellipse fill="#FAAF6C" cx="424.4" cy="325.3" rx="1.4" ry="1.7"/>
			<ellipse fill="#FAAF6C" cx="429.4" cy="325.3" rx="1.4" ry="1.7"/>
			<ellipse fill="#FAAF6C" cx="434.5" cy="325.3" rx="1.4" ry="1.7"/>
			<ellipse fill="#FAAF6C" cx="439.5" cy="325.3" rx="1.4" ry="1.7"/>
			<ellipse fill="#FAAF6C" cx="444.6" cy="325.3" rx="1.4" ry="1.7"/>
			<ellipse fill="#FAAF6C" cx="449.6" cy="325.3" rx="1.4" ry="1.7"/>
			<ellipse fill="#FAAF6C" cx="454.7" cy="325.3" rx="1.4" ry="1.7"/>
			<ellipse fill="#FAAF6C" cx="459.7" cy="325.3" rx="1.4" ry="1.7"/>
			<ellipse fill="#FAAF6C" cx="464.8" cy="325.3" rx="1.4" ry="1.7"/>
			<ellipse fill="#FAAF6C" cx="469.8" cy="325.3" rx="1.4" ry="1.7"/>
			<ellipse fill="#FAAF6C" cx="474.9" cy="325.3" rx="1.4" ry="1.7"/>
			<ellipse fill="#FAAF6C" cx="480" cy="325.3" rx="1.4" ry="1.7"/>
		</g>
		<g>
			<ellipse fill="#FAAF6C" cx="399.1" cy="330.3" rx="1.4" ry="1.7"/>
			<ellipse fill="#FAAF6C" cx="404.2" cy="330.3" rx="1.4" ry="1.7"/>
			<ellipse fill="#FAAF6C" cx="409.2" cy="330.3" rx="1.4" ry="1.7"/>
			<ellipse fill="#FAAF6C" cx="414.3" cy="330.3" rx="1.4" ry="1.7"/>
			<ellipse fill="#FAAF6C" cx="419.3" cy="330.3" rx="1.4" ry="1.7"/>
			<ellipse fill="#FAAF6C" cx="424.4" cy="330.3" rx="1.4" ry="1.7"/>
			<ellipse fill="#FAAF6C" cx="429.4" cy="330.3" rx="1.4" ry="1.7"/>
			<ellipse fill="#FAAF6C" cx="434.5" cy="330.3" rx="1.4" ry="1.7"/>
			<ellipse fill="#FAAF6C" cx="439.5" cy="330.3" rx="1.4" ry="1.7"/>
			<ellipse fill="#FAAF6C" cx="444.6" cy="330.3" rx="1.4" ry="1.7"/>
			<ellipse fill="#FAAF6C" cx="449.6" cy="330.3" rx="1.4" ry="1.7"/>
			<ellipse fill="#FAAF6C" cx="454.7" cy="330.3" rx="1.4" ry="1.7"/>
			<ellipse fill="#FAAF6C" cx="459.7" cy="330.3" rx="1.4" ry="1.7"/>
			<ellipse fill="#FAAF6C" cx="464.8" cy="330.3" rx="1.4" ry="1.7"/>
			<ellipse fill="#FAAF6C" cx="469.8" cy="330.3" rx="1.4" ry="1.7"/>
			<ellipse fill="#FAAF6C" cx="474.9" cy="330.3" rx="1.4" ry="1.7"/>
			<ellipse fill="#FAAF6C" cx="480" cy="330.3" rx="1.4" ry="1.7"/>
		</g>
		<g>
			<ellipse fill="#FAAF6C" cx="399.1" cy="335.3" rx="1.4" ry="1.7"/>
			<ellipse fill="#FAAF6C" cx="404.2" cy="335.3" rx="1.4" ry="1.7"/>
			<ellipse fill="#FAAF6C" cx="409.2" cy="335.3" rx="1.4" ry="1.7"/>
			<ellipse fill="#FAAF6C" cx="414.3" cy="335.3" rx="1.4" ry="1.7"/>
			<ellipse fill="#FAAF6C" cx="419.3" cy="335.3" rx="1.4" ry="1.7"/>
			<ellipse fill="#FAAF6C" cx="424.4" cy="335.3" rx="1.4" ry="1.7"/>
			<ellipse fill="#FAAF6C" cx="429.4" cy="335.3" rx="1.4" ry="1.7"/>
			<ellipse fill="#FAAF6C" cx="434.5" cy="335.3" rx="1.4" ry="1.7"/>
			<ellipse fill="#FAAF6C" cx="439.5" cy="335.3" rx="1.4" ry="1.7"/>
			<ellipse fill="#FAAF6C" cx="444.6" cy="335.3" rx="1.4" ry="1.7"/>
			<ellipse fill="#FAAF6C" cx="449.6" cy="335.3" rx="1.4" ry="1.7"/>
			<ellipse fill="#FAAF6C" cx="454.7" cy="335.3" rx="1.4" ry="1.7"/>
			<ellipse fill="#FAAF6C" cx="459.7" cy="335.3" rx="1.4" ry="1.7"/>
			<ellipse fill="#FAAF6C" cx="464.8" cy="335.3" rx="1.4" ry="1.7"/>
			<ellipse fill="#FAAF6C" cx="469.8" cy="335.3" rx="1.4" ry="1.7"/>
			<ellipse fill="#FAAF6C" cx="474.9" cy="335.3" rx="1.4" ry="1.7"/>
			<ellipse fill="#FAAF6C" cx="480" cy="335.3" rx="1.4" ry="1.7"/>
		</g>
		<g>
			<ellipse fill="#FAAF6C" cx="399.1" cy="340.3" rx="1.4" ry="1.7"/>
			<ellipse fill="#FAAF6C" cx="404.2" cy="340.3" rx="1.4" ry="1.7"/>
			<ellipse fill="#FAAF6C" cx="409.2" cy="340.3" rx="1.4" ry="1.7"/>
			<ellipse fill="#FAAF6C" cx="414.3" cy="340.3" rx="1.4" ry="1.7"/>
			<ellipse fill="#FAAF6C" cx="419.3" cy="340.3" rx="1.4" ry="1.7"/>
			<ellipse fill="#FAAF6C" cx="424.4" cy="340.3" rx="1.4" ry="1.7"/>
			<ellipse fill="#FAAF6C" cx="429.4" cy="340.3" rx="1.4" ry="1.7"/>
			<ellipse fill="#FAAF6C" cx="434.5" cy="340.3" rx="1.4" ry="1.7"/>
			<ellipse fill="#FAAF6C" cx="439.5" cy="340.3" rx="1.4" ry="1.7"/>
			<ellipse fill="#FAAF6C" cx="444.6" cy="340.3" rx="1.4" ry="1.7"/>
			<ellipse fill="#FAAF6C" cx="449.6" cy="340.3" rx="1.4" ry="1.7"/>
			<ellipse fill="#FAAF6C" cx="454.7" cy="340.3" rx="1.4" ry="1.7"/>
			<ellipse fill="#FAAF6C" cx="459.7" cy="340.3" rx="1.4" ry="1.7"/>
			<ellipse fill="#FAAF6C" cx="464.8" cy="340.3" rx="1.4" ry="1.7"/>
			<ellipse fill="#FAAF6C" cx="469.8" cy="340.3" rx="1.4" ry="1.7"/>
			<ellipse fill="#FAAF6C" cx="474.9" cy="340.3" rx="1.4" ry="1.7"/>
			<ellipse fill="#FAAF6C" cx="480" cy="340.3" rx="1.4" ry="1.7"/>
		</g>
		<g>
			<ellipse fill="#FAAF6C" cx="399.1" cy="345.4" rx="1.4" ry="1.7"/>
			<ellipse fill="#FAAF6C" cx="404.2" cy="345.4" rx="1.4" ry="1.7"/>
			<ellipse fill="#FAAF6C" cx="409.2" cy="345.4" rx="1.4" ry="1.7"/>
			<ellipse fill="#FAAF6C" cx="414.3" cy="345.4" rx="1.4" ry="1.7"/>
			<ellipse fill="#FAAF6C" cx="419.3" cy="345.4" rx="1.4" ry="1.7"/>
			<ellipse fill="#FAAF6C" cx="424.4" cy="345.4" rx="1.4" ry="1.7"/>
			<ellipse fill="#FAAF6C" cx="429.4" cy="345.4" rx="1.4" ry="1.7"/>
			<ellipse fill="#FAAF6C" cx="434.5" cy="345.4" rx="1.4" ry="1.7"/>
			<ellipse fill="#FAAF6C" cx="439.5" cy="345.4" rx="1.4" ry="1.7"/>
			<ellipse fill="#FAAF6C" cx="444.6" cy="345.4" rx="1.4" ry="1.7"/>
			<ellipse fill="#FAAF6C" cx="449.6" cy="345.4" rx="1.4" ry="1.7"/>
			<ellipse fill="#FAAF6C" cx="454.7" cy="345.4" rx="1.4" ry="1.7"/>
			<ellipse fill="#FAAF6C" cx="459.7" cy="345.4" rx="1.4" ry="1.7"/>
			<ellipse fill="#FAAF6C" cx="464.8" cy="345.4" rx="1.4" ry="1.7"/>
			<ellipse fill="#FAAF6C" cx="469.8" cy="345.4" rx="1.4" ry="1.7"/>
			<ellipse fill="#FAAF6C" cx="474.9" cy="345.4" rx="1.4" ry="1.7"/>
			<ellipse fill="#FAAF6C" cx="480" cy="345.4" rx="1.4" ry="1.7"/>
		</g>
		<g>
			<ellipse fill="#FAAF6C" cx="399.1" cy="350.4" rx="1.4" ry="1.7"/>
			<ellipse fill="#FAAF6C" cx="404.2" cy="350.4" rx="1.4" ry="1.7"/>
			<ellipse fill="#FAAF6C" cx="409.2" cy="350.4" rx="1.4" ry="1.7"/>
			<ellipse fill="#FAAF6C" cx="414.3" cy="350.4" rx="1.4" ry="1.7"/>
			<ellipse fill="#FAAF6C" cx="419.3" cy="350.4" rx="1.4" ry="1.7"/>
			<ellipse fill="#FAAF6C" cx="424.4" cy="350.4" rx="1.4" ry="1.7"/>
			<ellipse fill="#FAAF6C" cx="429.4" cy="350.4" rx="1.4" ry="1.7"/>
			<ellipse fill="#FAAF6C" cx="434.5" cy="350.4" rx="1.4" ry="1.7"/>
			<ellipse fill="#FAAF6C" cx="439.5" cy="350.4" rx="1.4" ry="1.7"/>
			<ellipse fill="#FAAF6C" cx="444.6" cy="350.4" rx="1.4" ry="1.7"/>
			<ellipse fill="#FAAF6C" cx="449.6" cy="350.4" rx="1.4" ry="1.7"/>
			<ellipse fill="#FAAF6C" cx="454.7" cy="350.4" rx="1.4" ry="1.7"/>
			<ellipse fill="#FAAF6C" cx="459.7" cy="350.4" rx="1.4" ry="1.7"/>
			<ellipse fill="#FAAF6C" cx="464.8" cy="350.4" rx="1.4" ry="1.7"/>
			<ellipse fill="#FAAF6C" cx="469.8" cy="350.4" rx="1.4" ry="1.7"/>
			<ellipse fill="#FAAF6C" cx="474.9" cy="350.4" rx="1.4" ry="1.7"/>
			<ellipse fill="#FAAF6C" cx="480" cy="350.4" rx="1.4" ry="1.7"/>
		</g>
		<g>
			<ellipse fill="#FAAF6C" cx="399.1" cy="355.4" rx="1.4" ry="1.7"/>
			<ellipse fill="#FAAF6C" cx="404.2" cy="355.4" rx="1.4" ry="1.7"/>
			<ellipse fill="#FAAF6C" cx="409.2" cy="355.4" rx="1.4" ry="1.7"/>
			<ellipse fill="#FAAF6C" cx="414.3" cy="355.4" rx="1.4" ry="1.7"/>
			<ellipse fill="#FAAF6C" cx="419.3" cy="355.4" rx="1.4" ry="1.7"/>
			<ellipse fill="#FAAF6C" cx="424.4" cy="355.4" rx="1.4" ry="1.7"/>
			<ellipse fill="#FAAF6C" cx="429.4" cy="355.4" rx="1.4" ry="1.7"/>
			<ellipse fill="#FAAF6C" cx="434.5" cy="355.4" rx="1.4" ry="1.7"/>
			<ellipse fill="#FAAF6C" cx="439.5" cy="355.4" rx="1.4" ry="1.7"/>
			<ellipse fill="#FAAF6C" cx="444.6" cy="355.4" rx="1.4" ry="1.7"/>
			<ellipse fill="#FAAF6C" cx="449.6" cy="355.4" rx="1.4" ry="1.7"/>
			<ellipse fill="#FAAF6C" cx="454.7" cy="355.4" rx="1.4" ry="1.7"/>
			<ellipse fill="#FAAF6C" cx="459.7" cy="355.4" rx="1.4" ry="1.7"/>
			<ellipse fill="#FAAF6C" cx="464.8" cy="355.4" rx="1.4" ry="1.7"/>
			<ellipse fill="#FAAF6C" cx="469.8" cy="355.4" rx="1.4" ry="1.7"/>
			<ellipse fill="#FAAF6C" cx="474.9" cy="355.4" rx="1.4" ry="1.7"/>
			<ellipse fill="#FAAF6C" cx="480" cy="355.4" rx="1.4" ry="1.7"/>
		</g>
		<g>
			<ellipse fill="#FAAF6C" cx="399.1" cy="360.4" rx="1.4" ry="1.7"/>
			<ellipse fill="#FAAF6C" cx="404.2" cy="360.4" rx="1.4" ry="1.7"/>
			<ellipse fill="#FAAF6C" cx="409.2" cy="360.4" rx="1.4" ry="1.7"/>
			<ellipse fill="#FAAF6C" cx="414.3" cy="360.4" rx="1.4" ry="1.7"/>
			<ellipse fill="#FAAF6C" cx="419.3" cy="360.4" rx="1.4" ry="1.7"/>
			<ellipse fill="#FAAF6C" cx="424.4" cy="360.4" rx="1.4" ry="1.7"/>
			<ellipse fill="#FAAF6C" cx="429.4" cy="360.4" rx="1.4" ry="1.7"/>
			<ellipse fill="#FAAF6C" cx="434.5" cy="360.4" rx="1.4" ry="1.7"/>
			<ellipse fill="#FAAF6C" cx="439.5" cy="360.4" rx="1.4" ry="1.7"/>
			<ellipse fill="#FAAF6C" cx="444.6" cy="360.4" rx="1.4" ry="1.7"/>
			<ellipse fill="#FAAF6C" cx="449.6" cy="360.4" rx="1.4" ry="1.7"/>
			<ellipse fill="#FAAF6C" cx="454.7" cy="360.4" rx="1.4" ry="1.7"/>
			<ellipse fill="#FAAF6C" cx="459.7" cy="360.4" rx="1.4" ry="1.7"/>
			<ellipse fill="#FAAF6C" cx="464.8" cy="360.4" rx="1.4" ry="1.7"/>
			<ellipse fill="#FAAF6C" cx="469.8" cy="360.4" rx="1.4" ry="1.7"/>
			<ellipse fill="#FAAF6C" cx="474.9" cy="360.4" rx="1.4" ry="1.7"/>
			<ellipse fill="#FAAF6C" cx="480" cy="360.4" rx="1.4" ry="1.7"/>
		</g>
		<g>
			<ellipse fill="#FAAF6C" cx="399.1" cy="365.4" rx="1.4" ry="1.7"/>
			<ellipse fill="#FAAF6C" cx="404.2" cy="365.4" rx="1.4" ry="1.7"/>
			<ellipse fill="#FAAF6C" cx="409.2" cy="365.4" rx="1.4" ry="1.7"/>
			<ellipse fill="#FAAF6C" cx="414.3" cy="365.4" rx="1.4" ry="1.7"/>
			<ellipse fill="#FAAF6C" cx="419.3" cy="365.4" rx="1.4" ry="1.7"/>
			<ellipse fill="#FAAF6C" cx="424.4" cy="365.4" rx="1.4" ry="1.7"/>
			<ellipse fill="#FAAF6C" cx="429.4" cy="365.4" rx="1.4" ry="1.7"/>
			<ellipse fill="#FAAF6C" cx="434.5" cy="365.4" rx="1.4" ry="1.7"/>
			<ellipse fill="#FAAF6C" cx="439.5" cy="365.4" rx="1.4" ry="1.7"/>
			<ellipse fill="#FAAF6C" cx="444.6" cy="365.4" rx="1.4" ry="1.7"/>
			<ellipse fill="#FAAF6C" cx="449.6" cy="365.4" rx="1.4" ry="1.7"/>
			<ellipse fill="#FAAF6C" cx="454.7" cy="365.4" rx="1.4" ry="1.7"/>
			<ellipse fill="#FAAF6C" cx="459.7" cy="365.4" rx="1.4" ry="1.7"/>
			<ellipse fill="#FAAF6C" cx="464.8" cy="365.4" rx="1.4" ry="1.7"/>
			<ellipse fill="#FAAF6C" cx="469.8" cy="365.4" rx="1.4" ry="1.7"/>
			<ellipse fill="#FAAF6C" cx="474.9" cy="365.4" rx="1.4" ry="1.7"/>
			<ellipse fill="#FAAF6C" cx="480" cy="365.4" rx="1.4" ry="1.7"/>
		</g>
		<g>
			<ellipse fill="#FAAF6C" cx="399.1" cy="370.5" rx="1.4" ry="1.7"/>
			<ellipse fill="#FAAF6C" cx="404.2" cy="370.5" rx="1.4" ry="1.7"/>
			<ellipse fill="#FAAF6C" cx="409.2" cy="370.5" rx="1.4" ry="1.7"/>
			<ellipse fill="#FAAF6C" cx="414.3" cy="370.5" rx="1.4" ry="1.7"/>
			<ellipse fill="#FAAF6C" cx="419.3" cy="370.5" rx="1.4" ry="1.7"/>
			<ellipse fill="#FAAF6C" cx="424.4" cy="370.5" rx="1.4" ry="1.7"/>
			<ellipse fill="#FAAF6C" cx="429.4" cy="370.5" rx="1.4" ry="1.7"/>
			<ellipse fill="#FAAF6C" cx="434.5" cy="370.5" rx="1.4" ry="1.7"/>
			<ellipse fill="#FAAF6C" cx="439.5" cy="370.5" rx="1.4" ry="1.7"/>
			<ellipse fill="#FAAF6C" cx="444.6" cy="370.5" rx="1.4" ry="1.7"/>
			<ellipse fill="#FAAF6C" cx="449.6" cy="370.5" rx="1.4" ry="1.7"/>
			<ellipse fill="#FAAF6C" cx="454.7" cy="370.5" rx="1.4" ry="1.7"/>
			<ellipse fill="#FAAF6C" cx="459.7" cy="370.5" rx="1.4" ry="1.7"/>
			<ellipse fill="#FAAF6C" cx="464.8" cy="370.5" rx="1.4" ry="1.7"/>
			<ellipse fill="#FAAF6C" cx="469.8" cy="370.5" rx="1.4" ry="1.7"/>
			<ellipse fill="#FAAF6C" cx="474.9" cy="370.5" rx="1.4" ry="1.7"/>
			<ellipse fill="#FAAF6C" cx="480" cy="370.5" rx="1.4" ry="1.7"/>
		</g>
	</g>
	<path fill="#333333" d="M403.3,305.1v54.2c0,1.8,2.8,1.8,2.8,0v-54.2C406,303.3,403.3,303.3,403.3,305.1z"/>
	<path fill="#333333" d="M479.7,299.1h-21.1c-1.9-2.1-3.8-4.2-5.6-6.5h25.8c1.8,0,1.8-2.8,0-2.8H460c3.8-1.8,7.4-4.4,9.9-7.1
		c4.2-4.4,3.4-10.8-2.5-13c-6.1-2.3-13.6,3.8-17.8,7.5c-1.5,1.3-4.9,4.4-6.3,7.4c-1.4-1-3.1-1.5-5.2-1.3c-0.8,0.1-1.8,0.4-2.8,0.8
		c3.1-7,5.7-16.2,1.1-22.5c-3.9-5.3-12.4-0.9-16.7,1.4c-4.9,2.6-12.1,7.1-6.7,12.9c2.7,2.9,6.6,4.9,9.8,7.3c1.9,1.4,3.8,2.8,5.8,4.2
		c-0.4,0-0.7,0.1-1.1,0.2c-1.3,0.4-2.6,1.3-3.8,2.3h-22.3c-1.8,0-1.8,2.8,0,2.8h19.3c-1.8,1.8-3.1,4-4.3,6.2c0,0.1-0.1,0.2-0.1,0.3
		h-15.4c-1.8,0-1.8,2.8,0,2.8h15.2c0.3,1.3,1.1,2.7,1.5,4.1c0.3,1,1.6,1.3,2.3,0.6c1.1-1,2.3-2,3.5-3c0.1,0.3,0.2,0.6,0.4,0.8
		c0.4,0.8,1.6,0.9,2.2,0.3c0.8-0.9,1.6-1.9,2.3-2.8h3.7v66.7h-26.9c-1.8,0-1.8,2.8,0,2.8h37.5c0,1.8,2.8,1.8,2.8,0h31.1
		c0.7,0,1.1-0.5,1.3-1c0.7,0.1,1.5-0.4,1.5-1.3v-61.6c0-1.8-2.8-1.8-2.8,0v61.2h-31.1v-66.7h3.5c1,4.3,1.3,8.9,2.6,13.3
		c0.4,1.5,2.8,1.2,2.7-0.4c-0.2-3.7,0.9-7,1.8-10.4c1.8,0.9,3.7,1.5,5.7,2c1.4,0.3,2.2-1.3,1.4-2.3c-0.6-0.8-1.3-1.5-2-2.3h18.6
		C481.5,301.9,481.5,299.1,479.7,299.1z M427.2,298.6c-0.3,0.7-0.7,1.4-1.3,2c-0.2,0.2-0.4,0.2-0.6,0.2c-0.4,0.4-1,0.2-1.2-0.3
		c-0.1-0.3-0.2-0.6-0.2-1c-0.9,0.8-1.8,1.6-2.7,2.3h0c-0.1,0.1-0.2,0.2-0.4,0.3c0,0,0,0.1-0.1,0.1c0,0,0,0-0.1,0
		c-0.4,0.3-0.7,0.6-1.1,1c-0.1-0.3-0.2-0.7-0.3-1c0-0.1-0.1-0.1-0.1-0.2c0,0,0-0.1,0-0.1c0,0,0,0,0,0h0c0,0,0,0,0,0
		c-0.1-0.4-0.1-0.8-0.1-1.2c0-1.3,0.4-2.4,1.3-3.4c0.1-0.1,0.2-0.2,0.3-0.2c0.7-1,1.5-2,2.4-2.9c0.4-0.4,0.9-0.9,1.5-1.5h5.8
		C429.4,294.7,428.4,296.7,427.2,298.6z M432,299.1h-1.9c0.7-1.1,1.3-2.3,1.9-3.4V299.1z M431.2,282.2c-3.8-3.3-9.3-8.2-5.6-10.8
		C433.2,266.1,432,278.1,431.2,282.2z M426.1,268.1c-3.8,1.3-5.6,4.4-4,8.1c1.7,3.8,5.7,6.4,8.7,9.3c-2.7-1.9-5.4-3.8-8-5.9
		c-1.7-1.5-3.8-2.6-5.7-3.9c-1.1-0.8-2.1-1.6-2.9-2.7c-1.6-2.1,1.7-4.2,3-5.2c3.7-2.7,11.3-7.4,16.1-5.3c3.2,1.4,2.7,7.4,2.5,10.2
		c-0.1,2.2-0.6,4.4-1.4,6.6C435.1,273,434.1,265.3,426.1,268.1z M442.6,368.6h-7.9v-66.7h7.9V368.6z M442.6,293v6h-7.9v-6.5h8
		C442.7,292.7,442.6,292.9,442.6,293z M435.1,289.8c0-0.1,0-0.2,0.1-0.3c0.1-0.1,0.1-0.2,0.1-0.3c0.1-0.2,0.2-0.3,0.3-0.5
		c0.3-0.6,0.2-1.1-0.1-1.5c0.8-0.6,2.6-1,3.1-1.1c2.8-0.3,4.5,1.1,4.6,3.7H435.1z M464.9,272.2c2.6-0.1,5,1.9,5.1,4.5
		c0.2,3-3.5,5.6-5.6,7.1c-3.7,2.7-9,5.5-13.7,5.5c5.7-2.4,13.9-7.4,10.3-12c-1.6-2-3.6-2-5.7-1.1
		C458.2,274.1,461.5,272.4,464.9,272.2z M451,283.2c1.3-1.4,5.1-5.7,7.4-4.6c2.8,1.4-3.9,5.4-4.7,5.9c-2,1.2-4.2,2.5-6.5,3.1
		C448.4,286.1,449.7,284.6,451,283.2z M445.4,299.1v-5.2c1.2,1.6,2.1,3.4,2.7,5.2H445.4z M454,299.1c0.1,0.5,0,0.9-0.2,1.4v0.4
		c0,0.2-0.1,0.3-0.2,0.5c0,0.2,0,0.4,0.1,0.6h0.2c0,0,0,0.1,0,0.1c-0.4,1.6-0.9,3.2-1.3,4.8c-0.3-1.7-0.6-3.3-0.9-4.9h0.1
		c-0.4-1.3-1-2.5-1.2-3.9c-0.6-1.9-1.5-3.7-2.7-5.4h1.6c1.2,1.6,2.5,3.2,3.9,4.7c0.2,0.1,0.3,0.2,0.4,0.4c0.4,0.5,0.8,0.9,1.2,1.4
		H454z"/>
</g>
<g>
	<path fill="#A7DCD2" d="M544.4,335.7l4.3-4.5l4.8,4.5h1.4l-5.5-5.2l8.7-9.1l9.2,8.7l-5.4,5.6h1.3l4.8-5l5.3,5h1.4l-6-5.7l7.9-8.3
		v-1.3l-8.6,9l-9.2-8.7l8.7-9.1l9,8.6v-1.3l-8.4-8l8.4-8.8v-2l-8.8-8.4l8.7-9.1l0.1,0.1v-1.6l-0.1,0.2l-9.1-8.6h-1.4l-8.7,9.1
		L548,273l0.4-0.4h-2.1l0.4,0.4l-8.7,9.1l-9.2-8.7l0.8-0.9h-1.3l-0.2,0.2l-0.2-0.2h-1.4l0.9,0.9l-7,7.3v1.4l7.7-8l9.2,8.7l-8.7,9.1
		l-8.1-7.7v1.3l7.5,7.1l-7.5,7.8v1.4l8.1-8.5l9.2,8.7l-8.7,9.1l-8.6-8.1v1.3l7.9,7.5l-7.9,8.3v1.4l8.6-9l9.2,8.7l-8.7,9.1l-9-8.6
		v1.3l8.4,8l-4.5,4.7h1.3l3.9-4l4.3,4h1.4l-5-4.7l8.7-9.1l9.2,8.7l-4.9,5.2H544.4z M558.1,320.1l-9.2-8.7l8.7-9.1l9.2,8.7
		L558.1,320.1z M548.2,310.7l-9.2-8.7l8.7-9.1l9.2,8.7L548.2,310.7z M576.2,301.1l-8.7,9.1l-9.2-8.7l8.7-9.1L576.2,301.1z
		 M566.5,273.2l9.2,8.7l-8.7,9.1l-9.2-8.7L566.5,273.2z M557.2,283l9.2,8.7l-8.7,9.1l-9.2-8.7L557.2,283z M547.3,273.7l9.2,8.7
		l-8.7,9.1l-9.2-8.7L547.3,273.7z M529.2,292.6l8.7-9.1l9.2,8.7l-8.7,9.1L529.2,292.6z M538.8,320.5l-9.2-8.7l8.7-9.1l9.2,8.7
		L538.8,320.5z M539.5,321.2l8.7-9.1l9.2,8.7l-8.7,9.1L539.5,321.2z"/>
	<path fill="#333333" d="M575.2,275.6h-24.6v-12.5h23.6c1.8,0,1.8-2.8,0-2.8h-7.8c0,0,0,0,0,0c2.6-2.1,4.1-5.3,5.8-8.1
		c0.7-1.1-0.7-2.7-1.9-1.9c-1,0.7-2,1.3-3.1,1.9c0.4-1.3,0.7-2.7,0.9-4c0.4-1.7-2.2-2.5-2.7-0.7c-0.8,3-2.9,5.3-5.4,7
		c2.6-3.7,2.7-8.2-2.6-11.6c-5.1-3.2-9.5,1.2-12.4,6.6c0-7.1-1.4-14.5-8-14c-9.6,0.7-8.6,10.6-4.6,18.2c-2.1-1.4-4.4-3-5.8-5.1
		c-0.9-1.4-2.8-0.5-2.5,1.1c0.2,1.2,0.4,2.4,0.7,3.6c-1-0.3-1.9-0.5-2.8-1c-0.9-0.5-2.2,0.1-2.1,1.2c0.2,3.2,2.2,5.5,5,7h-9.6
		c-1.5,0-1.7,1.9-0.7,2.6c-0.4,0.2-0.7,0.6-0.7,1.1v11.6c0,1.1,1.1,1.5,1.9,1.2c-0.1,0.7,0.4,1.5,1.3,1.5H540v59.8h-15.8v-58.4
		c0-1.8-2.8-1.8-2.8,0V340c0,1.4,1.7,1.7,2.5,0.9c0.1,0,0.2,0.1,0.3,0.1h48.7c1.8,0,1.8-2.8,0-2.8h-22.2v-59.8h24.6
		C577,278.4,577,275.6,575.2,275.6z M563.7,255.2c0.2,0.7,1,1.2,1.7,1c0.6-0.3,1.2-0.5,1.8-0.8c-0.5,0.8-1.1,1.6-1.8,2.3
		c-2.2,2.2-5.8,2.2-8.7,2.2c-0.5,0-0.8,0.2-1,0.5h-2.3c0.1,0,0.3,0,0.4,0C557.3,259.3,560.9,257.6,563.7,255.2z M523.6,255.6
		c1,0.3,2,0.5,3,1c1,0.4,2-0.8,1.7-1.7c-0.2-0.4-0.3-0.8-0.4-1.3c0.8,0.7,1.7,1.3,2.5,1.9c1.4,1,5.3,3,6,4.2
		C532.6,260.2,525.8,259.1,523.6,255.6z M540,275.6h-22.7c-0.2,0-0.3,0-0.5,0.1c0,0,0-0.1,0-0.1V264c0-0.4-0.2-0.7-0.4-0.9H540
		V275.6z M540.5,253.3c-0.8-1.8-1.3-3.7-0.9-5.5C540.7,249.3,540.8,251.4,540.5,253.3z M539.7,244.3c-0.7-0.4-1.5-0.2-1.9,0.5
		c-2.8,4.8,0.2,9.3,2.1,13.8c-3.2-2.4-5.3-6.7-6.6-10.2c-0.8-2.2-1.2-4.5-0.6-6.8c0.6-2.4,4.8-4.4,6.9-2.8c2.1,1.6,2.8,4.9,3,8.5
		C541.9,246.1,541.1,245.1,539.7,244.3z M547.8,338.2h-5.1v-59.8h5.1V338.2z M547.8,275.6h-5.1v-12.5h5.1V275.6z M549.4,256.1
		c0,0.1,0,0.2-0.1,0.3c0,0,0,0,0,0c0,0.1-0.1,0.1-0.1,0.2c0,0,0,0.1-0.1,0.1c0,0,0,0,0,0c-0.1,0.1-0.2,0.2-0.2,0.2
		c0,0-0.3,0.2-0.3,0.2c0,0-0.1,0-0.1,0.1c0,0-0.2,0.1-0.3,0.1c-0.2,0.1-0.4,0.1-0.6,0.2c-0.1,0-0.2,0-0.2,0c0,0-0.2,0-0.3,0
		c-0.3,0-0.7,0-1,0c0.1-0.5,0.1-0.9,0.2-1.4c0.1-0.3,0.1-0.5,0.2-0.8c0-0.1,0.1-0.2,0.1-0.4c0-0.1,0-0.1,0.1-0.2c0,0,0,0,0,0
		c0.1-0.2,0.2-0.4,0.3-0.5c0-0.1,0.1-0.1,0.1-0.2c0,0,0,0,0,0c0.1-0.1,0.2-0.2,0.2-0.2c0,0,0.1-0.1,0.2-0.1c0.1,0,0.1,0,0.2-0.1
		c0,0,0.1,0,0.1,0c0,0,0,0,0,0c0,0,0,0,0,0c0.1,0,0.1,0,0.2,0c0,0,0,0,0,0c0.1,0,0.2,0.1,0.3,0.2c0,0,0,0,0.1,0c0,0,0,0,0,0
		c0.1,0.1,0.2,0.2,0.3,0.3c0,0,0.1,0.1,0.1,0.1c0,0,0,0,0,0c0.1,0.1,0.2,0.2,0.2,0.4c0,0,0.1,0.1,0.1,0.2c0.1,0.2,0.2,0.5,0.2,0.7
		c0,0.1,0,0.2,0,0.2S549.4,256,549.4,256.1z M548.9,251c-0.5-0.2-1-0.2-1.4-0.1c1.4-2.4,3.1-4.5,5.1-5.9c2.2-1.4,4,0.4,5.2,2.1
		c1.7,2.4,1.1,5.1-0.6,7.2c-1.4,1.7-3.4,3-5.6,3.8c0.7-1.1,0.9-2.6,0.4-3.9C551.4,252.8,550.3,251.6,548.9,251z"/>
	<path fill="#333333" d="M578.4,267.3v8.3c0,1.8,2.8,1.8,2.8,0v-8.3C581.2,265.5,578.4,265.5,578.4,267.3z"/>
	<path fill="#333333" d="M574.3,285.8v50.5c0,1.8,2.8,1.8,2.8,0v-50.5C577,284,574.3,284,574.3,285.8z"/>
</g>
<g>
	<g>
		<rect x="233.5" y="281.6" fill="#F8A3A9" width="117" height="9"/>
		<rect x="233.5" y="298.3" fill="#F8A3A9" width="117" height="9"/>
		<rect x="233.5" y="313.6" fill="#F8A3A9" width="117" height="9"/>
		<rect x="233.5" y="330.2" fill="#F8A3A9" width="117" height="9"/>
		<rect x="233.5" y="345.5" fill="#F8A3A9" width="117" height="9"/>
		<rect x="233.5" y="362.2" fill="#F8A3A9" width="117" height="9"/>
		<rect x="233.5" y="377.5" fill="#F8A3A9" width="117" height="9"/>
		<rect x="233.5" y="394.2" fill="#F8A3A9" width="117" height="9"/>
	</g>
	<path fill="#333333" d="M339,305.9V394c0,1.8,2.8,1.8,2.8,0v-88.1C341.7,304.1,339,304.1,339,305.9z"/>
	<path fill="#333333" d="M350.1,283.2h-23.8c2.5-1.1,4.5-3.1,5.2-5.8c0.2-0.9-0.4-1.8-1.3-1.8c-1.5,0-2.9,0.3-4.4,0.4
		c0,0,0-0.1,0.1-0.1c0.6-1-0.4-2.5-1.6-2c-1.2,0.4-2.3,1-3.5,1.6c1.6-2.6,2-5.6,0.6-8.9c-2.5-5.6-10.3-9.8-15.8-6.5
		c-5.6,3.3-9.3,11.8-9.3,18.6c-2-1.5-4.6-2.2-6.8-1.4c-0.1-4.9-1.1-8.7-4.5-12.7c-3.8-4.4-8.8-8.8-14.9-6.3c-0.5,0.2-1.1,0.7-1,1.3
		c0.7,5.9-2.1,12.9,0.7,18.4c-6.8-1.3-13.5-2.6-20.5-2.8c-1.1,0-1.9,1.6-1,2.4c0.6,0.5,1.2,1.1,1.8,1.6c-0.5,0.2-1,0.5-1.5,0.7
		c-0.9,0.4-0.9,2,0,2.4c0.7,0.3,1.4,0.6,2,0.8h-8.9c-1.8,0-1.8,2.8,0,2.8h43.1v13h-41.2v-8.8c0-1.8-2.8-1.8-2.8,0v12.5
		c0,1.8,2.8,1.8,2.8,0v-0.9h41.2v95h-37.9c0.2-0.2,0.4-0.5,0.4-0.9v-87.1c0-1.8-2.8-1.8-2.8,0v87.1c0,0.6,0.3,0.9,0.7,1.1
		c-1,0.6-0.8,2.6,0.7,2.6h84.4c1.8,0,1.8-2.8,0-2.8h-32v-95h50.5c1.8,0,1.8-2.8,0-2.8h-50.5v-13h51.9
		C351.9,286,351.9,283.2,350.1,283.2z M253.6,278.9c-0.2-0.2-0.4-0.4-0.6-0.5c6.1,0.5,12,1.7,18,2.9c0.3,0.1,0.6,0,0.8-0.1
		c0.2,0.2,0.4,0.3,0.6,0.5c-3-0.2-6-0.3-9-0.3c-3.1,0-6.8,0.3-10.1-0.2C254.1,280.6,254.3,279.4,253.6,278.9z M283.8,272.2
		c-1.3-1.7-3.3-4.4-5.8-3.7c-3.1,0.8-2.7,5.2-1.3,7.2c1.8,2.6,5.1,4.7,8.1,5.8c-5.5,1.4-11.1-0.3-13.3-6.1c-1.7-4.4,0.5-10,0.3-14.7
		c4.6-1.2,8.2,2.5,11.1,5.9c2.8,3.3,3.6,6.3,3.7,10.2C285.8,275.2,284.9,273.7,283.8,272.2z M284.3,278.3c-1.6-0.8-3.1-1.8-4.4-3
		c-0.8-0.8-1.9-1.9-1.6-3.1c0.1-0.4,0.2-0.7,0.5-1c0,0,0,0,0.1,0c1.6,0.7,2.8,2.8,3.8,4.3C283.3,276.4,283.8,277.3,284.3,278.3z
		 M295.4,396.7h-7.9v-95h7.9V396.7z M295.4,299h-7.9v-13h7.9V299z M295.8,283.2h-8.3v0c0-0.2-0.1-0.4-0.1-0.6c0.5,0.1,1-0.1,1.2-0.7
		c1.7-3.8,6.2-2.1,7.7,1C296.1,282.9,295.9,283,295.8,283.2z M301.7,279.2c1-2.5,2.2-5.1,4-7.2c1-1.2,2.3-2.2,3.9-1.4
		c1.1,0.6,2.1,1.5,1.4,2.7c-1.2,2.2-4.4,3.5-6.5,4.6C303.6,278.4,302.6,278.8,301.7,279.2z M308.9,278.8c2.5-1.5,6-4,5-7.3
		c-1.1-3.7-5.9-4.8-8.8-2.6c-3,2.3-4.7,6.2-6.1,9.8c-0.1-5.4,2.9-11.1,6.4-14.8c2.9-3.1,6-2.6,9.2-0.4c2.3,1.5,4.6,3.8,4.9,6.6
		c0.4,3.9-3.7,7-6.7,8.8c-3,1.8-6.7,3-10.3,3C304.7,280.8,306.9,279.9,308.9,278.8z M320.4,281.3c-1.3-0.3-2,1-1.6,1.9h-9.1
		c1.8-0.6,3.7-1.4,5.3-2.4c0.3,0.1,0.5,0.1,0.9,0c2-0.7,3.8-1.7,5.6-2.6c0.2,0.5,0.6,1,1.3,1c1.7-0.1,3.3-0.3,5-0.5
		C326.2,280.8,323,281.8,320.4,281.3z"/>
</g>
<g>
	<g>
		<circle fill="#90B9CD" cx="309.8" cy="126.4" r="6.3"/>
		<circle fill="#90B9CD" cx="309.8" cy="169" r="6.3"/>
		<path fill="#90B9CD" d="M278.3,120.1v12.5c3.5,0,6.3-2.8,6.3-6.3C284.6,122.9,281.8,120.1,278.3,120.1z"/>
		<circle fill="#90B9CD" cx="309.8" cy="211.5" r="6.3"/>
		<circle fill="#90B9CD" cx="293.9" cy="190.2" r="6.3"/>
		<path fill="#90B9CD" d="M278.3,162.7v12.5c3.5,0,6.3-2.8,6.3-6.3C284.6,165.5,281.8,162.7,278.3,162.7z"/>
		<path fill="#90B9CD" d="M284.6,211.5c0-3.5-2.8-6.3-6.3-6.3v12.5C281.8,217.8,284.6,215,284.6,211.5z"/>
		<circle fill="#90B9CD" cx="293.9" cy="105.1" r="6.3"/>
		<circle fill="#90B9CD" cx="325.3" cy="190.2" r="6.3"/>
		<path fill="#90B9CD" d="M397.9,126.4c0,3.5,2.8,6.3,6.3,6.3v-12.5C400.7,120.1,397.9,122.9,397.9,126.4z"/>
		<circle fill="#90B9CD" cx="325.3" cy="147.7" r="6.3"/>
		<circle fill="#90B9CD" cx="325.3" cy="105.1" r="6.3"/>
		<circle fill="#90B9CD" cx="341.2" cy="169" r="6.3"/>
		<circle fill="#90B9CD" cx="293.9" cy="147.7" r="6.3"/>
		<circle fill="#90B9CD" cx="341.2" cy="126.4" r="6.3"/>
		<circle fill="#90B9CD" cx="341.2" cy="211.5" r="6.3"/>
		<circle fill="#90B9CD" cx="356.8" cy="190.2" r="6.3"/>
		<path fill="#90B9CD" d="M388.2,226.6c-3.5,0-6.3,2.8-6.3,6.3h12.5C394.5,229.4,391.7,226.6,388.2,226.6z"/>
		<circle fill="#90B9CD" cx="356.8" cy="105.1" r="6.3"/>
		<circle fill="#90B9CD" cx="356.8" cy="147.7" r="6.3"/>
		<path fill="#90B9CD" d="M356.8,226.6c-3.5,0-6.3,2.8-6.3,6.3H363C363,229.4,360.2,226.6,356.8,226.6z"/>
		<path fill="#90B9CD" d="M325.3,226.6c-3.5,0-6.3,2.8-6.3,6.3h12.5C331.6,229.4,328.8,226.6,325.3,226.6z"/>
		<path fill="#90B9CD" d="M293.9,226.6c-3.5,0-6.3,2.8-6.3,6.3h12.5C300.1,229.4,297.3,226.6,293.9,226.6z"/>
		<circle fill="#90B9CD" cx="388.2" cy="105.1" r="6.3"/>
		<circle fill="#90B9CD" cx="388.2" cy="147.7" r="6.3"/>
		<circle fill="#90B9CD" cx="372.7" cy="126.4" r="6.3"/>
		<path fill="#90B9CD" d="M397.9,169c0,3.5,2.8,6.3,6.3,6.3v-12.5C400.7,162.7,397.9,165.5,397.9,169z"/>
		<path fill="#90B9CD" d="M397.9,211.5c0,3.5,2.8,6.3,6.3,6.3v-12.5C400.7,205.3,397.9,208.1,397.9,211.5z"/>
		<circle fill="#90B9CD" cx="372.7" cy="211.5" r="6.3"/>
		<circle fill="#90B9CD" cx="388.2" cy="190.2" r="6.3"/>
		<circle fill="#90B9CD" cx="372.7" cy="169" r="6.3"/>
	</g>
	<path fill="#333333" d="M404.7,104.6c-0.1-0.6-0.5-1.3-1.3-1.3h-66.6c-0.5-0.5-1.5-0.5-2,0h-51.8c-1.8,0-1.8,2.8,0,2.8h51.4v16.2
		h-50.1c-1.8,0-1.8,2.8,0,2.8h50.1v102.4h-51.9c-1.8,0-1.8,2.8,0,2.8h114c0.7,0,1.1-0.4,1.3-1c0.7,0.8,2.4,0.5,2.4-0.9V124.7
		c0-0.5-0.2-0.8-0.5-1.1c-0.1-0.6-0.5-1.3-1.3-1.3h-52.4v-16.2h56.5v15.3c0,1.8,2.8,1.8,2.8,0v-15.8
		C405.2,105.2,405,104.8,404.7,104.6z M337.1,125.2h6v102.4c0,0,0,0,0,0h-6V125.2z M397.4,125.2V228c-0.2-0.2-0.5-0.4-0.9-0.4h-50.5
		c0,0,0,0,0,0V125.2H397.4z M343.1,122.4h-6v-16.2h6V122.4z"/>
	<path fill="#333333" d="M275.5,109.9v13.4c0,1.8,2.8,1.8,2.8,0v-13.4C278.2,108.1,275.5,108.1,275.5,109.9z"/>
	<path fill="#333333" d="M282,127v78.8c0,1.8,2.8,1.8,2.8,0V127C284.7,125.2,282,125.2,282,127z"/>
	<path fill="#333333" d="M366,88.3c-0.5-4.3-4.9-4.8-8.6-4.1c5.4-5.4,11-12.8,3.4-17.5c-3-1.9-6,0.2-8.5,3.4
		c0.3-5.9-1.2-11.4-6.6-12.7c-6.4-1.5-9.9,3.5-11.1,9.7c-2.2-6.2-6.3-10.2-12.6-5.1c-5,4.1-0.9,13.9,1.1,18.4
		c0.4,0.9,1.1,2.5,2.1,4.3c-2.5-0.2-4.7,1.2-5.4,4.6c-0.8,4.2,3.4,8.6,6.1,11.1c2.3,2.2,6.4,5.8,9.8,4.3c0.1,0,0.1-0.1,0.2-0.1
		c0.5,1.1,2.3,0.6,2.5-0.6c0.8,1.1,2.9,0.4,2.5-1.2c-0.5-1.8-1.9-7.2,0.7-7.9c3-0.8,0.5,6.2-0.1,7.3c-0.9,1.6,1.5,3,2.4,1.4
		c0.1-0.1,0.1-0.3,0.2-0.4c0.2,0,0.3,0,0.5-0.1c-0.3,0.6-0.2,1.3,0.5,1.7C352.3,108.4,366.9,95.8,366,88.3z M323.9,64
		c5-5.6,8.4,4.1,9.1,7.5c0.6,2.8,1.1,6.1,0.9,9.2c0-0.2,0-0.3-0.1-0.5c-0.4-2.3-1-6.9-3.9-7.4c-3.8-0.7-4.4,4.3-3.6,6.8
		c0.8,2.6,2.8,6.9,5.6,8.6c0.1,0.3,0.1,0.6,0.2,0.9c-0.7-0.9-1.6-1.7-2.6-2.4c-1.7-2.6-3.2-5.8-3.6-6.6
		C324,76.1,320.4,68.1,323.9,64z M331.5,83.6c0-0.1-0.1-0.1-0.1-0.2c-1-1.4-1.7-2.9-2.3-4.5c-0.6-1.9,0.1-4.9,1.2-1.8
		C331,79.2,331.3,81.4,331.5,83.6z M326,96.7c-1.5-1.6-2.8-3.5-3.4-5.6c-0.5-1.5,0.3-4,2.2-3.7c0.9,0.1,1.8,0.6,2.6,1.1
		c0.8,1.2,1.7,2.3,2.7,3c-1-0.2-1.9,0-2.8,0.9C326.2,93.6,325.8,95.1,326,96.7z M329.2,94.4c0.8-1,4.5,5.3,4.8,6.1
		c0.1,0.4,0.4,0.7,0.7,0.8l0,0.1C331.8,100.2,326.8,97.5,329.2,94.4z M358.2,69.1c3.9-1.4,3.3,4.9,2.7,6.1c-0.8,1.9-2.3,3.6-3.7,5.1
		c-0.9,1-1.8,1.9-2.7,2.8c0.7-1.3,1.1-2.6,1-4.1c0-0.8-0.6-1.4-1.4-1.4c-1.3-0.1-2.4,0.3-3.3,0.9c0.1-0.5,0.3-0.9,0.4-1.4
		C352.9,73.5,355.3,70.2,358.2,69.1z M349.7,85c0.4-1.8,1.2-3.7,2.8-4.4C352.1,82.3,350.9,83.7,349.7,85z M344.7,93.1
		c-0.6-0.6-1.5-1-2.7-0.9c-3.3,0.1-4.4,2.7-4.5,5.5c-1-6.3-1.7-14.3,3.6-16.2C345.8,79.8,345.7,86.8,344.7,93.1z M341.9,70.8
		c0.2-1.3,0.7-2.3,1.8-3c0.7-0.4,0.7-0.4,0.8,0.3c0.8,3-0.4,7.5-1.5,10.4c0,0,0,0,0,0.1c-0.1,0-0.3,0-0.4,0c0,0,0,0,0,0
		C341.8,76.1,341.5,73.4,341.9,70.8z M345.6,79.5c0-0.1,0.1-0.1,0.1-0.2c0.9-2.2,1.3-4.7,1.6-7c0.3-2.1,0.6-5.5-1.4-6.9
		c-2.3-1.7-5.3,0.9-6.1,3c-1.4,3.2-1,7.4,0,10.7c-0.7,0.2-1.3,0.5-1.9,0.9c-2.4-6.7-0.9-23.3,8.3-19.3c4.6,2,3.8,10.4,2,16.4
		c-0.6,1.4-1.2,2.7-1.5,3.7C346.4,80.2,346,79.8,345.6,79.5z M346.9,102.3c-0.1,0.1-0.1,0.1-0.2,0.2c-0.1,0-0.1,0-0.2-0.1
		c-0.1,0-0.2-0.1-0.3-0.1c0,0,0,0,0.1-0.1c1-2.1,5.3-11.5,8.5-8.7C356.6,95.2,348.1,101.3,346.9,102.3z M362.6,91.4
		c-1.1,2.4-5.6,7.4-9.9,9.9c3.4-2.8,6.8-6.4,4-9.6c-2.2-2.5-5.4-1.1-7.4,0.7c-0.5,0.5-1,1-1.4,1.5c1-1.8,2.3-3.4,4.1-4.7
		C354.9,87.1,365.7,84.6,362.6,91.4z"/>
</g>
<g>
	<path fill="#333333" d="M421,240.3c-1.3,0-1.3,2,0,2S422.3,240.3,421,240.3z"/>
	<path fill="#333333" d="M482.3,248.3c-1.3,0-1.3,2,0,2S483.6,248.3,482.3,248.3z"/>
	<path fill="#333333" d="M517.7,377c-1.3,0-1.3,2,0,2S519,377,517.7,377z"/>
	<g>
		<path fill="#333333" d="M151.7,319.3c-0.9-0.9-2.3,0.5-1.4,1.4c0.1,0.1,0.2,0.2,0.3,0.3c0,0,0,0,0,0c0,0,0,0,0,0c0,0,0,0,0,0
			c0,0,0,0,0,0c0,0,0,0,0-0.1c0,0,0,0.1,0,0.1c0,0,0,0,0,0c0,0,0,0,0,0c0,0,0,0,0-0.1c0,0.1,0,0.2,0,0.2c0,1.3,2,1.3,2,0
			C152.7,320.4,152.3,319.9,151.7,319.3z"/>
		<rect x="150.7" y="321.1" fill="#333333" width="0" height="0"/>
	</g>
	<path fill="#333333" d="M246.3,156c-0.3,0.3-0.6,0.6-0.9,0.9c-0.9,0.9,0.5,2.3,1.4,1.4c0.1-0.1,0.1-0.1,0.2-0.2c0,0,0,0,0,0
		c0.2-0.2,0.4-0.4,0.7-0.7C248.6,156.5,247.2,155,246.3,156z"/>
	<path fill="#333333" d="M215,77c-1.3,0-1.3,2,0,2S216.3,77,215,77z"/>
	<path fill="#333333" d="M61.7,150.3c-0.1-0.1-0.2-0.3-0.4-0.4c0,0,0,0,0,0c-0.1-0.5-0.4-0.9-1-0.9c-0.5,0-1,0.5-1,1
		c0,0.4,0.1,0.7,0.3,1c0.1,0.1,0.2,0.3,0.3,0.4c0,0,0,0,0,0c0.1,0.5,0.4,0.9,1,0.9c0.5,0,1-0.5,1-1C62,151,61.9,150.6,61.7,150.3z"
		/>
	<path fill="#333333" d="M78.3,258.3h-0.7c-1.3,0-1.3,2,0,2h0.7C79.6,260.3,79.6,258.3,78.3,258.3z"/>
	<path fill="#333333" d="M395.7,423.7c-1.3,0-1.3,2,0,2S397,423.7,395.7,423.7z"/>
	<path fill="#333333" d="M371.7,345.3l-0.7-0.7c-0.9-0.9-2.3,0.5-1.4,1.4l0.7,0.7C371.2,347.6,372.6,346.2,371.7,345.3z"/>
	<path fill="#333333" d="M378.7,264.7v0.7c0,1.3,2,1.3,2,0v-0.7C380.7,263.4,378.7,263.4,378.7,264.7z"/>
	<path fill="#333333" d="M239.7,241h-1.3c-1.3,0-1.3,2,0,2h1.3C241,243,241,241,239.7,241z"/>
	<path fill="#333333" d="M311.7,245.7H311c-1.3,0-1.3,2,0,2h0.7C313,247.7,313,245.7,311.7,245.7z"/>
	<path fill="#333333" d="M422.3,95.7c-1.3,0-1.3,2,0,2S423.6,95.7,422.3,95.7z"/>
	<path fill="#333333" d="M468,88.7v0.7c0,1.3,2,1.3,2,0v-0.7C470,87.4,468,87.4,468,88.7z"/>
	<path fill="#333333" d="M563,152.3c-1.3,0-1.3,2,0,2S564.3,152.3,563,152.3z"/>
	<path fill="#333333" d="M548.3,208.3c-1.3,0-1.3,2,0,2S549.6,208.3,548.3,208.3z"/>
	<path fill="#333333" d="M577,363.7c-1.3,0-1.3,2,0,2S578.3,363.7,577,363.7z"/>
	<circle fill="#333333" cx="588.3" cy="194.8" r="2.7"/>
	<circle fill="#333333" cx="185" cy="338.6" r="2.7"/>
	<circle fill="#333333" cx="250.7" cy="116.6" r="2.7"/>
	<circle fill="#333333" cx="67.7" cy="186.7" r="2.7"/>
	<circle fill="#333333" cx="376.2" cy="315.2" r="2.7"/>
	<circle fill="#333333" cx="476.3" cy="423.7" r="2.7"/>
	<circle fill="#333333" cx="137.7" cy="405.9" r="2.7"/>
	<circle fill="#333333" cx="433.1" cy="64.7" r="2.7"/>
	<circle fill="#333333" cx="622.3" cy="315.9" r="2.7"/>
	<circle fill="#333333" cx="574.3" cy="87.7" r="2.7"/>
	<circle fill="#333333" cx="170.3" cy="57.1" r="2.7"/>
	<circle fill="#333333" cx="59.3" cy="315.2" r="2.7"/>
	<circle fill="#333333" cx="579.8" cy="411.2" r="2.7"/>
</g>
</svg>
