<svg xmlns="http://www.w3.org/2000/svg" viewBox="0 0 82 82" x="0px" y="0px">
  <defs>
    <style>.cls-1{fill:#000000;}</style>
  </defs>
  <title>Fichier 1068</title>
  <g data-name="Calque 2">
    <g data-name="Calque 2">
      <path class="cls-1" d="M41.4,0a41.41,41.41,0,0,0-9,81.82A41.41,41.41,0,1,0,41.4,0ZM23.47,24.27a.53.53,0,0,1,.53-.53h5.45V29.6H24a.53.53,0,0,1-.53-.53Zm6.08,34.79H24.1a.53.53,0,0,1-.53-.53v-4.8a.53.53,0,0,1,.53-.53h5.45Zm0-9.82H24.1a.53.53,0,0,1-.53-.53v-4.8a.53.53,0,0,1,.53-.53h5.45Zm0-9.82H24.1a.53.53,0,0,1-.53-.53v-4.8a.53.53,0,0,1,.53-.53h5.45ZM59.16,58.53a.53.53,0,0,1-.53.53H33V53.2H58.63a.53.53,0,0,1,.53.53Zm.08-9.82a.53.53,0,0,1-.53.53H33V43.38H58.71a.53.53,0,0,1,.53.53Zm.07-9.82a.53.53,0,0,1-.53.53H33V33.56h25.8a.53.53,0,0,1,.53.53Zm0-9.82a.54.54,0,0,1-.54.53H32.88V23.74H58.79a.54.54,0,0,1,.54.53Z"/>
    </g>
  </g>
</svg>