<svg viewBox="0 0 48 60.00000125" version="1.1" x="0px" y="0px">
  <g transform="translate(0,-1004.3622)">
    <path style="" d="M 24 0 A 23.999992 23.999992 0 0 0 0 24 A 23.999992 23.999992 0 0 0 24 48 A 23.999992 23.999992 0 0 0 48 24 A 23.999992 23.999992 0 0 0 24 0 z M 21.804688 9.9785156 A 0.50004998 0.50004998 0 0 1 22.25 10.25 L 24 13.40625 L 25.75 10.25 A 0.50004998 0.50004998 0 0 1 26.03125 10 A 0.50004998 0.50004998 0 0 1 26.40625 10.0625 C 27.826182 10.8609 28.764548 12.3794 28.9375 14 L 36.5 14 A 0.50004998 0.50004998 0 0 1 37 14.5 L 37 19.5 A 0.50004998 0.50004998 0 0 1 36.5 20 L 36 20 L 36 36.5 A 0.50004998 0.50004998 0 0 1 35.5 37 L 12.5 37 A 0.50004998 0.50004998 0 0 1 12 36.5 L 12 20 L 11.5 20 A 0.50004998 0.50004998 0 0 1 11 19.5 L 11 14.5 A 0.50004998 0.50004998 0 0 1 11.34375 14 A 0.50004998 0.50004998 0 0 1 11.5 14 L 19.0625 14 C 19.235452 12.3794 20.173818 10.8609 21.59375 10.0625 A 0.50004998 0.50004998 0 0 1 21.65625 10 A 0.50004998 0.50004998 0 0 1 21.804688 9.9785156 z M 21.6875 11.3125 C 20.837136 11.9672 20.272499 12.9263 20.125 14 L 22.34375 14 L 23.1875 14 L 21.6875 11.3125 z M 26.3125 11.3125 L 24.8125 14 L 25.5 14 L 27.875 14 C 27.727502 12.9263 27.162864 11.9672 26.3125 11.3125 z M 12 15 L 12 19 L 22 19 L 22 15 L 12 15 z M 23 15 L 23 19 L 25 19 L 25 15 L 24.03125 15 L 23 15 z M 26 15 L 26 19 L 36 19 L 36 15 L 28.5 15 L 26 15 z M 13 20 L 13 36 L 22 36 L 22 20 L 13 20 z M 23 20 L 23 36 L 25 36 L 25 20 L 23 20 z M 26 20 L 26 36 L 35 36 L 35 20 L 26 20 z " transform="translate(0,1004.3622)" fill="currentcolor" fill-opacity="1" fill-rule="evenodd" stroke="none"/>
  </g>
</svg>