<?xml version="1.0" encoding="UTF-8"?>
<svg viewBox="0 0 1083 341" version="1.1" 
    xmlns="http://www.w3.org/2000/svg" 
    xmlns:xlink="http://www.w3.org/1999/xlink">
    <!-- Generator: Sketch 60.1 (88133) - https://sketch.com -->
    <title>g14</title>
    <desc>Created with Sketch.</desc>
    <g id="Page-1" stroke="none" stroke-width="1" fill="none" fill-rule="evenodd">
        <g id="wishlystlogo" transform="translate(-21.000000, -214.000000)">
            <g id="g10" transform="translate(561.500000, 397.706670) scale(-1, 1) rotate(-180.000000) translate(-561.500000, -397.706670) translate(0.000000, 0.706670)">
                <g id="g12">
                    <g id="g14-Clipped">
                        <g id="g14" transform="translate(21.333333, 239.666661)">
                            <g id="g20" transform="translate(249.040260, 56.753732)" fill="currentcolor" fill-rule="nonzero">
                                <path d="M433.333323,53.333332 C420.174656,46.1373322 408.83999,37.3039991 400.04399,25.618666 C398.27599,23.2693328 395.45599,20.0773328 397.881323,17.0986662 C401.053323,13.2026663 404.73999,16.4053329 407.473323,18.2533329 C420.147989,26.8213327 427.801323,39.327999 433.333323,53.333332 M253.867994,156.433329 C253.199994,155.166663 252.525327,153.933329 252.069327,152.50133 C255.091994,154.715996 257.87466,157.641329 260.82266,160.163996 C263.955993,162.845329 266.86266,165.842663 269.849327,168.693329 C279.131993,177.554662 292.843993,193.363995 300.343992,203.775995 C305.498659,210.933328 310.547992,218.330661 315.245325,225.845328 C316.739992,228.234661 319.198659,233.822661 316.569327,236.195994 C314.045325,238.474661 311.511992,237.037327 309.279992,235.375994 C307.465326,234.026661 305.581326,232.667994 304.106659,230.981328 C284.40266,208.454661 267.837327,182.915995 253.867994,156.433329 M434.721322,227.255994 C437.614656,232.261328 440.621322,237.325327 442.306656,242.893327 C443.125322,245.598661 445.902656,254.79066 440.491989,254.734915 C439.253322,254.721327 438.063989,254.20266 437.055989,253.483994 C436.047989,252.765327 435.197322,251.85066 434.355989,250.943994 C432.315989,248.74666 430.425323,246.425327 428.505323,244.115994 C417.794656,231.233328 408.19199,217.447995 399.66399,203.033328 C395.373323,195.781328 391.350657,188.370662 387.577324,180.837329 C385.67199,177.034662 383.830657,173.202662 382.049324,169.341329 C381.153324,167.399996 380.27199,165.450663 379.406657,163.495996 C378.954657,162.475996 378.506657,161.454663 378.062657,160.430663 C377.814657,159.859996 377.427991,158.173329 376.941324,157.823996 C381.270657,160.926663 385.35999,164.998663 389.01199,168.294662 C391.86799,170.871996 400.337323,181.197329 401.801323,182.877329 C408.217323,190.239995 412.745323,195.319995 418.150656,202.903995 C425.682656,213.471995 426.023989,212.206661 434.721322,227.255994 M578.890652,170.374662 C572.945319,162.631996 565.650653,156.057329 559.745319,148.275996 C553.982653,140.682663 550.675986,132.84133 549.179986,123.246664 C547.95332,115.387997 552.50532,106.582664 561.593319,108.741331 C582.418652,113.687997 582.333319,144.122663 580.274652,160.509329 C580.077319,162.071996 578.045319,169.273329 578.890652,170.374662 M127.638663,108.593331 C127.618663,109.074664 127.61333,109.635997 127.54933,110.065331 C123.922664,106.241331 120.686664,101.918664 117.11333,98.0039975 C113.309331,93.8359977 110.071997,89.0799978 106.487997,84.7199979 C101.526664,78.6866647 98.7639975,71.0959982 97.6559976,63.3053318 C96.9346642,58.2399985 97.4039976,51.2386654 101.287997,47.4173321 C107.181331,41.619999 113.842664,48.6933321 117.94133,52.8346653 C121.52133,56.4533319 123.96933,60.9079985 125.60133,65.6359984 C128.131997,72.9653315 129.170663,80.6893313 129.24933,88.4226645 C129.318663,95.2186643 127.930663,101.917331 127.638663,108.593331 M793.613313,168.957329 C778.435981,176.405329 776.259981,182.413329 759.086648,180.557329 C748.913315,179.457329 743.851981,175.563996 736.365315,168.481329 C726.366649,159.025329 718.958649,147.110663 710.139982,136.454663 C703.393316,128.30133 693.333316,119.46933 683.857316,114.81333 C665.849317,105.965331 645.331984,111.563997 636.211984,128.547997 C631.097318,127.506663 627.642651,123.63333 623.638651,120.767997 C604.702652,107.217331 583.505319,99.4559975 560.626653,96.1293309 C547.44932,94.2119976 537.242653,99.2759975 523.639987,114.047997 C510.034654,102.790664 496.159988,91.7199977 480.909321,82.5866646 C476.682655,80.055998 475.290655,75.5319981 473.174655,71.5679982 C463.930655,54.2466653 454.231989,37.2093324 440.758656,22.7386661 C430.282656,11.4866664 418.19999,2.7426666 402.222657,1.3813333 C394.214657,0.699999982 386.462657,1.74533329 381.63999,9.19466644 C376.519991,17.1026662 378.715991,24.906666 383.158657,32.3439992 C386.71999,38.3053324 391.665324,43.0186656 397.118657,47.2159988 C408.357323,55.8639986 420.287989,63.6613317 433.310656,69.0479983 C446.485322,74.4959981 453.018655,84.0759979 456.258655,98.1119975 C451.846655,97.9399976 449.751989,94.6799976 447.131989,92.7519977 C440.125322,87.5959978 432.943989,82.7239979 424.637323,79.987998 C411.92399,75.8013314 405.046657,78.5173314 393.154657,91.809331 C355.342658,60.0973318 333.966658,63.6559984 319.487992,86.3399978 C314.775992,82.1786646 310.273326,77.9533314 305.509326,74.0479981 C296.623993,66.7653317 287.059993,60.8119985 275.48666,58.5586652 C253.62666,54.3039986 241.946661,67.2573317 248.655994,88.6226645 C252.379994,100.481331 259.24266,110.743997 265.49066,121.326664 C268.49066,126.407997 271.57066,131.563997 273.609326,137.058663 C275.93466,143.322663 272.41866,145.839996 266.57866,144.099996 C259.937327,142.119996 254.533327,137.82933 249.61466,132.95733 C238.421327,121.866664 229.465328,108.742664 222.597328,94.589331 C219.145328,87.4733311 216.202661,80.115998 213.650661,72.6319982 C211.062661,65.0413317 209.237328,57.6386652 207.213328,49.8999988 C200.531995,49.0946654 193.778662,48.8919988 187.062662,49.2946654 C184.703995,49.4373321 181.981329,49.8759988 180.806662,51.9266654 C178.746662,55.5213319 181.479995,62.4706651 183.017329,65.8159984 C181.950662,64.2479984 183.643995,66.6759983 183.017329,65.8159984 C182.237329,64.7453317 180.557329,63.1573318 175.967996,60.1053318 C170.942662,56.6333319 170.942662,56.6333319 167.402662,54.4226653 C161.987996,51.0413321 154.098663,47.4026655 148.286663,44.7626655 C136.96933,39.6213323 124.998664,35.9986658 112.759997,33.8493325 C105.209331,32.5239992 97.2239976,32.4413325 90.0013311,35.3093325 C86.4519978,36.7173324 83.2133313,38.799999 80.4013313,41.3773323 C77.5399981,43.9999989 74.5533315,46.3533322 72.3146649,49.4853321 C68.2199983,46.1413322 63.6039984,43.3266656 59.6279985,39.8546657 C55.4173319,36.1773324 50.7359987,33.2159992 45.9226655,30.3959992 C39.1453324,26.426666 31.9173325,23.9799994 23.9413327,23.7959994 C5.23199987,23.3666661 -3.17199992,33.4333325 1.60133329,51.673332 C5.04133321,64.8173317 10.8146664,77.8933314 16.9599996,89.9546644 C17.6786662,91.3639977 18.4039995,92.769331 19.1293329,94.1746643 C23.0093328,101.691997 26.714666,109.038664 33.6466658,114.24533 C37.6626657,117.26133 42.2733323,119.326664 46.9799988,121.007997 C51.0559987,122.463997 54.8759986,123.88533 59.0706652,122.05333 C62.8653318,120.395997 65.1453317,116.390664 63.0106651,112.390664 C60.0506652,106.843997 57.3293319,101.169331 54.3746653,95.6199976 C47.5293321,82.7613313 40.407999,70.0333316 36.4306658,55.8839986 C35.4319991,52.3306654 34.2586658,48.4373321 37.7719991,45.8199989 C41.011999,43.4066656 45.0173322,44.2773322 48.1319988,46.2053322 C55.4293319,50.7213321 62.3586651,55.5479986 69.7493316,59.8773318 C69.8919983,59.9599985 70.0399982,60.0493318 70.1226649,60.1906652 C70.2373316,60.3853318 70.2053316,60.6279985 70.1746649,60.8519985 C68.114665,75.5679981 83.3173313,87.4133311 96.0493309,91.0679977 C98.9733309,91.9079977 100.547997,94.485331 102.671997,96.3773309 C104.809331,98.2826642 107.993331,101.695997 109.767997,103.943997 C121.195997,118.426664 132.22933,133.263997 145.70933,145.991996 C150.026663,150.066663 154.567996,153.786663 160.295996,155.902663 C164.419996,157.425329 167.502662,155.735996 170.187996,153.191996 C173.338662,150.206663 173.157329,146.40133 170.530662,143.335996 C159.341329,130.270663 159.750663,114.919997 161.403996,99.2653309 C162.725329,86.7439978 160.741329,74.8453315 155.043996,62.9546651 C155.518663,63.9453317 159.965329,65.262665 161.046663,65.802665 C162.991996,66.7759983 164.917329,67.7919983 166.803996,68.8759983 C172.706662,72.2693315 178.029329,76.5413314 183.231995,80.8306646 C183.822662,81.3173313 184.617329,82.2533313 184.999995,82.9159979 C187.123995,86.5933312 189.339995,90.5693311 191.050662,94.589331 C210.199995,139.610663 233.129328,182.509329 264.24666,220.602661 C272.457327,230.654661 281.669326,239.746661 292.251993,247.409327 C294.927993,249.347994 299.645326,251.929327 302.721326,253.13866 C311.313326,256.515994 319.887992,257.811994 326.510659,250.409327 C331.997325,244.278661 332.503992,237.205327 329.469325,229.991994 C322.669325,213.822661 311.603992,200.435995 300.771992,186.905329 C294.585326,179.177329 287.034659,172.430662 281.32266,164.338663 C285.439993,166.246663 289.698659,167.829329 293.953326,169.410662 C298.687993,171.169329 305.143992,172.086662 309.771992,169.393329 C314.193325,166.818662 314.958659,161.407996 314.847992,156.722663 C314.667992,149.04533 310.618659,142.851996 307.137326,136.523997 C301.430659,126.154664 295.039993,116.15733 289.443993,105.730664 C286.453326,100.158664 283.797326,94.1959976 282.295993,88.0879978 C280.357326,80.2026647 284.881326,76.2999981 292.222659,79.8773313 C306.387992,86.7813312 318.415992,96.3373309 323.573325,112.175997 C340.025325,162.699996 366.097324,207.711995 401.293323,247.425327 C409.46799,256.65066 418.53199,265.103993 429.986656,270.263993 C437.678656,273.727993 445.885322,276.079993 452.907989,269.27866 C459.883989,262.52266 458.178655,254.29066 454.803989,246.422661 C450.835989,237.174661 445.369322,228.726661 439.649322,220.498661 C418.51999,190.099995 395.27599,161.445329 367.989324,136.31733 C357.739991,126.878663 355.201324,114.37733 353.677324,101.883997 C352.426658,91.629331 361.277324,86.3133312 371.142657,90.9599977 C385.857324,97.8906642 397.213323,108.679997 403.90799,123.95733 C411.169323,140.531996 425.314656,166.498663 434.623989,182.015995 C436.977322,185.935995 439.526656,189.797329 444.723989,190.603995 C450.718655,191.531995 455.242655,188.850662 459.287989,184.782662 C463.683988,180.362662 462.574655,175.695996 460.062655,171.001329 C452.975989,157.754663 445.769322,144.571996 438.697322,131.31733 C434.405322,123.270664 430.599989,115.01733 428.345323,106.107997 C427.622656,103.251997 427.381323,100.557331 429.715989,98.5466642 C432.291989,96.3293309 434.921322,98.0906642 437.286656,99.2759975 C448.205322,104.751997 456.091989,113.594664 462.931988,123.354664 C473.679988,138.691997 482.025321,155.423996 490.381321,172.131996 C493.842654,179.054662 497.129321,186.075995 500.885321,192.837329 C504.693321,199.693328 510.195987,202.895995 517.83332,198.467995 C524.559987,194.567995 529.46132,190.211995 525.478654,180.970662 C516.64132,160.469329 506.801321,140.462663 497.027988,120.41333 C494.471988,115.171997 490.902654,110.323997 490.062654,104.239997 C500.497321,106.002664 509.710654,114.67733 518.074654,120.547997 C519.078654,121.25333 520.498654,122.69733 521.339987,123.587997 C521.791987,124.066664 522.078654,124.66533 522.16932,125.31733 C522.435987,127.23333 523.123987,131.527997 524.218654,133.91733 C525.527987,136.779997 527.39732,139.442663 529.495987,141.778663 C534.166653,146.979996 541.52532,152.28533 548.307986,153.545329 C550.85332,154.018663 550.706653,154.419996 552.535986,156.109329 C555.586653,158.923996 560.603986,164.674663 563.202653,167.945329 C573.125319,180.427995 583.358652,192.678662 593.871985,204.667995 C598.955985,210.463995 604.781318,215.599995 612.191985,218.655995 C616.801318,220.557328 620.213318,218.817328 623.386651,216.029328 C626.935984,212.910661 625.730651,209.235995 623.325318,206.286662 C612.271985,192.735995 611.154651,177.479996 614.542651,161.075996 C617.053318,148.918663 612.202651,137.926663 607.937318,126.31333 C621.641318,131.542663 634.545317,138.511997 640.419984,152.08133 C645.591984,164.022663 651.321317,175.714662 657.233317,187.305329 C663.03865,198.683995 670.209317,209.965328 674.97865,221.786661 C669.875983,221.549328 666.14665,221.225328 661.171983,222.527994 C656.875984,223.651994 651.533317,227.783994 647.943984,230.259994 C640.927984,235.101327 634.357317,237.249327 625.785318,237.535994 C614.374651,237.915994 603.259985,234.210661 592.859985,229.875994 C575.149319,222.494661 561.179986,207.649328 541.819986,203.678662 C527.02532,200.643995 510.197321,201.514662 496.254654,207.623995 C490.275988,210.243995 484.894655,214.038661 480.074655,218.411995 C477.389321,220.849328 474.887988,223.485328 472.513322,226.223994 C471.381322,227.530661 467.935988,232.654661 466.690655,234.507994 C480.266655,229.286661 490.013321,226.153328 508.391987,224.694661 C526.78532,223.234661 544.067986,223.731994 559.658653,236.341327 C589.077319,260.13466 624.725318,259.87466 654.835984,236.963994 C663.385317,230.457328 677.75865,229.793328 683.84665,239.494661 C688.610649,247.085327 707.879982,287.651993 718.671982,282.85466 C719.239982,282.60266 719.894649,282.197326 720.598649,281.679993 C724.309315,278.953326 729.411982,273.087993 730.442648,269.77466 C733.763982,259.061327 722.426649,250.605327 718.517315,241.811994 C719.565315,244.090661 742.947981,240.403994 745.235981,236.913327 C747.591981,233.318661 742.291981,225.083994 738.146648,226.634661 C716.174649,234.855994 710.610649,228.065328 710.610649,228.065328 C710.610649,228.065328 697.710649,207.478661 692.241316,196.241328 C685.333316,182.045329 677.721316,167.562662 672.683983,152.51733 C670.69465,146.571996 667.395983,140.12533 674.357316,135.158663 C680.855983,130.52133 686.53465,134.518663 691.979983,137.790663 C700.698649,143.02933 707.314649,150.646663 713.994649,158.118663 C725.718649,171.233329 735.650648,187.337329 753.126648,191.398662 C776.375981,196.802662 782.401314,189.563995 794.617313,183.102662 C808.657313,175.675996 813.87998,174.515996 831.053313,181.013329 C828.743979,178.705329 826.597313,176.214662 824.150646,174.046662 C816.010646,166.833329 802.369313,164.775996 793.613313,168.957329" id="path22"></path>
                            </g>
                            <g id="g24" transform="translate(249.040260, 56.753732)" stroke="currentcolor" stroke-width="1.3333333">
                                <path d="M433.333323,53.333332 C420.174656,46.1373322 408.83999,37.3039991 400.04399,25.618666 C398.27599,23.2693328 395.45599,20.0773328 397.881323,17.0986662 C401.053323,13.2026663 404.73999,16.4053329 407.473323,18.2533329 C420.147989,26.8213327 427.801323,39.327999 433.333323,53.333332 Z M253.867994,156.433329 C253.199994,155.166663 252.525327,153.933329 252.069327,152.50133 C255.091994,154.715996 257.87466,157.641329 260.82266,160.163996 C263.955993,162.845329 266.86266,165.842663 269.849327,168.693329 C279.131993,177.554662 292.843993,193.363995 300.343992,203.775995 C305.498659,210.933328 310.547992,218.330661 315.245325,225.845328 C316.739992,228.234661 319.198659,233.822661 316.569327,236.195994 C314.045325,238.474661 311.511992,237.037327 309.279992,235.375994 C307.465326,234.026661 305.581326,232.667994 304.106659,230.981328 C284.40266,208.454661 267.837327,182.915995 253.867994,156.433329 L253.867994,156.433329 Z M434.721322,227.255994 C437.614656,232.261328 440.621322,237.325327 442.306656,242.893327 C443.125322,245.598661 445.902656,254.79066 440.491989,254.734915 C439.253322,254.721327 438.063989,254.20266 437.055989,253.483994 C436.047989,252.765327 435.197322,251.85066 434.355989,250.943994 C432.315989,248.74666 430.425323,246.425327 428.505323,244.115994 C417.794656,231.233328 408.19199,217.447995 399.66399,203.033328 C395.373323,195.781328 391.350657,188.370662 387.577324,180.837329 C385.67199,177.034662 383.830657,173.202662 382.049324,169.341329 C381.153324,167.399996 380.27199,165.450663 379.406657,163.495996 C378.954657,162.475996 378.506657,161.454663 378.062657,160.430663 C377.814657,159.859996 377.427991,158.173329 376.941324,157.823996 C381.270657,160.926663 385.35999,164.998663 389.01199,168.294662 C391.86799,170.871996 400.337323,181.197329 401.801323,182.877329 C408.217323,190.239995 412.745323,195.319995 418.150656,202.903995 C425.682656,213.471995 426.023989,212.206661 434.721322,227.255994 Z M578.890652,170.374662 C572.945319,162.631996 565.650653,156.057329 559.745319,148.275996 C553.982653,140.682663 550.675986,132.84133 549.179986,123.246664 C547.95332,115.387997 552.50532,106.582664 561.593319,108.741331 C582.418652,113.687997 582.333319,144.122663 580.274652,160.509329 C580.077319,162.071996 578.045319,169.273329 578.890652,170.374662 Z M127.638663,108.593331 C127.618663,109.074664 127.61333,109.635997 127.54933,110.065331 C123.922664,106.241331 120.686664,101.918664 117.11333,98.0039975 C113.309331,93.8359977 110.071997,89.0799978 106.487997,84.7199979 C101.526664,78.6866647 98.7639975,71.0959982 97.6559976,63.3053318 C96.9346642,58.2399985 97.4039976,51.2386654 101.287997,47.4173321 C107.181331,41.619999 113.842664,48.6933321 117.94133,52.8346653 C121.52133,56.4533319 123.96933,60.9079985 125.60133,65.6359984 C128.131997,72.9653315 129.170663,80.6893313 129.24933,88.4226645 C129.318663,95.2186643 127.930663,101.917331 127.638663,108.593331 Z M793.613313,168.957329 C778.435981,176.405329 776.259981,182.413329 759.086648,180.557329 C748.913315,179.457329 743.851981,175.563996 736.365315,168.481329 C726.366649,159.025329 718.958649,147.110663 710.139982,136.454663 C703.393316,128.30133 693.333316,119.46933 683.857316,114.81333 C665.849317,105.965331 645.331984,111.563997 636.211984,128.547997 C631.097318,127.506663 627.642651,123.63333 623.638651,120.767997 C604.702652,107.217331 583.505319,99.4559975 560.626653,96.1293309 C547.44932,94.2119976 537.242653,99.2759975 523.639987,114.047997 C510.034654,102.790664 496.159988,91.7199977 480.909321,82.5866646 C476.682655,80.055998 475.290655,75.5319981 473.174655,71.5679982 C463.930655,54.2466653 454.231989,37.2093324 440.758656,22.7386661 C430.282656,11.4866664 418.19999,2.7426666 402.222657,1.3813333 C394.214657,0.699999982 386.462657,1.74533329 381.63999,9.19466644 C376.519991,17.1026662 378.715991,24.906666 383.158657,32.3439992 C386.71999,38.3053324 391.665324,43.0186656 397.118657,47.2159988 C408.357323,55.8639986 420.287989,63.6613317 433.310656,69.0479983 C446.485322,74.4959981 453.018655,84.0759979 456.258655,98.1119975 C451.846655,97.9399976 449.751989,94.6799976 447.131989,92.7519977 C440.125322,87.5959978 432.943989,82.7239979 424.637323,79.987998 C411.92399,75.8013314 405.046657,78.5173314 393.154657,91.809331 C355.342658,60.0973318 333.966658,63.6559984 319.487992,86.3399978 C314.775992,82.1786646 310.273326,77.9533314 305.509326,74.0479981 C296.623993,66.7653317 287.059993,60.8119985 275.48666,58.5586652 C253.62666,54.3039986 241.946661,67.2573317 248.655994,88.6226645 C252.379994,100.481331 259.24266,110.743997 265.49066,121.326664 C268.49066,126.407997 271.57066,131.563997 273.609326,137.058663 C275.93466,143.322663 272.41866,145.839996 266.57866,144.099996 C259.937327,142.119996 254.533327,137.82933 249.61466,132.95733 C238.421327,121.866664 229.465328,108.742664 222.597328,94.589331 C219.145328,87.4733311 216.202661,80.115998 213.650661,72.6319982 C211.062661,65.0413317 209.237328,57.6386652 207.213328,49.8999988 C200.531995,49.0946654 193.778662,48.8919988 187.062662,49.2946654 C184.703995,49.4373321 181.981329,49.8759988 180.806662,51.9266654 C178.746662,55.5213319 181.479995,62.4706651 183.017329,65.8159984 C181.950662,64.2479984 183.643995,66.6759983 183.017329,65.8159984 C182.237329,64.7453317 180.557329,63.1573318 175.967996,60.1053318 C170.942662,56.6333319 170.942662,56.6333319 167.402662,54.4226653 C161.987996,51.0413321 154.098663,47.4026655 148.286663,44.7626655 C136.96933,39.6213323 124.998664,35.9986658 112.759997,33.8493325 C105.209331,32.5239992 97.2239976,32.4413325 90.0013311,35.3093325 C86.4519978,36.7173324 83.2133313,38.799999 80.4013313,41.3773323 C77.5399981,43.9999989 74.5533315,46.3533322 72.3146649,49.4853321 C68.2199983,46.1413322 63.6039984,43.3266656 59.6279985,39.8546657 C55.4173319,36.1773324 50.7359987,33.2159992 45.9226655,30.3959992 C39.1453324,26.426666 31.9173325,23.9799994 23.9413327,23.7959994 C5.23199987,23.3666661 -3.17199992,33.4333325 1.60133329,51.673332 C5.04133321,64.8173317 10.8146664,77.8933314 16.9599996,89.9546644 C17.6786662,91.3639977 18.4039995,92.769331 19.1293329,94.1746643 C23.0093328,101.691997 26.714666,109.038664 33.6466658,114.24533 C37.6626657,117.26133 42.2733323,119.326664 46.9799988,121.007997 C51.0559987,122.463997 54.8759986,123.88533 59.0706652,122.05333 C62.8653318,120.395997 65.1453317,116.390664 63.0106651,112.390664 C60.0506652,106.843997 57.3293319,101.169331 54.3746653,95.6199976 C47.5293321,82.7613313 40.407999,70.0333316 36.4306658,55.8839986 C35.4319991,52.3306654 34.2586658,48.4373321 37.7719991,45.8199989 C41.011999,43.4066656 45.0173322,44.2773322 48.1319988,46.2053322 C55.4293319,50.7213321 62.3586651,55.5479986 69.7493316,59.8773318 C69.8919983,59.9599985 70.0399982,60.0493318 70.1226649,60.1906652 C70.2373316,60.3853318 70.2053316,60.6279985 70.1746649,60.8519985 C68.114665,75.5679981 83.3173313,87.4133311 96.0493309,91.0679977 C98.9733309,91.9079977 100.547997,94.485331 102.671997,96.3773309 C104.809331,98.2826642 107.993331,101.695997 109.767997,103.943997 C121.195997,118.426664 132.22933,133.263997 145.70933,145.991996 C150.026663,150.066663 154.567996,153.786663 160.295996,155.902663 C164.419996,157.425329 167.502662,155.735996 170.187996,153.191996 C173.338662,150.206663 173.157329,146.40133 170.530662,143.335996 C159.341329,130.270663 159.750663,114.919997 161.403996,99.2653309 C162.725329,86.7439978 160.741329,74.8453315 155.043996,62.9546651 C155.518663,63.9453317 159.965329,65.262665 161.046663,65.802665 C162.991996,66.7759983 164.917329,67.7919983 166.803996,68.8759983 C172.706662,72.2693315 178.029329,76.5413314 183.231995,80.8306646 C183.822662,81.3173313 184.617329,82.2533313 184.999995,82.9159979 C187.123995,86.5933312 189.339995,90.5693311 191.050662,94.589331 C210.199995,139.610663 233.129328,182.509329 264.24666,220.602661 C272.457327,230.654661 281.669326,239.746661 292.251993,247.409327 C294.927993,249.347994 299.645326,251.929327 302.721326,253.13866 C311.313326,256.515994 319.887992,257.811994 326.510659,250.409327 C331.997325,244.278661 332.503992,237.205327 329.469325,229.991994 C322.669325,213.822661 311.603992,200.435995 300.771992,186.905329 C294.585326,179.177329 287.034659,172.430662 281.32266,164.338663 C285.439993,166.246663 289.698659,167.829329 293.953326,169.410662 C298.687993,171.169329 305.143992,172.086662 309.771992,169.393329 C314.193325,166.818662 314.958659,161.407996 314.847992,156.722663 C314.667992,149.04533 310.618659,142.851996 307.137326,136.523997 C301.430659,126.154664 295.039993,116.15733 289.443993,105.730664 C286.453326,100.158664 283.797326,94.1959976 282.295993,88.0879978 C280.357326,80.2026647 284.881326,76.2999981 292.222659,79.8773313 C306.387992,86.7813312 318.415992,96.3373309 323.573325,112.175997 C340.025325,162.699996 366.097324,207.711995 401.293323,247.425327 C409.46799,256.65066 418.53199,265.103993 429.986656,270.263993 C437.678656,273.727993 445.885322,276.079993 452.907989,269.27866 C459.883989,262.52266 458.178655,254.29066 454.803989,246.422661 C450.835989,237.174661 445.369322,228.726661 439.649322,220.498661 C418.51999,190.099995 395.27599,161.445329 367.989324,136.31733 C357.739991,126.878663 355.201324,114.37733 353.677324,101.883997 C352.426658,91.629331 361.277324,86.3133312 371.142657,90.9599977 C385.857324,97.8906642 397.213323,108.679997 403.90799,123.95733 C411.169323,140.531996 425.314656,166.498663 434.623989,182.015995 C436.977322,185.935995 439.526656,189.797329 444.723989,190.603995 C450.718655,191.531995 455.242655,188.850662 459.287989,184.782662 C463.683988,180.362662 462.574655,175.695996 460.062655,171.001329 C452.975989,157.754663 445.769322,144.571996 438.697322,131.31733 C434.405322,123.270664 430.599989,115.01733 428.345323,106.107997 C427.622656,103.251997 427.381323,100.557331 429.715989,98.5466642 C432.291989,96.3293309 434.921322,98.0906642 437.286656,99.2759975 C448.205322,104.751997 456.091989,113.594664 462.931988,123.354664 C473.679988,138.691997 482.025321,155.423996 490.381321,172.131996 C493.842654,179.054662 497.129321,186.075995 500.885321,192.837329 C504.693321,199.693328 510.195987,202.895995 517.83332,198.467995 C524.559987,194.567995 529.46132,190.211995 525.478654,180.970662 C516.64132,160.469329 506.801321,140.462663 497.027988,120.41333 C494.471988,115.171997 490.902654,110.323997 490.062654,104.239997 C500.497321,106.002664 509.710654,114.67733 518.074654,120.547997 C519.078654,121.25333 520.498654,122.69733 521.339987,123.587997 C521.791987,124.066664 522.078654,124.66533 522.16932,125.31733 C522.435987,127.23333 523.123987,131.527997 524.218654,133.91733 C525.527987,136.779997 527.39732,139.442663 529.495987,141.778663 C534.166653,146.979996 541.52532,152.28533 548.307986,153.545329 C550.85332,154.018663 550.706653,154.419996 552.535986,156.109329 C555.586653,158.923996 560.603986,164.674663 563.202653,167.945329 C573.125319,180.427995 583.358652,192.678662 593.871985,204.667995 C598.955985,210.463995 604.781318,215.599995 612.191985,218.655995 C616.801318,220.557328 620.213318,218.817328 623.386651,216.029328 C626.935984,212.910661 625.730651,209.235995 623.325318,206.286662 C612.271985,192.735995 611.154651,177.479996 614.542651,161.075996 C617.053318,148.918663 612.202651,137.926663 607.937318,126.31333 C621.641318,131.542663 634.545317,138.511997 640.419984,152.08133 C645.591984,164.022663 651.321317,175.714662 657.233317,187.305329 C663.03865,198.683995 670.209317,209.965328 674.97865,221.786661 C669.875983,221.549328 666.14665,221.225328 661.171983,222.527994 C656.875984,223.651994 651.533317,227.783994 647.943984,230.259994 C640.927984,235.101327 634.357317,237.249327 625.785318,237.535994 C614.374651,237.915994 603.259985,234.210661 592.859985,229.875994 C575.149319,222.494661 561.179986,207.649328 541.819986,203.678662 C527.02532,200.643995 510.197321,201.514662 496.254654,207.623995 C490.275988,210.243995 484.894655,214.038661 480.074655,218.411995 C477.389321,220.849328 474.887988,223.485328 472.513322,226.223994 C471.381322,227.530661 467.935988,232.654661 466.690655,234.507994 C480.266655,229.286661 490.013321,226.153328 508.391987,224.694661 C526.78532,223.234661 544.067986,223.731994 559.658653,236.341327 C589.077319,260.13466 624.725318,259.87466 654.835984,236.963994 C663.385317,230.457328 677.75865,229.793328 683.84665,239.494661 C688.610649,247.085327 707.879982,287.651993 718.671982,282.85466 C719.239982,282.60266 719.894649,282.197326 720.598649,281.679993 C724.309315,278.953326 729.411982,273.087993 730.442648,269.77466 C733.763982,259.061327 722.426649,250.605327 718.517315,241.811994 C719.565315,244.090661 742.947981,240.403994 745.235981,236.913327 C747.591981,233.318661 742.291981,225.083994 738.146648,226.634661 C716.174649,234.855994 710.610649,228.065328 710.610649,228.065328 C710.610649,228.065328 697.710649,207.478661 692.241316,196.241328 C685.333316,182.045329 677.721316,167.562662 672.683983,152.51733 C670.69465,146.571996 667.395983,140.12533 674.357316,135.158663 C680.855983,130.52133 686.53465,134.518663 691.979983,137.790663 C700.698649,143.02933 707.314649,150.646663 713.994649,158.118663 C725.718649,171.233329 735.650648,187.337329 753.126648,191.398662 C776.375981,196.802662 782.401314,189.563995 794.617313,183.102662 C808.657313,175.675996 813.87998,174.515996 831.053313,181.013329 C828.743979,178.705329 826.597313,176.214662 824.150646,174.046662 C816.010646,166.833329 802.369313,164.775996 793.613313,168.957329" id="path26"></path>
                            </g>
                            <g id="g28" transform="translate(1045.550641, 212.421328)" fill="currentcolor" fill-rule="nonzero" stroke="currentcolor" stroke-width="1.3333333">
                                <line x1="1.3333333" y1="1.3333333" x2="1.3333333" y2="1.2173333" id="path30"></line>
                            </g>
                            <g id="g32" transform="translate(0.012800, 50.189065)" fill="currentcolor" fill-rule="nonzero" stroke="currentcolor" stroke-width="1.3333333">
                                <path d="M281.333326,154.666663 C281.333326,154.666663 280.373326,147.842663 270.103993,127.999997 C266.635993,121.29733 262.141327,112.850664 258.219994,106.407997 C255.007994,101.130664 251.613327,95.9666643 248.079994,90.8986644 C241.087994,80.867998 233.559994,71.2239982 225.794661,61.7853318 C216.226661,50.1559987 205.717328,39.3733323 193.658662,30.2826659 C188.590662,26.462666 183.231995,22.8799994 177.599996,19.9773328 C152.50933,7.04533316 140.338663,11.5746664 130.227997,37.9266657 C123.078664,32.1906659 116.214664,26.482666 109.138664,21.0493328 C97.5013309,12.113333 85.0986645,4.44266656 70.5399982,1.34666663 C49.6999988,-3.08799992 37.5973324,10.0386664 43.6466656,30.3119992 C48.2519988,45.7493322 56.7493319,59.2653319 65.2053317,72.7573315 C81.4013313,98.5973309 99.6453308,123.119997 114.775997,149.64533 C120.195997,159.145329 125.339997,168.859996 128.191997,179.447996 C130.787997,189.090662 125.35733,195.046662 116.61733,190.971995 C81.5586646,174.629329 54.9546653,149.363996 40.9386656,112.673331 C38.2706657,105.685331 39.5173323,97.6319976 43.4826656,90.2093311 C47.8173321,82.0959979 45.1599989,78.179998 36.0719991,78.479998 C21.9453328,78.9466647 10.9906664,87.7066645 3.65999991,99.2679975 C-4.42266656,112.013331 4.76266655,121.795997 12.381333,132.183997 C19.4613328,141.83733 27.5399993,150.73733 36.3773324,158.806663 C53.6786653,174.606662 73.7386648,187.094662 94.745331,197.338662 C108.249331,203.923995 122.118664,209.861328 137.582663,210.178661 C156.774663,210.573328 163.949329,202.110662 161.038663,182.873329 C159.782663,174.577329 156.130663,167.265329 152.370663,159.999996 C139.567997,135.26533 123.37333,112.617331 108.499997,89.1586644 C100.205331,76.0773314 91.829331,63.0399984 85.2653312,48.9813321 C83.3639979,44.9079989 81.2973313,40.7266656 81.2386646,36.0199991 C81.1493313,28.9213326 84.8879979,25.6733327 91.6199977,27.7639993 C95.4559976,28.9546659 99.2279975,31.0106659 102.433331,33.4586658 C119.85733,46.7626655 136.127997,60.4239985 143.18533,83.0466646 C149.546663,103.439997 160.085329,122.35333 173.426662,139.375997 C179.103996,146.62133 185.509329,153.174663 194.206662,156.682663 C199.330662,158.750663 205.177328,159.946663 209.766661,155.939996 C214.778661,151.566663 212.523995,146.03733 210.546661,140.775996 C204.210662,123.906664 193.563995,109.642664 182.981329,95.3959976 C175.647996,85.5239979 168.071996,75.7613314 159.794663,66.6839983 C157.282663,63.9279984 155.083996,60.7533318 152.838663,57.7759986 C154.766663,47.5679988 156.987996,34.8559991 170.201329,39.779999 C184.491995,45.1066655 194.037328,56.3999986 203.167995,67.7199983 C213.971995,81.1133313 223.366661,95.5933309 231.703994,110.634664 C236.217327,118.77733 240.426661,127.086663 244.415994,135.498663 C248.29066,143.667996 251.667994,152.094663 255.513327,160.242663 C256.971994,163.333329 259.917327,170.387996 259.917327,170.387996" id="path34"></path>
                            </g>
                            <g id="g36" transform="translate(33.714799, 1.469733)" fill="currentcolor" fill-rule="nonzero">
                                <path d="M2.6666666,2.6666666 C-1.87466662,8.44533312 5.69733319,20.5293328 9.67733309,24.7199994 C15.9853329,31.3626659 25.1133327,34.2826658 33.8999992,35.8533324 C75.9439981,43.3693322 118.01333,50.7573321 160.150663,57.7359986 C208.279995,65.706665 256.77466,71.1226649 305.154659,77.2986647 C386.785324,87.7213311 468.574655,95.7453309 550.59332,102.459997 C557.366653,103.014664 564.345319,103.141331 571.022652,102.118664 C575.995986,101.358664 580.551985,97.9213309 580.574757,92.0439977 C580.601319,85.6279979 575.519986,83.6519979 570.290652,83.3199979 C557.563986,82.5093313 544.794653,82.4159979 532.059987,81.687998 C475.106655,78.4333314 524.090654,81.2626646 475.106655,78.4333314 C427.523989,75.6853314 306.095992,59.3893318 258.385327,51.5399987 C220.682661,45.3359989 169.534662,36.8599991 132.150663,28.9253326 C92.537331,20.5186662 53.321332,10.3826664 13.921333,1.04933331 C10.7986664,0.309333326 6.7586665,-0.599999985 3.93733323,1.45199996 C3.43733325,1.81466662 3.01599992,2.22266661 2.6666666,2.6666666" id="path38"></path>
                            </g>
                            <g id="g40" transform="translate(33.714799, 1.469733)" stroke="currentcolor" stroke-width="1.3333333">
                                <path d="M2.6666666,2.6666666 C-1.87466662,8.44533312 5.69733319,20.5293328 9.67733309,24.7199994 C15.9853329,31.3626659 25.1133327,34.2826658 33.8999992,35.8533324 C75.9439981,43.3693322 118.01333,50.7573321 160.150663,57.7359986 C208.279995,65.706665 256.77466,71.1226649 305.154659,77.2986647 C386.785324,87.7213311 468.574655,95.7453309 550.59332,102.459997 C557.366653,103.014664 564.345319,103.141331 571.022652,102.118664 C575.995986,101.358664 580.551985,97.9213309 580.574757,92.0439977 C580.601319,85.6279979 575.519986,83.6519979 570.290652,83.3199979 C557.563986,82.5093313 544.794653,82.4159979 532.059987,81.687998 C475.106655,78.4333314 524.090654,81.2626646 475.106655,78.4333314 C427.523989,75.6853314 306.095992,59.3893318 258.385327,51.5399987 C220.682661,45.3359989 169.534662,36.8599991 132.150663,28.9253326 C92.537331,20.5186662 53.321332,10.3826664 13.921333,1.04933331 C10.7986664,0.309333326 6.7586665,-0.599999985 3.93733323,1.45199996 C3.43733325,1.81466662 3.01599992,2.22266661 2.6666666,2.6666666 Z" id="path42"></path>
                            </g>
                            <g id="g44" transform="translate(33.714799, 0.136400)" fill="currentcolor" fill-rule="nonzero">
                                <path d="M2.6666666,3.9999999 L3.19066659,4.41199989 C2.31199994,5.53066653 1.92933329,6.92799983 1.92799995,8.53999979 C1.92133329,11.4186664 3.20133325,14.9119996 4.89066654,18.0559995 C6.57333317,21.2013328 8.65866645,24.0146661 10.1599997,25.594666 C16.3039996,32.0719992 25.286666,34.9733325 34.0173325,36.5306658 C76.0599981,44.0466656 118.12533,51.4346654 160.258663,58.4119985 C208.365328,66.378665 256.851994,71.7933315 305.238659,77.9706647 C386.857324,88.3919978 468.635988,96.4146643 550.647986,103.129331 C553.787986,103.385331 556.966653,103.550664 560.133319,103.550664 C563.770653,103.550664 567.393319,103.333331 570.921319,102.793331 C573.291986,102.431997 575.549319,101.429331 577.193319,99.8519975 C578.837319,98.2706642 579.891986,96.1386643 579.907986,93.3746643 L579.907986,93.329331 C579.893319,90.3159977 578.761319,88.5039978 577.009319,87.2719978 C575.249319,86.0466645 572.787986,85.4773312 570.247986,85.3186645 C557.546653,84.5093312 544.778653,84.4159979 532.022653,83.6879979 C475.070655,80.4333313 524.051987,83.2613313 475.067988,80.431998 C427.422656,77.6786647 306.018659,61.3839985 258.277327,53.5306653 C220.571994,47.3266655 169.419996,38.8493324 132.01333,30.9119992 C92.3799977,22.4999994 53.1586653,12.3626627 13.7679997,3.03199992 C12.0759997,2.62933327 10.1519997,2.19333328 8.36133312,2.19599995 C6.85199983,2.19599995 5.46666653,2.49733327 4.32933323,3.32399992 C3.8759999,3.65333324 3.50133325,4.01733323 3.19066659,4.41199989 L2.6666666,3.9999999 L2.14266661,3.58799991 C2.5306666,3.09466659 2.99733326,2.64399993 3.54533324,2.24533328 C4.98533321,1.19866664 6.68399983,0.861333312 8.36133312,0.862662711 C10.3613331,0.863999978 12.373333,1.33199997 14.0746663,1.73466662 C53.4826653,11.0693331 92.6946643,21.2039995 132.28933,29.6066659 C169.647996,37.5359991 220.791994,46.0119988 258.493327,52.2146654 C306.173326,60.0599985 427.625323,76.3586648 475.145321,79.1013314 C524.127987,81.9306646 475.142655,79.1013314 532.098653,82.3559979 C544.810653,83.0826646 557.581319,83.1759979 570.333319,83.9879979 C573.007986,84.1613312 575.689319,84.7399979 577.767986,86.1759978 C579.854652,87.6039978 581.257319,89.9639978 581.241454,93.329331 L581.241454,93.3786643 C581.233319,96.4919976 579.998652,99.0186642 578.115986,100.814664 C576.233319,102.615997 573.726652,103.711997 571.123986,104.111997 C567.513319,104.663997 563.823986,104.883997 560.133319,104.883997 C556.919986,104.883997 553.705319,104.717331 550.538653,104.457331 C468.513322,97.7426642 386.714657,89.7173311 305.069326,79.2933314 C256.697327,73.1173315 208.194661,67.7013316 160.041329,59.7266652 C117.899997,52.7479987 75.8279981,45.3599989 33.7826658,37.8426657 C24.9399994,36.2586658 15.6653329,33.3186658 9.1933331,26.5119993 C7.58399981,24.8159994 5.4613332,21.9426661 3.71466657,18.6853329 C1.97333328,15.4253329 0.601333318,11.7999997 0.594654753,8.53999979 C0.594654753,6.72133317 1.03733331,4.99333321 2.14266661,3.58799991 L2.6666666,3.9999999 Z" id="path46"></path>
                            </g>
                            <g id="g48" transform="translate(33.714799, 0.136400)" stroke="currentcolor" stroke-width="1.3333333">
                                <path d="M2.6666666,3.9999999 L3.19066659,4.41199989 C2.31199994,5.53066653 1.92933329,6.92799983 1.92799995,8.53999979 C1.92133329,11.4186664 3.20133325,14.9119996 4.89066654,18.0559995 C6.57333317,21.2013328 8.65866645,24.0146661 10.1599997,25.594666 C16.3039996,32.0719992 25.286666,34.9733325 34.0173325,36.5306658 C76.0599981,44.0466656 118.12533,51.4346654 160.258663,58.4119985 C208.365328,66.378665 256.851994,71.7933315 305.238659,77.9706647 C386.857324,88.3919978 468.635988,96.4146643 550.647986,103.129331 C553.787986,103.385331 556.966653,103.550664 560.133319,103.550664 C563.770653,103.550664 567.393319,103.333331 570.921319,102.793331 C573.291986,102.431997 575.549319,101.429331 577.193319,99.8519975 C578.837319,98.2706642 579.891986,96.1386643 579.907986,93.3746643 L579.907986,93.329331 C579.893319,90.3159977 578.761319,88.5039978 577.009319,87.2719978 C575.249319,86.0466645 572.787986,85.4773312 570.247986,85.3186645 C557.546653,84.5093312 544.778653,84.4159979 532.022653,83.6879979 C475.070655,80.4333313 524.051987,83.2613313 475.067988,80.431998 C427.422656,77.6786647 306.018659,61.3839985 258.277327,53.5306653 C220.571994,47.3266655 169.419996,38.8493324 132.01333,30.9119992 C92.3799977,22.4999994 53.1586653,12.3626627 13.7679997,3.03199992 C12.0759997,2.62933327 10.1519997,2.19333328 8.36133312,2.19599995 C6.85199983,2.19599995 5.46666653,2.49733327 4.32933323,3.32399992 C3.8759999,3.65333324 3.50133325,4.01733323 3.19066659,4.41199989 L2.6666666,3.9999999 L2.14266661,3.58799991 C2.5306666,3.09466659 2.99733326,2.64399993 3.54533324,2.24533328 C4.98533321,1.19866664 6.68399983,0.861333312 8.36133312,0.862662711 C10.3613331,0.863999978 12.373333,1.33199997 14.0746663,1.73466662 C53.4826653,11.0693331 92.6946643,21.2039995 132.28933,29.6066659 C169.647996,37.5359991 220.791994,46.0119988 258.493327,52.2146654 C306.173326,60.0599985 427.625323,76.3586648 475.145321,79.1013314 C524.127987,81.9306646 475.142655,79.1013314 532.098653,82.3559979 C544.810653,83.0826646 557.581319,83.1759979 570.333319,83.9879979 C573.007986,84.1613312 575.689319,84.7399979 577.767986,86.1759978 C579.854652,87.6039978 581.257319,89.9639978 581.241454,93.329331 L581.241454,93.3786643 C581.233319,96.4919976 579.998652,99.0186642 578.115986,100.814664 C576.233319,102.615997 573.726652,103.711997 571.123986,104.111997 C567.513319,104.663997 563.823986,104.883997 560.133319,104.883997 C556.919986,104.883997 553.705319,104.717331 550.538653,104.457331 C468.513322,97.7426642 386.714657,89.7173311 305.069326,79.2933314 C256.697327,73.1173315 208.194661,67.7013316 160.041329,59.7266652 C117.899997,52.7479987 75.8279981,45.3599989 33.7826658,37.8426657 C24.9399994,36.2586658 15.6653329,33.3186658 9.1933331,26.5119993 C7.58399981,24.8159994 5.4613332,21.9426661 3.71466657,18.6853329 C1.97333328,15.4253329 0.601333318,11.7999997 0.594654753,8.53999979 C0.594654753,6.72133317 1.03733331,4.99333321 2.14266661,3.58799991 L2.6666666,3.9999999 Z" id="path50"></path>
                            </g>
                            <g id="g52" transform="translate(260.828393, 226.315861)" fill="currentcolor" fill-rule="nonzero" stroke="currentcolor" stroke-width="1.3333333">
                                <path d="M27.9999993,0 C27.9999993,0 37.2253324,35.1599991 33.3906658,44.0759989 C30.7773326,50.1519987 25.5973327,53.8746653 19.0479995,53.253332 C10.1973331,52.4146654 10.8493331,46.8279988 10.5439997,40.7626656 C10.0346664,30.6839992 7.8799998,20.6893328 4.70266655,11.1279997 C3.46399991,7.39866648 2.19466661,3.68399991 0.827999979,0" id="path54"></path>
                            </g>
                            <g id="g56" transform="translate(262.872127, 178.247862)" fill="currentcolor" fill-rule="nonzero">
                                <polygon id="path58" points="38.6666657 70.6666649 48.1453321 44.7293322 76.4626648 43.9839989 54.0039986 27.2093327 62.0253318 0.810666646 38.6666657 16.3813329 15.3079996 0.810666646 23.3293328 27.2093327 0.870666645 43.9839989 29.1879993 44.7293322"></polygon>
                            </g>
                            <g id="g60" transform="translate(262.872127, 178.247862)" stroke="currentcolor" stroke-width="1.3333333">
                                <polygon id="path62" points="38.6666657 70.6666649 48.1453321 44.7293322 76.4626648 43.9839989 54.0039986 27.2093327 62.0253318 0.810666646 38.6666657 16.3813329 15.3079996 0.810666646 23.3293328 27.2093327 0.870666645 43.9839989 29.1879993 44.7293322"></polygon>
                            </g>
                        </g>
                    </g>
                </g>
            </g>
        </g>
    </g>
</svg>