<?xml version="1.0" encoding="UTF-8"?>
<svg viewBox="0 0 548 172" version="1.1" 
    xmlns="http://www.w3.org/2000/svg" 
    xmlns:xlink="http://www.w3.org/1999/xlink">
    <!-- Generator: Sketch 60.1 (88133) - https://sketch.com -->
    <title>wishlystlogo</title>
    <desc>Created with Sketch.</desc>
    <g id="Page-1" stroke="none" stroke-width="1" fill="none" fill-rule="evenodd">
        <g id="Desktop-HD-Copy" transform="translate(-55.000000, -84.000000)">
            <g id="hero">
                <g id="wishlystlogo" transform="translate(55.000000, 83.000000)">
                    <g id="g10" transform="translate(275.000000, 87.000000) scale(-1, 1) rotate(-180.000000) translate(-275.000000, -87.000000) ">
                        <g id="g12">
                            <g id="g14-Clipped">
                                <g id="g14" transform="translate(0.168975, 0.337651)">
                                    <g id="g20" transform="translate(126.244786, 29.251120)" fill="#988244" fill-rule="nonzero">
                                        <path d="M219.667585,26.5057946 C212.997125,22.8611634 207.251297,18.3872554 202.792383,12.468866 C201.896139,11.2789753 200.46661,9.66229065 201.696072,8.1536551 C203.304039,6.18040843 205.172904,7.80249554 206.558499,8.73847088 C212.983607,13.0779928 216.863275,19.4123712 219.667585,26.5057946 M128.692086,78.723898 C128.35346,78.0823568 128.011454,77.4576976 127.780296,76.7324185 C129.312562,77.8541029 130.723166,79.3357261 132.217581,80.6134069 C133.805947,81.9714488 135.279409,83.4895391 136.793426,84.9333448 C141.499044,89.4214342 148.450002,97.4285478 152.251941,102.702019 C154.864971,106.327066 157.424605,110.073669 159.805802,113.879699 C160.563486,115.089848 161.809847,117.92006 160.476972,119.122106 C159.197492,120.276205 157.913281,119.548224 156.781824,118.706792 C155.861924,118.023382 154.906877,117.335244 154.159331,116.480981 C144.170878,105.071671 135.773493,92.1368431 128.692086,78.723898 M220.371196,114.594173 C221.8379,117.129275 223.362055,119.69409 224.216393,122.514172 C224.631396,123.88437 226.039297,128.539935 223.296493,128.511829 C222.668582,128.504819 222.065679,128.242125 221.554698,127.878135 C221.043717,127.514144 220.612493,127.050884 220.186,126.591675 C219.151873,125.478769 218.193446,124.30306 217.22015,123.133429 C211.790643,116.608614 206.922809,109.626616 202.599751,102.325873 C200.424704,98.652879 198.385513,94.8995237 196.472715,91.08404 C195.506854,89.1580645 194.573436,87.2172326 193.670433,85.261544 C193.216228,84.2782973 192.769458,83.2909988 192.330798,82.3009988 C192.101668,81.784389 191.874566,81.2671041 191.649491,80.7484684 C191.523773,80.4594369 191.327763,79.6051735 191.081059,79.4282433 C193.275707,80.9996826 195.348693,83.0620698 197.199984,84.7314279 C198.647762,86.0367965 202.941081,91.2663728 203.683219,92.1172595 C206.935651,95.8463038 209.231009,98.419223 211.971108,102.260369 C215.789269,107.612851 215.962299,106.971984 220.371196,114.594173 M293.454264,85.7849067 C290.440425,81.8633999 286.742575,78.5334615 283.749012,74.5923707 C280.827771,70.7464981 279.151539,66.7750185 278.393178,61.9155105 C277.771351,57.9352515 280.078874,53.475525 284.68581,54.568847 C295.242696,57.0742352 295.199439,72.4887899 294.155849,80.7883112 C294.055815,81.579771 293.025743,85.2271033 293.454264,85.7849067 M64.7032558,54.493888 C64.6931173,54.7376736 64.6904138,55.0219776 64.6579706,55.2394268 C62.8195222,53.3026466 61.1791122,51.1133015 59.3676991,49.1306006 C57.4393562,47.0195914 55.7982699,44.6107718 53.98145,42.4025183 C51.4664252,39.3467547 50.06596,35.5022327 49.5042869,31.5564147 C49.1386248,28.9909238 49.3765417,25.4448875 51.3454389,23.509458 C54.3329185,20.5732238 57.7097161,24.1557267 59.7874332,26.2532298 C61.6022255,28.0860127 62.8431784,30.3422129 63.6704803,32.7368511 C64.9533392,36.4490129 65.4798652,40.3610656 65.5197435,44.2778455 C65.5548901,47.7198846 64.8512779,51.1126264 64.7032558,54.493888 M402.302594,85.0670556 C394.608821,88.8393199 393.505752,91.8822527 384.800157,90.9422255 C379.643038,90.3850973 377.07732,88.4132014 373.28214,84.825971 C368.213564,80.0366946 364.458263,74.0021526 359.987858,68.6051 C356.567803,64.4755985 351.468135,60.0023657 346.664512,57.6441941 C337.535803,53.1628581 327.13505,55.9984714 322.511892,64.6005305 C319.919139,64.0731155 318.167881,62.1113491 316.138153,60.6601148 C306.539017,53.7969713 295.793555,49.8660098 284.195783,48.1811192 C277.51586,47.2100279 272.341843,49.7748434 265.446309,57.2565681 C258.549423,51.5549522 251.516005,45.9478793 243.785057,41.3220273 C241.642454,40.0402949 240.936814,37.7489786 239.86416,35.7412913 C235.178144,26.9683798 230.261645,18.3393086 223.431673,11.0102032 C218.121125,5.31128852 211.996117,0.882626066 203.896804,0.193137752 C199.837347,-0.151944058 195.907663,0.377496527 193.462931,4.15043601 C190.867475,8.15568102 191.980682,12.1082521 194.232782,15.8751139 C196.038111,18.8944109 198.545026,21.2816207 201.309458,23.4074867 C207.006621,27.787527 213.054576,31.7367216 219.656094,34.4649614 C226.334665,37.2242652 229.646576,42.0763451 231.289013,49.1853005 C229.052459,49.0981859 227.99062,47.4470606 226.662476,46.4705669 C223.11062,43.8591552 219.470222,41.3915839 215.259363,40.0058542 C208.814654,37.8853906 205.328361,39.2609907 199.300006,45.9931249 C180.132151,29.9316263 169.296117,31.7340204 161.956517,43.2230161 C159.567885,41.1153834 157.28537,38.9753359 154.870379,36.9973621 C150.366179,33.308836 145.517947,30.2935908 139.651132,29.1523222 C128.569747,26.997418 122.648861,33.5580243 126.049991,44.3791415 C127.937781,50.3853209 131.416639,55.5831576 134.583908,60.9430686 C136.104684,63.5166629 137.666013,66.1280747 138.699464,68.911014 C139.878235,72.0836058 138.095886,73.358585 135.135443,72.4773095 C131.768783,71.4744788 129.02936,69.3013415 126.535963,66.8337702 C120.861781,61.2165679 116.321759,54.5695222 112.840197,47.4011397 C111.090291,43.7970269 109.598579,40.0706837 108.304906,36.2801862 C106.992983,32.4356642 106.067676,28.6863605 105.041659,24.7668794 C101.654723,24.358994 98.2312885,24.2563474 94.8267788,24.4602901 C93.631111,24.5325479 92.250923,24.7547239 91.6554547,25.7933459 C90.6111888,27.6139731 91.9967842,31.1336726 92.7760975,32.8280175 C92.2353771,32.0338566 93.0937703,33.2635904 92.7760975,32.8280175 C92.3806959,32.2857461 91.5290615,31.4814556 89.2026129,29.9356782 C86.6551444,28.1771791 86.6551444,28.1771791 84.8606292,27.0575203 C82.1157985,25.3449421 78.1164968,23.5020296 75.1702474,22.164922 C69.4332061,19.5609387 63.3649737,17.72613 57.1608849,16.6375353 C53.333262,15.9662803 49.2852952,15.9244113 45.6239435,17.3769964 C43.8246969,18.0901204 42.1829353,19.1449497 40.7574616,20.4503179 C39.3069796,21.7786465 37.7929631,22.9705631 36.6581265,24.556859 C34.5824368,22.8631894 32.2424701,21.4376166 30.2269355,19.6791175 C28.0924425,17.8166211 25.7193567,16.3167646 23.2793567,14.8884905 C19.8437558,12.878102 16.1797004,11.6389139 12.1364651,11.5457215 C2.65223262,11.3282727 -1.60796672,16.4268396 0.811756211,25.6650375 C2.55557888,32.3222126 5.48222701,38.9449471 8.59745132,45.053773 C8.96176154,45.7675724 9.32945127,46.4793458 9.69714105,47.1911193 C11.6640108,50.9984992 13.5423376,54.7194403 17.0563431,57.3565134 C19.0921546,58.8840575 21.4294178,59.9301082 23.8153457,60.78167 C25.8815727,61.5191052 27.818027,62.2389821 29.9444092,61.3111105 C31.8680214,60.4717042 33.0238108,58.4430825 31.9416945,56.4171618 C30.4411959,53.607885 29.0616835,50.7337792 27.5638885,47.9231519 C24.0938165,41.4104925 20.4838333,34.9640131 18.4676228,27.7976566 C17.9613735,25.9979638 17.3665813,24.0260678 19.1475785,22.7004404 C20.7900161,21.478135 22.8204205,21.9191103 24.3993235,22.8956041 C28.0985256,25.1828685 31.6111793,27.6274793 35.3576944,29.8202007 C35.4300158,29.8620697 35.5050406,29.9073153 35.5469465,29.9788978 C35.6050739,30.0774926 35.5888523,30.2003985 35.5733066,30.31385 C34.5290407,37.7672119 42.2356555,43.7666381 48.689827,45.6176543 C50.1720763,46.0430976 50.9703143,47.3484658 52.0470234,48.3067262 C53.1304919,49.2717398 54.7445418,51.0005251 55.6441647,52.1390925 C61.437306,59.4742761 67.0303806,66.9890909 73.8637324,73.43557 C76.0522973,75.499308 78.3544135,77.3834142 81.2580811,78.4551262 C83.3486406,79.2263263 84.9113217,78.3707127 86.2725852,77.0822272 C87.8697372,75.5702152 87.777815,73.6428895 86.4462913,72.0903587 C80.7741363,65.4730266 80.981638,57.6982188 81.8197542,49.7694409 C82.4895712,43.4276341 81.4838316,37.4011956 78.5957099,31.378809 C78.8363306,31.8805619 81.0904576,32.5477651 81.6386131,32.8212644 C82.6247514,33.3142384 83.6007513,33.8288223 84.5571503,34.3778468 C87.5493605,36.0965027 90.2475546,38.2601859 92.8849171,40.4326481 C93.1843411,40.6791352 93.5871779,41.1532006 93.7811609,41.4888281 C94.85787,43.3513245 95.9812163,45.3650895 96.8483965,47.4011397 C106.555676,70.2035514 118.179133,91.9308748 133.953293,111.224392 C138.115487,116.31553 142.785282,120.920448 148.149902,124.801436 C149.506434,125.783333 151.897769,127.090727 153.457071,127.70323 C157.812572,129.413783 162.159287,130.070181 165.516484,126.320877 C168.297813,123.215816 168.554655,119.633313 167.016306,115.979903 C163.569215,107.790456 157.959918,101.010376 152.468905,94.1573616 C149.332728,90.2432829 145.505104,86.8262299 142.609548,82.7277929 C144.696728,83.694157 146.855553,84.495746 149.012351,85.2966598 C151.412473,86.1873897 154.685182,86.6520007 157.031231,85.287881 C159.272517,83.9838632 159.660484,81.2434682 159.604384,78.87044 C159.513137,74.9820231 157.460428,71.8452223 155.695653,68.6402163 C152.802799,63.3883548 149.56321,58.3249034 146.726456,53.0440039 C145.210412,50.2218964 143.864018,47.2019242 143.102955,44.1083434 C142.120196,40.1145786 144.413525,38.1379554 148.135032,39.9498037 C155.315796,43.4465427 161.413093,48.286467 164.027475,56.3084372 C172.367409,81.8978406 185.583962,104.695525 203.425701,124.80954 C207.569646,129.481988 212.164416,133.763434 217.971075,136.376871 C221.870344,138.131319 226.030509,139.32256 229.590476,135.87782 C233.126787,132.45604 232.26231,128.286695 230.551607,124.30171 C228.540127,119.617781 225.768936,115.339037 222.869324,111.171718 C212.158333,95.7753966 200.375363,81.2623766 186.543065,68.5355435 C181.347419,63.7550459 180.060505,57.4233687 179.287951,51.0957434 C178.653957,45.9019585 183.140583,43.20951 188.141569,45.5629544 C195.600804,49.0731995 201.357446,54.5377826 204.751142,62.2754487 C208.432094,70.6701883 215.60272,83.82179 220.321856,91.6810109 C221.51482,93.6664131 222.807141,95.6221022 225.441801,96.0306626 C228.480648,96.5006761 230.773977,95.1426342 232.824659,93.0822729 C235.053102,90.8436305 234.490753,88.4800568 233.217357,86.1023011 C229.624947,79.3931275 225.971706,72.7163681 222.386731,66.0031427 C220.211008,61.927666 218.281989,57.747516 217.139042,53.2351156 C216.772704,51.7886082 216.650366,50.4238134 217.833867,49.4054505 C219.139706,48.2824152 220.472582,49.1744956 221.671629,49.7748434 C227.206576,52.5483285 231.204526,57.0269639 234.671894,61.9702103 C240.120326,69.7382653 244.350786,78.2126909 248.586653,86.6749615 C250.34129,90.1811545 252.007384,93.7373204 253.911395,97.1618019 C255.841767,100.634229 258.631207,102.256317 262.502763,100.013623 C265.91268,98.0383499 268.39729,95.8321223 266.378376,91.1515705 C261.898508,80.768052 256.910365,70.6350725 251.956016,60.480483 C250.660315,57.8258518 248.85093,55.370436 248.425113,52.2890107 C253.714708,53.1817665 258.385179,57.5753128 262.625102,60.5486892 C263.134055,60.9059263 263.853888,61.6372837 264.280381,62.0883889 C264.509511,62.3308242 264.65483,62.6340367 264.700791,62.9642617 C264.835971,63.9346777 265.184736,66.1098414 265.73965,67.3199911 C266.403384,68.7698752 267.350996,70.1184627 268.414863,71.3016004 C270.782542,73.9359724 274.512835,76.6230188 277.95114,77.2611833 C279.241434,77.5009176 279.167084,77.7041848 280.094419,78.5597984 C281.640879,79.9853715 284.184292,82.8979702 285.501622,84.5544977 C290.531671,90.8767204 295.719206,97.0814402 301.048679,103.1538 C303.625887,106.089359 306.578895,108.690641 310.335549,110.238444 C312.672136,111.201432 314.401765,110.320156 316.010408,108.908089 C317.809654,107.328546 317.19864,105.467401 315.979316,103.973622 C310.376103,97.1104783 309.809698,89.3836174 311.527161,81.0753168 C312.799881,74.9178688 310.340956,69.3506388 308.178751,63.468716 C315.125654,66.1172694 321.667017,69.6470988 324.645033,76.5196969 C327.266851,82.5677452 330.171194,88.4895107 333.168136,94.3599537 C336.111005,100.123022 339.745997,105.836794 342.163692,111.824064 C339.577022,111.70386 337.686529,111.53976 335.164745,112.199535 C332.986995,112.768819 330.278662,114.861595 328.459139,116.115639 C324.902551,118.567679 321.571715,119.655598 317.226352,119.800789 C311.441998,119.993252 305.807693,118.116574 300.535671,115.921151 C291.557688,112.182652 284.476281,104.663786 274.662209,102.652722 C267.16242,101.115723 258.631883,101.556699 251.563994,104.650955 C248.533257,105.977933 245.805324,107.899856 243.361944,110.114863 C242.000681,111.349324 240.732692,112.684405 239.528914,114.071486 C238.955075,114.733286 237.208548,117.328491 236.577257,118.267167 C243.459274,115.622666 248.400105,114.035695 257.716714,113.296909 C267.040758,112.557448 275.801777,112.809337 283.705079,119.195714 C298.618142,131.246565 316.689012,131.11488 331.952867,119.511082 C336.28674,116.215585 343.572944,115.879282 346.659105,120.792815 C349.074096,124.637337 358.842207,145.183549 364.312944,142.753795 C364.600877,142.626162 364.932745,142.420868 365.28962,142.158849 C367.17065,140.777846 369.757321,137.807171 370.279791,136.129034 C371.963459,130.702943 366.216279,126.420147 364.234539,121.966498 C364.765797,123.120598 376.61906,121.253374 377.778904,119.485421 C378.97322,117.664794 376.286517,113.494098 374.185143,114.27948 C363.046983,118.443422 360.226451,115.004085 360.226451,115.004085 C360.226451,115.004085 353.687116,104.577346 350.914573,98.8858599 C347.412734,91.695868 343.554019,84.3606844 341.000468,76.7405222 C339.992025,73.7293285 338.319847,70.46422 341.848723,67.9487017 C345.143061,65.5999845 348.02172,67.6245544 350.782097,69.2817575 C355.201808,71.9350384 358.555625,75.7930665 361.941886,79.5774863 C367.885077,86.2198045 372.919858,94.376161 381.778883,96.4331456 C393.564555,99.1701644 396.618949,95.5039232 402.811546,92.2313862 C409.928776,88.4699272 412.576278,87.8824102 421.281873,91.1731805 C420.111214,90.0042242 419.023015,88.7427508 417.782737,87.6447018 C413.656366,83.9912917 406.741231,82.9492934 402.302594,85.0670556" id="path22"></path>
                                    </g>
                                    <g id="g24" transform="translate(126.244786, 29.251120)">
                                        <path d="M219.667585,26.5057946 C212.997125,22.8611634 207.251297,18.3872554 202.792383,12.468866 C201.896139,11.2789753 200.46661,9.66229065 201.696072,8.1536551 C203.304039,6.18040843 205.172904,7.80249554 206.558499,8.73847088 C212.983607,13.0779928 216.863275,19.4123712 219.667585,26.5057946 Z M128.692086,78.723898 C128.35346,78.0823568 128.011454,77.4576976 127.780296,76.7324185 C129.312562,77.8541029 130.723166,79.3357261 132.217581,80.6134069 C133.805947,81.9714488 135.279409,83.4895391 136.793426,84.9333448 C141.499044,89.4214342 148.450002,97.4285478 152.251941,102.702019 C154.864971,106.327066 157.424605,110.073669 159.805802,113.879699 C160.563486,115.089848 161.809847,117.92006 160.476972,119.122106 C159.197492,120.276205 157.913281,119.548224 156.781824,118.706792 C155.861924,118.023382 154.906877,117.335244 154.159331,116.480981 C144.170878,105.071671 135.773493,92.1368431 128.692086,78.723898 L128.692086,78.723898 Z M220.371196,114.594173 C221.8379,117.129275 223.362055,119.69409 224.216393,122.514172 C224.631396,123.88437 226.039297,128.539935 223.296493,128.511829 C222.668582,128.504819 222.065679,128.242125 221.554698,127.878135 C221.043717,127.514144 220.612493,127.050884 220.186,126.591675 C219.151873,125.478769 218.193446,124.30306 217.22015,123.133429 C211.790643,116.608614 206.922809,109.626616 202.599751,102.325873 C200.424704,98.652879 198.385513,94.8995237 196.472715,91.08404 C195.506854,89.1580645 194.573436,87.2172326 193.670433,85.261544 C193.216228,84.2782973 192.769458,83.2909988 192.330798,82.3009988 C192.101668,81.784389 191.874566,81.2671041 191.649491,80.7484684 C191.523773,80.4594369 191.327763,79.6051735 191.081059,79.4282433 C193.275707,80.9996826 195.348693,83.0620698 197.199984,84.7314279 C198.647762,86.0367965 202.941081,91.2663728 203.683219,92.1172595 C206.935651,95.8463038 209.231009,98.419223 211.971108,102.260369 C215.789269,107.612851 215.962299,106.971984 220.371196,114.594173 Z M293.454264,85.7849067 C290.440425,81.8633999 286.742575,78.5334615 283.749012,74.5923707 C280.827771,70.7464981 279.151539,66.7750185 278.393178,61.9155105 C277.771351,57.9352515 280.078874,53.475525 284.68581,54.568847 C295.242696,57.0742352 295.199439,72.4887899 294.155849,80.7883112 C294.055815,81.579771 293.025743,85.2271033 293.454264,85.7849067 Z M64.7032558,54.493888 C64.6931173,54.7376736 64.6904138,55.0219776 64.6579706,55.2394268 C62.8195222,53.3026466 61.1791122,51.1133015 59.3676991,49.1306006 C57.4393562,47.0195914 55.7982699,44.6107718 53.98145,42.4025183 C51.4664252,39.3467547 50.06596,35.5022327 49.5042869,31.5564147 C49.1386248,28.9909238 49.3765417,25.4448875 51.3454389,23.509458 C54.3329185,20.5732238 57.7097161,24.1557267 59.7874332,26.2532298 C61.6022255,28.0860127 62.8431784,30.3422129 63.6704803,32.7368511 C64.9533392,36.4490129 65.4798652,40.3610656 65.5197435,44.2778455 C65.5548901,47.7198846 64.8512779,51.1126264 64.7032558,54.493888 Z M402.302594,85.0670556 C394.608821,88.8393199 393.505752,91.8822527 384.800157,90.9422255 C379.643038,90.3850973 377.07732,88.4132014 373.28214,84.825971 C368.213564,80.0366946 364.458263,74.0021526 359.987858,68.6051 C356.567803,64.4755985 351.468135,60.0023657 346.664512,57.6441941 C337.535803,53.1628581 327.13505,55.9984714 322.511892,64.6005305 C319.919139,64.0731155 318.167881,62.1113491 316.138153,60.6601148 C306.539017,53.7969713 295.793555,49.8660098 284.195783,48.1811192 C277.51586,47.2100279 272.341843,49.7748434 265.446309,57.2565681 C258.549423,51.5549522 251.516005,45.9478793 243.785057,41.3220273 C241.642454,40.0402949 240.936814,37.7489786 239.86416,35.7412913 C235.178144,26.9683798 230.261645,18.3393086 223.431673,11.0102032 C218.121125,5.31128852 211.996117,0.882626066 203.896804,0.193137752 C199.837347,-0.151944058 195.907663,0.377496527 193.462931,4.15043601 C190.867475,8.15568102 191.980682,12.1082521 194.232782,15.8751139 C196.038111,18.8944109 198.545026,21.2816207 201.309458,23.4074867 C207.006621,27.787527 213.054576,31.7367216 219.656094,34.4649614 C226.334665,37.2242652 229.646576,42.0763451 231.289013,49.1853005 C229.052459,49.0981859 227.99062,47.4470606 226.662476,46.4705669 C223.11062,43.8591552 219.470222,41.3915839 215.259363,40.0058542 C208.814654,37.8853906 205.328361,39.2609907 199.300006,45.9931249 C180.132151,29.9316263 169.296117,31.7340204 161.956517,43.2230161 C159.567885,41.1153834 157.28537,38.9753359 154.870379,36.9973621 C150.366179,33.308836 145.517947,30.2935908 139.651132,29.1523222 C128.569747,26.997418 122.648861,33.5580243 126.049991,44.3791415 C127.937781,50.3853209 131.416639,55.5831576 134.583908,60.9430686 C136.104684,63.5166629 137.666013,66.1280747 138.699464,68.911014 C139.878235,72.0836058 138.095886,73.358585 135.135443,72.4773095 C131.768783,71.4744788 129.02936,69.3013415 126.535963,66.8337702 C120.861781,61.2165679 116.321759,54.5695222 112.840197,47.4011397 C111.090291,43.7970269 109.598579,40.0706837 108.304906,36.2801862 C106.992983,32.4356642 106.067676,28.6863605 105.041659,24.7668794 C101.654723,24.358994 98.2312885,24.2563474 94.8267788,24.4602901 C93.631111,24.5325479 92.250923,24.7547239 91.6554547,25.7933459 C90.6111888,27.6139731 91.9967842,31.1336726 92.7760975,32.8280175 C92.2353771,32.0338566 93.0937703,33.2635904 92.7760975,32.8280175 C92.3806959,32.2857461 91.5290615,31.4814556 89.2026129,29.9356782 C86.6551444,28.1771791 86.6551444,28.1771791 84.8606292,27.0575203 C82.1157985,25.3449421 78.1164968,23.5020296 75.1702474,22.164922 C69.4332061,19.5609387 63.3649737,17.72613 57.1608849,16.6375353 C53.333262,15.9662803 49.2852952,15.9244113 45.6239435,17.3769964 C43.8246969,18.0901204 42.1829353,19.1449497 40.7574616,20.4503179 C39.3069796,21.7786465 37.7929631,22.9705631 36.6581265,24.556859 C34.5824368,22.8631894 32.2424701,21.4376166 30.2269355,19.6791175 C28.0924425,17.8166211 25.7193567,16.3167646 23.2793567,14.8884905 C19.8437558,12.878102 16.1797004,11.6389139 12.1364651,11.5457215 C2.65223262,11.3282727 -1.60796672,16.4268396 0.811756211,25.6650375 C2.55557888,32.3222126 5.48222701,38.9449471 8.59745132,45.053773 C8.96176154,45.7675724 9.32945127,46.4793458 9.69714105,47.1911193 C11.6640108,50.9984992 13.5423376,54.7194403 17.0563431,57.3565134 C19.0921546,58.8840575 21.4294178,59.9301082 23.8153457,60.78167 C25.8815727,61.5191052 27.818027,62.2389821 29.9444092,61.3111105 C31.8680214,60.4717042 33.0238108,58.4430825 31.9416945,56.4171618 C30.4411959,53.607885 29.0616835,50.7337792 27.5638885,47.9231519 C24.0938165,41.4104925 20.4838333,34.9640131 18.4676228,27.7976566 C17.9613735,25.9979638 17.3665813,24.0260678 19.1475785,22.7004404 C20.7900161,21.478135 22.8204205,21.9191103 24.3993235,22.8956041 C28.0985256,25.1828685 31.6111793,27.6274793 35.3576944,29.8202007 C35.4300158,29.8620697 35.5050406,29.9073153 35.5469465,29.9788978 C35.6050739,30.0774926 35.5888523,30.2003985 35.5733066,30.31385 C34.5290407,37.7672119 42.2356555,43.7666381 48.689827,45.6176543 C50.1720763,46.0430976 50.9703143,47.3484658 52.0470234,48.3067262 C53.1304919,49.2717398 54.7445418,51.0005251 55.6441647,52.1390925 C61.437306,59.4742761 67.0303806,66.9890909 73.8637324,73.43557 C76.0522973,75.499308 78.3544135,77.3834142 81.2580811,78.4551262 C83.3486406,79.2263263 84.9113217,78.3707127 86.2725852,77.0822272 C87.8697372,75.5702152 87.777815,73.6428895 86.4462913,72.0903587 C80.7741363,65.4730266 80.981638,57.6982188 81.8197542,49.7694409 C82.4895712,43.4276341 81.4838316,37.4011956 78.5957099,31.378809 C78.8363306,31.8805619 81.0904576,32.5477651 81.6386131,32.8212644 C82.6247514,33.3142384 83.6007513,33.8288223 84.5571503,34.3778468 C87.5493605,36.0965027 90.2475546,38.2601859 92.8849171,40.4326481 C93.1843411,40.6791352 93.5871779,41.1532006 93.7811609,41.4888281 C94.85787,43.3513245 95.9812163,45.3650895 96.8483965,47.4011397 C106.555676,70.2035514 118.179133,91.9308748 133.953293,111.224392 C138.115487,116.31553 142.785282,120.920448 148.149902,124.801436 C149.506434,125.783333 151.897769,127.090727 153.457071,127.70323 C157.812572,129.413783 162.159287,130.070181 165.516484,126.320877 C168.297813,123.215816 168.554655,119.633313 167.016306,115.979903 C163.569215,107.790456 157.959918,101.010376 152.468905,94.1573616 C149.332728,90.2432829 145.505104,86.8262299 142.609548,82.7277929 C144.696728,83.694157 146.855553,84.495746 149.012351,85.2966598 C151.412473,86.1873897 154.685182,86.6520007 157.031231,85.287881 C159.272517,83.9838632 159.660484,81.2434682 159.604384,78.87044 C159.513137,74.9820231 157.460428,71.8452223 155.695653,68.6402163 C152.802799,63.3883548 149.56321,58.3249034 146.726456,53.0440039 C145.210412,50.2218964 143.864018,47.2019242 143.102955,44.1083434 C142.120196,40.1145786 144.413525,38.1379554 148.135032,39.9498037 C155.315796,43.4465427 161.413093,48.286467 164.027475,56.3084372 C172.367409,81.8978406 185.583962,104.695525 203.425701,124.80954 C207.569646,129.481988 212.164416,133.763434 217.971075,136.376871 C221.870344,138.131319 226.030509,139.32256 229.590476,135.87782 C233.126787,132.45604 232.26231,128.286695 230.551607,124.30171 C228.540127,119.617781 225.768936,115.339037 222.869324,111.171718 C212.158333,95.7753966 200.375363,81.2623766 186.543065,68.5355435 C181.347419,63.7550459 180.060505,57.4233687 179.287951,51.0957434 C178.653957,45.9019585 183.140583,43.20951 188.141569,45.5629544 C195.600804,49.0731995 201.357446,54.5377826 204.751142,62.2754487 C208.432094,70.6701883 215.60272,83.82179 220.321856,91.6810109 C221.51482,93.6664131 222.807141,95.6221022 225.441801,96.0306626 C228.480648,96.5006761 230.773977,95.1426342 232.824659,93.0822729 C235.053102,90.8436305 234.490753,88.4800568 233.217357,86.1023011 C229.624947,79.3931275 225.971706,72.7163681 222.386731,66.0031427 C220.211008,61.927666 218.281989,57.747516 217.139042,53.2351156 C216.772704,51.7886082 216.650366,50.4238134 217.833867,49.4054505 C219.139706,48.2824152 220.472582,49.1744956 221.671629,49.7748434 C227.206576,52.5483285 231.204526,57.0269639 234.671894,61.9702103 C240.120326,69.7382653 244.350786,78.2126909 248.586653,86.6749615 C250.34129,90.1811545 252.007384,93.7373204 253.911395,97.1618019 C255.841767,100.634229 258.631207,102.256317 262.502763,100.013623 C265.91268,98.0383499 268.39729,95.8321223 266.378376,91.1515705 C261.898508,80.768052 256.910365,70.6350725 251.956016,60.480483 C250.660315,57.8258518 248.85093,55.370436 248.425113,52.2890107 C253.714708,53.1817665 258.385179,57.5753128 262.625102,60.5486892 C263.134055,60.9059263 263.853888,61.6372837 264.280381,62.0883889 C264.509511,62.3308242 264.65483,62.6340367 264.700791,62.9642617 C264.835971,63.9346777 265.184736,66.1098414 265.73965,67.3199911 C266.403384,68.7698752 267.350996,70.1184627 268.414863,71.3016004 C270.782542,73.9359724 274.512835,76.6230188 277.95114,77.2611833 C279.241434,77.5009176 279.167084,77.7041848 280.094419,78.5597984 C281.640879,79.9853715 284.184292,82.8979702 285.501622,84.5544977 C290.531671,90.8767204 295.719206,97.0814402 301.048679,103.1538 C303.625887,106.089359 306.578895,108.690641 310.335549,110.238444 C312.672136,111.201432 314.401765,110.320156 316.010408,108.908089 C317.809654,107.328546 317.19864,105.467401 315.979316,103.973622 C310.376103,97.1104783 309.809698,89.3836174 311.527161,81.0753168 C312.799881,74.9178688 310.340956,69.3506388 308.178751,63.468716 C315.125654,66.1172694 321.667017,69.6470988 324.645033,76.5196969 C327.266851,82.5677452 330.171194,88.4895107 333.168136,94.3599537 C336.111005,100.123022 339.745997,105.836794 342.163692,111.824064 C339.577022,111.70386 337.686529,111.53976 335.164745,112.199535 C332.986995,112.768819 330.278662,114.861595 328.459139,116.115639 C324.902551,118.567679 321.571715,119.655598 317.226352,119.800789 C311.441998,119.993252 305.807693,118.116574 300.535671,115.921151 C291.557688,112.182652 284.476281,104.663786 274.662209,102.652722 C267.16242,101.115723 258.631883,101.556699 251.563994,104.650955 C248.533257,105.977933 245.805324,107.899856 243.361944,110.114863 C242.000681,111.349324 240.732692,112.684405 239.528914,114.071486 C238.955075,114.733286 237.208548,117.328491 236.577257,118.267167 C243.459274,115.622666 248.400105,114.035695 257.716714,113.296909 C267.040758,112.557448 275.801777,112.809337 283.705079,119.195714 C298.618142,131.246565 316.689012,131.11488 331.952867,119.511082 C336.28674,116.215585 343.572944,115.879282 346.659105,120.792815 C349.074096,124.637337 358.842207,145.183549 364.312944,142.753795 C364.600877,142.626162 364.932745,142.420868 365.28962,142.158849 C367.17065,140.777846 369.757321,137.807171 370.279791,136.129034 C371.963459,130.702943 366.216279,126.420147 364.234539,121.966498 C364.765797,123.120598 376.61906,121.253374 377.778904,119.485421 C378.97322,117.664794 376.286517,113.494098 374.185143,114.27948 C363.046983,118.443422 360.226451,115.004085 360.226451,115.004085 C360.226451,115.004085 353.687116,104.577346 350.914573,98.8858599 C347.412734,91.695868 343.554019,84.3606844 341.000468,76.7405222 C339.992025,73.7293285 338.319847,70.46422 341.848723,67.9487017 C345.143061,65.5999845 348.02172,67.6245544 350.782097,69.2817575 C355.201808,71.9350384 358.555625,75.7930665 361.941886,79.5774863 C367.885077,86.2198045 372.919858,94.376161 381.778883,96.4331456 C393.564555,99.1701644 396.618949,95.5039232 402.811546,92.2313862 C409.928776,88.4699272 412.576278,87.8824102 421.281873,91.1731805 C420.111214,90.0042242 419.023015,88.7427508 417.782737,87.6447018 C413.656366,83.9912917 406.741231,82.9492934 402.302594,85.0670556" id="path26"></path>
                                    </g>
                                    <g id="g28" transform="translate(530.015976, 107.587189)" fill="#FFFFFF" fill-rule="nonzero">
                                        <line x1="0.67590026" y1="0.675306869" x2="0.67590026" y2="0.61655517" id="path30"></line>
                                    </g>
                                    <g id="g32" transform="translate(0.006489, 25.419766)" fill="#988244" fill-rule="nonzero">
                                        <path d="M142.614955,78.3355969 C142.614955,78.3355969 142.128307,74.8793763 136.922523,64.8294595 C135.164506,61.4346916 132.886047,57.1566229 130.898224,53.8935398 C129.26998,51.2206753 127.549138,48.6052119 125.758002,46.0383705 C122.213581,40.9580369 118.397448,36.0735423 114.461005,31.293045 C109.610745,25.4030185 104.283299,19.9418118 98.1704575,15.3375696 C95.6013605,13.4028154 92.8849171,11.5882659 90.0299149,10.1181228 C77.3108238,3.5683215 71.1412059,5.86233894 66.0158544,19.2091039 C62.3916773,16.3039338 58.9121427,13.412945 55.3251399,10.6610695 C49.4258824,6.13516289 43.1386582,2.25012249 35.7585032,0.682059936 C25.1941822,-1.56401071 19.0590355,5.08438541 22.125595,15.3524263 C24.4601545,23.1711293 28.7676669,30.016715 33.0542263,36.8501452 C41.2643868,49.9375924 50.51273,62.3578363 58.1828461,75.7923913 C60.9303808,80.6039524 63.538004,85.5242385 64.9837547,90.8868505 C66.2997326,95.7706696 63.5467906,98.7872654 59.1162642,96.7235274 C41.344143,88.4462913 27.8579051,75.6499012 20.7528416,57.0668072 C19.4003652,53.5275238 20.0323319,49.4486702 22.0424593,45.6892368 C24.239811,41.5799945 22.8927418,39.5966182 18.2858056,39.7485623 C11.1246424,39.9849197 5.57144585,44.4216859 1.85534621,50.2772717 C-2.24196116,56.7325303 2.41431573,61.6872566 6.2764098,66.9485725 C9.86544017,71.8377942 13.9607199,76.3454677 18.4405868,80.4324248 C27.2110686,88.4348109 37.379988,94.7597352 48.0287966,99.948118 C54.8743146,103.283459 61.9050291,106.2906 69.74412,106.451323 C79.4730286,106.651214 83.1100477,102.365041 81.6345577,92.6217137 C80.9978596,88.4199543 79.1465688,84.7165713 77.24053,81.0368243 C70.7505359,68.5092066 62.5410509,57.0384443 55.0013835,45.157095 C50.7966082,38.5316593 46.5506027,31.9285088 43.2231457,24.8080731 C42.259312,22.7450107 41.2116666,20.6272483 41.1819269,18.2434151 C41.1366416,14.6480813 43.031866,13.0030338 46.4444864,14.0619149 C48.3890514,14.6649639 50.3011732,15.7062872 51.9260376,16.9461506 C60.7587019,23.6843625 69.0067132,30.6035567 72.5842532,42.0614883 C75.8089732,52.3903067 81.1512887,61.9695347 87.9143467,70.5911779 C90.7923304,74.2607953 94.0393551,77.5799285 98.4482525,79.3566609 C101.045737,80.4040619 104.00956,81.0098122 106.336008,78.9805148 C108.876717,76.7655084 107.73377,73.9650109 106.73141,71.3002496 C103.519532,62.7562675 98.1224684,55.5318345 92.7578482,48.3161805 C89.0403969,43.3162085 85.1999315,38.3716116 81.0039427,33.7741224 C79.7305466,32.3782631 78.6159869,30.7703575 77.477771,29.2623973 C78.4551228,24.0922479 79.5811725,17.6538722 86.2793441,20.1477804 C93.5236429,22.8456314 98.3624128,28.5654806 102.990978,34.2988359 C108.467798,41.0822934 113.230191,48.4161259 117.456595,56.0342628 C119.744518,60.1583616 121.878335,64.366874 123.900629,68.6273851 C125.864794,72.7649902 127.57685,77.0329299 129.526146,81.1597303 C130.265581,82.7250913 131.758645,86.2981402 131.758645,86.2981402" id="path34"></path>
                                    </g>
                                    <g id="g36" transform="translate(17.597807, 0.744391)" fill="#D39F03" fill-rule="nonzero">
                                        <path d="M0.844875312,1.35061374 C-1.45724097,4.27739371 2.3811966,10.3976999 4.39875888,12.5201894 C7.59644299,15.8845682 12.2236562,17.3634902 16.6778389,18.1590017 C37.9910018,21.9657065 59.3170066,25.7075819 80.6774829,29.2421381 C105.075455,33.2791225 129.658623,36.022219 154.183664,39.1502404 C195.564306,44.4291142 237.025379,48.4931109 278.602708,51.8939561 C282.036281,52.174884 285.573943,52.2390383 288.958851,51.7210777 C291.47996,51.3361528 293.78951,49.5952118 293.801107,46.6184591 C293.814519,43.3688825 291.238663,42.3680776 288.587782,42.1999262 C282.136314,41.7893397 275.663217,41.7420682 269.207694,41.3733507 C240.336615,39.7249266 265.167838,41.1579277 240.336615,39.7249266 C216.215762,38.3331191 154.660849,30.0795185 130.47511,26.103987 C111.362679,22.9617842 85.4344685,18.6688584 66.4835771,14.6501072 C46.4025805,10.3922974 26.5230021,5.25861458 6.55014942,0.531466507 C4.967191,0.156671194 2.91921321,-0.303888091 1.48900826,0.735409178 C1.23554566,0.919092648 1.02196118,1.12573655 0.844875312,1.35061374" id="path38"></path>
                                    </g>
                                    <g id="g40" transform="translate(17.597807, 0.744391)">
                                        <path d="M0.844875312,1.35061374 C-1.45724097,4.27739371 2.3811966,10.3976999 4.39875888,12.5201894 C7.59644299,15.8845682 12.2236562,17.3634902 16.6778389,18.1590017 C37.9910018,21.9657065 59.3170066,25.7075819 80.6774829,29.2421381 C105.075455,33.2791225 129.658623,36.022219 154.183664,39.1502404 C195.564306,44.4291142 237.025379,48.4931109 278.602708,51.8939561 C282.036281,52.174884 285.573943,52.2390383 288.958851,51.7210777 C291.47996,51.3361528 293.78951,49.5952118 293.801107,46.6184591 C293.814519,43.3688825 291.238663,42.3680776 288.587782,42.1999262 C282.136314,41.7893397 275.663217,41.7420682 269.207694,41.3733507 C240.336615,39.7249266 265.167838,41.1579277 240.336615,39.7249266 C216.215762,38.3331191 154.660849,30.0795185 130.47511,26.103987 C111.362679,22.9617842 85.4344685,18.6688584 66.4835771,14.6501072 C46.4025805,10.3922974 26.5230021,5.25861458 6.55014942,0.531466507 C4.967191,0.156671194 2.91921321,-0.303888091 1.48900826,0.735409178 C1.23554566,0.919092648 1.02196118,1.12573655 0.844875312,1.35061374 Z" id="path42"></path>
                                    </g>
                                    <g id="g44" transform="translate(17.090881, 0.069084)" fill-rule="nonzero">
                                        <path d="M1.35180052,2.02592061 L1.61742932,2.23459043 C1.17201105,2.80117289 0.978027679,3.50889449 0.977351775,4.3253405 C0.973972277,5.78332804 1.62283652,7.55263201 2.47920215,9.14500559 C3.33218828,10.7380545 4.38929629,12.162952 5.15035996,12.9631906 C8.26490838,16.2438314 12.8184484,17.7132992 17.2442433,18.5020576 C38.5567303,22.3087624 59.8807075,26.0506378 81.239156,29.5845186 C105.625637,33.6194772 130.20475,36.3618983 154.733171,39.4905951 C196.107729,44.7687936 237.563396,48.832115 279.137345,52.2329605 C280.72909,52.3626194 282.340436,52.4463573 283.945699,52.4463573 C285.789555,52.4463573 287.625976,52.3362825 289.414408,52.0627832 C290.616159,51.8797747 291.760458,51.3719442 292.593843,50.5730561 C293.427228,49.7721422 293.961865,48.6923265 293.969976,47.2924153 L293.969976,47.2694549 C293.962541,45.7432614 293.388702,44.8255194 292.500569,44.2015358 C291.608381,43.5809288 290.360669,43.2925728 289.073079,43.2122112 C282.634453,42.8023 276.162032,42.7550285 269.695694,42.3863109 C240.82529,40.7378869 265.655162,42.1702128 240.823939,40.7372116 C216.671319,39.3427029 155.128572,31.0897777 130.927288,27.1122202 C111.813504,23.9700173 85.8832667,19.6764163 66.9208847,15.6563144 C46.8297495,11.3958034 26.9474675,6.26144344 6.97934611,1.53564782 C6.12162866,1.33170515 5.14630456,1.1108798 4.23857053,1.11223042 C3.47345144,1.11223042 2.77119107,1.26484977 2.19464815,1.68354003 C1.96484205,1.85034082 1.77491409,2.03469959 1.61742932,2.23459043 L1.35180052,2.02592061 L1.08617172,1.81725078 C1.28285869,1.56738724 1.51942379,1.33913352 1.79721879,1.13721677 C2.52719107,0.607100877 3.388288,0.436248237 4.23857053,0.436919571 C5.25242093,0.437598851 6.2723544,0.674631564 7.13480314,0.878574235 C27.1117112,5.60639765 46.989262,10.7394052 67.0607961,14.995189 C85.9988456,19.011239 111.925027,23.3041647 131.036783,26.4456923 C155.206977,30.4191979 216.774056,38.6741491 240.863141,40.0632553 C265.693689,41.4962565 240.861789,40.0632553 269.73422,41.7116794 C276.178253,42.0797216 282.652026,42.1269931 289.116336,42.538255 C290.472192,42.6260449 291.831428,42.9191281 292.885156,43.6464335 C293.94294,44.3696872 294.653987,45.5649804 294.646012,47.2694549 L294.646012,47.2944412 C294.641821,48.8712828 294.015937,50.1509893 293.061566,51.0606276 C292.107195,51.972967 290.836502,52.5280693 289.517145,52.7306614 C287.686807,53.0102384 285.816591,53.121664 283.945699,53.121664 C282.31678,53.121664 280.687184,53.037251 279.081921,52.9055662 C237.501213,49.5047206 196.035408,45.4400486 154.647331,40.1604995 C130.126346,37.0324781 105.539122,34.2893816 81.128984,30.2503712 C59.7664805,26.7158151 38.4391237,22.9739397 17.1252849,19.1665595 C12.6427144,18.364295 7.94115213,16.8752433 4.66033229,13.4278018 C3.84452068,12.5688115 2.76848747,11.1135251 1.88305812,9.46375048 C1.00033238,7.81262514 0.304831017,5.97646579 0.301445484,4.3253405 C0.301445484,3.40422193 0.525850404,2.52902422 1.08617172,1.81725078 L1.35180052,2.02592061 Z" id="path46"></path>
                                    </g>
                                    <g id="g48" transform="translate(17.090881, 0.069084)">
                                        <path d="M1.35180052,2.02592061 L1.61742932,2.23459043 C1.17201105,2.80117289 0.978027679,3.50889449 0.977351775,4.3253405 C0.973972277,5.78332804 1.62283652,7.55263201 2.47920215,9.14500559 C3.33218828,10.7380545 4.38929629,12.162952 5.15035996,12.9631906 C8.26490838,16.2438314 12.8184484,17.7132992 17.2442433,18.5020576 C38.5567303,22.3087624 59.8807075,26.0506378 81.239156,29.5845186 C105.625637,33.6194772 130.20475,36.3618983 154.733171,39.4905951 C196.107729,44.7687936 237.563396,48.832115 279.137345,52.2329605 C280.72909,52.3626194 282.340436,52.4463573 283.945699,52.4463573 C285.789555,52.4463573 287.625976,52.3362825 289.414408,52.0627832 C290.616159,51.8797747 291.760458,51.3719442 292.593843,50.5730561 C293.427228,49.7721422 293.961865,48.6923265 293.969976,47.2924153 L293.969976,47.2694549 C293.962541,45.7432614 293.388702,44.8255194 292.500569,44.2015358 C291.608381,43.5809288 290.360669,43.2925728 289.073079,43.2122112 C282.634453,42.8023 276.162032,42.7550285 269.695694,42.3863109 C240.82529,40.7378869 265.655162,42.1702128 240.823939,40.7372116 C216.671319,39.3427029 155.128572,31.0897777 130.927288,27.1122202 C111.813504,23.9700173 85.8832667,19.6764163 66.9208847,15.6563144 C46.8297495,11.3958034 26.9474675,6.26144344 6.97934611,1.53564782 C6.12162866,1.33170515 5.14630456,1.1108798 4.23857053,1.11223042 C3.47345144,1.11223042 2.77119107,1.26484977 2.19464815,1.68354003 C1.96484205,1.85034082 1.77491409,2.03469959 1.61742932,2.23459043 L1.35180052,2.02592061 L1.08617172,1.81725078 C1.28285869,1.56738724 1.51942379,1.33913352 1.79721879,1.13721677 C2.52719107,0.607100877 3.388288,0.436248237 4.23857053,0.436919571 C5.25242093,0.437598851 6.2723544,0.674631564 7.13480314,0.878574235 C27.1117112,5.60639765 46.989262,10.7394052 67.0607961,14.995189 C85.9988456,19.011239 111.925027,23.3041647 131.036783,26.4456923 C155.206977,30.4191979 216.774056,38.6741491 240.863141,40.0632553 C265.693689,41.4962565 240.861789,40.0632553 269.73422,41.7116794 C276.178253,42.0797216 282.652026,42.1269931 289.116336,42.538255 C290.472192,42.6260449 291.831428,42.9191281 292.885156,43.6464335 C293.94294,44.3696872 294.653987,45.5649804 294.646012,47.2694549 L294.646012,47.2944412 C294.641821,48.8712828 294.015937,50.1509893 293.061566,51.0606276 C292.107195,51.972967 290.836502,52.5280693 289.517145,52.7306614 C287.686807,53.0102384 285.816591,53.121664 283.945699,53.121664 C282.31678,53.121664 280.687184,53.037251 279.081921,52.9055662 C237.501213,49.5047206 196.035408,45.4400486 154.647331,40.1604995 C130.126346,37.0324781 105.539122,34.2893816 81.128984,30.2503712 C59.7664805,26.7158151 38.4391237,22.9739397 17.1252849,19.1665595 C12.6427144,18.364295 7.94115213,16.8752433 4.66033229,13.4278018 C3.84452068,12.5688115 2.76848747,11.1135251 1.88305812,9.46375048 C1.00033238,7.81262514 0.304831017,5.97646579 0.301445484,4.3253405 C0.301445484,3.40422193 0.525850404,2.52902422 1.08617172,1.81725078 L1.35180052,2.02592061 Z" id="path50"></path>
                                    </g>
                                    <g id="g52" transform="translate(132.220487, 114.624494)" fill="#988244" fill-rule="nonzero">
                                        <path d="M14.1939055,0 C14.1939055,0 18.8704594,17.8078421 16.9265702,22.3236192 C15.6018057,25.4009925 12.9759332,27.2864493 9.6559111,26.9717563 C5.1692852,26.5469883 5.49980044,23.7174525 5.34501924,20.6454816 C5.08682535,15.540837 3.99457054,10.4787367 2.38390022,5.63611112 C1.75598887,3.74727781 1.11253183,1.86587288 0.419734061,0" id="path54"></path>
                                    </g>
                                    <g id="g56" transform="translate(133.256508, 90.279006)" fill="#D39F03" fill-rule="nonzero">
                                        <polygon id="path58" points="19.6011075 35.7912641 24.4060825 22.6545195 38.7608522 22.277023 27.3759882 13.7809873 31.4422042 0.410586576 19.6011075 8.29682018 7.76001088 0.410586576 11.8262269 13.7809873 0.44136287 22.277023 14.7961326 22.6545195"></polygon>
                                    </g>
                                    <g id="g60" transform="translate(133.256508, 90.279006)">
                                        <polygon id="path62" points="19.6011075 35.7912641 24.4060825 22.6545195 38.7608522 22.277023 27.3759882 13.7809873 31.4422042 0.410586576 19.6011075 8.29682018 7.76001088 0.410586576 11.8262269 13.7809873 0.44136287 22.277023 14.7961326 22.6545195"></polygon>
                                    </g>
                                </g>
                            </g>
                        </g>
                    </g>
                </g>
            </g>
        </g>
    </g>
</svg>