<?xml version="1.0" encoding="UTF-8"?>
<svg width="276px" height="200px" viewBox="0 0 276 200" version="1.1" xmlns="http://www.w3.org/2000/svg" xmlns:xlink="http://www.w3.org/1999/xlink">
    <!-- Generator: Sketch 60.1 (88133) - https://sketch.com -->
    <title>Group 2</title>
    <desc>Created with Sketch.</desc>
    <defs>
        <polygon id="path-1" points="5.34890059e-16 -2.27373675e-13 188 -2.27373675e-13 188 200 5.34890059e-16 200"></polygon>
    </defs>
    <g id="Page-1" stroke="none" stroke-width="1" fill="none" fill-rule="evenodd">
        <g id="Desktop-HD-Copy" transform="translate(-1062.000000, -2519.000000)">
            <g id="how-it-works" transform="translate(0.000000, 2285.000000)">
                <g id="Group-2" transform="translate(1062.000000, 234.000000)">
                    <ellipse id="Oval" fill="#F5B645" cx="138" cy="100" rx="138" ry="100"></ellipse>
                    <g id="hand_and_device_Illustration_set-03" transform="translate(51.000000, 0.000000)">
                        <g id="Group-3">
                            <mask id="mask-2" fill="white">
                                <use xlink:href="#path-1"></use>
                            </mask>
                            <g id="Clip-2"></g>
                        </g>
                        <path d="M96.7355318,51.2576605 L65.4427518,40 L57.3456386,61.9889104 L51.1775025,97.2391726 L37,135.740084 L73.8588916,149 L88.3917396,109.534146 C91.8827262,106.266553 95.7043615,99.1219589 97.3488878,94.6565159 L106.055289,71.0125571 C109.000909,63.0135873 104.828287,54.1691442 96.7355318,51.2576605" id="Fill-4" fill="#F0C7AF"></path>
                        <path d="M53.7843182,64.1247196 L53.7843182,64.1247196 L46.6527246,48.402924 C44.1303675,41.5377437 39.0477733,37.4546143 33.2324434,39.5514649 C28.9528511,41.0945979 31.9002757,45.8508965 33.2587571,50.2946727 L39.9516926,68.5109183 L41.5947091,85.1304639 C41.7196269,86.3922981 45.7803239,95.5591442 48.6884226,101.996934 C52.991437,111.522421 66.9521613,111.270054 70.9368088,101.609646 C75.4601644,88.2184486 64.7577135,73.282972 53.7843182,64.1247196" id="Fill-5" fill="#F0C7AF"></path>
                        <path d="M71.4950012,101.497 C71.2900012,102.06 71.7200012,100.946 71.4950012,101.497" id="Fill-6" fill="#FBE6D7"></path>
                        <path d="M31.096818,42.3822524 L34.101901,50.6541102 C34.4874819,51.7152112 35.6585054,52.2624053 36.7173228,51.8760992 L36.7176142,51.8760992 C39.3053488,50.9323791 40.6398726,48.065596 39.6979244,45.4727018 L39.0101157,43.5800059 C37.9848144,40.7576056 34.8695655,39.3020226 32.0524641,40.3295445 C31.222722,40.6320488 30.7948817,41.5512415 31.096818,42.3822524" id="Fill-7" fill="#FEF2EA"></path>
                        <polyline id="Fill-8" fill="#FFFFFE" points="88 123.737305 83.4879113 136 37 119.262695 41.5120887 107 88 123.737305"></polyline>
                        <polyline id="Fill-9" fill="#31322F" points="5 200 63.4122334 200 88 131.920073 36.4205081 113 5 200"></polyline>
                        <path d="M50.2905238,137.697252 C52.8845058,138.641294 55.753082,137.303877 56.6971291,134.709613 C57.6414724,132.11535 56.3037514,129.247086 53.7097694,128.302748 C51.1154912,127.358706 48.2472112,128.696123 47.3028679,131.290387 C46.3585245,133.88465 47.6962455,136.752914 50.2905238,137.697252" id="Fill-10" fill="#F9C831"></path>
                        <path d="M103.4,104 L56.6,104 C54.611648,104 53,102.492791 53,100.633237 L53,6.36676286 C53,4.50720857 54.611648,3 56.6,3 L103.4,3 C105.388352,3 107,4.50720857 107,6.36676286 L107,100.633237 C107,102.492791 105.388352,104 103.4,104" id="Fill-11" fill="#31322F"></path>
                        <polygon id="Fill-12" fill="#7EC6DF" points="56 95 105 95 105 11 56 11"></polygon>
                        <path d="M96.1538462,79 L64.8461538,79 C63.2742231,79 62,77.74644 62,76.2 L62,67.8 C62,66.25356 63.2742231,65 64.8461538,65 L96.1538462,65 C97.7257769,65 99,66.25356 99,67.8 L99,76.2 C99,77.74644 97.7257769,79 96.1538462,79" id="Fill-13" fill="#415C9A"></path>
                        <path d="M67.1307832,69.2526132 C66.3780266,69.2526132 65.8874103,69.5457172 65.8874103,70.0759873 C65.8874103,71.8026471 70.0110154,70.8771004 70,73.7205237 C70,75.1309621 68.7999271,76 67.1200216,76 C65.9199708,76 64.7853172,75.491991 64,74.7473868 L64.5562893,73.5966608 C65.3418825,74.341265 66.3236669,74.7473868 67.1418206,74.7473868 C68.036409,74.7473868 68.5708993,74.3974885 68.5708993,73.7884485 C68.5708993,72.0281117 64.4472942,73.0098819 64.4472942,70.2001356 C64.4472942,68.846206 65.5709103,68 67.2290168,68 C68.2218387,68 69.1928617,68.3270665 69.9017442,68.812529 L69.3672539,69.9858014 C68.5383387,69.4669473 67.7091475,69.2526132 67.1307832,69.2526132" id="Fill-14" fill="#FFFFFE"></path>
                        <path d="M78,72.4312937 L78,76 L76.6469946,76 L76.6469946,72.7762741 C76.6469946,71.9139594 76.0825233,71.385444 75.141341,71.385444 C74.0237056,71.3963525 73.3530054,72.1618544 73.3530054,73.1752514 L73.3530054,76 L72,76 L72,68 L73.3530054,68 L73.3530054,71.385444 C73.800238,70.5768536 74.6000793,70.2212374 75.6707003,70.2212374 C77.1293394,70.2212374 78,71.0620078 78,72.4312937" id="Fill-15" fill="#FFFFFE"></path>
                        <path d="M83.5629716,73.8704881 L83.5629716,73.3270993 L81.7477947,73.3270993 C80.8024232,73.3270993 80.3611436,73.5489994 80.3611436,74.1145502 C80.3611436,74.6469983 80.8528005,74.9909295 81.659475,74.9909295 C82.693485,74.9909295 83.4874057,74.513746 83.5629716,73.8704881 Z M83.5757254,75.9444548 L83.5757254,75.2237703 C83.0965033,75.7449972 82.3277713,76 81.3568923,76 C79.9074291,76 79,75.2125491 79,74.1700954 C79,73.0942585 79.919864,72.4066766 81.5335317,72.3954554 L83.5629716,72.3954554 L83.5629716,72.2178792 C83.5629716,71.4750327 83.0209374,71.0312325 81.9623764,71.0312325 C81.3192688,71.0312325 80.6509725,71.2309706 79.9833138,71.6301664 L79.3905835,70.7428465 C80.32352,70.2550028 81.0042512,70 82.277394,70 C84.0042512,70 84.9748114,70.7762297 84.9875651,72.0739667 L85,75.9444548 L83.5757254,75.9444548 L83.5757254,75.9444548 Z" id="Fill-16" fill="#FFFFFE"></path>
                        <path d="M90,70 L90,71.2311468 C88.9264868,71.1640396 88.2440572,71.8693723 88.1539633,72.8881548 L88.1539633,76 L87,76 L87,70.0447381 L88.1539633,70.0447381 L88.1539633,71.2311468 C88.5151002,70.425295 89.1571779,70 90,70" id="Fill-17" fill="#FFFFFE"></path>
                        <path d="M94.8264502,72.5555295 C94.780306,71.5997002 94.122313,71.0221556 93.1176544,71.0221556 C92.1477499,71.0221556 91.4550027,71.610942 91.3162781,72.5555295 L94.8264502,72.5555295 Z M95.9812236,73.4888754 L91.3393502,73.4888754 C91.5472911,74.3997377 92.2745005,74.9666027 93.244697,74.9666027 C93.9143721,74.9666027 94.5262209,74.7220947 94.9765649,74.2777648 L95.6809942,75.0000468 C95.0805354,75.6332381 94.2029194,76 93.1407265,76 C91.2470618,76 90,74.788702 90,73.0108202 C90,71.2219776 91.2818159,70.0109607 93.1059723,70 C95.2654043,70 96.1430204,71.3554733 95.9812236,73.4888754 L95.9812236,73.4888754 Z" id="Fill-18" fill="#FFFFFE"></path>
                        <path d="M164.473825,157.426023 C165.631372,149.845476 164.871957,142.093401 162.265532,134.886043 L149.68854,100.107027 C148.438297,96.6495235 144.583933,94.903532 141.166275,96.296037 C137.910691,97.6224807 136.367391,101.391748 137.568695,104.713362 L137.776541,105.287922 C137.921343,105.688347 137.767041,106.158021 137.385606,106.342877 C136.947172,106.555548 136.43389,106.337661 136.271528,105.888849 L134.332975,100.528314 C133.13167,97.2064097 129.542439,95.3175748 126.201356,96.4075881 C122.693881,97.5523628 120.856372,101.383345 122.106903,104.840849 L124.098426,110.348285 C124.251288,110.77102 124.034805,111.238375 123.614795,111.392229 L123.613932,111.392518 C123.193921,111.546372 122.729578,111.328485 122.576716,110.90575 L119.530418,102.482051 C118.329401,99.160147 114.739882,97.2713121 111.399087,98.3616151 C107.891613,99.5061001 106.054103,103.337083 107.304347,106.794586 L110.403614,115.365185 C110.556476,115.78792 110.339993,116.255276 109.919983,116.40884 L109.919119,116.409419 C109.499397,116.563273 109.034766,116.345096 108.882192,115.922651 L96.4085477,81.4299014 C95.2075313,78.1082872 91.618012,76.2191626 88.2772171,77.3094657 C84.7697423,78.4539507 82.9322332,82.2849331 84.1824764,85.7424367 L106.466629,147.365565 L90.6685987,142.865276 C83.769375,140.337848 77.3733578,141.584612 75.2661093,147.411344 C73.715612,151.699541 79.2632603,152.529365 83.5534684,154.375898 L101.860333,161.08229 L127.161133,176 L163.68044,162.621985 L164.473825,157.426023" id="Fill-19" fill="#F5D4C0"></path>
                        <path d="M146.494751,158.502 C146.793751,159.021 146.216751,157.975 146.494751,158.502" id="Fill-20" fill="#FBE6D7"></path>
                        <polyline id="Fill-21" fill="#F5D4C0" points="124 168.480922 130.620458 187 167 173.519078 160.379542 155 124 168.480922"></polyline>
                        <path d="M94.2627771,82.1431301 L94.8071628,83.6385182 C95.4084205,85.2906603 94.5567567,87.1173823 92.9046422,87.71865 L89.91335,88.8071567 C88.2615184,89.4084244 86.4348269,88.5567464 85.8335693,86.9048872 L85.2891835,85.4092161 C84.3874385,82.9311444 85.6649342,80.1913444 88.1429645,79.2893014 C90.6209949,78.3872584 93.3610321,79.6650583 94.2627771,82.1431301" id="Fill-22" fill="#FEF2EA"></path>
                        <path d="M75.0328567,151.140039 L83.1364439,153.886943 C84.1759595,154.239431 85.3253193,153.740139 85.703481,152.772196 C86.6280033,150.406288 85.318454,147.790469 82.778306,146.929364 L80.9241123,146.300586 C78.1591268,145.363282 75.1015094,146.691174 74.0951759,149.266763 C73.7985393,150.025292 74.2184647,150.86375 75.0328567,151.140039" id="Fill-23" fill="#FEF2EA"></path>
                        <polyline id="Fill-24" fill="#FFFFFE" points="122 179.737305 126.512089 192 173 175.262695 168.487911 163 122 179.737305"></polyline>
                        <polyline id="Fill-25" fill="#31322F" points="173.978955 170 122 188.743302 126.135386 200 185 200 173.978955 170"></polyline>
                        <polygon id="Fill-26" fill="#359FCD" points="65 45 97 45 97 22 65 22"></polygon>
                        <path d="M88,28.5 C88,29.8808333 89.1191667,31 90.5,31 C91.8805556,31 93,29.8808333 93,28.5 C93,27.1191667 91.8805556,26 90.5,26 C89.1191667,26 88,27.1191667 88,28.5" id="Fill-27" fill="#F7FBF8"></path>
                        <polyline id="Fill-28" fill="#F7FBF8" points="73 32 82 46 64 46 73 32"></polyline>
                        <polyline id="Fill-29" fill="#DAEDE3" points="85 33 92 45 78 45 85 33"></polyline>
                        <path d="M64.8684211,45.1428571 L96.1315789,45.1428571 L96.1315789,22.8571429 L64.8684211,22.8571429 L64.8684211,45.1428571 Z M64,46 L97,46 L97,22 L64,22 L64,46 Z" id="Fill-30" fill="#F7FBF8"></path>
                        <path d="M101.418752,80.4600942 C98.7343296,82.280746 98.1909006,85.992521 100.260021,88.6568481 C102.230974,91.1943833 105.88977,91.7275883 108.468721,89.9782569 L113.380618,86.6465745 C116.007484,84.8646961 116.882813,81.069997 114.967372,78.4203869 C113.051931,75.7704937 109.07146,75.2692696 106.444594,77.051148 L101.418752,80.4600942" id="Fill-31" fill="#F5D4C0"></path>
                        <path d="M107.384429,89.1509504 L108.665725,88.253927 C110.080955,87.2628779 110.425012,85.3122225 109.433958,83.8969995 L107.6396,81.3344211 C106.648545,79.9188959 104.69788,79.5751427 103.282649,80.5658895 L102.001353,81.4632152 C99.8783565,82.9497888 99.3625729,85.875772 100.849154,87.9984553 C102.335433,90.1214408 105.261432,90.637524 107.384429,89.1509504" id="Fill-32" fill="#FEF2EA"></path>
                        <path d="M98.6354426,52.4328003 C95.7184086,54.4386188 95.1198214,58.5163176 97.3584961,61.4376452 C99.4909075,64.2201265 103.459562,64.7971428 106.262296,62.8702475 L115.364632,56.611053 C118.218861,54.6482038 118.853465,50.7014591 116.781775,47.7959161 C114.709788,44.8900807 110.71613,44.1256949 107.861604,46.0885442 L98.6354426,52.4328003" id="Fill-33" fill="#F5D4C0"></path>
                        <path d="M105.384455,61.1508422 L106.665801,60.2538855 C108.080976,59.2626772 108.424946,57.3121524 107.434039,55.8969541 L105.639585,53.3342208 C104.648677,51.9190225 102.697899,51.5750467 101.282723,52.5659703 L100.001377,53.4632117 C97.878329,54.949597 97.3626584,57.875669 98.8490199,59.9984664 C100.335381,62.1215486 103.261406,62.6375122 105.384455,61.1508422" id="Fill-34" fill="#FEF2EA"></path>
                        <path d="M97.3266915,37.8925351 C94.694844,39.7608352 94.2134566,43.6442936 96.3052934,46.4691724 C98.2976398,49.1597646 101.931438,49.774055 104.460131,47.9791841 L112.673311,42.149425 C115.24879,40.3211252 115.764844,36.563382 113.825766,33.7562176 C111.886969,30.9490532 108.22696,30.1553328 105.651481,31.9836325 L97.3266915,37.8925351" id="Fill-35" fill="#F5D4C0"></path>
                        <path d="M104.384392,46.1510633 L105.665816,45.2536687 C107.081203,44.2629335 107.424894,42.3122886 106.433865,40.8969114 L104.639639,38.3343672 C103.64861,36.9189901 101.697952,36.5750128 100.282853,37.5660361 L99.0014284,38.4631427 C96.8784926,39.9496776 96.3625233,42.875789 97.8490681,44.9987107 C99.3356129,47.1216323 102.261456,47.6373102 104.384392,46.1510633" id="Fill-36" fill="#FEF2EA"></path>
                        <path d="M97.5462405,67.6101492 C94.7079569,69.5656171 94.1460896,73.5699824 96.3492693,76.4531937 C98.4479492,79.1993941 102.327757,79.7881708 105.054593,77.9093265 L114.453784,71.4330676 C117.231279,69.519472 117.828751,65.644142 115.788545,62.7771669 C113.748628,59.9101918 109.843347,59.1371197 107.065852,61.0507152 L97.5462405,67.6101492" id="Fill-37" fill="#F5D4C0"></path>
                        <path d="M104.384447,77.150849 L105.66571,76.2537314 C107.080837,75.2626836 107.425057,73.3120856 106.434018,71.8969458 L104.639519,69.3341142 C103.648762,67.9189745 101.697901,67.5750325 100.282774,68.5660803 L99.0015114,69.4631979 C96.8785407,70.9497696 96.362492,73.8756667 97.8490496,75.9986575 C99.3356072,78.1216484 102.261477,78.6374207 104.384447,77.150849" id="Fill-38" fill="#FEF2EA"></path>
                    </g>
                </g>
            </g>
        </g>
    </g>
</svg>