<?xml version="1.0" encoding="UTF-8"?>
<svg width="294px" height="200px" viewBox="0 0 294 200" version="1.1" xmlns="http://www.w3.org/2000/svg" xmlns:xlink="http://www.w3.org/1999/xlink">
    <!-- Generator: Sketch 60.1 (88133) - https://sketch.com -->
    <title>v211batch13-minty-48-todo</title>
    <desc>Created with Sketch.</desc>
    <g id="Page-1" stroke="none" stroke-width="1" fill="none" fill-rule="evenodd">
        <g id="Desktop-HD-Copy" transform="translate(-55.000000, -2519.000000)">
            <g id="how-it-works" transform="translate(0.000000, 2285.000000)">
                <g id="v211batch13-minty-48-todo" transform="translate(55.000000, 234.000000)">
                    <polyline id="Fill-4" fill="#918873" points="9.19846132 121.708735 8 148.715709 11.5140048 194.636998 16.7725317 195 23.161476 153.292594 32 118 9.19846132 121.708735"></polyline>
                    <polyline id="Fill-5" fill="#3B3C3C" points="16.7920664 196.85521 10.7225203 199 8 196.32247 11.1387399 194 17 194.35536 16.7920664 196.85521"></polyline>
                    <polyline id="Fill-6" fill="#918873" points="45.8724999 113.087847 47 133.387384 43.6545819 193.745707 38.5101747 194 30.8000784 154.412814 24 111 45.8724999 113.087847"></polyline>
                    <polyline id="Fill-7" fill="#3B3C3C" points="38.1310546 195.74982 43.5080728 198 46 195.37509 43.2459636 193 38 193.25012 38.1310546 195.74982"></polyline>
                    <path d="M7.54603527,52.3440304 L22.8892097,48.001497 C22.8892097,48.001497 31.7399502,47.4557376 41.1339257,67.2055279 C46.3604604,78.1933278 50.4236739,96.2153222 53,110.043325 C52.9640482,112.084452 52.2796446,121.115343 42.9654887,121.188288 C26.9712237,121.313952 18.2590132,120.200218 11.6913772,122.616347 C6.12841276,124.861388 5.27051696,116.784746 4.87768578,110.576154 L4,91.3094564 L7.54603527,52.3440304" id="Fill-8" fill="#1C1C1C"></path>
                    <path d="M7.88875332,33.0021254 C11.6078577,31.4087392 15.4547497,29.8892888 19.4517516,30.0063539 C20.3271775,30.0320261 21.2863933,30.181267 21.8696871,30.8727042 C22.0954991,31.1403794 22.2449621,31.4693255 22.3866607,31.7955332 C23.9770502,35.4591235 26.1254994,40.9272964 24.3031512,44.8917645 C23.9556983,45.6475533 23.4296663,46.2924383 22.8418434,46.8449035 C22.056354,47.5832352 21.1469593,48.1524728 20.1741559,48.5430321 C20.5348728,49.4600422 20.9742034,50.3424803 21.4853538,51.1756279 C20.827005,52.7450534 16.7280965,53.6531638 15.7491464,52.4373297 C15.5191287,51.2745514 15.2891111,50.1117731 15.0587699,48.9486525 C14.5223855,48.8240569 13.9953829,48.6501707 13.4890852,48.414329 C11.5292441,47.5014265 10.0689068,45.8447156 9.06051707,43.8799386 C7.96219075,41.7399062 6.58305523,39.7658873 5.54102016,37.5710876 C5.16153952,36.771485 4.81473368,35.8438638 5.11204205,35.0059241 C5.42843767,34.1142439 6.34786135,33.6654943 7.18155411,33.3060839 C7.41674799,33.2047644 7.6525889,33.1031026 7.88875332,33.0021254" id="Fill-9" fill="#766958"></path>
                    <path d="M21.8851448,33.4157633 C19.667545,32.4735644 16.572936,32.4280719 14.7152217,32.8803005 C9.09904173,34.2470955 7.72320811,38.7501728 8.30471808,44 C6.40125566,42.2837557 3.03757966,40.2884911 2.42624866,37.7709059 C1.92606876,35.710267 1.73189322,32.817959 2.60009168,30.8193246 C3.41237572,28.9494169 6.06543026,27.5506087 7.57105311,26.2926586 C8.98958502,25.1071594 10.4087947,23.9213232 11.8276655,22.735824 C12.1228258,22.4891539 12.4264581,22.2374291 12.7900712,22.1097132 C13.2197651,21.9587458 13.6904629,21.9954767 14.1445557,22.0338925 C18.031794,22.3641339 21.9186934,22.6940383 25.8059317,23.0242797 C26.552474,23.0876322 27.413556,23.2190547 27.7937741,23.8610036 C28.0252259,24.2519016 28.0103154,24.7341214 27.9886274,25.1866869 C27.8930646,27.1806036 27.416267,29.2820172 27.546734,31.2634655 C27.5118299,32.4331267 27.8208841,38.3464695 25.6924085,38.0165651 C24.9370555,37.1542307 24.6466394,35.9842326 24.0102316,35.0315873 C23.5402116,34.3276339 22.7848586,33.7978998 21.8851448,33.4157633" id="Fill-10" fill="#43423E"></path>
                    <polyline id="Fill-11" fill="#1C1C1C" points="23 48 29.1827645 48.8017932 54.4665205 67.8531992 57 75.1229263 49.6040531 94 45.7798254 88.1981921 48.0050565 74.8020733 40.2800427 71.0763128 27.5706724 51.7339006 23 48"></polyline>
                    <polyline id="Fill-12" fill="#498098" points="182 188.423272 50.3127772 200 35 25.5767276 166.687223 14 182 188.423272"></polyline>
                    <polyline id="Fill-13" fill="#FFFAEB" points="174 181.577556 56.1057983 192 42 30.4224437 159.893539 20 174 181.577556"></polyline>
                    <polyline id="Fill-14" fill="#427185" points="75.0755716 27 75 26.2065952 126.924428 22 127 22.7930949 75.0755716 27"></polyline>
                    <polyline id="Fill-15" fill="#D3D1C6" points="76.3474797 32 76 28.2754439 127.65252 24 128 27.7248711 76.3474797 32"></polyline>
                    <path d="M107.131069,9.77204628 L93.4140062,10.9788947 C92.0116529,11.102449 90.7645553,10.0637154 90.642304,8.67018523 C90.5200528,7.27699266 91.5674396,6.03604865 92.9694562,5.91283196 L106.686856,4.70530838 C108.088873,4.58209168 109.336307,5.62082528 109.458222,7.01435543 C109.58081,8.40754801 108.533423,9.64849201 107.131069,9.77204628 Z M115.614566,8.81095608 L114.806967,8.88218546 L114.759481,8.34104475 C114.312237,3.24223675 109.171958,-0.470467861 103.278302,0.0483925665 L95.5155156,0.731316864 C89.6215228,1.25017729 85.2063326,5.80413121 85.6535769,10.9029392 L85.7007261,11.4437423 L84.8931269,11.5149717 C78.9994709,12.0338321 74.5839439,16.5874485 75.0311882,21.6859189 L75.9357802,32 L128,27.4180269 L127.095745,17.1039458 C126.6485,12.0051378 121.508559,8.29243323 115.614566,8.81095608 L115.614566,8.81095608 Z" id="Fill-16" fill="#ABCBC4"></path>
                    <path d="M63.4587007,108 C62.9923803,108 62.5796716,107.648283 62.5388728,107.201113 C62.0266959,101.613435 61.5151934,96.0260795 61.0033537,90.4384009 C60.9598574,89.9656695 61.3449173,89.5298248 61.8412467,89.4880846 C67.7149277,88.9930271 73.5889458,88.4982932 79.4629639,88.0032357 C79.4889268,88.0009707 79.5148896,88 79.5405153,88 C80.0068357,88 80.4195444,88.3517173 80.4606804,88.7988869 C80.9721829,94.3865655 81.4840226,99.9742441 81.9958623,105.561923 C82.0198021,105.820776 81.9378673,106.025271 81.8016465,106.177347 L81.7861362,106.196114 L81.7574759,106.226206 C81.6236153,106.378929 81.4273763,106.489589 81.1579693,106.512239 C75.2842883,107.007296 69.4102702,107.50203 63.5365893,107.996764 C63.5102892,107.999029 63.4843264,108 63.4587007,108 M78.7049825,89.8265357 C73.4429467,90.2698225 68.1809108,90.7134329 62.918875,91.1567197 C63.3774402,96.1626248 63.8360054,101.167883 64.2942335,106.173464 C69.5562693,105.730177 74.8183052,105.286891 80.080341,104.843604 C79.6217758,99.8376988 79.1635478,94.8321173 78.7049825,89.8265357" id="Fill-17" fill="#B4BCB8"></path>
                    <path d="M67.4590365,140 C66.9927164,140 66.5796708,139.648288 66.538872,139.200802 C66.0270326,133.613538 65.5151931,128.02595 65.0033537,122.438038 C64.9598575,121.965314 65.3449172,121.5298 65.8409091,121.488061 C71.714924,120.993011 77.5889388,120.497962 83.4629537,120.003236 C83.4889166,120.000971 83.5148794,120 83.5408423,120 C84.0068252,120 84.4195337,120.351712 84.4606697,120.798874 C84.9721719,126.386462 85.4843485,131.973727 85.9958507,137.561639 C86.0197905,137.820164 85.9381929,138.024655 85.8012978,138.177053 L85.7861247,138.19582 L85.7574644,138.225911 C85.6236039,138.378632 85.4273651,138.48929 85.1579581,138.511939 C79.2842805,139.006665 73.4106028,139.501715 67.5365879,139.996764 C67.5106251,139.999029 67.4846622,140 67.4590365,140 M82.7049728,121.82683 C77.4429398,122.270109 72.1809069,122.713389 66.918874,123.156669 C67.3771017,128.162169 67.8356667,133.16767 68.2945689,138.17317 C73.5566018,137.729567 78.8182975,137.286287 84.0803305,136.843008 C83.6221027,131.837507 83.1632006,126.83233 82.7049728,121.82683" id="Fill-18" fill="#B4BCB8"></path>
                    <path d="M70.4585749,172 C69.9925974,172 69.5798936,171.648288 69.5390953,171.201126 C69.0272618,165.613538 68.5154282,160.02595 68.0032575,154.438685 C67.9604362,153.965638 68.3451542,153.530124 68.8411405,153.488384 C74.7150878,152.993335 80.5890351,152.498609 86.4626452,152.003236 C86.4889449,152.000971 86.5145703,152 86.5401957,152 C87.0065104,152 87.4195513,152.351712 87.4603497,152.799198 C87.9725204,158.386786 88.4840167,163.974374 88.9958503,169.561962 C89.0197898,169.820488 88.9381931,170.024979 88.8016367,170.177377 L88.7861266,170.196143 L88.7574666,170.226558 C88.6239449,170.378956 88.4277083,170.489614 88.1579673,170.511939 C82.2843572,171.006989 76.4107471,171.502038 70.5367998,171.996764 C70.5105001,171.999029 70.4845375,172 70.4585749,172 M85.704673,153.82683 C80.4430377,154.270433 75.1810653,154.713389 69.9190929,155.156669 C70.3776526,160.162493 70.8358751,165.167993 71.294772,170.17317 C76.5567444,169.729891 81.8187168,169.286611 87.080352,168.843331 C86.6217923,163.837831 86.1635698,158.832654 85.704673,153.82683" id="Fill-19" fill="#B4BCB8"></path>
                    <polyline id="Fill-20" fill="#24AC8C" points="70 95.0687048 73.7922357 93.4171598 76.3026164 97.1387245 93.7923608 82 96 82.2422748 75.8506178 102 70 95.0687048"></polyline>
                    <polyline id="Fill-21" fill="#24AC8C" points="71 128.068705 74.7925135 126.417488 77.3028628 130.139053 94.7920632 115 97 115.242604 76.8508698 135 71 128.068705"></polyline>
                    <polyline id="Fill-22" fill="#24AC8C" points="73 158.068705 76.7925135 156.417488 79.3028628 160.139053 96.7923884 145 99 145.242275 78.8508698 165 73 158.068705"></polyline>
                    <polyline id="Fill-23" fill="#CACEC5" points="98.7563771 166 98 157.384539 159.243623 152 160 160.616127 98.7563771 166"></polyline>
                    <polyline id="Fill-24" fill="#CACEC5" points="94.7563771 132 94 123.384001 155.243623 118 156 126.615666 94.7563771 132"></polyline>
                    <polyline id="Fill-25" fill="#CACEC5" points="91.7563811 98 91 89.3840013 152.243951 84 153 92.6156661 91.7563811 98"></polyline>
                    <polyline id="Fill-26" fill="#1C1C1C" points="14.4662452 62.7282891 12.3277993 80.0881531 40 98.9638983 38.4832144 104 3.14746074 90.2371142 0 78.4998339 8.04470732 53 14.4662452 62.7282891"></polyline>
                    <polyline id="Fill-27" fill="#766958" points="39 102.805837 41.2745198 104.652998 47 105 46.9457236 102.010864 42.8529449 100.616147 42.4326422 99.0552775 40.2391977 99 39 102.805837"></polyline>
                    <polyline id="Fill-28" fill="#7F7671" points="283.729144 190.809421 284 193.619183 278.937523 197 276 194.475935 278.39581 191.380817 283.457963 188 283.729144 190.809421"></polyline>
                    <polyline id="Fill-29" fill="#424C52" points="284.131359 106.372846 285 114.725473 277.366996 152.05122 284.126903 189.354527 278.656589 191 260.970108 146.647249 260 133.088256 262.39579 105 284.131359 106.372846"></polyline>
                    <polyline id="Fill-30" fill="#424C52" points="244.173284 110.280341 244 145.123256 251.040909 190 256.217399 189.965937 259.201554 148.495535 266 107 244.173284 110.280341"></polyline>
                    <polyline id="Fill-31" fill="#7F7671" points="256 192.483452 250.684544 195 248 192.533398 250.648681 190.033398 255.981907 190 256 192.483452"></polyline>
                    <path d="M239.645867,104.033482 C243.349583,92.7836026 243.74444,80.9707844 244.82172,69.2519542 C245.140901,65.794182 245.480263,62.26023 246.948027,59.1009112 C248.633736,55.4733009 251.420268,53.5582525 254.666569,52.5121816 C258.798439,51.1808486 263.674618,51.2573582 267.970956,51.0007872 C272.047331,50.8748102 275.653847,65.9003721 279.811615,73.183954 C282.360022,77.6478934 284.985786,81.5957227 286.704456,86.4646353 C288.354177,91.1376569 289.938313,95.8931242 290.898212,100.755111 C292.347141,108.096076 296.053212,113.221889 292.513963,115.719004 C292.1894,115.824205 291.876945,115.928746 291.580298,116.032627 C285.774154,118.072004 279.766882,119.581419 273.649293,120.373228 C268.222534,121.075335 262.71102,121.203621 257.261727,120.676628 C249.802498,119.956053 242.575677,118.922843 236,115.108246 C237.215177,111.416658 238.43069,107.72507 239.645867,104.033482" id="Fill-32" fill="#C77979"></path>
                    <polyline id="Fill-33" fill="#C77979" points="215 82.5487054 240.547319 75.0296669 249.219626 58 254 66.7096881 248.486149 82.5487054 220.524608 88 215 82.5487054"></polyline>
                    <polyline id="Fill-34" fill="#4769A4" points="187 54.8682946 204.917453 37 271 103.132037 253.082547 121 187 54.8682946"></polyline>
                    <polyline id="Fill-35" fill="#DFC5A8" points="205 36.0725368 180 29 187.032455 54 205 36.0725368"></polyline>
                    <polyline id="Fill-36" fill="#2F2C28" points="190 30.8290989 180 28 182.812777 38 190 30.8290989"></polyline>
                    <path d="M265.496173,127.06185 L279.026539,113.990115 C280.32308,112.737945 280.324429,110.705615 279.030924,109.45116 L272.224423,103 L254,120.606447 L260.806164,127.057933 C262.100006,128.312389 264.19997,128.314347 265.496173,127.06185" id="Fill-37" fill="#A5ABAB"></path>
                    <polyline id="Fill-38" fill="#D4D5D2" points="252.581332 120 271 102.313529 267.561499 99 249 116.549077 252.581332 120"></polyline>
                    <path d="M269.627457,40.248882 C267.330127,33.4269363 257.209232,31.0516097 254.856673,38.9800557 C254.149674,41.3625822 253.724144,43.8900894 254.204903,46.3266155 C254.68533,48.7631415 256.199139,51.100832 258.509444,52.0996604 L258.549036,52.1156967 C258.45854,52.7479825 258.368377,53.3802684 258.278214,54.0125543 C258.258917,54.1483714 258.242614,54.2982611 258.320135,54.4124784 C258.408634,54.5420774 258.58397,54.5761135 258.74134,54.5990224 C259.508558,54.7119306 260.276109,54.8245115 261.043328,54.9370924 C261.42361,54.9927283 261.820194,55.0473824 262.18617,54.9321833 C262.987657,54.6798581 263.321028,53.734702 263.356627,52.9073631 C263.364612,52.7096919 263.362616,52.5097299 263.359954,52.3091133 C267.901382,50.7787982 271.128955,44.7082647 269.627457,40.248882" id="Fill-39" fill="#DFC4A7"></path>
                    <path d="M257.13338,28.0283623 C255.278204,27.7531496 253.698473,29.5483474 251.986515,30.4909841 C250.562326,31.2750744 248.947956,31.4831458 247.472142,32.1332859 C245.996328,32.7830937 244.54516,34.139879 244.514185,35.8380211 C243.01872,35.0612433 241.398688,34.2645224 239.722702,34.5869335 C238.046382,34.9093445 236.490632,36.9059661 237.158428,38.5519241 C237.756281,40.0260404 239.683067,40.3730478 240.324218,41.8238973 C241.338403,44.1189984 238.596939,47.6831358 240.46777,49.2054475 C240.917408,49.5714007 241.52925,49.6598144 241.971561,50.0364038 C242.520454,50.5043983 242.696646,51.3080991 242.941116,52.0223891 C244.048892,55.261124 247.319931,57.3767386 250.551335,56.9439766 C252.560387,56.0043313 254.162434,54.0638823 254.88019,51.8422378 C255.745495,49.1645645 254.309649,48.2295726 254.06751,45.7157638 C253.802723,42.9686226 254.678019,40.0592787 256.411294,37.9260479 C257.539387,36.5376863 259.153091,35.3407769 260.85872,35.1785743 C261.55183,35.1127625 261.333339,35.6897785 262.113379,35.1543104 C262.448443,34.9246341 262.905076,34.0557862 263,33.639311 C261.134166,32.1415955 259.574086,28.3906592 257.13338,28.0283623" id="Fill-40" fill="#3D3939"></path>
                    <path d="M277.661102,31.6719998 C278.613269,31.9323314 279.647296,31.8939325 280.554722,32.2847553 C281.917517,32.8714776 281.834663,34.2600212 282.220434,35.4663327 C282.647634,36.8021591 283.268382,38.5951929 284.165533,39.6339159 C284.8118,40.3823693 285.717237,40.8089876 286.504689,41.3869238 C287.292472,41.9645345 288.016292,42.8171204 287.999721,43.8584468 C287.983813,44.8447781 287.308381,45.7305563 287.209286,46.7159113 C287.088981,48.1848323 287.347819,48.9368652 286.886484,50.4383276 C286.648525,51.2128141 286.382396,52.033184 285.79015,52.5616571 C285.009658,53.2577187 283.898078,53.2443767 282.921717,53.0842728 C281.946019,52.9238434 280.936848,52.6579798 279.974407,52.9759098 C277.886798,53.665463 278.276547,55.7383533 277.720757,57.4760666 C276.875307,60.1197339 273.752676,61.6631748 271.364139,60.7227269 C269.338836,59.9254615 268.166607,57.6163203 268.258079,55.3371172 C268.304146,54.1958886 268.766475,53.1321087 268.80028,51.9899039 C268.832759,50.8883758 268.20008,49.3628327 269.217205,48.488444 C269.465107,48.275623 269.782275,48.163355 270.004989,47.9205958 C270.184949,47.7243708 270.284706,47.4614359 270.347345,47.1988264 C270.563761,46.2883167 270.359607,45.2951517 269.813097,44.5981139 C269.420034,44.097301 268.857284,43.7312097 268.616343,43.1265896 C268.340271,42.4341076 268.558676,41.6241509 268.605406,40.8587761 C268.71842,39.0087947 267.687706,37.1942836 266.118105,36.4799988 C265.083746,36.009124 264.151796,35.7315455 263.247684,35.0153082 C263.110145,34.9062943 261.053027,33.1213959 261,33.5070121 C261.092466,32.835682 261.491495,32.2486343 261.895826,31.7097479 C262.560653,30.8242951 263.298723,29.9619467 264.234982,29.4315211 C267.262827,27.7165867 267.409314,31.7022633 269.839611,31.1780206 C270.42556,31.0514344 270.86701,30.5236121 271.394629,30.2089363 C272.391538,29.6140786 273.6158,29.8265743 274.634914,30.2723921 C275.654359,30.7182099 276.588298,31.3788013 277.661102,31.6719998" id="Fill-41" fill="#3D3939"></path>
                    <polyline id="Fill-42" fill="#DFC4A7" points="214 84.6205561 216.662165 84 220 86.7900823 217.478587 90 214.956582 87.7504437 214 84.6205561"></polyline>
                    <polyline id="Fill-43" fill="#DFC4A7" points="247 94.8524393 244.946253 97.0283105 239.286648 98 239 94.8652247 242.914923 92.9699591 243.155381 91.2906994 245.332414 91 247 94.8524393"></polyline>
                    <polyline id="Fill-44" fill="#C77979" points="241 91.5487655 266.54754 84.0298101 275.220257 67 280 75.709592 274.486438 91.5487655 246.524655 97 241 91.5487655"></polyline>
                    <text id="I-wish-I-had…" transform="translate(104.770996, 56.370256) rotate(-5.000000) translate(-104.770996, -56.370256) " font-family="Poppins-Regular, Poppins" font-size="14" font-weight="normal" fill="#020202">
                        <tspan x="59.4156242" y="59.3702563">I wish I had…</tspan>
                    </text>
                </g>
            </g>
        </g>
    </g>
</svg>