<?xml version="1.0" encoding="UTF-8"?>
<svg viewBox="0 0 1102 482" version="1.1" 
	xmlns="http://www.w3.org/2000/svg" 
	xmlns:xlink="http://www.w3.org/1999/xlink">
	<!-- Generator: Sketch 60.1 (88133) - https://sketch.com -->
	<title>gifts</title>
	<desc>Created with Sketch.</desc>
	<g id="Page-1" stroke="none" stroke-width="1" fill="none" fill-rule="evenodd">
		<g id="gifts" transform="translate(1.000000, 0.000000)" fill="currentcolor" fill-rule="nonzero" stroke="currentcolor">
			<path d="M1094.314,241.652 L920.427,241.652 C933.237,232.703 943.187,220.762 946.942,210.943 C949.932,203.133 948.425,198.186 946.637,195.415 C941.853,187.999 932.656,183.927 922.639,184.823 C916.101,185.398 906.251,188.384 895.27,198.895 C894.918,183.971 891.03,169.214 884.612,160.957 C880.45,155.602 876.178,154.291 873.329,154.133 C865.206,153.689 856.782,158.061 851.343,165.56 C847.643,170.657 843.083,180.428 844.732,196.292 C834.912,187.876 826.192,185.347 820.229,184.822 C810.176,183.928 801.011,187.998 796.231,195.414 C794.443,198.185 792.936,203.132 795.926,210.942 C799.681,220.761 809.631,232.702 822.441,241.651 L690.709,241.651 L690.709,88.748 C690.709,85.608 688.163,83.062 685.023,83.062 L617.47,83.062 C633.717,71.514 645.265,52.95 650.344,38.791 C655.758,23.699 655.072,11.922 648.462,6.478 C640.935,0.276 629.861,-0.89 619.58,3.421 C609.768,7.533 594.279,19.374 585.39,53.371 C576.502,19.372 561.014,7.533 551.2,3.421 C540.908,-0.899 529.846,0.275 522.32,6.478 C515.772,11.87 515.081,23.508 520.427,38.408 C525.552,52.696 537.222,71.439 553.646,83.062 L478.244,83.062 C475.104,83.062 472.558,85.608 472.558,88.748 L472.558,260.07 L408.449,260.07 C424.636,253.46 438.289,240.235 445.615,229.297 C453.527,217.484 455.421,207.128 450.809,200.882 C445.565,193.786 436.128,190.315 426.187,191.834 C417.99,193.082 404.76,198.489 391.542,218.113 C391.291,209.98 390.009,202.346 388.187,196.218 C384.134,182.589 377.362,174.524 369.611,174.094 C360.81,173.572 352.113,178.658 346.94,187.287 C343.397,193.192 339.852,203.605 342.582,219.969 C328.769,202.962 315.935,198.724 307.99,198.023 C297.976,197.176 288.777,201.199 283.993,208.615 C279.786,215.139 282.33,225.356 290.974,236.645 C297.092,244.635 306.982,253.733 318.7,260.071 L258.902,260.071 L258.902,250.537 L270.128,250.537 C273.268,250.537 275.814,247.991 275.814,244.851 L275.814,169.796 C275.814,166.656 273.268,164.11 270.128,164.11 L170.807,164.11 C186.623,152.529 197.865,134.346 202.859,120.428 C208.274,105.333 207.59,93.551 200.978,88.106 C193.451,81.907 182.382,80.738 172.096,85.049 C162.283,89.163 146.795,101.002 137.907,134.999 C129.019,101.004 113.532,89.163 103.72,85.049 C93.435,80.74 82.366,81.906 74.837,88.106 C68.288,93.5 67.598,105.141 72.945,120.042 C77.986,134.091 89.351,152.451 105.344,164.11 L5.686,164.11 C2.546,164.11 0,166.656 0,169.796 L0,244.851 C0,247.991 2.546,250.537 5.686,250.537 L16.91,250.537 L16.91,475.47 C16.91,478.61 19.456,481.156 22.596,481.156 L250.576,481.156 L253.215,481.156 L481.195,481.156 L685.023,481.156 L1066.542,481.156 C1069.682,481.156 1072.228,478.61 1072.228,475.47 L1072.228,354.095 L1094.313,354.095 C1097.453,354.095 1099.999,351.549 1099.999,348.409 L1099.999,247.338 C1099.999,244.198 1097.454,241.652 1094.314,241.652 Z M923.638,196.152 C930.612,195.527 935.221,198.695 937.081,201.58 C937.303,201.924 937.597,203.546 936.323,206.883 C931.634,219.142 913.59,236.273 894.981,241.653 L880.156,241.653 C898.36,202.626 916.421,196.789 923.638,196.152 Z M588.68,469.784 L588.68,460.856 L666.538,354.095 L679.338,354.095 L679.338,395.118 L624.884,469.784 L588.68,469.784 L588.68,469.784 Z M525.374,469.784 L577.308,398.572 L577.308,457.146 L568.092,469.784 L525.374,469.784 Z M486.881,469.784 L486.881,444.694 L577.308,320.793 L577.308,379.272 L511.3,469.784 L486.881,469.784 Z M143.592,201.305 C148.174,212.483 154.061,225.732 161.059,239.165 L143.592,239.165 L143.592,201.305 L143.592,201.305 Z M132.22,239.165 L114.75,239.165 C121.749,225.73 127.637,212.481 132.22,201.302 L132.22,239.165 Z M167.248,250.537 C183.381,278.912 204.249,305.666 227.98,312.75 L227.98,340.809 C227.98,343.949 230.526,346.495 233.666,346.495 L244.891,346.495 L244.891,469.785 L143.592,469.785 L143.592,250.537 L167.248,250.537 Z M251.144,307.579 C250.653,304.475 247.746,302.371 244.636,302.854 C242.871,303.134 241.11,303.189 239.351,303.142 L239.351,271.443 L361.717,271.443 L361.717,335.123 L250.577,335.123 L239.351,335.123 L239.351,314.56 C239.602,314.565 239.851,314.586 240.102,314.586 C242.188,314.586 244.301,314.422 246.422,314.086 C249.523,313.592 251.637,310.68 251.144,307.579 Z M492.42,271.442 L492.42,335.122 L481.195,335.122 L373.089,335.122 L373.089,271.442 L492.42,271.442 Z M503.792,267.591 L577.308,165.719 L577.308,223.522 L503.792,324.328 L503.792,267.591 Z M628.752,94.434 L671.45,94.434 L588.68,207.929 L588.68,149.962 L628.752,94.434 Z M588.68,130.53 L588.68,94.433 L614.729,94.433 L588.68,130.53 Z M679.338,239.37 L677.673,241.652 L660.026,241.652 C656.886,241.652 654.34,244.198 654.34,247.338 L654.34,273.643 L588.68,363.677 L588.68,305.211 L679.337,180.994 L679.337,239.37 L679.338,239.37 Z M654.875,350.785 L588.68,441.553 L588.68,382.979 L654.34,292.946 L654.34,348.41 C654.34,349.261 654.54,350.06 654.875,350.785 Z M679.338,161.709 L588.68,285.924 L588.68,227.23 L679.337,102.922 L679.337,161.709 L679.338,161.709 Z M486.881,366.815 L577.308,242.823 L577.308,301.506 L486.881,425.405 L486.881,366.815 Z M486.881,347.516 L486.881,346.494 L487.626,346.494 L486.881,347.516 Z M256.262,469.784 L256.262,346.494 L361.717,346.494 L361.717,469.784 L256.262,469.784 Z M373.089,346.494 L475.51,346.494 L475.51,469.784 L373.089,469.784 L373.089,346.494 Z M679.338,414.42 L679.338,469.784 L638.962,469.784 L679.338,414.42 Z M690.709,354.095 L865.749,354.095 L865.749,469.784 L690.709,469.784 L690.709,354.095 Z M665.711,342.724 L665.711,253.024 L682.682,253.024 C683.398,253.349 684.186,253.54 685.023,253.54 C685.86,253.54 686.649,253.348 687.364,253.024 L846.99,253.024 C847.01,253.024 847.031,253.032 847.051,253.032 C847.068,253.032 847.084,253.024 847.101,253.024 L865.749,253.024 L865.749,342.724 L665.711,342.724 Z M860.547,172.239 C864.37,166.972 869.47,165.315 872.699,165.49 C873.071,165.509 874.165,166.048 875.634,167.939 C881.782,175.847 886.049,195.963 882.858,213.742 C879.061,219.257 875.228,225.801 871.436,233.551 C868.061,226.654 864.654,220.709 861.268,215.598 C851.598,190.389 856.647,177.615 860.547,172.239 Z M806.545,206.882 C805.271,203.545 805.565,201.924 805.787,201.579 C807.65,198.694 812.267,195.527 819.23,196.151 C826.447,196.788 844.508,202.625 862.714,241.652 L847.887,241.652 C829.278,236.272 811.234,219.141 806.545,206.882 Z M623.975,13.907 C626.818,12.716 629.491,12.236 631.893,12.236 C635.949,12.236 639.231,13.607 641.232,15.257 C642.612,16.392 644.036,22.7 639.641,34.952 C632.059,56.085 613.208,78.44 591.728,81.994 C597.653,30.418 616.085,17.216 623.975,13.907 Z M531.13,34.568 C526.817,22.544 528.202,16.364 529.549,15.256 C531.549,13.607 534.83,12.235 538.887,12.235 C541.288,12.235 543.962,12.715 546.805,13.906 C554.692,17.213 573.11,30.4 579.041,81.917 C557.541,78.112 538.722,55.735 531.13,34.568 Z M483.929,132.542 L512.326,94.434 L555.024,94.434 L483.928,191.097 L483.928,132.542 L483.929,132.542 Z M498.144,94.434 L483.929,113.511 L483.929,94.434 L498.144,94.434 Z M483.929,210.289 L569.14,94.434 L577.308,94.434 L577.308,146.289 L495.199,260.07 L483.929,260.07 L483.929,210.289 Z M427.9,203.076 C434.784,202.035 439.62,204.878 441.661,207.64 C442.33,208.545 442.269,213.859 436.167,222.971 C425.462,238.954 405.419,253.557 386.763,252.833 C402.615,211.316 420.643,204.181 427.9,203.076 Z M356.691,193.134 C360.117,187.423 365.085,185.435 368.511,185.435 C368.671,185.435 368.827,185.441 368.98,185.449 C370.104,185.51 374.161,188.947 377.287,199.461 C382.77,217.898 381.271,242.73 368.783,256.553 C346.913,217.868 352.914,199.43 356.691,193.134 Z M300.002,229.731 C293.335,221.025 292.939,215.725 293.548,214.778 C295.251,212.138 299.277,209.275 305.267,209.275 C305.824,209.275 306.4,209.3 306.991,209.353 C314.304,209.997 332.748,215.977 351.195,256.406 C332.658,258.352 311.695,245.003 300.002,229.731 Z M247.53,260.07 L233.667,260.07 C230.527,260.07 227.981,262.616 227.981,265.756 L227.981,300.764 C210.799,293.982 194.397,273.855 180.472,250.537 L247.53,250.537 L247.53,260.07 Z M264.441,239.165 L173.996,239.165 C161.691,216.519 151.828,192.504 145.839,175.482 L264.441,175.482 L264.441,239.165 Z M176.491,95.538 C179.333,94.347 182.008,93.864 184.41,93.864 C188.466,93.864 191.746,95.238 193.747,96.885 C195.125,98.02 196.551,104.331 192.153,116.586 C184.571,137.719 165.723,160.071 144.245,163.622 C150.167,112.049 168.601,98.845 176.491,95.538 Z M83.647,116.202 C79.331,104.175 80.718,97.992 82.063,96.884 C84.065,95.238 87.345,93.863 91.402,93.863 C93.804,93.863 96.48,94.346 99.321,95.537 C107.207,98.844 125.626,112.028 131.557,163.545 C110.058,159.74 91.24,137.366 83.647,116.202 Z M11.372,175.482 L129.975,175.482 C123.994,192.5 114.148,216.517 101.857,239.165 L11.372,239.165 L11.372,175.482 Z M95.39,250.537 C77.019,281.337 54.311,306.57 31.177,302.854 C30.163,302.695 29.179,302.837 28.283,303.177 L28.283,250.538 L95.39,250.538 L95.39,250.537 Z M28.282,313.793 C28.634,313.925 29.005,314.024 29.391,314.086 C31.516,314.422 33.621,314.586 35.711,314.586 C64.457,314.586 89.733,283.652 108.561,250.537 L132.219,250.537 L132.219,469.784 L28.282,469.784 L28.282,313.793 Z M1060.857,469.784 L877.121,469.784 L877.121,354.095 L1060.857,354.095 L1060.857,469.784 Z M1088.628,342.724 L877.121,342.724 L877.121,253.024 L895.766,253.024 C895.783,253.024 895.799,253.032 895.817,253.032 C895.837,253.032 895.858,253.024 895.878,253.024 L1088.628,253.024 L1088.628,342.724 L1088.628,342.724 Z" id="Shape"></path>
		</g>
	</g>
</svg>