<?xml version="1.0" encoding="UTF-8"?>
<svg width="309px" height="200px" viewBox="0 0 309 200" version="1.1" xmlns="http://www.w3.org/2000/svg" xmlns:xlink="http://www.w3.org/1999/xlink">
    <!-- Generator: Sketch 60.1 (88133) - https://sketch.com -->
    <title>v211batch12-bb-22-family</title>
    <desc>Created with Sketch.</desc>
    <g id="Page-1" stroke="none" stroke-width="1" fill="none" fill-rule="evenodd">
        <g id="Desktop-HD-Copy" transform="translate(-565.000000, -2519.000000)">
            <g id="how-it-works" transform="translate(0.000000, 2285.000000)">
                <g id="v211batch12-bb-22-family" transform="translate(565.000000, 234.000000)">
                    <path d="M166.406521,200 C126.45929,200 91.3544159,199.318656 34.1698336,195.876534 C29.7366458,195.609568 25.2809008,194.788357 21.544985,193.365892 C17.8087836,191.943137 14.7275953,189.805087 15.0191246,187.066073 C15.3771832,183.699108 19.6656057,181.431927 25.1586926,180.431385 C31.5023828,179.276466 38.6438527,179.472628 45.2105442,178.980482 C50.8326921,178.55914 56.5519213,178.513001 62.2471657,178.513001 C63.0435177,178.513001 63.8390131,178.513872 64.6342229,178.515033 C65.4265774,178.515903 66.2180753,178.516774 67.0087167,178.516774 C69.4308944,178.516774 71.842793,178.508358 74.2347043,178.465992 C92.1499113,178.149115 110.205886,177.78813 128.072838,177.511008 C126.772234,178.933473 125.976739,180.839959 125.976739,182.934772 C125.976739,187.336521 129.48794,190.904871 133.819193,190.904871 C138.150445,190.904871 141.661647,187.336521 141.661647,182.934772 C141.661647,180.758418 140.803334,178.786061 139.411931,177.347636 C155.554548,177.137255 171.646055,177.037143 187.720144,177.008705 C186.12487,178.467733 185.121792,180.582279 185.121792,182.934772 C185.121792,187.336521 188.632993,190.904871 192.964246,190.904871 C197.295498,190.904871 200.8067,187.336521 200.8067,182.934772 C200.8067,180.577346 199.799624,178.459318 198.198925,177 C217.635167,177.001161 237.062843,177.095179 256.573895,177.213863 C267.609752,177.280895 278.403762,177.313395 289.402499,177.744313 C291.501168,177.826434 293.622679,177.977328 295.415827,178.575971 C297.208976,179.174903 298.473888,180.499577 297.714369,181.568312 C296.358087,183.47712 290.69882,184.282081 291.621092,186.516761 C291.95231,187.312146 293.514177,187.522527 294.716271,187.786011 C297.640131,188.425859 300.915196,188.951086 303.847622,189.579617 C306.07478,190.057254 308.807333,190.644869 308.990074,192.174701 C309.172815,193.704823 306.800034,194.598579 304.541467,195.144409 C296.874902,196.997212 288.317473,197.222682 280.23974,197.937977 C270.823713,198.772246 261.397978,199.080708 252.000796,199.342451 C232.619662,199.881606 213.273934,199.833727 193.827127,199.923102 C184.259196,199.966919 175.214934,200 166.406521,200" id="Fill-2" fill="#E3E5E8"></path>
                    <path d="M95.616616,71.8666115 C93.8140038,70.7772696 92.1676294,69.5431363 91.0854314,67.7658936 C89.7736067,65.6113416 89.2584518,63.351461 88.5242772,61.0129389 C87.6332914,58.1741768 86.2351776,55.3978738 84.8038094,52.7941848 C84.3032749,51.8837027 83.7580191,50.9627162 82.9344019,50.3222275 C82.7259892,50.159834 82.487189,50.0130554 82.2223013,50.0008475 C81.9488134,49.9880718 81.6896592,50.1215069 81.4692062,50.281913 C79.8924938,51.4303071 79.887907,53.7251079 80.094313,55.6522523 C80.5312057,59.7296901 81.2203723,63.7807248 82.1560794,67.7752624 C82.5124164,69.296991 82.6978951,70.9879268 83.1496948,72.4687732 C83.6430625,74.0870293 85.1311922,75.2524577 86.2615517,76.4678533 C86.8564022,77.1072064 87.458133,77.7530894 88.1860007,78.2382823 C88.9849639,78.7711713 89.9054772,79.0908478 90.8145235,79.4051302 C93.729148,80.4127076 96.8232309,81.4344803 99.8447851,80.8079028 C101.354129,80.4944721 102.972122,79.474119 102.999643,77.9469962 C103.022291,76.691854 101.963026,75.6956328 100.92039,74.9816127 C99.252228,73.8394645 97.3610332,72.9210332 95.616616,71.8666115" id="Fill-3" fill="#93BAD4"></path>
                    <path d="M223.258909,17.6496897 C223.206486,17.6223447 223.177747,17.6717867 222.941711,17.6880832 C222.858952,17.6938837 222.151644,17.9927453 222.131154,17.9551805 C221.737851,17.2339902 221.401759,16.415297 220.937938,15.7416153 C220.546231,15.172618 220.520418,14.9088353 220.231694,14.2912246 C220.119398,14.0509199 219.818433,13.9605985 219.566963,14.0155648 C219.315227,14.070531 219.101279,14.2362584 218.896377,14.3975664 C218.068524,15.0494273 217.176272,15.8098397 217.024858,16.8765715 C216.983346,17.1690803 217.002239,17.4671134 217.021133,17.7621081 C217.092449,18.8735863 217.020068,19.8143653 217.703959,20.7319425 C218.077837,21.2338202 218.563213,21.6312897 219.043534,22.0229587 C219.837326,22.6704003 220.637239,23.3222612 221.53428,23.8017657 C222.11918,24.114438 222.751978,24.3588859 223.242676,24.8143599 C223.766638,25.301046 224.229661,26.0639443 224.929784,25.9957199 C225.20068,25.9694797 225.441771,25.8131435 225.67142,25.6617792 C226.02401,25.4289323 226.376333,25.1960853 226.728923,24.9632384 C226.820995,24.9024717 226.917326,24.8367331 226.966023,24.7353632 C227.053039,24.5538918 226.956709,24.339551 226.859048,24.1647087 C226.275745,23.1220073 225.575888,22.1502925 224.778104,21.275252 C224.546061,21.0205843 224.300445,20.766469 224.162337,20.4460628 C224.045516,20.1750985 224.013051,19.8745796 223.964088,19.5820708 C223.888248,19.1288064 223.762114,18.1280894 223.424426,17.801054 C223.328895,17.7087991 223.289777,17.66571 223.258909,17.6496897" id="Fill-4" fill="#EACDB0"></path>
                    <path d="M211.658609,22.9110848 C211.530142,22.7816222 211.545558,22.5572973 211.693152,22.4102462 L218.432797,15.7081782 C220.68496,13.4686771 220.923337,10.0389276 218.964078,8.0623884 C217.005104,6.08613757 213.579042,6.30008244 211.326879,8.53958349 L204.58752,15.2416515 C204.43964,15.3884142 204.215537,15.4025427 204.087071,15.2730801 C203.958604,15.1433291 203.97402,14.9190042 204.121899,14.7722415 L210.861259,8.07017346 C213.40861,5.53685864 217.283449,5.29494524 219.499355,7.53040959 C221.715262,9.76529727 221.445768,13.6448501 218.898417,16.1778766 L212.158772,22.8799446 C212.011178,23.0269956 211.787075,23.0408357 211.658609,22.9110848" id="Fill-5" fill="#1D1D1D"></path>
                    <polyline id="Fill-6" fill="#BEAF69" points="196 47 196.390102 44.7586494 218.937774 25 219.119315 26.2493947 220 27.725015 196 47"></polyline>
                    <polyline id="Fill-7" fill="#CCBD72" points="219.087125 27 201 43 220 28.4711561 219.087125 27"></polyline>
                    <polyline id="Fill-8" fill="#A3995C" points="200.859708 6 219 23.9163055 196.316651 44 178 25.3321206 200.859708 6"></polyline>
                    <polyline id="Fill-9" fill="#E8D98D" points="200.142859 51 180 32.2894912 203.186816 10 221 27.6285652 200.142859 51"></polyline>
                    <polyline id="Fill-10" fill="#D5C477" points="180.692003 32 179 26.1856854 201.351036 7 202.433186 8.75318736 203 10.3350084 180.692003 32"></polyline>
                    <polyline id="Fill-11" fill="#C4B56B" points="203.367546 8 183.026516 26.1572483 181 31 204 9.53729731 203.367546 8"></polyline>
                    <polyline id="Fill-12" fill="#B9AB65" points="179 27 183 27.9550213 180.861574 33 179 27"></polyline>
                    <path d="M204.828068,18.8307409 C205.036544,18.6239681 205.058478,18.3079184 204.877168,18.1251133 C204.69606,17.9423082 204.380126,17.9622136 204.171851,18.1691896 C203.963374,18.3761656 203.941641,18.6922153 204.12275,18.8748173 C204.30406,19.0576224 204.619793,19.03792 204.828068,18.8307409" id="Fill-13" fill="#4E4E4E"></path>
                    <path d="M204.828386,18.830947 C205.036521,18.6237228 205.058356,18.3077326 204.877338,18.1250342 C204.695968,17.9423357 204.380068,17.9622406 204.171933,18.1691093 C203.963446,18.3763334 203.941611,18.6919682 204.122629,18.8746666 C204.303998,19.0577206 204.619899,19.0378157 204.828386,18.830947" id="Fill-14" fill="#E1DEBA"></path>
                    <path d="M212.82807,25.8308122 C213.036544,25.6238234 213.058478,25.307754 212.87717,25.1251407 C212.696064,24.9423242 212.380134,24.9622309 212.171862,25.1690166 C211.96359,25.3762086 211.941454,25.692278 212.122762,25.8748913 C212.303868,26.0575046 212.619798,26.0380042 212.82807,25.8308122" id="Fill-15" fill="#4E4E4E"></path>
                    <path d="M212.827949,25.8306201 C213.036406,25.6237443 213.05859,25.3077432 212.877246,25.1250385 C212.695902,24.9423337 212.380047,24.9622393 212.171589,25.1691151 C211.963484,25.3763464 211.941652,25.691992 212.122644,25.8746967 C212.303988,26.057757 212.619843,26.0378514 212.827949,25.8306201" id="Fill-16" fill="#E1DEBA"></path>
                    <path d="M212.658523,25.9110852 C212.530056,25.7813348 212.545472,25.5572992 212.693351,25.4102488 L219.433006,18.7082097 C221.684886,16.46843 221.923263,13.0386953 219.964287,11.062453 C218.005026,9.0859224 214.578959,9.30015468 212.327078,11.539646 L205.587424,18.2416851 C205.43983,18.3884472 205.215441,18.4025755 205.086974,18.2728252 C204.958508,18.1433631 204.974209,17.9190392 205.121803,17.7719887 L211.861457,11.0699497 C214.408526,8.53693417 218.283656,8.29502182 220.499566,10.5301882 C222.71519,12.7656429 222.445695,16.6448905 219.898626,19.1779061 L213.158972,25.8799451 C213.011093,26.0269955 212.786989,26.0408356 212.658523,25.9110852" id="Fill-17" fill="#1D1D1D"></path>
                    <path d="M206.130684,24.7666638 C206.010611,24.5491914 206.09302,24.2770018 206.314758,24.1580759 L216.434008,18.7435979 C219.815587,16.9345844 221.077201,12.7688282 219.246374,9.45760764 C217.415547,6.14610786 213.175051,4.92390705 209.793755,6.73347892 L199.674505,12.1479569 C199.452483,12.2663245 199.175239,12.1864822 199.055167,11.9692889 C198.935094,11.7520956 199.017502,11.4796269 199.239524,11.360701 L209.358774,5.9465022 C213.18298,3.90019523 217.979096,5.28235973 220.049786,9.02768775 C222.120476,12.7727366 220.693761,17.4845469 216.869272,19.5308538 L206.750022,24.9450527 C206.528001,25.0636994 206.250757,24.9838571 206.130684,24.7666638" id="Fill-18" fill="#1D1D1D"></path>
                    <polyline id="Fill-19" fill="#B08E9B" points="181 49 182.115322 46.1309581 215.464871 30 215.334468 31.7906077 216 34.2244493 181 49"></polyline>
                    <polyline id="Fill-20" fill="#BE9AA7" points="215.326724 31 189 44 216 33.3408529 215.326724 31"></polyline>
                    <polyline id="Fill-21" fill="#957981" points="199.192516 0 216 31.0964121 182.804937 47 166 14.8558463 199.192516 0"></polyline>
                    <polyline id="Fill-22" fill="#DAB5C3" points="184.681744 55 166 22.9318417 199.781975 5 216 34.7136605 184.681744 55"></polyline>
                    <polyline id="Fill-23" fill="#C7A1B1" points="166.410711 23 166 14.74457 198.931815 0 199.758009 2.7447301 200 5.03804669 166.410711 23"></polyline>
                    <polyline id="Fill-24" fill="#B6929F" points="199.688482 3 169.860212 17.638942 166 23 200 5.24832074 199.688482 3"></polyline>
                    <polyline id="Fill-25" fill="#AB8995" points="165 14 169 17.0904115 165.408368 23 165 14"></polyline>
                    <path d="M199.475998,15.8776842 C199.961552,15.6127829 200.142201,15.0051597 199.879129,14.5204931 C199.616366,14.0361377 199.009656,13.8577729 198.524103,14.1226742 C198.038549,14.3875755 197.8579,14.9948874 198.120663,15.4792428 C198.383735,15.9639094 198.990445,16.141963 199.475998,15.8776842" id="Fill-26" fill="#404040"></path>
                    <path d="M199.738126,14.9388809 C199.980789,14.8062378 200.071077,14.5025477 199.939577,14.2601404 C199.808078,14.0180055 199.504681,13.9289412 199.262017,14.0613119 C199.019082,14.1936827 198.929066,14.4976451 199.060294,14.7395077 C199.192065,14.981915 199.495191,15.0709793 199.738126,14.9388809" id="Fill-27" fill="#D3C3C4"></path>
                    <path d="M207.475924,28.8774498 C207.961453,28.6125182 208.142093,28.0051367 207.879344,27.5204146 C207.616284,27.0360038 207.009605,26.8579299 206.524076,27.1225502 C206.038547,27.3874818 205.857907,27.9948633 206.120656,28.4795854 C206.383716,28.9639962 206.990395,29.1420701 207.475924,28.8774498" id="Fill-28" fill="#404040"></path>
                    <path d="M206.738103,27.9386906 C206.980788,27.8065795 207.071083,27.5025877 206.939572,27.2604294 C206.808332,27.0179987 206.504637,26.9289259 206.261952,27.0613094 C206.018996,27.1936929 205.928972,27.4974123 206.060483,27.7395706 C206.191993,27.9820013 206.495146,28.0710741 206.738103,27.9386906" id="Fill-29" fill="#D3C3C4"></path>
                    <path d="M206.130613,27.7666638 C206.010542,27.5491914 206.092949,27.2770018 206.314969,27.1580759 L216.434119,21.7438771 C219.815381,19.9345844 221.076983,15.7685491 219.246174,12.4576076 C217.415364,9.14610786 213.175193,7.92418622 209.793648,9.73319976 L199.674498,15.1476778 C199.452762,15.2663245 199.175238,15.1864822 199.055166,14.9692889 C198.935094,14.7520956 199.017502,14.4793478 199.239521,14.360701 L209.358671,8.9465022 C213.183123,6.90019523 217.979191,8.28235973 220.049861,12.0276878 C222.12053,15.7727366 220.693546,20.4845469 216.869095,22.5308538 L206.749945,27.9450527 C206.528209,28.0636994 206.250685,27.9838571 206.130613,27.7666638" id="Fill-30" fill="#1D1D1D"></path>
                    <path d="M221.765973,16.3595589 C221.90375,16.080462 222.026158,15.7674561 221.995145,15.446299 C221.96715,15.1548123 221.817571,14.9024513 221.672657,14.6647625 C221.429214,14.2647018 221.186044,13.8646412 220.942326,13.4649066 C220.860263,13.3299228 220.774633,13.1910265 220.654146,13.1056019 C220.493863,12.9927894 220.296253,12.9908331 220.110446,13.0077876 C218.264994,13.1766804 216.21315,15.1068833 217.304942,17.3148789 C217.881028,18.4798476 218.257584,19.3823479 219.433634,18.83687 C220.398626,18.3898584 221.248895,17.4071504 221.765973,16.3595589" id="Fill-31" fill="#EACDB0"></path>
                    <polyline id="Fill-32" fill="#EACDB0" points="78.1398724 176.908886 78 185.928565 83.8449979 186 84 176 78.1398724 176.908886"></polyline>
                    <path d="M83.8966774,185 L79.3539374,186.426266 L78,187.811639 L78.2290133,191.093544 L90.5085383,192 C91.5459959,190.564822 90.8710966,188.618222 89.1399772,188.053325 L88.5685477,187.866687 L83.8966774,185" id="Fill-33" fill="#534741"></path>
                    <polyline id="Fill-34" fill="#EACDB0" points="39.6031609 168 36 175.985054 41.0057471 178 45 169.147283 39.6031609 168"></polyline>
                    <path d="M40.278651,178.533441 C40.1063319,178.34823 39.9056147,178.172146 39.6729151,178.006531 C39.0955775,177.595847 34.4432397,175.195898 34.0437353,176.277633 C33.9786676,176.45318 33.9993459,176.646712 34.0222299,176.831922 C34.4054674,179.945065 35.1553998,183.014724 36.2532787,185.962519 C36.7228135,187.223291 37.435525,188.619616 38.7746506,188.934205 C39.3616381,189.071904 39.9781266,188.970441 40.5670441,188.840526 C41.4360833,188.648873 42.2907857,188.39629 43.122604,188.085727 C43.4267126,187.972185 43.750121,187.832338 43.9078273,187.554791 C44.2235158,186.999428 43.6726463,186.341529 43.0975144,186.042509 C42.5223824,185.742951 41.820148,185.528215 41.539199,184.955137 C41.4134751,184.698258 41.3955539,184.40568 41.3798384,184.121422 C41.2626615,182.011636 41.6304592,179.986402 40.278651,178.533441" id="Fill-35" fill="#534741"></path>
                    <path d="M72.641585,134.346519 C70.8736607,142.519111 65.8192759,148.390058 60.4198469,154.40029 C54.2412217,161.277595 48.429277,168.491311 43.0176064,176 C40.6785941,175.014075 38.339297,174.027861 36,173.041648 C37.9558197,161.557026 43.3449998,151.019768 47.5211162,140.157609 C50.4232452,132.609495 52.7744992,124.627988 52.9020403,116.470649 C52.9652415,112.414138 51.9933101,108.704112 51.4726123,104.758395 C50.8272202,99.8710714 50.7904952,94.8614419 50.207735,89.9513834 C50.0124377,88.304721 49.9011239,86.3576189 51.1537595,85.2865113 C51.7111824,84.8099519 52.4462518,84.609371 53.163101,84.4689356 C79.7616798,79.2618909 76.0037729,118.806251 72.641585,134.346519" id="Fill-36" fill="#42495B"></path>
                    <path d="M52,91.4086732 C51.986232,86.4782585 52.575873,81.7261067 53.4791111,78.1021904 C60.9272524,77.6950184 69.3444899,78.5362591 76.7107988,80.0622241 C83.9100801,81.5535665 88.4004879,83.1539269 88.4523337,91.1251121 C88.5478981,105.792173 94.1626594,118.286315 96.5870816,132.384537 C97.9961667,140.577478 95.5616555,147.905715 92.8642721,155.493763 C89.7776247,164.176283 87.148902,173.029055 84.9940779,182 C82.4993136,181.985121 80.0045492,181.96967 77.5097848,181.954504 C75.0478094,170.64325 76.0634268,158.894207 75.8540818,147.30912 C75.7086333,139.258389 74.9015201,131.019094 72.0040399,123.46624 C68.8187453,115.163137 64.2316521,118.467725 58.9674807,113.65291 C53.8493183,108.97172 52.0246259,99.9243758 52,91.4086732" id="Fill-37" fill="#42495B"></path>
                    <path d="M60.9228344,39.9423806 C60.082733,40.5837696 59.3439936,41.3577237 58.6141304,42.1243443 C57.9604319,42.8108618 57.3070197,43.4976614 56.6530349,44.1847431 C54.3884262,46.563862 53.2697227,50.0858605 52.2990534,53.1258301 C47.1908705,69.1216323 45.3526118,91.0676292 48.6700674,107.781539 C61.2515448,108.852213 75.8141612,105.727627 88.3681507,104.038411 C89.5887888,103.873974 90.9714914,103.604613 91.6051466,102.563554 C91.9891193,101.932883 92,101.156109 92,100.420232 C91.9985683,89.8096718 89.72222,78.4059781 87.5873202,67.9460345 C86.6865162,63.5319016 85.5761164,59.1555638 84.1527544,54.8756883 C82.6460695,50.3447854 80.9469688,45.4531364 77.4207763,42.0256257 C73.6474784,38.3580877 66.4230074,36.5470239 61.6996562,39.4101462 C61.4302167,39.573455 61.1722306,39.7519947 60.9228344,39.9423806" id="Fill-38" fill="#93BAD4"></path>
                    <path d="M80.3805693,22.8728144 C79.9198731,20.5654491 79.2266998,18.3108724 78.3847866,16.1892995 C76.5070874,11.4571952 72.7122333,7.83276785 68.4947195,7.1294107 C61.610958,5.98162621 56.795646,12.6736934 55.347703,19.087072 C53.7740122,26.057533 57.7323667,34.1341964 63.3841986,37.6704461 C63.6368293,37.8285171 63.905072,37.9830492 64.1980101,37.9986794 C64.5922844,38.0196179 64.9527799,37.7875248 65.2999343,37.5896411 C67.2678992,36.4675137 69.5713805,36.2413187 71.8047497,36.1207011 C74.5053437,35.9747213 77.2116149,35.949949 79.914196,36.0463841 C81.2920269,31.8309598 81.2556935,27.2563367 80.3805693,22.8728144" id="Fill-39" fill="#99704A"></path>
                    <path d="M64.9201465,39.6112517 C65.010684,39.7723811 65.1284679,39.9249679 65.2822965,40.0666557 C65.8899479,40.6263373 66.7033664,40.9132477 67.498053,40.9812932 C68.5456202,41.0714314 69.590633,40.8210475 70.6089671,40.5468036 C71.9849102,40.1768246 71.8858581,39.3193336 72.0101698,37.9722685 C72.104397,36.9521752 71.9014681,35.7123333 72.6757198,34.9278954 C73.0909436,34.5072505 73.6262217,34.2430219 74.1030337,33.8998488 C75.9932525,32.5389389 76.8194427,30.0330384 76.967595,27.6499733 C77.1157473,25.2672027 76.7081866,22.8847268 76.7022264,20.4969485 C76.6956986,17.826973 76.7269185,14.9781939 74.5982937,13.0531839 C72.9697539,11.5803377 70.6946797,11.1747159 68.621683,11.030377 C65.8763247,10.8392015 63.0835691,11.5479351 60.81928,13.2260961 C59.9051066,13.9038999 59.0508185,14.7613909 58.5538556,15.8966608 C57.7872669,17.646402 57.9757211,19.7572852 58.1834749,21.7288371 C58.3750511,23.5483912 58.5666273,25.3679454 58.7584874,27.1877942 C58.9790129,29.280414 59.3669902,31.6835098 60.922873,32.7259904 C61.7490633,33.2791914 62.7909541,33.3413455 63.5132674,34.0727609 C64.4177911,34.9885767 64.447308,36.4487564 64.5543069,37.6776992 C64.6153274,38.3799523 64.6039748,39.0492136 64.9201465,39.6112517" id="Fill-40" fill="#EACDB0"></path>
                    <path d="M65.1568971,16.7895725 C66.2249227,17.6034572 67.3071626,18.4081028 68.4852796,19.043924 C71.9677899,20.9231102 76.0748945,21.2112035 80,20.8833538 C78.3778943,19.3630945 78.1164622,16.903242 77.3990567,14.7771186 C75.900978,10.3358894 71.8852911,6.88828827 67.3459036,6.14551697 C65.3715056,5.82214688 63.2558005,6.00329012 61.5322435,7.03863436 C55.4184103,10.7116146 61.8820275,14.2938833 65.1568971,16.7895725" id="Fill-41" fill="#A67C52"></path>
                    <path d="M60.5284919,19.3046364 C59.6219662,21.7650539 59.4546564,24.5785516 59.8782584,27.1993801 C60.5595925,31.4149346 62.5523364,35.2642123 64.557175,39 C64.4296048,38.7624627 61.4269545,38.4372418 60.9780112,38.2932531 C59.7423372,37.8967711 58.5515863,37.350142 57.4365713,36.6712544 C55.4156064,35.4413389 52.9287081,33.4642072 51.9378076,31.1856084 C50.6819758,28.297917 50.8337354,24.0454123 51.5386829,21.0292747 C52.330597,17.6407021 54.0489067,14.5028633 56.4232092,12.0351144 C57.8460628,10.5562246 59.6409722,9.23158742 61.7313375,9.02190941 C63.2241676,8.87234887 65.378174,9.47909546 65.9005493,11.1318861 C66.5113311,13.0638563 64.1543067,14.2289623 63.0375638,15.3266193 C61.9052706,16.4401122 61.0799521,17.8069782 60.5284919,19.3046364" id="Fill-42" fill="#A67C52"></path>
                    <path d="M23.0726607,45.5288621 C23.012445,45.510453 22.9910221,45.5677928 22.7452379,45.6314701 C22.2988312,45.7467533 22.2771188,45.9242049 21.8029202,45.8240112 C20.8536545,45.6233218 20.6802449,45.1301995 20.2155998,44.3159743 C20.1579896,44.2145734 20.0986424,44.1086456 20.0905364,43.9912499 C20.081562,43.8626881 20.1351192,43.7398602 20.176807,43.6182394 C20.3215562,43.1969428 20.3319782,42.7264546 20.2060463,42.2985186 C20.17507,42.1934962 20.1287502,42.0818345 20.0349527,42.031134 C19.9588146,41.9900908 19.8676225,41.9982391 19.7822205,42.0075945 C18.8885385,42.1044686 18.1462643,42.3356385 17.3921206,42.8773488 C17.0024556,43.1773265 16.7578294,43.7299011 16.5502589,44.1846963 C16.1165901,45.1359335 15.7579015,46.3666268 16.2072032,47.3818431 C16.6090271,48.2896227 17.0652768,49.2001185 17.7777327,49.8691835 C18.2638007,50.3260912 18.8482982,50.6505137 19.4264268,50.9704095 C20.5215997,51.5760989 21.7334405,51.8332227 22.7996636,52.3495827 C23.8346208,52.8508533 24.6055554,54.2143335 25.3979129,55.0711109 C27.4058747,57.2421769 29.6263284,59.2001804 32.0146912,60.902569 C32.0888028,60.9556837 32.1724679,61.0106092 32.2616334,60.9982359 C32.3655634,60.9837501 32.4362011,60.8847635 32.4943903,60.7942269 C33.3295935,59.4953295 34.1647968,58.1961302 35,56.896931 C33.1778963,55.1154738 31.2692325,53.4296835 29.2841411,51.8489157 C27.740535,50.6194295 24.8403387,49.3398465 24.1695706,47.4310346 C24.006583,46.9674876 23.6907401,45.9356729 23.2747307,45.6562168 C23.1574838,45.57745 23.108269,45.5400282 23.0726607,45.5288621" id="Fill-43" fill="#EACDB0"></path>
                    <path d="M62.0471986,56.6860459 C62.8872579,54.8726132 63.6000946,52.9982223 64.173712,51.079885 C64.7942008,49.0050412 65.2587304,46.8045954 64.8391193,44.6787169 C64.4195081,42.553122 62.9215745,40.5222247 60.8313307,40.0875793 C59.0792309,39.7235318 57.2512441,40.5349834 55.9396803,41.7703065 C54.6278374,43.0056296 53.7378377,44.6228623 52.8695998,46.2117424 C51.3680391,48.9593935 49.8661995,51.7073282 48.3646389,54.4549793 C46.8577773,57.2131209 46.7763103,58.1306112 43.9015275,56.8255407 C41.2937447,55.6423865 38.6890309,54.452144 36.082643,53.2653039 C34.9778158,54.5261443 33.8729886,55.7867012 32.7684404,57.0478252 C32.0631365,57.8524722 31.0492623,58.6956787 30.5113565,59.623376 C29.4935763,61.3795365 30.0652406,61.3616743 31.6055818,62.9879798 C34.8673331,66.4314039 38.2641188,69.7429884 41.784779,72.9119593 C42.1756535,73.2640987 42.5788038,73.621058 43.0645372,73.8158404 C43.8872987,74.1464318 44.812731,73.9666763 45.678737,73.7826679 C53.1156749,72.2022935 58.982419,63.3769776 62.0471986,56.6860459" id="Fill-44" fill="#93BAD4"></path>
                    <path d="M26.5779988,61.7894812 C26.3410251,61.7931734 26.1455436,61.6219082 26.141745,61.4071876 L25.961458,51.6143955 C25.9012649,48.3418949 22.9132333,45.7240647 19.3010636,45.7785969 C15.688894,45.8328451 12.7993336,48.5395741 12.8595267,51.8117908 L13.0398137,61.6048669 C13.0439045,61.8195875 12.8548515,61.9965331 12.6178777,62 C12.380904,62.0036337 12.1854225,61.8323685 12.1813317,61.6176479 L12.0010447,51.8245718 C11.9329622,48.123766 15.2012131,45.0625777 19.2867459,45.0009449 C23.3722786,44.9393121 26.7515653,47.9005248 26.8196478,51.6013305 L27,61.3944066 C27.0040256,61.6091272 26.8149726,61.7860729 26.5779988,61.7894812" id="Fill-45" fill="#1D1D1D"></path>
                    <polyline id="Fill-46" fill="#61848F" points="33.8819895 90 32 88.1056546 34.2008377 57 35.6424084 57.7550768 38 58.145214 33.8819895 90"></polyline>
                    <polyline id="Fill-47" fill="#6A8F9D" points="35.8536702 58 35 82 38 58.3804134 35.8536702 58"></polyline>
                    <polyline id="Fill-48" fill="#4F6874" points="2.07695805 57.4945419 34 57 32.7591651 87.9129426 0 88 2.07695805 57.4945419"></polyline>
                    <polyline id="Fill-49" fill="#85ACB9" points="41 90.5586135 7.23540019 92 7 59.5139323 37.8247692 59 41 90.5586135"></polyline>
                    <polyline id="Fill-50" fill="#719BA6" points="7 92 0 89.0378258 2.13091119 58 4.75836217 58.4577412 6.75865052 59.182641 7 92"></polyline>
                    <polyline id="Fill-51" fill="#638895" points="4.5979224 59 4 87.0037567 7 92 6.73571647 59.6580884 4.5979224 59"></polyline>
                    <polyline id="Fill-52" fill="#5C7D8A" points="0 88.0919372 4.18053163 86 7 91 0 88.0919372"></polyline>
                    <path d="M15.9998587,62.9835723 C15.9906685,62.4310532 15.5352459,61.99101 14.9831566,62.0001395 C14.4310674,62.0092691 13.9906213,62.4642847 14.0001518,63.0164386 C14.0090016,63.5685924 14.4644242,64.0086357 15.0165134,63.9998713 C15.5689431,63.9903766 16.0090488,63.5353609 15.9998587,62.9835723" id="Fill-53" fill="#1A1719"></path>
                    <path d="M14.9999332,62.4918516 C14.9951691,62.2157675 14.7676831,61.9952836 14.4916628,62.0000767 C14.2156425,62.0048698 13.9956005,62.2323836 14.0000668,62.5084678 C14.0048309,62.784552 14.2323169,63.0047163 14.5083372,62.9999232 C14.7843575,62.9954496 15.0043995,62.7676163 14.9999332,62.4918516" id="Fill-54" fill="#9DA6B2"></path>
                    <path d="M28.9998587,62.9832017 C28.9906685,62.431416 28.5355839,61.9910099 27.9834917,62.0001394 C27.4310592,62.0092689 26.9909512,62.4642821 27.0001413,63.016433 C27.0093315,63.5689491 27.4644161,64.00899 28.0168487,63.9998605 C28.5689408,63.9903658 29.0090488,63.5353526 28.9998587,62.9832017" id="Fill-55" fill="#1A1719"></path>
                    <path d="M28.9999242,62.4916989 C28.9954565,62.215695 28.7679049,61.9955947 28.4918049,62.000067 C28.215407,62.0045393 27.9955993,62.2319869 28.0000669,62.5083102 C28.0045346,62.7843141 28.2320862,63.0040949 28.508484,62.9999421 C28.7842862,62.9951504 29.0046896,62.7677027 28.9999242,62.4916989" id="Fill-56" fill="#9DA6B2"></path>
                    <path d="M28.5777235,62.7894931 C28.3407542,62.7929013 28.1452765,62.6219229 28.141478,62.4072058 L27.9609021,52.6142883 C27.9007102,49.3424087 24.9130272,46.724337 21.3009257,46.7785843 C17.6888243,46.8331157 14.7990263,49.5395168 14.8595104,52.8116804 L15.0397941,62.6045978 C15.0438848,62.8193149 14.8548353,62.9962577 14.6178661,63 C14.3808968,63.0033581 14.185419,62.8323797 14.1813283,62.6173786 L14.0010447,52.8247452 C13.9329635,49.1237154 17.2011526,46.0625766 21.2866082,46.0009449 C25.3720638,45.9393131 28.7512867,48.9004778 28.8193679,52.6015076 L29,62.394425 C29.0037423,62.6091421 28.8146928,62.7860849 28.5777235,62.7894931" id="Fill-57" fill="#1D1D1D"></path>
                    <path d="M17.0502973,47.1019543 C16.8947739,46.3931406 17.1225994,45.65847 17.4233172,44.9929383 C17.6532084,44.4831095 17.9409414,43.9752481 18.3998385,43.6326455 C19.0340314,43.1590724 19.8869013,43.0741946 20.6898976,43.0073042 C20.7911205,42.9988726 20.896475,42.9907221 20.9909105,43.0258537 C21.2435252,43.119163 21.2789385,43.4404057 21.2727412,43.6984117 C21.2612319,44.1806973 21.2497226,44.662983 21.2382132,45.1455497 C21.2346719,45.2995663 21.232311,45.4600471 21.3004816,45.5997301 C21.4896476,45.9878632 22.0500628,45.9895495 22.4862364,46.0915715 C23.4639381,46.3192238 24.0895728,47.3512477 23.9895303,48.3048579 C23.8894878,49.2587492 23.1853536,50.0881344 22.3133015,50.5664853 C21.8113182,50.8419165 21.2385083,51.0201036 20.6597963,50.9981815 C19.5118156,50.9548995 18.9915355,50.2486152 18.4753869,49.4141711 C18.0247528,48.6854026 17.2391681,47.9630984 17.0502973,47.1019543" id="Fill-58" fill="#EACDB0"></path>
                    <path d="M260,175 C260.211532,179.340706 260.551668,183.651177 261.15128,187.870383 C262.501782,187.895859 263.836411,188.08119 265.199546,187.958289 C265.342404,187.945411 265.759637,179.800393 266,175.080907 C263.997732,175.103863 261.997085,175.080907 260,175" id="Fill-59" fill="#E5D1BD"></path>
                    <path d="M260.741481,186.011315 C259.978539,185.92981 259.557865,186.29862 259.087716,186.796091 C258.814596,187.084561 258.642739,187.478113 258.304521,187.695266 C257.966014,187.912127 257.623457,187.974129 257.20828,188.046029 C255.021873,188.424153 249.942245,188.690791 252.903746,192.20482 C255.593573,195.396323 262.01826,193.595354 265.719557,192.414987 C265.963167,192.337557 266.22211,192.281377 266.389917,192.075577 C266.558013,191.870068 266.661301,191.586838 266.718297,191.296913 C267.03742,189.683114 267.486737,187.664411 265.505459,187.13783 C264.660349,186.9134 263.938491,187.516828 263.043328,187.273769 C262.310186,187.074955 261.504424,186.093402 260.741481,186.011315" id="Fill-60" fill="#4D4D4D"></path>
                    <path d="M257.428399,182.791135 C262.20273,182.355247 263.457381,183.319876 268.231712,182.883987 C270.804481,163.902914 275.258097,121.846967 276.891288,102.758712 C277.01822,101.278812 277.134715,99.7407352 276.621064,98.349961 C275.650176,95.7191538 272.711844,94.3882748 269.964192,94.0673049 C265.695049,93.5683686 253.943413,95.8575721 252.09049,100.463491 C250.132354,105.331057 251.448779,105.629961 251.254714,110.868075 C251.088856,115.339875 253.052633,129.104327 253.230902,136.485776 C253.622134,152.699057 256.482897,173.009003 257.428399,182.791135" id="Fill-61" fill="#627277"></path>
                    <path d="M291.586201,171 C292.137812,175.51244 293.119131,183.534891 292.988085,183.565642 C291.759913,183.857776 290.507361,183.851462 289.263951,184 C287.977875,179.907916 286.92951,175.686787 286,171.419807 C287.85902,171.27319 289.724134,171.13179 291.586201,171" id="Fill-62" fill="#E5D1BD"></path>
                    <path d="M287.428228,182.009184 C286.805988,181.942481 286.354187,182.220931 286.440759,183.446566 C286.492162,184.171501 286.816809,184.85159 286.868212,185.576525 C286.897971,186.006264 286.827631,186.436286 286.759996,186.861199 C286.540859,188.226769 286.319017,189.592055 286.09988,190.957341 C286.024129,191.4359 285.945672,191.929787 286.051183,192.402386 C286.48134,194.330533 289.048759,194.256734 290.339232,193.519025 C291.589124,192.803741 292.573888,191.542058 292.876892,190.0814 C293.03651,189.29998 293.006751,188.491027 292.974286,187.692292 C292.922884,186.380369 292.871481,185.068446 292.820079,183.756523 C292.806552,183.405976 292.790319,183.045779 292.652344,182.725604 C292.100444,181.425602 290.626004,182.803093 289.716992,182.698355 C289.100162,182.627394 288.150568,182.086673 287.428228,182.009184" id="Fill-63" fill="#4D4D4D"></path>
                    <path d="M282.231486,180.995677 C286.80797,181.050222 289.241841,180.592158 294,179.422725 C293.82986,169.528377 292.811902,143.106039 292.811902,143.106039 C292.811902,143.106039 294.049023,107.670355 293.426137,98.4939448 C293.32809,97.0166608 293.206973,95.4842606 292.474505,94.1940287 C291.08743,91.7540683 287.915323,90.8993397 285.089265,91.0092864 C280.700223,91.1803464 273.211746,94.0109746 272.049601,98.8334946 C270.821708,103.930739 271.048081,109.623979 271.000788,114.847162 C270.943978,121.162388 273.979684,141.650459 273.979684,141.650459 C273.979684,141.650459 279.797615,170.357975 282.231486,180.995677" id="Fill-64" fill="#627277"></path>
                    <path d="M278.327558,39.6069897 C273.634059,37.1290442 267.971535,36.0784507 263.297313,37.9697499 C261.848091,38.5561075 260.609765,39.5287509 259.810204,40.8894124 C257.093309,45.5138714 256.682451,51.2195264 255.398954,56.331895 C253.304674,64.673994 251.389641,73.0770095 250.159946,81.5966614 C248.949528,89.9829322 248.958447,98.1864533 249.022608,106.632486 C249.041309,109.086758 249.09281,111.918365 251.718212,112.622225 C254.84021,113.459178 258.480672,113.396818 261.693876,113.622584 C269.530664,114.172277 277.406869,114.122042 285.232724,113.468417 C289.367193,113.123415 293.55345,112.593932 297.374309,110.956404 C297.883565,110.739299 298.410083,110.477155 298.697799,109.997907 C298.953865,109.569182 298.968251,109.040276 298.976883,108.53822 C299.230072,90.5776622 297.466377,71.5211842 290.564088,54.7671199 C288.020685,48.5905888 284.332176,42.7760923 278.327558,39.6069897" id="Fill-65" fill="#D9E2DC"></path>
                    <path d="M258.090026,13.6668955 C258.95522,13.0558382 259.848105,12.4378436 260.876793,12.165267 C262.649895,11.6952674 263.805254,12.2441784 262.317015,13.6024368 C261.250915,14.575388 260.370108,15.6492186 259.747652,16.951979 C258.839448,18.8539454 258.500382,20.9894664 258.57609,23.089723 C258.602897,23.8273854 258.394921,24.4332398 257.817241,23.5920966 C257.394218,22.9758363 257.12055,22.2040657 256.890185,21.5019568 C256.577336,20.5483721 256.308086,19.5780223 256.158438,18.5857046 C256.020278,17.6696967 255.881528,16.5860383 256.165508,15.6867955 C256.445657,14.7994038 257.364171,14.1796749 258.090026,13.6668955" id="Fill-66" fill="#443935"></path>
                    <path d="M271.829916,39.4373746 C271.622857,40.1520101 271.152862,40.6596762 269.957876,40.9033086 C269.102695,41.0774585 268.220283,40.9849137 267.356025,40.8713762 C266.406674,40.746899 265.321742,40.5009012 264.878976,39.6168466 C264.757293,39.3735098 264.698012,39.1026757 264.640149,38.8350939 C264.570089,38.5122218 263.792058,34.3278939 263.710653,34.3199108 C261.606026,34.1200375 259.110257,33.6203545 258.227278,31.4063743 C257.675026,30.021454 257.901657,28.4449393 257.602698,26.9946758 C257.290975,25.4823215 256.766803,24.0296927 256.370839,22.5412877 C255.782848,20.3317426 255.921549,17.9962418 256.592931,15.8470134 C257.031725,14.4437616 258.653876,13.3178486 259.970261,12.754005 C260.552578,12.5044592 261.17489,12.3894434 261.771106,12.1360538 C262.497798,11.8273739 263.247465,11.5775324 264.011597,11.3909644 C267.016505,10.6562233 270.251163,10.9311968 273.004196,12.4361593 C274.031265,12.9976375 275.017489,13.7474577 275.666463,14.8228111 C276.66687,16.4806352 276.720478,18.6248372 276.737497,20.6324394 C276.754515,22.5924387 277.151615,24.5210969 276.936046,26.4938101 C276.771534,27.9833977 276.286222,29.469733 275.342827,30.6015594 C274.847871,31.1955613 274.239458,31.6783911 273.747906,32.2753497 C272.62298,33.6422341 272.230987,35.4529199 272.071296,37.2021061 C271.991876,38.0734469 272.005774,38.8300675 271.829916,39.4373746" id="Fill-67" fill="#EACDB0"></path>
                    <path d="M258.149657,31.6764191 C259.024738,31.848282 259.858024,31.6745393 260.693052,31.42131 C261.078494,31.3044969 261.294144,31.8525786 260.908121,31.9693917 C259.968897,32.2543082 259.013999,32.4425518 258.030948,32.249206 C257.635057,32.1715991 257.751444,31.5982751 258.149657,31.6764191 Z M256.206484,30.9806427 C256.416039,32.1493107 256.694962,33.3077743 257.041511,34.448246 C257.220591,35.0374136 257.428985,35.6410821 257.864058,36.1021582 C258.463409,36.7364398 259.417726,37.0047071 260.328507,36.9999376 C261.472353,36.9934286 262.532899,36.6797788 263.675003,36.6784361 C264.591298,36.6776305 265.578413,36.5148978 266.456977,36.2820772 C268.300597,35.793342 269.736427,34.7009382 270.445779,33.0303767 C271.023362,31.6694371 271.112176,30.1301897 270.883465,28.6604931 C270.820482,28.2566152 270.729056,27.8433385 270.492218,27.5084743 C270.25509,27.1736102 269.839173,26.9340762 269.440379,27.0162482 C268.930423,27.1209771 268.665142,27.6585859 268.367353,28.083141 C267.71779,29.0095897 266.479906,29.5907012 265.406299,29.1999816 C265.087903,29.0842426 264.805207,28.8946563 264.523382,28.7031903 C264.407865,28.6247778 264.292639,28.5460968 264.175381,28.4717124 C263.011799,27.7356557 261.640693,27.4593323 260.288744,27.3956893 C259.189886,27.3441304 257.635057,27.0949292 256.663325,27.7485454 C256.191972,28.0656862 256.027694,28.6000725 256.003314,29.1755448 C255.976612,29.8052614 256.117379,30.4841199 256.206484,30.9806427 L256.206484,30.9806427 Z" id="Fill-68" fill="#534741"></path>
                    <path d="M254.328911,11.9711528 C254.663876,11.9337074 254.962762,11.893188 254.965402,11.8959825 C253.645784,10.5786849 253.643437,10.0779218 252.323525,8.76062423 C254.54479,9.37316481 255.525925,8.86821006 257.821398,8.86737172 C257.54363,7.92732314 257.329218,6.96855184 257.179334,6 C259.786014,7.03254444 262.682194,6.68491649 265.449903,6.37920509 C268.834157,6.00502999 272.138336,5.93488962 275.092299,7.92788203 C277.710711,9.69508394 280.024957,12.0918725 281.183546,15.1093055 C281.538456,16.0345435 281.778973,17.0033748 281.902165,17.9870166 C282.174947,20.1840029 281.849368,22.4148019 281.27154,24.541089 C281.039822,25.3908772 280.767041,26.2353561 280.338803,27.0001935 C279.890033,27.8030352 279.282873,28.4999678 278.649315,29.1600138 C277.665248,30.1830571 276.608731,31.1331657 275.490033,32 C275.991306,31.6115733 275.269461,30.8864169 275.291166,30.4004643 C275.324604,29.6523935 275.97928,28.744481 276.221557,28.0249135 C276.444769,27.3615142 276.621931,26.6240623 276.332723,25.9841362 C276.210118,25.7127964 276.006265,25.468842 275.959335,25.1768234 C275.858142,24.548634 276.440369,24.1529417 276.646569,23.6208809 C276.885326,23.0055459 276.924044,22.0423035 276.758321,21.4018185 C276.521031,20.4858021 275.552509,19.7382902 274.663181,19.9995701 C274.001172,20.1937835 273.097179,21.8075708 272.463035,21.2389029 C272.168548,20.9748286 272.098152,20.1214075 271.941523,19.7475119 C271.731804,19.2461899 271.462248,18.7697384 271.095899,18.3687367 C270.206572,17.3948754 268.886073,16.9804604 267.616318,16.6878829 C265.016092,16.0895939 262.350456,15.8397713 259.693327,15.9261194 C257.78796,15.9881559 255.461396,16.2868812 253.861369,14.9614798 C252.823038,14.1016315 252.386001,12.7365491 252,11.4494314 C252.458743,11.6352615 252.963536,11.9060424 253.436944,12.0245266 C253.544297,12.0513532 253.958749,12.0130694 254.328911,11.9711528" id="Fill-69" fill="#534741"></path>
                    <path d="M219,103 L203.646992,154.755598 L196.768475,158 L125.924764,152.21943 C125.924764,152.21943 121.43635,145.845893 121.43635,142.095691 C121.43635,138.345489 117,114.644579 117,114.644579 L219,103" id="Fill-70" fill="#F2F2F2"></path>
                    <polyline id="Fill-71" fill="#C5B09C" points="164 153.859323 197.534255 156 199 132.140962 165.466024 130 164 153.859323"></polyline>
                    <polyline id="Fill-72" fill="#DFC9B9" points="162.865232 154 165 120.052078 148.134768 119 146 152.948205 162.865232 154"></polyline>
                    <polyline id="Fill-73" fill="#B8A491" points="145.674011 153 147 131.90286 132.325706 131 131 152.09714 145.674011 153"></polyline>
                    <path d="M128.866611,174 L197.844464,174 C201.238614,174 204,171.031126 204,167.381636 C204,165.700961 203.412902,164.097616 202.346593,162.868333 L196.075179,155.638396 C195.372203,154.827671 194.190587,154.783176 193.437377,155.538974 C192.683027,156.295691 192.641927,157.565479 193.344903,158.375591 L199.616318,165.604607 C200.036162,166.088833 200.267063,166.719738 200.267063,167.381636 C200.267063,168.818049 199.179919,169.986573 197.844464,169.986573 L128.866611,169.986573 C127.835694,169.986573 127,170.884754 127,171.993133 C127,173.10182 127.835694,174 128.866611,174" id="Fill-74" fill="#8B8D96"></path>
                    <path d="M120.04213,115.71415 L217.544178,103.870731 L207.516732,139.731669 C207.471283,139.893406 207.456133,140.055431 207.453846,140.215727 L204.506498,150.826946 C203.785882,153.39917 201.440237,155.20336 198.790167,155.229307 L131.167221,150.823486 C131.127203,150.820603 131.086898,150.819738 131.04688,150.819738 C128.113824,150.819738 125.626971,148.70303 125.133031,145.78715 L120.04213,115.71415 M116.026864,114.396613 L121.447916,146.421701 C122.24571,151.133987 126.250114,154.559583 130.983137,154.590431 L198.613801,158.996252 C198.654105,158.998558 198.694123,159 198.734142,159 C203.072984,159 206.926462,156.059038 208.105002,151.848109 L221.892454,102.212999 L225.672755,88.6928196 C226.437677,85.9092703 228.762169,83.8934674 231.597181,83.5498122 L246.353648,81.7571545 C247.378974,81.63232 248.10988,80.6936109 247.986395,79.6597623 C247.862624,78.6259138 246.923909,77.8898805 245.907158,78.0135618 L231.150405,79.8059311 C226.804702,80.332946 223.241357,83.4226713 222.072536,87.6768457 L218.643539,99.9388779 L117.646176,112.207253 C117.137944,112.269237 116.676875,112.538223 116.371307,112.951647 C116.065167,113.365647 115.940253,113.887761 116.026864,114.396613" id="Fill-75" fill="#8B8D96"></path>
                    <path d="M119.879002,125 L214.120998,125 C215.159046,125 216,124.104519 216,122.999847 C216,121.89487 215.159046,121 214.120998,121 L119.879002,121 C118.840954,121 118,121.89487 118,122.999847 C118,124.104519 118.840954,125 119.879002,125" id="Fill-76" fill="#8B8D96"></path>
                    <path d="M120.877283,143 L208.123004,143 C209.159815,143 210,142.104825 210,141.000153 C210,139.895481 209.159815,139 208.123004,139 L120.877283,139 C119.840185,139 119,139.895481 119,141.000153 C119,142.104825 119.840185,143 120.877283,143" id="Fill-77" fill="#8B8D96"></path>
                    <path d="M253.546574,76.0268359 C255.725434,75.7783315 257.708137,77.2831484 257.971069,79.4028717 C258.233723,81.522595 256.678667,83.4481658 254.497304,83.7031599 L234.874771,86 L234,78.3147525 L253.546574,76.0268359" id="Fill-78" fill="#C25D3E"></path>
                    <path d="M186,182.499863 C186,186.64206 189.357879,190 193.5,190 C197.642121,190 201,186.64206 201,182.499863 C201,178.357667 197.642121,175 193.5,175 C189.357879,175 186,178.357667 186,182.499863" id="Fill-79" fill="#4B4B4B"></path>
                    <path d="M188,182.500154 C188,184.985043 190.014957,187 192.500154,187 C194.98535,187 197,184.985043 197,182.500154 C197,180.014957 194.98535,178 192.500154,178 C190.014957,178 188,180.014957 188,182.500154" id="Fill-80" fill="#7A7B80"></path>
                    <path d="M190,182.000145 C190,183.656846 191.343154,185 193.000145,185 C194.657136,185 196,183.656846 196,182.000145 C196,180.343154 194.657136,179 193.000145,179 C191.343154,179 190,180.343154 190,182.000145" id="Fill-81" fill="#363636"></path>
                    <polyline id="Fill-82" fill="#C25D3E" points="193.000147 173 197 173 197 175.262969 193.8 182 192.2 182 189 175.262969 189 173 193.000147 173"></polyline>
                    <polygon id="Fill-83" fill="#B2573B" points="189 175 197 175 197 173 189 173"></polygon>
                    <path d="M127,182.499863 C127,186.64206 130.357879,190 134.5,190 C138.642121,190 142,186.64206 142,182.499863 C142,178.357667 138.642121,175 134.5,175 C130.357879,175 127,178.357667 127,182.499863" id="Fill-84" fill="#4B4B4B"></path>
                    <path d="M130,182.500154 C130,184.985043 132.014719,187 134.5,187 C136.985281,187 139,184.985043 139,182.500154 C139,180.014957 136.985281,178 134.5,178 C132.014719,178 130,180.014957 130,182.500154" id="Fill-85" fill="#7A7B80"></path>
                    <path d="M131,182.000145 C131,183.656846 132.343379,185 134,185 C135.656911,185 137,183.656846 137,182.000145 C137,180.343154 135.656911,179 134,179 C132.343379,179 131,180.343154 131,182.000145" id="Fill-86" fill="#363636"></path>
                    <polyline id="Fill-87" fill="#C25D3E" points="135 173 139 173 139 175.262969 135.800177 182 134.200118 182 131 175.262969 131 173 135 173"></polyline>
                    <polygon id="Fill-88" fill="#B2573B" points="131 175 139 175 139 173 131 173"></polygon>
                    <path d="M195.910245,159 C196.323581,159 196.697698,158.706948 196.795329,158.271838 L208.975953,104.156144 C209.090275,103.649283 208.785974,103.142711 208.296702,103.02428 C207.806596,102.907866 207.318158,103.221088 207.204393,103.727949 L195.024047,157.843931 C194.909726,158.350215 195.214026,158.857076 195.70302,158.975219 C195.772281,158.991932 195.842097,159 195.910245,159" id="Fill-89" fill="#8B8D96"></path>
                    <path d="M187.926566,158 C188.372675,158 188.766167,157.668953 188.838869,157.203753 L196.988207,105.094686 C197.069112,104.579468 196.725125,104.094607 196.220459,104.012207 C195.720036,103.928939 195.241961,104.280514 195.161339,104.796889 L187.011717,156.905667 C186.931095,157.420596 187.275083,157.905746 187.779749,157.988146 C187.828971,157.996241 187.877627,158 187.926566,158" id="Fill-90" fill="#8B8D96"></path>
                    <path d="M178.874003,157 C179.312043,157 179.689222,156.650566 179.739939,156.176801 L184.994284,107.034064 C185.049006,106.524532 184.70466,106.064676 184.226046,106.006768 C183.748232,105.944886 183.31473,106.314474 183.260009,106.823723 L178.005664,155.966743 C177.951209,156.475991 178.295555,156.935847 178.773902,156.993755 C178.807536,156.998297 178.840903,157 178.874003,157" id="Fill-91" fill="#8B8D96"></path>
                    <path d="M169.058613,156 C169.607382,156 170.071426,155.626661 170.111848,155.136938 L173.997209,107.998925 C174.039248,107.486437 173.601397,107.040537 173.018997,107.003544 C172.446299,106.9583 171.930514,107.351842 171.887828,107.864329 L168.002791,155.002343 C167.960752,155.51483 168.398603,155.961016 168.980679,155.998008 L169.058613,156" id="Fill-92" fill="#8B8D96"></path>
                    <path d="M160.047545,155 C160.607913,155 161.072218,154.607473 161.093352,154.106887 L162.999244,108.962009 C163.021018,108.450646 162.569842,108.020114 161.991862,108.000828 C161.429253,107.979273 160.928444,108.381443 160.906349,108.89309 L159.000778,154.037968 C158.978683,154.549615 159.43018,154.979863 160.008159,154.999149 L160.047545,155" id="Fill-93" fill="#8B8D96"></path>
                    <path d="M150,155 C150.551988,155 151,154.585208 151,154.07415 L151,110.92585 C151,110.414792 150.551988,110 150,110 C149.448012,110 149,110.414792 149,110.92585 L149,154.07415 C149,154.585208 149.448012,155 150,155" id="Fill-94" fill="#8B8D96"></path>
                    <path d="M140.971792,155 L141.016729,154.999417 C141.582993,154.976409 142.023245,154.532832 141.999048,154.006832 L140.054521,111.91253 C140.029696,111.387404 139.577188,110.969167 138.983585,111.001787 C138.417007,111.024796 137.976755,111.468663 138.000951,111.994372 L139.945479,154.088965 C139.969676,154.600112 140.424383,155 140.971792,155" id="Fill-95" fill="#8B8D96"></path>
                    <path d="M131.996072,155 C132.028262,155 132.060144,154.998833 132.092027,154.995914 C132.643538,154.946006 133.047591,154.480198 132.995475,153.955727 L129,113.864733 C128.947893,113.339678 128.454016,112.951504 127.907717,113.004915 C127.356206,113.054823 126.952153,113.52063 127.004576,114.04481 L130.999735,154.136096 C131.048479,154.629922 131.485028,155 131.996072,155" id="Fill-96" fill="#8B8D96"></path>
                    <polyline id="Fill-97" fill="#B2573B" points="234.86755 86 234 78 255 83.4618768 234.86755 86"></polyline>
                    <path d="M116.03486,115.439246 L116.48796,118 L129.988567,118 C131.099503,118 132,117.157267 132,116.117595 L132,112 L117.383894,113.57045 C116.412395,113.681729 115.850369,114.539673 116.03486,115.439246" id="Fill-98" fill="#C25D3E"></path>
                    <path d="M210.47721,124 L204.027765,124 L204.459881,122 L211,122 L210.47721,124 M202.124752,124 L193.353779,124 L193.649885,122 L202.556869,122 L202.124752,124 M191.476835,124 L182.601587,124 L182.812403,122 L191.773224,122 L191.476835,124 M180.736827,124 L172.067011,124 L172.201322,122 L180.947643,122 L180.736827,124 M170.209052,124 L161.329554,124 L161.398693,122 L170.343646,122 L170.209052,124 M159.474995,124 L150.913421,124 L150.913421,122 L159.544417,122 L159.474995,124 M149.060279,124 L140.079339,124 L140,122 L149.060279,122 L149.060279,124" id="Fill-99" fill="#81828A"></path>
                    <polyline id="Fill-100" fill="#81828A" points="204.629899 124 203 124 203.370101 122 205 122 204.629899 124"></polyline>
                    <polyline id="Fill-101" fill="#81828A" points="193.727474 124 192 124 192.272787 122 194 122 193.727474 124"></polyline>
                    <polyline id="Fill-102" fill="#81828A" points="182.79686 124 181 124 181.20314 122 183 122 182.79686 124"></polyline>
                    <polyline id="Fill-103" fill="#81828A" points="172.865169 124 171 124 171.135116 122 173 122 172.865169 124"></polyline>
                    <polyline id="Fill-104" fill="#81828A" points="161.928119 124 160 124 160.072176 122 162 122 161.928119 124"></polyline>
                    <polygon id="Fill-105" fill="#81828A" points="149 124 151 124 151 122 149 122"></polygon>
                    <polyline id="Fill-106" fill="#81828A" points="139 124 130.184115 124 130 122 138.916985 122 139 124"></polyline>
                    <polyline id="Fill-107" fill="#81828A" points="127 124 120.295268 124 120 122 126.835845 122 127 124"></polyline>
                    <polyline id="Fill-108" fill="#81828A" points="140 124 138.082027 124 138 122 139.917973 122 140 124"></polyline>
                    <polyline id="Fill-109" fill="#81828A" points="130 124 128.172764 124 128 122 129.827236 122 130 124"></polyline>
                    <path d="M205.473956,143 L199.699166,143 L200.134208,141 L206,141 L205.473956,143 M197.783555,143 L190.218104,143 L190.5165,141 L198.218312,141 L197.783555,143 M188.328739,143 L180.189318,143 L180.401561,141 L188.626849,141 L188.328739,143 M178.311934,143 L170.293754,143 L170.429259,141 L178.524177,141 L178.311934,143 M168.423501,143 L160.089809,143 L160.159416,141 L168.558721,141 L168.423501,143 M158.222695,143 L150.248447,143 L150.248447,141 L158.292587,141 L158.222695,143 M148.382759,143 L140.079877,143 L140,141 L148.382759,141 L148.382759,143" id="Fill-110" fill="#81828A"></path>
                    <polyline id="Fill-111" fill="#81828A" points="200.629854 143 199 143 199.369903 141 201 141 200.629854 143"></polyline>
                    <polyline id="Fill-112" fill="#81828A" points="191.727213 143 190 143 190.272526 141 192 141 191.727213 143"></polyline>
                    <polyline id="Fill-113" fill="#81828A" points="179.79686 143 178 143 178.20314 141 180 141 179.79686 143"></polyline>
                    <polyline id="Fill-114" fill="#81828A" points="171.864884 143 170 143 170.134831 141 172 141 171.864884 143"></polyline>
                    <polyline id="Fill-115" fill="#81828A" points="160.928119 143 159 143 159.072176 141 161 141 160.928119 143"></polyline>
                    <polygon id="Fill-116" fill="#81828A" points="149 143 151 143 151 141 149 141"></polygon>
                    <polyline id="Fill-117" fill="#81828A" points="140 143 132.182306 143 132 141 139.917668 141 140 143"></polyline>
                    <polyline id="Fill-118" fill="#81828A" points="129 143 123.305991 143 123 141 128.829731 141 129 143"></polyline>
                    <polyline id="Fill-119" fill="#81828A" points="141 143 139.082027 143 139 141 140.917973 141 141 143"></polyline>
                    <polyline id="Fill-120" fill="#81828A" points="131 143 129.172764 143 129 141 130.827514 141 131 143"></polyline>
                    <path d="M248.612084,79.6012077 C248.717214,79.8005951 248.790969,80.0082657 248.787942,80.2381233 C248.778585,80.891901 248.109555,81.3424455 247.50107,81.3359373 C246.892861,81.3291333 246.332813,81.0078652 245.773315,80.7504957 C245.036584,80.4114779 244.217015,80.1706747 243.436526,80.3676955 C242.656311,80.5647163 241.953431,81.3178919 242.002418,82.177861 C242.024985,82.574565 242.197265,82.942278 242.385782,83.284254 C243.522115,85.3417309 245.029704,87.0187742 247.39429,86.9998413 C248.066622,86.9948122 248.72547,86.8122869 249.376337,86.6312408 C250.451849,86.3318639 251.535342,86.0301203 252.539025,85.5177479 C253.193194,85.1840551 253.822319,84.75836 254.533456,84.6116298 C255.293305,84.4548415 256.244423,84.5453646 256.655859,83.8410004 C256.814929,83.5685438 256.845202,83.2351467 256.871347,82.9147661 C256.911527,82.4233974 256.951708,81.9320288 256.991888,81.4409559 C257.002346,81.312567 257.011703,81.1767824 256.958863,81.061114 C256.864467,80.8546268 256.620082,80.7969405 256.407622,80.7685411 C255.40559,80.6339398 253.990746,80.9915947 253.077056,80.7309711 C252.291063,80.50703 251.846327,79.6142241 251.438469,78.9003936 C251.006943,78.1445556 250.497808,77.35026 249.714842,77.0704077 C248.931601,76.7905553 247.865721,77.3771803 247.948833,78.2596323 C247.996169,78.7634257 248.380359,79.1622005 248.612084,79.6012077" id="Fill-121" fill="#EACDB0"></path>
                    <path d="M288.964709,61.3847587 C288.864626,58.7719896 288.558658,56.1673051 288.038227,53.603621 C287.680787,51.8368474 287.206108,50.0484187 286.188121,48.5669159 C285.167274,47.0857019 283.503037,45.9486608 281.7187,46.0017882 C279.825702,46.0575142 278.167184,47.4344946 277.229263,49.0961684 C276.291914,50.7578422 275.944198,52.6825542 275.611064,54.5651108 C274.665423,59.9113406 272.960866,65.6343704 272.711231,71.0542277 C272.61944,73.044194 273.357767,73.8893233 271.421304,74.9007644 C269.964382,75.6618716 267.874363,75.4161576 266.28819,75.7871829 C262.192222,76.7463628 258.096254,77.7058315 254,78.6653001 C254.265935,79.9071523 254.53187,81.1490044 254.797804,82.3908566 C255.276201,84.6265369 255.07289,85.1116128 257.211234,85.7462538 C263.752659,87.6877125 271.071871,86.9020627 277.681066,86.4836847 C283.654591,86.105441 286.239592,80.4557501 287.514936,75.3410863 C288.650163,70.7906121 289.141999,66.0744036 288.964709,61.3847587" id="Fill-122" fill="#D9E2DC"></path>
                    <path d="M192.915307,76.4624967 C192.884173,75.5022512 192.853039,74.5425912 192.8689,73.5814674 C193.225765,73.1086636 193.583217,72.6373236 193.941844,72.1656908 C193.958292,71.3178643 193.999413,70.4688667 194,69.6216257 C193.755335,69.5557552 192.693551,69.3537523 192.590457,69.5856165 C192.37017,70.0824264 192.350197,70.4887742 191.896993,70.820176 C191.48256,70.0552 191.268735,69.3101314 191.183557,68.4292233 C191.109247,67.6616124 191.211754,66.7994407 190.15467,67.0415514 C189.87094,67.1062508 189.603365,67.3266975 189.391302,67.5644168 C188.855858,68.1651557 188.509273,68.869531 188.395018,69.6760786 C188.304847,70.3122413 188.358009,70.9191282 188.104826,71.5257223 C188.063119,71.6255527 187.989983,71.6712229 188.001144,71.8252135 C188.029047,72.1970159 188.488419,72.8601122 188.649082,73.14438 C188.809451,73.4289406 189.075558,74.0185548 189.096999,74.1333158 C189.300838,75.2185689 189.461794,76.0157483 189.710572,77 C190.777642,76.8184902 191.851467,76.6656706 192.915307,76.4624967" id="Fill-123" fill="#EACDB0"></path>
                    <path d="M195.339836,87.0238932 C194.711587,85.6658257 194.583861,83.9743594 194.292081,82.4740647 C193.773105,79.8062984 193.10651,77.5116623 192.218773,75 C191.785139,74.9841078 186.00346,75.8187564 186,75.7548406 C186.22489,79.8759724 186.449491,83.9973921 186.67438,88.1188118 C186.911091,92.463649 188.875415,94.7577092 191.814836,97.8130013 C193.71227,99.7851791 195.609992,101.757933 197.507714,103.730398 C198.895974,105.173111 200.443964,106.700181 202.431065,106.960451 C204.03124,107.170337 205.604314,106.508146 207.073016,105.839909 C209.62926,104.677044 212.389924,103.19863 213.316295,100.550442 C213.654495,99.5836427 213.709564,98.5445785 213.761173,97.5216372 C213.818549,96.3913058 213.875636,95.2612624 213.933012,94.1315068 C213.986928,93.0679704 214.304945,91.9488674 212.861903,91.6854305 C212.209724,91.5662361 211.546011,91.7519376 210.898733,91.8941647 C206.319924,92.9001193 197.603724,91.9169095 195.339836,87.0238932" id="Fill-124" fill="#B7CCEA"></path>
                    <path d="M234.015345,72 L233.205043,68.9818812 L231.70407,67.8116522 C230.117518,66.5740163 231.46782,63.4197022 233.22915,63.0561467 C234.031014,62.8903919 234.859698,63.1224486 235.642578,63.352019 C238.944054,64.3208559 237.994533,66.1259258 237.407524,68.7487194 L237.646185,71.906901 L234.015345,72" id="Fill-125" fill="#EACDB0"></path>
                    <path d="M231.495088,85.9079647 C233.102448,81.4838354 231.621771,74.9802484 231.535448,70.7710879 C232.790225,70.2380912 234.160194,69.9723066 235.519793,70.0022823 C237.275977,70.041108 237.320821,70.1924139 237.772619,71.7956862 C238.527952,74.4755146 238.842137,77.3937213 239.152398,80.1563397 C239.593265,84.085727 240.468555,88.1598541 239.687156,92.1029446 C239.293935,94.087622 238.458164,96.2276022 237.140045,97.7737779 C235.677306,99.4898158 233.676165,100.558093 232.608329,102.684941 C232.344312,103.21023 232.137191,103.781196 231.736403,104.206851 C231.030678,104.955958 229.895016,105.077003 228.882394,104.962809 C225.788192,104.613949 222.351778,102.363773 220.429673,99.8917758 C219.113235,98.198862 218.184134,94.5047126 220.057752,92.9245645 C221.902502,91.3689679 225.438412,90.891355 227.635744,90.0060724 C229.65174,89.1944443 230.834488,87.7267765 231.495088,85.9079647" id="Fill-126" fill="#B7CCEA"></path>
                    <path d="M224.829011,184.331468 C224.919743,186.388922 225.399842,188.200039 224.198695,189.977106 C223.942122,190.356975 223.651299,190.73122 223.252319,190.962753 C223.017077,191.099246 222.752091,191.180668 222.51745,191.318048 C222.309248,191.440033 222.128385,191.603765 221.920482,191.726342 C221.047713,192.241223 219.930088,191.93715 218.983712,191.569716 C218.515331,191.387923 217.970038,191.071711 218.001283,190.576666 C218.017807,190.311379 218.20498,190.091392 218.370821,189.881472 C218.929934,189.174435 219.342433,188.35548 219.576173,187.489745 C219.661798,187.17294 221.993488,183.071651 221.832454,183 L224.829011,184.331468" id="Fill-127" fill="#333333"></path>
                    <polyline id="Fill-128" fill="#315D91" points="214 133 215.127086 156.984756 219.859611 183.956244 224.977933 184 226.74979 157.696716 231 137.814059 214 133"></polyline>
                    <path d="M199.569346,179.192403 C199.194872,179.490897 198.777009,179.73469 198.347538,179.945995 C197.066865,180.576303 195.657682,180.936439 194.237444,180.99586 C193.97545,181.00669 193.70102,181.004746 193.469979,180.881739 C192.884086,180.569639 192.91117,179.694705 193.197208,179.087444 C193.792221,177.825163 195.023701,177.051578 195.788402,175.912859 C196.459692,174.91353 196.450572,174.666127 197.645296,174.546452 C197.965603,174.513965 200.869918,174.213805 200.871853,174 C200.857205,175.894255 201.539273,177.313697 199.896562,178.905016 C199.792096,179.006365 199.682656,179.101883 199.569346,179.192403" id="Fill-129" fill="#333333"></path>
                    <path d="M196.260693,175.12412 C196.282976,175.270094 196.305258,175.415787 196.327541,175.561479 C196.347072,175.688819 196.36908,175.822934 196.44308,175.90651 C196.554492,176.032438 196.744305,176.005614 196.913762,175.972015 C198.644367,175.626702 200.377448,175.184825 202.105852,174.649208 C202.784229,170.172278 203.462606,165.695629 204.140983,161.218416 C204.287607,160.250805 204.440559,159.261171 204.838617,158.344947 C205.354415,157.157951 206.226732,156.214339 207.060811,155.293881 C209.302812,152.819371 211.457884,150.223734 213.513923,147.520804 C214.87618,145.729862 216.237886,143.805369 216.860969,141.598245 C217.363013,139.821138 217.34183,138.00902 217.701101,136.213561 C217.86148,135.412536 218.099159,134.5717 217.955836,133.837592 C217.789681,132.986026 217.291214,133.12353 216.749282,132.971344 C216.10089,132.789511 215.374922,132.624619 214.663258,132.237236 C212.947784,131.303224 211.210852,130.413542 209.454388,129.567341 C208.783438,129.243768 206.835511,127.753246 206.075431,128.035313 C205.306549,128.321051 204.216634,131.209767 203.776761,132.058791 C200.578815,138.233206 197.566281,144.519713 194.749612,150.896855 C194.549895,151.348896 194.349628,151.80602 194.230788,152.282061 C194.103696,152.790289 194.073436,153.303318 194.051428,153.809288 C193.962023,155.845874 193.989257,157.86213 194.132581,159.839422 C194.318543,162.403719 194.69872,164.896298 195.078898,167.384925 C195.472829,169.964751 195.866761,172.544577 196.260693,175.12412" id="Fill-130" fill="#315D91"></path>
                    <path d="M226.325879,79.0653899 C226.717035,78.4775662 226.949591,77.7977109 226.98939,77.1038264 C227.021466,76.5398524 227.009289,75.8801991 226.532892,75.5390089 C226.180643,75.2873249 225.673951,75.3092105 225.273291,75.4848561 C224.904113,75.6464726 224.602652,75.9270567 224.3003,76.1734095 C223.398591,75.3451253 223.452646,73.3911376 222.731219,72.3246374 C222.235814,71.592874 221.503398,71.0092591 220.770982,70.4494938 C220.290427,70.0824898 219.795318,69.7149246 219.208435,69.4938243 C216.956241,68.6450574 214.311703,68.9511747 212.177123,69.9489318 C207.65343,72.0628524 208.344265,76.9579227 208.053199,80.9225761 C207.821238,84.0785861 208.213879,87.1675365 211.966843,88.2991322 C212.927953,88.5889756 214.030141,89.1080562 214.560593,89.9427939 C214.848689,90.3959372 214.994222,90.9124925 215.12134,91.4242779 C215.215788,91.8055917 215.311424,92.2062658 215.591203,92.500318 C216.077401,93.0118228 216.922085,93.0210821 217.658362,92.9896567 C218.55532,92.9517778 219.590087,92.8451558 220.080444,92.1526743 C220.707126,91.267712 220.319236,89.9691688 220.788208,88.9989089 C221.176098,88.196719 221.863666,87.6773578 222.397682,86.9960996 C222.945954,86.2966034 223.422648,85.524436 223.973891,84.8165223 C224.699773,83.8841413 225.400112,82.8355985 225.153894,81.6417131 C225.066872,81.2199952 224.894015,80.762082 225.107265,80.3830128 C225.211514,80.1972662 225.393875,80.0642693 225.559901,79.9239773 C225.857798,79.6725739 226.114708,79.3824499 226.325879,79.0653899" id="Fill-131" fill="#EACDB0"></path>
                    <path d="M226.117041,68.5136975 C225.197269,67.352472 224.001538,66.3973441 222.6712,65.7310952 C221.623565,65.2067168 220.518603,64.7428546 219.353502,64.6612149 C217.188541,64.509639 212.03945,67.2982358 210.888962,64.7791072 C210.459848,63.8396792 208.88671,63.7200741 208.315682,64.5830006 C208.145666,64.8404798 208.062485,65.1459152 207.886848,65.399398 C207.711493,65.6528809 207.385231,65.8541257 207.092973,65.744797 C206.709102,65.6003574 206.658519,65.0511446 206.307809,64.8410507 C205.871669,64.580146 205.305418,65.0497173 205.234883,65.5449794 C205.194416,65.8301476 205.360779,66.1341558 205.32256,66.394775 C205.293615,66.5940216 205.155354,66.6833686 205.110111,66.8737662 C205.008382,67.3039449 204.890074,67.6690401 205.196383,68.0669625 C205.318064,68.2253893 205.482459,68.3512744 205.585593,68.5216902 C205.78371,68.849962 205.716266,69.2607298 205.738467,69.6409541 C205.786802,70.4776188 206.289543,71.2049547 206.893731,71.8178237 C206.689993,72.6587702 206.570842,73.5339711 206.710788,74.3380941 C206.94319,75.6763009 208.095645,77.1049965 208.746201,78.284491 C208.9668,77.8774341 208.987314,77.3941611 209.058412,76.9351516 C209.208475,75.9637527 209.609769,75.0340302 210.210866,74.2635907 C210.506497,73.8847937 210.847653,73.5413929 211.116587,73.1434705 C211.171104,73.1514632 211.226184,73.1594559 211.278453,73.168305 C211.609211,73.2253957 211.948119,73.282201 212.278596,73.2233976 C213.402105,73.02358 214.542195,73.01102 215.710105,72.8597296 C216.918201,72.703301 218.159738,72.5794141 219.341138,72.8782841 C220.522818,73.1771541 221.649419,73.9795643 222.025702,75.1559189 C222.194593,75.68515 222.247706,76.3271353 222.704922,76.6328561 C224.298012,77.6990256 224.647879,74.757711 225.908526,75.1464989 C226.82914,75.4305253 226.339045,76.9468552 226.020371,77.5471642 C225.737386,78.0803917 225.318388,78.5299812 225.043834,79.0674904 C224.769279,79.6047142 224.664741,80.3032194 225.019666,80.7899179 C225.103409,80.9043848 225.226495,81.0085754 225.366442,80.9994408 C225.532805,80.9885936 225.645774,80.8284541 225.732047,80.6837291 C226.94773,78.648159 227.911059,76.3827987 227.995084,74.0035424 C228.067586,71.9431379 227.333286,70.0485819 226.117041,68.5136975" id="Fill-132" fill="#A67C52"></path>
                    <path d="M200.241784,130.068062 C200.464452,127.242194 200.789581,124.421458 200.988208,121.585043 C201.186262,118.76003 201.454437,115.940149 201.818204,113.134236 C202.594107,107.150968 203.878025,101.244098 207.598982,96.3896949 C208.412951,95.328106 209.288739,94.1881237 210.445582,93.4748864 C211.230644,92.9905578 212.460182,92.8967708 213.091552,92.2091896 C213.546905,91.7131733 213.54576,90.7619052 213.399509,90.1347582 C215.657384,90.0959891 218.113599,90.1307673 220.447319,90.0067632 C222.278175,89.9109807 221.912977,90.8442896 222.615612,92.0623802 C223.369477,93.3694117 225.253281,94.0182238 226.315676,95.0034148 C227.300795,95.916769 228.015737,97.1214615 228.63022,98.3569412 C229.64167,100.390323 230.421294,102.562532 230.88924,104.814845 C231.3403,106.983919 231.499716,109.210291 231.626219,111.429251 C232.063827,119.112373 232.117347,126.821151 231.785921,134.510829 C231.727822,135.860335 231.862052,137.760876 231.364913,139.021442 C230.858043,140.305668 229.417857,140.12465 228.136515,140.316785 C225.143665,140.765195 222.122479,140.992394 219.101008,141 C213.058066,141.014914 207.012547,140.150021 201.186548,138.415104 C200.859415,138.317612 200.512248,138.203585 200.294732,137.922224 C200.055464,137.613496 200.029706,137.178769 200.018258,136.77654 C199.954148,134.529928 200.066054,132.297285 200.241784,130.068062" id="Fill-133" fill="#B7CCEA"></path>
                    <path d="M269.340963,160.999475 C269.10481,160.987554 268.917121,160.775464 268.921883,160.525946 L269.142348,149.140722 C269.216023,145.336129 266.345215,142.093783 262.743259,141.913021 C259.141022,141.732259 256.150317,144.680451 256.076642,148.484767 L255.856177,159.870268 C255.851414,160.119786 255.655881,160.312747 255.419448,160.300825 C255.183016,160.289181 254.995326,160.077091 255,159.827296 L255.220834,148.441795 C255.304033,144.138997 258.686365,140.80433 262.760627,141.008934 C266.834888,141.213539 270.081636,144.880343 269.998436,149.183417 L269.777971,160.568918 C269.772929,160.818713 269.577676,161.011397 269.340963,160.999475" id="Fill-134" fill="#1D1D1D"></path>
                    <polyline id="Fill-135" fill="#A4865B" points="277.720033 195 276 192.639578 279.418403 156 280.76439 156.98508 283 157.596218 277.720033 195"></polyline>
                    <polyline id="Fill-136" fill="#B29263" points="279.855956 156 278 186 282 156.631267 279.855956 156"></polyline>
                    <polyline id="Fill-137" fill="#89724D" points="245.458841 154 279 155.710481 276.401895 193 242 190.736959 245.458841 154"></polyline>
                    <polyline id="Fill-138" fill="#CEAD7D" points="285 196 250 195.268914 251.089034 155 283.006703 156.66129 285 196"></polyline>
                    <polyline id="Fill-139" fill="#BB9868" points="248.915528 196 242 191.961423 245.39671 155 248.018679 155.733686 250 156.742469 248.915528 196"></polyline>
                    <polyline id="Fill-140" fill="#AA8B5D" points="247.847515 155 246 189.612691 248.840093 196 250 155.95988 247.847515 155"></polyline>
                    <polyline id="Fill-141" fill="#9F8257" points="242 191.14529 246.339073 189 249 195 242 191.14529"></polyline>
                    <path d="M257.999781,162.047478 C258.011233,161.495819 257.572776,161.027169 257.02045,161.001133 C256.468452,160.975097 256.011671,161.400864 256.000219,161.952523 C255.988767,162.504182 256.427551,162.972525 256.979549,162.998868 C257.531875,163.024904 257.988656,162.598831 257.999781,162.047478" id="Fill-142" fill="#343434"></path>
                    <path d="M257.99989,161.52359 C258.005616,161.247882 257.786306,161.013705 257.510021,161.000576 C257.234022,160.987447 257.005549,161.200457 257.00011,161.476165 C256.994384,161.752141 257.213694,161.986318 257.489693,161.999447 C257.765692,162.012308 257.994164,161.799298 257.99989,161.52359" id="Fill-143" fill="#C7BCA4"></path>
                    <path d="M273.999781,162.047477 C274.011233,161.495818 273.572776,161.027475 273.02045,161.001132 C272.468125,160.975096 272.011344,161.401169 272.000219,161.952522 C271.988767,162.50418 272.427224,162.97283 272.97955,162.998866 C273.531875,163.024902 273.988656,162.599442 273.999781,162.047477" id="Fill-144" fill="#343434"></path>
                    <path d="M272.99989,162.523718 C273.005616,162.247943 272.78659,162.013708 272.510302,162.000576 C272.2343,161.987444 272.005825,162.200506 272.000099,162.476282 C271.994659,162.752057 272.213686,162.986292 272.489974,162.999424 C272.765976,163.012556 272.99445,162.799494 272.99989,162.523718" id="Fill-145" fill="#C7BCA4"></path>
                    <path d="M271.341231,162.999476 C271.104794,162.987555 270.917101,162.775467 270.921864,162.525953 L271.142333,151.140596 C271.216009,147.336328 268.34543,144.093746 264.743128,143.913263 C261.140827,143.732504 258.150068,146.680382 258.076672,150.484927 L257.856202,161.870006 C257.85116,162.119798 257.655623,162.312479 257.419186,162.300558 C257.18303,162.288636 256.995057,162.076826 257,161.827034 L257.220568,150.441955 C257.303769,146.138935 260.686442,142.804586 264.760777,143.008911 C268.834832,143.213791 272.081637,146.880548 271.998436,151.183568 L271.777967,162.568925 C271.773205,162.818439 271.577668,163.011397 271.341231,162.999476" id="Fill-146" fill="#1D1D1D"></path>
                    <path d="M127.743823,82.6124165 C127.675879,82.6603706 127.605622,82.7105815 127.556181,82.7729219 C127.093293,83.3579628 127.210967,83.9334129 126.931094,84.6169008 C126.806192,84.922115 125.956455,85.0851592 126.362964,85.6448126 C126.512731,85.8512976 126.953646,86.3074264 127.277465,86.7446556 C127.749895,87.3827282 127.953728,88.4701596 127.951704,89.3626713 C127.945054,92.8684033 126.960585,96.2754062 125.878391,99.6158374 C125.816808,99.8062436 125.749442,100.003984 125.604879,100.145308 C125.184492,100.555457 124.062111,100.589025 123.511617,100.693114 C122.549989,100.874493 121.602528,101.121316 120.668655,101.407631 C118.790791,101.983363 116.972486,102.725242 115.15823,103.465147 C114.584896,103.698994 113.995949,103.942996 113.557347,104.372609 C112.320183,105.584157 113.355827,107.687935 114.59328,108.486231 C116.942996,110.001301 120.365074,107.771996 122.58931,106.856353 C124.693848,105.990075 126.735935,104.980217 128.695332,103.83524 C128.937329,103.693917 129.18482,103.544694 129.350488,103.322131 C129.526565,103.084616 129.592486,102.787865 129.652913,102.500986 C130.434127,98.802591 130.87591,95.0579344 131.24252,91.2853515 C131.343135,90.2486952 130.87244,89.2921505 130.974212,88.3341954 C131.039265,87.7229207 131.541186,87.2890765 131.733453,86.725474 C131.923697,86.1677952 132.027493,85.388963 131.993666,84.8027938 C131.926589,83.6468162 130.899618,82.9943573 130.059422,82.3382314 C129.850385,82.1746231 129.709581,82.0640464 129.462958,82.0180668 C129.061942,81.9430327 128.707186,82.1159498 128.34925,82.2750448 C128.137322,82.3692606 127.932043,82.4804015 127.743823,82.6124165" id="Fill-147" fill="#EACDB0"></path>
                    <path d="M111.083013,112.446447 C111.887374,112.373208 112.698385,112.342189 113.487784,112.266078 C115.686962,112.054689 117.618482,111.288982 119.758642,110.823123 C119.819323,110.809912 119.883328,110.795264 119.927661,110.750746 C119.976427,110.701345 119.990558,110.626383 119.996099,110.556303 C120.038769,110.010025 119.724839,109.503383 119.374333,109.092957 C119.023828,108.68253 118.61569,108.305708 118.399014,107.805672 C117.893345,106.639015 118.588814,105.31669 118.665842,104.040319 C118.708789,103.326884 118.548914,102.60196 118.211432,101.978997 C118.102539,101.777661 117.96871,101.580059 117.775586,101.464887 C117.20508,101.124828 116.618503,101.222192 116.362759,100.446432 C116.298476,100.251702 116.276587,100.03974 116.177115,99.8616681 C116.060465,99.6525775 115.852933,99.5175878 115.645954,99.4064367 C113.479195,98.2443759 112.643801,99.8404144 110.83946,100.866336 C106.985565,103.057479 105.18926,107.694233 105.004448,112.088868 C104.975077,112.784783 105.078705,113.633782 105.693267,113.91525 C106.289541,114.188964 106.938738,113.740338 107.508413,113.41148 C108.612851,112.774443 109.839758,112.559896 111.083013,112.446447" id="Fill-148" fill="#DA8A92"></path>
                    <path d="M66.2104798,113.209582 C66.281323,113.165114 66.35479,113.12009 66.4332131,113.097855 C67.1646762,112.888854 67.6774876,113.197353 68.4383958,113.187626 C68.7780349,113.183179 69.2418683,112.478356 69.63515,113.040324 C69.7806263,113.247658 70.0613752,113.804346 70.3663215,114.249586 C70.8114966,114.898824 71.7869751,115.46524 72.6487547,115.778742 C76.0340675,117.009959 79.6770979,117.32902 83.2912662,117.536631 C83.4970904,117.548582 83.7125353,117.557754 83.9008674,117.477989 C84.448663,117.245641 84.8865497,116.250106 85.1856653,115.792638 C85.7078058,114.993597 86.288545,114.230409 86.9022277,113.493346 C88.1360068,112.011438 89.5082655,110.640979 90.8779003,109.274133 C91.3105393,108.842234 91.7586297,108.399773 92.3314974,108.157699 C93.9477715,107.474832 95.6036944,109.14712 95.9267159,110.539257 C96.5398156,113.182901 93.1530451,115.467185 91.4659279,117.140307 C89.8697698,118.723103 88.1575805,120.199452 86.3451029,121.554347 C86.1212035,121.721382 85.8879749,121.890917 85.6133482,121.960677 C85.3203548,122.035162 85.0107439,121.989304 84.7116283,121.942334 C80.8610244,121.33812 77.0882607,120.4129 73.3154969,119.410417 C72.2787959,119.134991 71.5254676,118.374582 70.5645658,118.128338 C69.9514662,117.970754 69.3511942,118.268136 68.7380945,118.241733 C68.1314087,118.215608 67.3422215,118.033843 66.7888867,117.796493 C65.6976685,117.328464 65.4393678,116.176455 65.1093494,115.190925 C65.0271363,114.945516 64.9711615,114.780149 65.0157664,114.542521 C65.0886504,114.156202 65.383393,113.89912 65.6661826,113.633977 C65.8338157,113.47667 66.0151509,113.33187 66.2104798,113.209582" id="Fill-149" fill="#EACDB0"></path>
                    <path d="M100.885966,108.425266 C100.939418,108.670427 100.977478,108.921887 100.99175,109.18595 C101.046042,110.186639 100.829435,111.171002 100.428405,112.080902 C99.5513443,114.072828 98.1870584,115.807278 97.2971243,117.793476 C97.2685792,117.857916 97.2372356,117.92608 97.179306,117.964458 C97.1157792,118.006846 97.0335023,118.003982 96.9582217,117.993098 C96.373048,117.90775 95.9180062,117.433755 95.5729468,116.942862 C95.2278875,116.451683 94.9323622,115.904655 94.4602493,115.540924 C93.3581862,114.692315 91.7960439,115.145689 90.4345566,114.920578 C89.6739148,114.794274 88.9510532,114.439422 88.3793125,113.91101 C88.1946092,113.740315 88.0199806,113.542984 87.946659,113.299542 C87.7297725,112.5801 87.977163,111.949443 87.2243571,111.475161 C87.0357358,111.356018 86.8182897,111.279835 86.6554149,111.125465 C84.7801166,109.348626 87.4328479,108.163209 88.3451704,107.164811 C89.5460218,105.850799 90.3161786,104.123508 91.8145143,103.103058 C93.0352353,102.271633 94.2033438,101.99325 95.6560633,102 C95.9966451,102.001556 96.3604546,102.010434 96.6397484,102.209484 C96.8171755,102.336073 96.9400312,102.526531 97.0939506,102.682333 C97.3903155,102.982196 97.9158804,103.126829 98.2684958,103.372562 C98.6851977,103.662687 99.064679,104.009234 99.3949062,104.399027 C99.9574117,105.064052 100.071032,105.605925 100.283441,106.405273 C100.469264,107.104953 100.736804,107.738188 100.885966,108.425266" id="Fill-150" fill="#DA8A92"></path>
                    <polyline id="Fill-151" fill="#EACDB0" points="93 159 93.428927 167.015537 94.824115 189 98.4980642 188.529527 100.109513 167.52451 102 159.10967 93 159"></polyline>
                    <path d="M94.9287593,188.684943 C94.9952038,189.338277 95.000865,190.081367 94.6132223,190.527459 C94.1898248,191.014702 93.4538699,191.083584 93.1332677,191.723201 C92.9991869,191.990678 92.9875666,192.302883 93.0078277,192.601669 C93.0230235,192.825014 93.0578845,193.056409 93.1827287,193.24248 C93.3892132,193.550212 93.782815,193.659051 94.1427475,193.745526 C94.7017157,193.879712 95.2684308,194.014792 95.8425947,193.99869 C96.8321114,193.971256 97.7298572,193.500116 98.5403014,192.969934 C99.2273913,192.520562 99.9320606,192.179432 99.9967174,191.236555 C100.016085,190.954169 99.9457666,190.675063 99.8903466,190.397448 C99.7452413,189.670163 99.7026334,188.922302 99.7634167,188.183387 C98.1237569,188.12196 96.4840971,188.060831 94.8444373,188 C94.8691678,188.20098 94.9034329,188.436252 94.9287593,188.684943" id="Fill-152" fill="#363535"></path>
                    <polyline id="Fill-153" fill="#EACDB0" points="112 158 111.81121 166.931806 108.895615 189 105.199932 188.342521 104.200803 167.404616 103 158.633443 112 158"></polyline>
                    <path d="M109.477486,188.032166 C109.329287,188.64344 109.231506,189.346918 109.570989,189.813911 C109.941947,190.324445 110.682639,190.474418 110.929841,191.117281 C111.033428,191.386492 111.006844,191.683592 110.949092,191.964186 C110.906007,192.174205 110.841838,192.389346 110.691806,192.550987 C110.443686,192.818775 110.029338,192.876829 109.65227,192.916954 C109.066805,192.979846 108.473091,193.042738 107.890376,192.961349 C106.886592,192.821052 106.031007,192.271246 105.271064,191.675623 C104.627542,191.171066 103.952241,190.76668 104.00266,189.865705 C104.017938,189.596209 104.124275,189.339519 104.214723,189.083114 C104.452453,188.41094 104.58843,187.707462 104.61807,187 C106.294405,187.130906 107.971351,187.261812 109.647992,187.393003 C109.597879,187.580825 109.534016,187.799665 109.477486,188.032166" id="Fill-154" fill="#363535"></path>
                    <path d="M94.8521252,103.575032 C94.2892018,104.131944 94.1477448,104.972496 93.9987356,105.717158 C93.8044138,106.687867 93.6039921,107.657137 93.3963088,108.625255 C92.9882039,110.529239 92.553957,112.42804 92.0924062,114.320218 C91.1992228,117.981903 90.2040857,121.619112 89.0971192,125.222917 C87.0246431,131.969794 84.5611996,138.603215 81.6370768,145.033913 C80.7677116,146.945672 79.8579715,148.839002 78.9049521,150.711022 C78.4309113,151.642281 77.9461233,152.568645 77.450588,153.488962 C77.3015789,153.765978 76.2178496,156.128393 76,156.112267 C78.0190303,156.261718 79.43331,158.40154 80.9730711,159.877618 C82.4346969,161.278826 84.2550483,162.203174 86.1015417,162.800976 C94.0385295,165.372161 102.259593,162.168619 110.319158,163.264302 C112.300427,163.533544 114.26485,164.065116 116.246991,163.993414 C120.226668,163.849435 124.02858,162.377389 127.673349,160.970998 C127.912693,160.878563 131.102883,159.811099 130.997444,159.557983 C128.124153,152.668567 125.250861,145.778862 122.37757,138.889446 C120.818638,135.151452 119.257963,131.408274 118.025806,127.560567 C116.628954,123.198278 115.662864,118.723685 114.81296,114.238725 C114.390912,112.012515 114.147502,109.742247 113.477687,107.569309 C113.139003,106.471034 112.689071,105.404722 112.078221,104.426814 C111.534468,103.556602 110.925361,102.400735 109.967694,101.941729 C109.433526,101.685445 108.846204,101.564791 108.272824,101.4139 C106.028392,100.823008 103.801097,99.7290526 101.50351,100.061645 C99.4917412,100.35306 97.8238845,101.686597 96.0816685,102.725265 C95.6584593,102.977229 95.2207268,103.217963 94.8675199,103.560058 L94.8521252,103.575032" id="Fill-155" fill="#DA8A92"></path>
                    <path d="M115.186395,101.085386 C114.731126,100.380433 114.109065,99.7984003 113.720625,99.0500301 C112.525788,96.748887 113.90858,93.8841928 113.522646,91.2926199 C113.326059,89.972191 112.67838,88.7896428 111.991718,87.6563798 C112.012602,87.596827 112.035435,87.5384476 112.053813,87.477428 C112.690632,85.3584637 112.039612,82.8742619 110.461069,81.3992304 C109.954286,80.9257417 109.369538,80.555517 108.788687,80.1879326 C107.691031,79.4938346 106.564415,78.6439607 105.337835,78.2291447 C104.768958,78.0364049 104.159427,77.9941606 103.558249,78.0006146 C102.193836,78.0155761 100.85866,78.2713891 99.5206989,78.4380195 C97.1507959,78.7331432 95.0198046,80.3745118 93.6576186,82.4632597 C93.24551,83.0954579 92.9038496,83.7684337 92.6471171,84.4569578 C91.7660957,86.8229341 91.7855874,89.5459338 92.700023,91.8975354 C93.2382702,93.2819176 94.1234684,94.5510079 94.4665209,96.0163585 C94.798157,97.4324239 95.1219964,98.676285 95.8092153,99.9955405 C96.4304412,101.188356 97.4877226,102.703579 98.7936613,102.222169 C99.4733621,101.971637 99.808618,101.286046 100.437641,101.003831 C101.20756,100.657662 102.255374,100.882672 103.064554,100.892646 C104.640591,100.911421 106.240575,100.525942 107.796842,100.935477 C108.981933,101.247616 109.921708,102.841753 109.221401,104.098815 C108.996412,104.502777 108.601568,104.769444 108.338709,105.147296 C107.79183,105.932924 107.939966,107.104617 108.535018,107.850347 C109.130348,108.596371 110.077641,108.953687 111.001544,108.995638 C112.77194,109.076313 114.54707,108.031353 115.409713,106.400252 C116.272357,104.769444 116.182417,102.629651 115.186395,101.085386" id="Fill-156" fill="#534741"></path>
                    <path d="M109.827148,89.0560615 C109.987518,87.2045878 109.591378,85.4373511 108.30146,84.006482 C107.8914,83.551892 107.372011,83.2114579 106.829711,82.9343468 C104.985314,81.9917625 102.803646,81.7497986 100.804389,82.2656784 C97.9951621,82.9904081 96.381314,84.6530745 95.6754549,87.0079377 C95.2120354,88.5518007 94.741366,90.0785259 95.1659255,91.6769978 C95.584395,93.2528129 96.0008345,94.6505681 96.3276641,96.2310307 C96.6339037,97.7124421 97.5598726,98.7691822 98.6772413,99.7477852 C99.8041799,100.734521 99.9538197,100.926524 100.04836,102.519186 C100.09708,103.33832 100.307909,104.250985 100.998398,104.680304 C101.362058,104.906582 101.803147,104.958577 102.228867,104.982105 C102.810606,105.014348 103.394666,105.003019 103.974665,104.94812 C104.420974,104.906002 104.893674,104.82496 105.224563,104.519382 C105.735833,104.047364 105.720753,103.24043 105.660433,102.540972 C105.494843,100.624723 105.725973,100.559076 107.234261,99.7594041 C108.602189,99.0340934 109.982878,97.4820972 109.999698,96.1284938 C110.009268,95.3517695 109.790608,94.5120125 109.492778,93.5569379 C109.054879,92.1519209 109.597758,90.9118924 109.784518,89.4528474 C109.801338,89.3201013 109.815548,89.1879362 109.827148,89.0560615" id="Fill-157" fill="#EACDB0"></path>
                    <path d="M107.986663,83.396119 C108.814777,83.6676516 109.608122,84.0494943 110.165257,84.7178604 C110.813178,85.4954052 111.044145,86.5555137 111.07919,87.5777207 C111.095471,88.0582768 110.94922,88.4435136 110.483423,88.5696631 C111.017378,89.4753374 112.305494,88.7735954 112.724105,88.092784 C113.344983,87.083588 112.780398,85.0799038 112.373929,84.0472315 C111.957527,82.9893859 111.303258,82.0477901 110.601252,81.1706833 C109.702771,80.0483487 108.282201,79.2807034 106.753736,79.0374555 C105.388631,78.8207951 103.8701,79.5703382 102.891871,80.607536 C102.596885,80.9200814 101.878598,81.5791135 102.017674,82.0820145 C102.221598,82.8188295 103.427759,82.4041766 103.955367,82.4847878 C105.052253,82.6527986 106.146379,82.8869954 107.221465,83.1723875 C107.475887,83.2402706 107.733069,83.3129622 107.986663,83.396119" id="Fill-158" fill="#534741"></path>
                    <path d="M101.722339,85.5879214 C101.27278,85.6859399 100.833918,85.8195227 100.415583,86.0146924 C99.3230542,86.5241576 98.382884,87.5647736 98.3840404,88.7701995 C98.3849077,89.8512951 98.8934438,90.5617128 98.3823058,91.5878717 C97.9732218,92.4098976 97.1865665,93.2015637 97.2140315,94.1756774 C97.2279085,94.6683724 97.4635293,95.122901 97.6254282,95.5884169 C97.8003369,96.0909427 97.7170746,96.4144907 97.6598318,96.9063184 C97.608371,97.3501487 97.7092688,97.7743175 97.8156595,98.24099 C98.0469437,99.2555833 98.336338,100.265839 98.8255041,101.189354 C99.2059666,101.908156 99.7026494,102.564794 100.290689,103.126594 C100.697461,103.514909 101.161764,103.877202 101.387555,104.392739 C101.639076,104.968128 101.545406,105.642692 101.309496,106.224154 C100.798647,107.481336 99.6433828,108.428559 98.3386509,108.801839 C97.034208,109.17512 95.6040044,109.001924 94.3675012,108.442727 C91.6600306,107.218218 89.419465,104.213761 92.4568047,102.054461 C93.1977814,101.527359 94.1041264,100.973944 94.1885451,100.068357 C94.3235572,98.6212095 92.2284115,97.6710945 92.4036093,96.2279952 C92.5287919,95.1957644 93.7011136,94.7114543 94.4909492,94.0345769 C97.8399443,91.1648594 94.0480399,86.7326278 95.1460617,83.3621193 C95.4166642,82.5322867 95.979263,81.8325671 96.5620991,81.1825798 C97.6043235,80.020814 98.8370683,78.9087804 100.479764,79.0059316 C101.278562,79.0530615 102.070421,79.2138235 102.825275,79.4789651 C103.457837,79.7016031 105.823875,79.9158561 106.176583,80.4073946 C106.419721,80.7231358 107.592621,80.8257806 107.959784,80.9284254 C108.269127,81.0148784 108.655372,81.0666345 108.941007,81.2172766 C109.365414,81.4413603 109.58311,81.832278 110,82.0942391 C109.548996,83.2091641 108.549848,84.0337922 107.447201,84.5128977 C106.344264,84.9917141 105.135226,85.1634634 103.939487,85.2886611 C103.199666,85.3661507 102.447125,85.4303399 101.722339,85.5879214" id="Fill-159" fill="#534741"></path>
                    <path d="M100.233334,73.0333772 C100.872733,73.1529124 101.497141,73.3738442 101.990503,73.8864775 C102.768444,74.6946778 103.001382,76.0134299 103,77.204321 C102.999439,77.9435358 102.919479,78.7077281 102.578262,79.2958886 C101.579877,81.016362 100.239442,79.0588997 98.9786884,78.9307414 C98.5389102,78.8861388 98.0852501,78.9343096 97.6632407,78.7942573 C97.1790405,78.633985 96.7953451,78.2468339 96.370004,77.9512669 C95.4815632,77.3345608 94.3265901,77.6788933 93.5106127,76.7823798 C90.9338566,73.9507053 98.8790165,72.7812235 100.233334,73.0333772" id="Fill-160" fill="#EACDB0"></path>
                    <path d="M264.411104,46.2372706 L264.418756,46.1993181 C264.789416,44.3975741 265.674977,39.5350912 264.080684,38.0846217 C262.606543,36.7434439 258.149265,38.5397661 256.470808,38.9877765 C253.50439,39.7793568 250.541089,40.6885041 247.461036,40.8905369 C246.394395,40.9604493 245.290915,40.9390476 244.303621,40.526136 C243.538496,40.2062508 242.885589,39.6689236 242.25592,39.1258893 C238.473085,35.8642591 235.488814,31.8392989 232.446168,27.9027994 C230.902599,25.9061566 229.109373,24.0650334 227.609444,22.0481303 C226.867556,21.0502369 227.27959,20.8014056 226.009483,21.1472583 C225.036641,21.4120696 223.804506,22.7144388 222.97137,23.3056985 C222.378823,23.7257439 221.76389,24.1740397 221.091713,24.4576846 C220.707734,24.619482 219.487501,24.6988112 219.250029,24.9801732 C218.727477,25.5991125 219.153963,26.7031586 219.360547,27.3951493 C219.912854,29.2448332 220.921969,30.9178812 221.715148,32.6654073 C224.471299,38.7406574 228.162035,44.3305152 231.836901,49.8912667 C232.900992,51.5012507 233.965082,53.1115202 235.029173,54.7217896 C235.347408,55.2037575 235.674995,55.6954276 236.135203,56.041851 C236.602213,56.3936961 237.172656,56.5714735 237.732898,56.734127 C242.940565,58.246519 248.361333,59.0118464 253.780968,59 C257.56607,58.991586 259.731373,57.7271693 261.431084,54.3205777 C262.712243,51.7532209 263.825642,49.0591657 264.411104,46.2372706" id="Fill-161" fill="#D9E2DC"></path>
                </g>
            </g>
        </g>
    </g>
</svg>