<?xml version="1.0" encoding="UTF-8"?>
<svg viewBox="0 0 620 406" version="1.1" 
    xmlns="http://www.w3.org/2000/svg" 
    xmlns:xlink="http://www.w3.org/1999/xlink">
    <!-- Generator: Sketch 60.1 (88133) - https://sketch.com -->
    <title>winter-man-gifts-illustration-by-Vexels Copy</title>
    <desc>Created with Sketch.</desc>
    <g id="Page-1" stroke="none" stroke-width="1" fill="none" fill-rule="evenodd">
        <g id="Desktop-HD-Copy" transform="translate(-791.000000, -329.000000)" fill-rule="nonzero">
            <g id="hero">
                <g id="winter-man-gifts-illustration-by-Vexels-Copy" transform="translate(791.000000, 329.000000)">
                    <g id="Group">
                        <g>
                            <rect id="Rectangle" fill="#FCF4A3" x="3.09138944" y="43.0659083" width="182.770009" height="125.972807"></rect>
                            <g transform="translate(15.121255, 55.706422)" fill="#000000" id="Path">
                                <path d="M1.06574608,0.107779817 C1.19155492,-0.0181651376 1.39538944,-0.0181651376 1.52119829,0.107779817 L2.30689872,0.89493578 C2.43270756,1.02088073 2.43270756,1.22493578 2.30689872,1.35088073 L1.52119829,2.1380367 C1.39538944,2.26398165 1.19155492,2.26398165 1.06574608,2.1380367 L0.279440799,1.35088073 C0.153631954,1.22493578 0.153631954,1.02088073 0.279440799,0.89493578 L1.06574608,0.107779817 Z"></path>
                                <path d="M1.52059344,27.3766789 C1.39478459,27.5026239 1.19095007,27.5026239 1.06514123,27.3766789 L0.278835949,26.5895229 C0.153027104,26.463578 0.153027104,26.2595229 0.278835949,26.133578 L1.06514123,25.346422 C1.19095007,25.2204771 1.39478459,25.2204771 1.52059344,25.346422 L2.30629387,26.133578 C2.43210271,26.2595229 2.43210271,26.463578 2.30629387,26.5895229 L1.52059344,27.3766789 Z"></path>
                                <path d="M2.30689872,51.8287706 L1.52119829,52.6159266 C1.39538944,52.7418716 1.19155492,52.7418716 1.06574608,52.6159266 L0.279440799,51.8287706 C0.153631954,51.7028257 0.153631954,51.4987706 0.279440799,51.3728257 L1.06574608,50.5856697 C1.19155492,50.4597248 1.39538944,50.4597248 1.52119829,50.5856697 L2.30689872,51.3728257 C2.43270756,51.4993761 2.43270756,51.7034312 2.30689872,51.8287706 Z"></path>
                                <path d="M2.30689872,77.0680183 L1.52119829,77.8551743 C1.39538944,77.9811193 1.19155492,77.9811193 1.06574608,77.8551743 L0.279440799,77.0680183 C0.153631954,76.9420734 0.153631954,76.7380183 0.279440799,76.6120734 L1.06574608,75.8249174 C1.19155492,75.6989725 1.39538944,75.6989725 1.52119829,75.8249174 L2.30689872,76.6120734 C2.43270756,76.7386239 2.43270756,76.9426789 2.30689872,77.0680183 Z"></path>
                                <path d="M2.30689872,102.307872 L1.52119829,103.095028 C1.39538944,103.220972 1.19155492,103.220972 1.06574608,103.095028 L0.279440799,102.307872 C0.153631954,102.181927 0.153631954,101.977872 0.279440799,101.851927 L1.06574608,101.064771 C1.19155492,100.938826 1.39538944,100.938826 1.52119829,101.064771 L2.30689872,101.851927 C2.43270756,101.977872 2.43270756,102.181927 2.30689872,102.307872 Z"></path>
                                <path d="M26.7325649,2.13743119 C26.6067561,2.26337615 26.4029215,2.26337615 26.2771127,2.13743119 L25.4908074,1.35027523 C25.3649986,1.22433028 25.3649986,1.02027523 25.4908074,0.894330275 L26.2771127,0.107174312 C26.4029215,-0.0187706422 26.6067561,-0.0187706422 26.7325649,0.107174312 L27.5188702,0.894330275 C27.644679,1.02027523 27.644679,1.22433028 27.5188702,1.35027523 L26.7325649,2.13743119 Z"></path>
                                <path d="M27.5188702,26.5895229 L26.7325649,27.3766789 C26.6067561,27.5026239 26.4029215,27.5026239 26.2771127,27.3766789 L25.4908074,26.5895229 C25.3649986,26.463578 25.3649986,26.2595229 25.4908074,26.133578 L26.2771127,25.346422 C26.4029215,25.2204771 26.6067561,25.2204771 26.7325649,25.346422 L27.5188702,26.133578 C27.644679,26.2601284 27.644679,26.463578 27.5188702,26.5895229 Z"></path>
                                <path d="M27.5188702,51.8287706 L26.7325649,52.6159266 C26.6067561,52.7418716 26.4029215,52.7418716 26.2771127,52.6159266 L25.4908074,51.8287706 C25.3649986,51.7028257 25.3649986,51.4987706 25.4908074,51.3728257 L26.2771127,50.5856697 C26.4029215,50.4597248 26.6067561,50.4597248 26.7325649,50.5856697 L27.5188702,51.3728257 C27.644679,51.4993761 27.644679,51.7034312 27.5188702,51.8287706 Z"></path>
                                <path d="M27.5188702,77.0680183 L26.7325649,77.8551743 C26.6067561,77.9811193 26.4029215,77.9811193 26.2771127,77.8551743 L25.4908074,77.0680183 C25.3649986,76.9420734 25.3649986,76.7380183 25.4908074,76.6120734 L26.2771127,75.8249174 C26.4029215,75.6989725 26.6067561,75.6989725 26.7325649,75.8249174 L27.5188702,76.6120734 C27.644679,76.7386239 27.644679,76.9426789 27.5188702,77.0680183 Z"></path>
                                <path d="M27.5188702,102.307872 L26.7325649,103.095028 C26.6067561,103.220972 26.4029215,103.220972 26.2771127,103.095028 L25.4908074,102.307872 C25.3649986,102.181927 25.3649986,101.977872 25.4908074,101.851927 L26.2771127,101.064771 C26.4029215,100.938826 26.6067561,100.938826 26.7325649,101.064771 L27.5188702,101.851927 C27.644679,101.977872 27.644679,102.181927 27.5188702,102.307872 Z"></path>
                                <path d="M51.9445364,2.13743119 C51.8187275,2.26337615 51.6154979,2.26337615 51.4890842,2.13743119 L50.7027789,1.35027523 C50.57697,1.22433028 50.57697,1.02027523 50.7027789,0.894330275 L51.4890842,0.107174312 C51.614893,-0.0187706422 51.8187275,-0.0187706422 51.9445364,0.107174312 L52.7308417,0.894330275 C52.8566505,1.02027523 52.8566505,1.22433028 52.7308417,1.35027523 L51.9445364,2.13743119 Z"></path>
                                <path d="M52.7308417,26.5895229 L51.9445364,27.3766789 C51.8187275,27.5026239 51.6154979,27.5026239 51.4890842,27.3766789 L50.7027789,26.5895229 C50.57697,26.463578 50.57697,26.2595229 50.7027789,26.133578 L51.4890842,25.346422 C51.614893,25.2204771 51.8187275,25.2204771 51.9445364,25.346422 L52.7308417,26.133578 C52.8566505,26.2601284 52.8566505,26.463578 52.7308417,26.5895229 Z"></path>
                                <path d="M52.7308417,51.8287706 L51.9445364,52.6159266 C51.8187275,52.7418716 51.6154979,52.7418716 51.4890842,52.6159266 L50.7027789,51.8287706 C50.57697,51.7028257 50.57697,51.4987706 50.7027789,51.3728257 L51.4890842,50.5856697 C51.614893,50.4597248 51.8187275,50.4597248 51.9445364,50.5856697 L52.7308417,51.3728257 C52.8566505,51.4993761 52.8566505,51.7034312 52.7308417,51.8287706 Z"></path>
                                <path d="M52.7308417,77.0680183 L51.9445364,77.8551743 C51.8187275,77.9811193 51.6154979,77.9811193 51.4890842,77.8551743 L50.7027789,77.0680183 C50.57697,76.9420734 50.57697,76.7380183 50.7027789,76.6120734 L51.4890842,75.8249174 C51.614893,75.6989725 51.8187275,75.6989725 51.9445364,75.8249174 L52.7308417,76.6120734 C52.8566505,76.7386239 52.8566505,76.9426789 52.7308417,77.0680183 Z"></path>
                                <path d="M52.7308417,102.307872 L51.9445364,103.095028 C51.8187275,103.220972 51.6154979,103.220972 51.4890842,103.095028 L50.7027789,102.307872 C50.57697,102.181927 50.57697,101.977872 50.7027789,101.851927 L51.4890842,101.064771 C51.614893,100.938826 51.8187275,100.938826 51.9445364,101.064771 L52.7308417,101.851927 C52.8566505,101.977872 52.8566505,102.181927 52.7308417,102.307872 Z"></path>
                                <path d="M77.1571127,2.13743119 C77.0313039,2.26337615 76.8274693,2.26337615 76.7016605,2.13743119 L75.9153552,1.35027523 C75.7895464,1.22433028 75.7895464,1.02027523 75.9153552,0.894330275 L76.7016605,0.107174312 C76.8274693,-0.0187706422 77.0313039,-0.0187706422 77.1571127,0.107174312 L77.9428131,0.894330275 C78.068622,1.02027523 78.068622,1.22433028 77.9428131,1.35027523 L77.1571127,2.13743119 Z"></path>
                                <path d="M77.9428131,26.5895229 L77.1571127,27.3766789 C77.0313039,27.5026239 76.8274693,27.5026239 76.7016605,27.3766789 L75.9153552,26.5895229 C75.7895464,26.463578 75.7895464,26.2595229 75.9153552,26.133578 L76.7016605,25.346422 C76.8274693,25.2204771 77.0313039,25.2204771 77.1571127,25.346422 L77.9428131,26.133578 C78.068622,26.2601284 78.068622,26.463578 77.9428131,26.5895229 Z"></path>
                                <path d="M77.9428131,51.8287706 L77.1571127,52.6159266 C77.0313039,52.7418716 76.8274693,52.7418716 76.7016605,52.6159266 L75.9153552,51.8287706 C75.7895464,51.7028257 75.7895464,51.4987706 75.9153552,51.3728257 L76.7016605,50.5856697 C76.8274693,50.4597248 77.0313039,50.4597248 77.1571127,50.5856697 L77.9428131,51.3728257 C78.068622,51.4993761 78.068622,51.7034312 77.9428131,51.8287706 Z"></path>
                                <path d="M77.9428131,77.0680183 L77.1571127,77.8551743 C77.0313039,77.9811193 76.8274693,77.9811193 76.7016605,77.8551743 L75.9153552,77.0680183 C75.7895464,76.9420734 75.7895464,76.7380183 75.9153552,76.6120734 L76.7016605,75.8249174 C76.8274693,75.6989725 77.0313039,75.6989725 77.1571127,75.8249174 L77.9428131,76.6120734 C78.068622,76.7386239 78.068622,76.9426789 77.9428131,77.0680183 Z"></path>
                                <path d="M77.9428131,102.307872 L77.1571127,103.095028 C77.0313039,103.220972 76.8274693,103.220972 76.7016605,103.095028 L75.9153552,102.307872 C75.7895464,102.181927 75.7895464,101.977872 75.9153552,101.851927 L76.7016605,101.064771 C76.8274693,100.938826 77.0313039,100.938826 77.1571127,101.064771 L77.9428131,101.851927 C78.068622,101.977872 78.068622,102.181927 77.9428131,102.307872 Z"></path>
                                <path d="M102.369084,2.13743119 C102.243275,2.26337615 102.039441,2.26337615 101.913632,2.13743119 L101.127327,1.35027523 C101.001518,1.22433028 101.001518,1.02027523 101.127327,0.894330275 L101.913632,0.107174312 C102.039441,-0.0187706422 102.243275,-0.0187706422 102.369084,0.107174312 L103.155389,0.894330275 C103.281198,1.02027523 103.281198,1.22433028 103.155389,1.35027523 L102.369084,2.13743119 Z"></path>
                                <path d="M103.155389,26.5895229 L102.369084,27.3766789 C102.243275,27.5026239 102.039441,27.5026239 101.913632,27.3766789 L101.127327,26.5895229 C101.001518,26.463578 101.001518,26.2595229 101.127327,26.133578 L101.913632,25.346422 C102.039441,25.2204771 102.243275,25.2204771 102.369084,25.346422 L103.155389,26.133578 C103.280593,26.2601284 103.280593,26.463578 103.155389,26.5895229 Z"></path>
                                <path d="M103.155389,51.8287706 L102.369084,52.6159266 C102.243275,52.7418716 102.039441,52.7418716 101.913632,52.6159266 L101.127327,51.8287706 C101.001518,51.7028257 101.001518,51.4987706 101.127327,51.3728257 L101.913632,50.5856697 C102.039441,50.4597248 102.243275,50.4597248 102.369084,50.5856697 L103.155389,51.3728257 C103.280593,51.4993761 103.280593,51.7034312 103.155389,51.8287706 Z"></path>
                                <path d="M103.155389,77.0680183 L102.369084,77.8551743 C102.243275,77.9811193 102.039441,77.9811193 101.913632,77.8551743 L101.127327,77.0680183 C101.001518,76.9420734 101.001518,76.7380183 101.127327,76.6120734 L101.913632,75.8249174 C102.039441,75.6989725 102.243275,75.6989725 102.369084,75.8249174 L103.155389,76.6120734 C103.280593,76.7386239 103.280593,76.9426789 103.155389,77.0680183 Z"></path>
                                <path d="M103.155389,102.307872 L102.369084,103.095028 C102.243275,103.220972 102.039441,103.220972 101.913632,103.095028 L101.127327,102.307872 C101.001518,102.181927 101.001518,101.977872 101.127327,101.851927 L101.913632,101.064771 C102.039441,100.938826 102.243275,100.938826 102.369084,101.064771 L103.155389,101.851927 C103.280593,101.977872 103.280593,102.181927 103.155389,102.307872 Z"></path>
                                <path d="M127.581056,2.13743119 C127.455247,2.26337615 127.252017,2.26337615 127.125603,2.13743119 L126.339298,1.35027523 C126.213489,1.22433028 126.213489,1.02027523 126.339298,0.894330275 L127.125603,0.107174312 C127.251412,-0.0187706422 127.455247,-0.0187706422 127.581056,0.107174312 L128.367361,0.894330275 C128.49317,1.02027523 128.49317,1.22433028 128.367361,1.35027523 L127.581056,2.13743119 Z"></path>
                                <path d="M128.367361,26.5895229 L127.581056,27.3766789 C127.455247,27.5026239 127.252017,27.5026239 127.125603,27.3766789 L126.339298,26.5895229 C126.213489,26.463578 126.213489,26.2595229 126.339298,26.133578 L127.125603,25.346422 C127.251412,25.2204771 127.455247,25.2204771 127.581056,25.346422 L128.367361,26.133578 C128.492565,26.2601284 128.492565,26.463578 128.367361,26.5895229 Z"></path>
                                <path d="M128.367361,51.8287706 L127.581056,52.6159266 C127.455247,52.7418716 127.252017,52.7418716 127.125603,52.6159266 L126.339298,51.8287706 C126.213489,51.7028257 126.213489,51.4987706 126.339298,51.3728257 L127.125603,50.5856697 C127.251412,50.4597248 127.455247,50.4597248 127.581056,50.5856697 L128.367361,51.3728257 C128.492565,51.4993761 128.492565,51.7034312 128.367361,51.8287706 Z"></path>
                                <path d="M128.367361,77.0680183 L127.581056,77.8551743 C127.455247,77.9811193 127.252017,77.9811193 127.125603,77.8551743 L126.339298,77.0680183 C126.213489,76.9420734 126.213489,76.7380183 126.339298,76.6120734 L127.125603,75.8249174 C127.251412,75.6989725 127.455247,75.6989725 127.581056,75.8249174 L128.367361,76.6120734 C128.492565,76.7386239 128.492565,76.9426789 128.367361,77.0680183 Z"></path>
                                <path d="M128.367361,102.307872 L127.581056,103.095028 C127.455247,103.220972 127.252017,103.220972 127.125603,103.095028 L126.339298,102.307872 C126.213489,102.181927 126.213489,101.977872 126.339298,101.851927 L127.125603,101.064771 C127.251412,100.938826 127.455247,100.938826 127.581056,101.064771 L128.367361,101.851927 C128.492565,101.977872 128.492565,102.181927 128.367361,102.307872 Z"></path>
                                <path d="M152.793027,2.13743119 C152.667218,2.26337615 152.463384,2.26337615 152.337575,2.13743119 L151.55127,1.35027523 C151.425461,1.22433028 151.425461,1.02027523 151.55127,0.894330275 L152.337575,0.107174312 C152.463384,-0.0187706422 152.667218,-0.0187706422 152.793027,0.107174312 L153.578728,0.894330275 C153.704536,1.02027523 153.704536,1.22433028 153.578728,1.35027523 L152.793027,2.13743119 Z"></path>
                                <path d="M153.579332,26.5895229 L152.793632,27.3766789 C152.667823,27.5026239 152.463989,27.5026239 152.33818,27.3766789 L151.551874,26.5895229 C151.426066,26.463578 151.426066,26.2595229 151.551874,26.133578 L152.33818,25.346422 C152.463989,25.2204771 152.667823,25.2204771 152.793632,25.346422 L153.579332,26.133578 C153.705141,26.2601284 153.705141,26.463578 153.579332,26.5895229 Z"></path>
                                <path d="M153.579332,51.8287706 L152.793632,52.6159266 C152.667823,52.7418716 152.463989,52.7418716 152.33818,52.6159266 L151.551874,51.8287706 C151.426066,51.7028257 151.426066,51.4987706 151.551874,51.3728257 L152.33818,50.5856697 C152.463989,50.4597248 152.667823,50.4597248 152.793632,50.5856697 L153.579332,51.3728257 C153.705141,51.4993761 153.705141,51.7034312 153.579332,51.8287706 Z"></path>
                                <path d="M153.579332,77.0680183 L152.793632,77.8551743 C152.667823,77.9811193 152.463989,77.9811193 152.33818,77.8551743 L151.551874,77.0680183 C151.426066,76.9420734 151.426066,76.7380183 151.551874,76.6120734 L152.33818,75.8249174 C152.463989,75.6989725 152.667823,75.6989725 152.793632,75.8249174 L153.579332,76.6120734 C153.705141,76.7386239 153.705141,76.9426789 153.579332,77.0680183 Z"></path>
                                <path d="M153.579332,102.307872 L152.793632,103.095028 C152.667823,103.220972 152.463989,103.220972 152.33818,103.095028 L151.551874,102.307872 C151.426066,102.181927 151.426066,101.977872 151.551874,101.851927 L152.33818,101.064771 C152.463989,100.938826 152.667823,100.938826 152.793632,101.064771 L153.579332,101.851927 C153.705141,101.977872 153.705141,102.181927 153.579332,102.307872 Z"></path>
                            </g>
                            <g transform="translate(0.000000, 42.385321)" fill="#CC7722">
                                <rect id="Rectangle" x="0.474807418" y="26.1705138" width="188.013455" height="1.01482569"></rect>
                                <path d="M149.164531,127.167468 C148.884485,127.167468 148.657666,126.940404 148.657666,126.660055 L148.657666,0.681798165 C148.657666,0.401449541 148.884485,0.174385321 149.164531,0.174385321 C149.444576,0.174385321 149.671395,0.401449541 149.671395,0.681798165 L149.671395,126.660055 C149.671395,126.940404 149.444576,127.167468 149.164531,127.167468 Z" id="Path"></path>
                            </g>
                            <g transform="translate(68.952924, 0.000000)" fill="#2E2E30" id="Shape">
                                <path d="M25.528913,43.5751376 C25.4696377,43.5751376 25.4103623,43.5654495 25.3516919,43.5436514 C24.4480456,43.2069908 3.18393153,35.2076697 0.361700428,27.258 C-0.157261056,25.7993394 -0.0399201141,24.4127339 0.708279601,23.1393578 C2.55851641,19.9907339 4.76380029,18.4908991 7.25336377,18.6610459 C16.1978887,19.2944037 25.601495,41.912422 25.997067,42.8745688 C26.0744879,43.0610642 26.0339629,43.2748073 25.8930328,43.4207339 C25.7962568,43.5206422 25.6631897,43.5751376 25.528913,43.5751376 Z M6.87412268,19.663156 C4.91803709,19.663156 3.13917261,21.0037431 1.58107846,23.6546422 C0.984091298,24.6706789 0.896992867,25.738789 1.31675892,26.9177064 C3.62728673,33.4274862 20.1034066,40.3714128 24.5847418,42.1558349 C22.5590984,37.557633 14.4383795,20.1857064 7.18138659,19.6734495 C7.0791669,19.665578 6.97573752,19.663156 6.87412268,19.663156 Z"></path>
                                <path d="M25.528913,43.5751376 C25.3940314,43.5751376 25.2615692,43.5206422 25.1647932,43.4207339 C25.0244679,43.2748073 24.9839429,43.0610642 25.0607589,42.8745688 C25.4569358,41.912422 34.8599372,19.2931927 43.8056719,18.6610459 C46.3121712,18.4878716 48.501729,19.991945 50.3501512,23.1393578 C51.0983509,24.4127339 51.215087,25.7993394 50.6973352,27.258 C47.8751041,35.2076697 26.6097803,43.2069908 25.7061341,43.5436514 C25.6474636,43.5654495 25.5881883,43.5751376 25.528913,43.5751376 Z M44.1837033,19.663156 C44.0814836,19.663156 43.9798688,19.6661835 43.8770442,19.674055 C36.6188417,20.1875229 28.4987275,37.5582385 26.473689,42.1552294 C30.9550243,40.3714128 47.4323538,33.4256697 49.7422767,26.9177064 C50.1608331,25.7381835 50.0737347,24.6700734 49.4767475,23.6546422 C47.9198631,21.0037431 46.1397889,19.663156 44.1837033,19.663156 Z"></path>
                                <path d="M26.5426419,43.5751376 C26.3466705,43.5751376 26.1676348,43.4619083 26.0835606,43.2826789 C25.5458488,42.1340367 12.9891583,15.0268073 18.9584251,4.58669725 C20.311475,2.21917431 22.5149444,0.877981651 25.5077432,0.598238532 C27.6658488,0.40266055 29.3842282,1.07416514 30.6199372,2.61093578 C37.2436519,10.8548807 27.4462882,41.9045505 27.0265221,43.2221284 C26.9630128,43.4201284 26.7839772,43.56 26.5759087,43.5739266 C26.5644165,43.5751376 26.5535292,43.5751376 26.5426419,43.5751376 Z M26.239612,1.57855046 C26.0339629,1.57855046 25.8210556,1.58823853 25.6020999,1.60943119 C22.9195892,1.85950459 21.0336662,2.99906422 19.8378773,5.09047706 C14.8212496,13.8654495 24.0500542,36.1577064 26.4525193,41.6278349 C28.2519486,35.5988257 35.3843424,10.1609725 29.829398,3.2473211 C28.9293809,2.12774312 27.749923,1.57855046 26.239612,1.57855046 Z"></path>
                            </g>
                        </g>
                        <g transform="translate(10.282454, 87.798165)">
                            <path d="M28.408,290.347321 L170.872605,171.54611 C181.919589,162.333963 196.967053,160.784477 209.461444,167.570972 L346.523526,242.022 L324.558391,284.45455 L28.408,290.347321 Z" id="Path" fill="#F9A602"></path>
                            <path d="M69.0654265,220.814807 C69.0654265,220.814807 64.2713837,229.293083 72.5832354,256.068495 C87.3192011,303.537028 85.2258146,303.538844 101.652942,305.25545 C119.926071,307.164606 69.0654265,220.814807 69.0654265,220.814807 Z" id="Path" fill="#AA8F62"></path>
                            <g transform="translate(0.000000, 222.220183)">
                                <path d="M106.459686,83.6734679 C106.459686,83.6734679 85.3467846,83.8962936 64.7673609,83.4064404 C55.6522682,83.1836147 46.6333466,82.8203119 39.6080114,82.2414495 C37.2811526,82.0482936 34.8798973,81.8188073 32.8270357,80.8615046 C28.7436919,78.9699083 27.0839829,74.7483303 26.4984879,70.8464587 C25.7055292,65.5349725 26.2686448,60.0890642 28.1364223,54.9707339 C28.5658659,53.8057431 29.114465,52.5892844 30.2630756,51.8402752 C31.6046334,50.9574495 33.4421683,50.9132477 35.1466362,50.9132477 C45.0250499,50.9059817 54.8962054,50.890844 64.7673609,50.883578 C68.2652097,50.8763119 71.7558003,50.8763119 75.245786,50.8684404 C84.6796348,50.8611743 100.679133,47.7301101 106.104034,56.425156 C107.867777,59.2589174 108.357101,62.5304587 108.645615,65.7281284 C109.12768,71.2466972 107.03006,78.1609541 106.459686,83.6734679 Z" id="Path" fill="#CE8380"></path>
                                <path d="M64.7673609,50.882367 L64.7673609,83.4058349 C55.6522682,83.1830092 46.6333466,82.8197064 39.6080114,82.240844 C37.2811526,82.0476881 34.8798973,81.8182018 32.8270357,80.8608991 C28.7436919,78.9693028 27.0839829,74.7477248 26.4984879,70.8458532 C25.7055292,65.534367 26.2686448,60.0884587 28.1364223,54.9701284 C28.5658659,53.8051376 29.114465,52.5886789 30.2630756,51.8396697 C31.6046334,50.956844 33.4421683,50.9126422 35.1466362,50.9126422 C45.0250499,50.9047706 54.8962054,50.8902385 64.7673609,50.882367 Z" id="Path" fill="#B6B3FF"></path>
                                <path d="M56.476679,83.4682018 C55.7798916,77.6057064 55.4798859,73.0710826 55.5064993,68.7629174 C55.5403709,64.277945 55.951669,59.7796514 56.3508702,55.4315229 C56.4942197,53.8626606 56.6387789,52.2950092 56.7657974,50.7261468 L60.8068017,51.0531193 C60.6791783,52.6365138 60.5346191,54.2193028 60.3888502,55.8020917 C59.998117,60.0672661 59.5928673,64.4789725 59.5614151,68.7907706 C59.5354066,72.9203119 59.8269444,77.2993211 60.5037718,82.9886422 L56.476679,83.4682018 Z" id="Path" fill="#FFE4FF"></path>
                                <path d="M50.4832183,82.889945 L46.4313267,82.7355413 C46.8220599,72.4994862 47.3180371,61.7517798 47.9065563,50.7891193 L51.9554237,51.0071009 C51.368719,61.9479633 50.8727418,72.6756881 50.4832183,82.889945 Z" id="Path" fill="#FFE4FF"></path>
                                <g>
                                    <path d="M0.525009986,8.75862385 L0.525009986,80.9680734 C0.525009986,82.8493761 1.86717261,84.3746422 3.52264765,84.3746422 L31.6318516,79.9962385 L31.3257974,78.5169908 C29.4199144,69.3054495 30.1917033,59.7402936 33.5480171,50.9538165 L33.5480171,50.9538165 L14.6264879,5.67236697 C13.5159829,2.51768807 10.8274237,0.448678899 7.83704422,0.448678899 L7.83704422,0.448678899 C3.79906419,0.448678899 0.525009986,4.16889908 0.525009986,8.75862385 Z" id="Path" fill="#2A2A2A"></path>
                                    <g transform="translate(7.258203, 16.954128)" fill="#C49102">
                                        <g transform="translate(15.121255, 9.082569)" id="Shape">
                                            <path d="M7.28300143,12.4322202 C4.9398117,12.4322202 2.74904422,12.1270459 2.06314408,11.091633 C1.80366334,10.7004771 1.62160342,10.033211 2.22463909,9.07469725 C3.02425107,7.80011009 4.39968046,6.80042202 6.31100713,6.10288073 C7.09791726,5.81526606 7.90962625,5.59425688 8.69472183,5.38172477 C9.43324394,5.18130275 10.1971698,4.97361468 10.9187561,4.71445872 C12.3304765,4.20886239 13.6913894,3.46954128 15.0069387,2.75504587 C16.4005136,1.99816514 17.8412668,1.21585321 19.3812154,0.681798165 C21.1479829,0.0696330275 22.5953894,0.15440367 23.5685934,0.923394495 C24.9137803,1.99089908 24.9186191,3.97755963 24.3276805,5.47315596 C23.6042796,7.30359633 22.0897347,8.91605505 20.0640913,10.0126239 C18.4999486,10.8609358 16.6902368,11.4186055 14.1970442,11.8230826 C13.5891698,11.9229908 10.3096719,12.4322202 7.28300143,12.4322202 Z M21.5217803,1.29093578 C20.9018088,1.29093578 20.2515949,1.45442202 19.7132782,1.64152294 C18.2519601,2.14772477 16.8487076,2.91005505 15.490214,3.64755963 C14.1407932,4.38082569 12.7454037,5.13891743 11.2604964,5.66994495 C10.5014094,5.94242202 9.71812839,6.15555963 8.96085592,6.36082569 C8.1957204,6.56911927 7.40457632,6.78407339 6.65758631,7.05655046 C4.96279601,7.67477064 3.76035378,8.53579817 3.08231669,9.61541284 C2.70247076,10.2197064 2.85731241,10.4546422 2.90932953,10.5309358 C3.76337803,11.8248991 10.0544251,11.4706789 14.0361541,10.8233945 L14.0361541,10.8233945 C16.4132154,10.4376881 18.1237318,9.9127156 19.5826305,9.12192661 C21.3989957,8.13677064 22.7502311,6.70899083 23.3871384,5.10077064 C23.8256548,3.99088073 23.8734379,2.45955963 22.9407589,1.72023853 C22.5421626,1.40537615 22.0425563,1.29093578 21.5217803,1.29093578 Z"></path>
                                            <path d="M8.54592867,33.0732661 C7.85881883,33.0732661 7.15719258,32.9109908 6.54629387,32.6451743 C4.80190585,31.8852661 3.29461912,30.3666606 2.30085021,28.3703119 C1.53450499,26.8311193 1.05425392,25.0636514 0.743965763,22.6386055 L0.743965763,22.6386055 C0.610293866,21.5922936 -0.494162625,12.3692477 1.85265621,10.9220917 C2.24338944,10.6823119 2.89904708,10.5266972 3.81055635,11.1443119 C5.01723252,11.9617431 5.93781455,13.3253394 6.54992297,15.1975596 C6.80154066,15.968367 6.98722967,16.761578 7.16747504,17.5275413 C7.3368331,18.2468807 7.51223966,18.9904404 7.73784879,19.6958532 C8.17817974,21.0733761 8.84653923,22.4109358 9.49191441,23.7042936 C10.1772097,25.0757615 10.8848845,26.4950642 11.3500143,28.0009541 C11.8847019,29.7333028 11.7558688,31.1356514 10.9768217,32.0542018 C10.3604793,32.7820183 9.465301,33.0732661 8.54592867,33.0732661 Z M1.74922682,22.509633 C2.04439372,24.8166055 2.49440228,26.4853761 3.20752068,27.9186055 C4.0954408,29.701211 5.42490157,31.0502752 6.95033381,31.7151193 C7.99974893,32.1710642 9.46590585,32.267945 10.204428,31.3978349 C10.8903281,30.5870642 10.6798402,29.2664587 10.3816491,28.3000734 C9.94131812,26.8728991 9.25118402,25.4923486 8.58524394,24.1578165 C7.92172325,22.829945 7.23703281,21.4572661 6.771903,20.0046606 C6.53419686,19.2617064 6.3551612,18.4975596 6.18096434,17.760055 C6.00555777,17.0140734 5.82470756,16.2426606 5.58579173,15.512422 C5.04626534,13.8593945 4.25814551,12.673211 3.242602,11.9847523 C2.681301,11.6051009 2.45871612,11.7407339 2.38431954,11.7873578 C1.11534379,12.5672477 1.25506419,18.6465138 1.74922682,22.509633 L1.74922682,22.509633 Z"></path>
                                        </g>
                                        <path d="M13.7639715,62.2846239 C3.21961769,56.5299083 1.01917261,43.4334495 0.562510699,38.0692844 C0.302425107,35.0060367 0.177221113,30.489578 2.09399144,26.6512844 C4.86299572,21.1078899 11.6929643,18.1003486 17.642271,19.8102936 L17.3628302,20.785156 C11.9590984,19.2362752 5.5144194,22.0706422 3.00005706,27.1048073 C1.19760342,30.7142202 1.32099287,35.0417615 1.57140086,37.9839083 C2.01415121,43.1833761 4.13536091,55.8753578 14.2484565,61.3927156 L13.7639715,62.2846239 Z" id="Path"></path>
                                        <path d="M7.10275606,32.1977064 L6.10293866,32.0311927 C7.01747218,26.5156514 11.4365078,21.7031009 16.8487076,20.3286055 L17.0979058,21.311945 C12.0631327,22.5907706 7.95317546,27.0672661 7.10275606,32.1977064 Z" id="Path"></path>
                                        <g transform="translate(6.048502, 0.000000)" id="Path">
                                            <path d="M4.92408559,14.0573945 L4.50613409,13.134 C6.84206562,12.074367 8.92516976,10.4080183 10.5298374,8.31478899 L11.3336833,8.93300917 C9.62800571,11.1582385 7.41183452,12.929945 4.92408559,14.0573945 Z"></path>
                                            <path d="M2.818602,10.1482569 L2.4006505,9.22486239 C4.73779173,8.16280734 6.82150071,6.49645872 8.42435378,4.40565138 L9.22819971,5.02387156 C7.52433666,7.24546789 5.30816548,9.01838532 2.818602,10.1482569 Z"></path>
                                            <path d="M0.65142368,6.23911927 L0.233472183,5.31572477 C2.57061341,4.25366972 4.6543224,2.5873211 6.25717546,0.496513761 L7.0610214,1.11473394 C5.3577632,3.33633028 3.14098716,5.10924771 0.65142368,6.23911927 Z"></path>
                                        </g>
                                    </g>
                                    <g transform="translate(3.629101, 4.844037)" fill="#FFFFFF">
                                        <path d="M1.45164051,76.2021468 L0.443960057,76.1010275 C0.554647646,74.9868991 0.53710699,73.8334128 0.518961484,72.7180734 L0.285489301,57.6737064 L1.29921826,57.6579633 L1.53269044,72.7023303 C1.55083595,73.8467339 1.5683766,75.0298899 1.45164051,76.2021468 Z" id="Path"></path>
                                        <polygon id="Rectangle" transform="translate(0.790531, 53.237582) rotate(-86.864347) translate(-0.790531, -53.237582) " points="-0.63327495 52.7311039 2.21439586 52.7309358 2.21433599 53.7440603 -0.633334816 53.7442284"></polygon>
                                        <path d="M0.414322397,48.7534128 C0.2818602,42.6668807 0.359885877,36.493156 0.64900428,30.4035963 L1.66091869,30.4514312 C1.37361484,36.5179817 1.29558916,42.6680917 1.42805136,48.7322202 L0.414322397,48.7534128 Z" id="Path"></path>
                                        <path d="M0.809894437,28.4817248 C0.393152639,22.0167523 0.710094151,15.4682202 1.01675321,9.13585321 L1.43047076,0.560091743 L2.44238516,0.609743119 L2.02866762,9.18550459 C1.72382311,15.4894128 1.40869615,22.0088807 1.82180884,28.4163303 L0.809894437,28.4817248 Z" id="Path"></path>
                                    </g>
                                </g>
                            </g>
                            <path d="M183.709341,77.3810642 L159.148188,110.299927 C140.152262,106.30178 99.6460485,98.3254679 78.7236748,98.4677615 C64.7655464,98.5694862 61.3493524,93.9724954 61.4190499,89.3452294 C61.5114522,84.1596881 65.8494379,80.0295413 71.0293752,79.7455596 L152.832342,75.2702752 C151.494414,73.5451927 149.841963,71.1806972 147.814505,67.9945321 C134.718288,47.3946606 153.774699,39.7229174 161.438151,54.0618716 C166.89269,64.2700734 177.850157,73.129211 183.709341,77.3810642 Z" id="Path" fill="#CE8380"></path>
                            <path d="M413.37883,231.604294 C413.37883,291.817486 376.846482,306.174606 355.436599,306.174606 L90.51402,306.28178 C92.8729358,277.361064 85.8675606,249.12578 71.3826077,225.673376 C70.856388,224.820826 70.388234,223.934367 69.9968959,223.012183 L69.0648217,220.813596 L283.552571,220.813596 C292.96404,220.813596 296.888913,210.78644 297.523401,199.791083 C297.582071,198.706018 297.611104,197.62156 297.611104,196.536495 L412.548371,198.755064 L412.821763,209.505798 L413.37883,231.604294 Z" id="Path" fill="#CEB180"></path>
                            <path d="M302.833986,62.8937615 C299.938568,63.0905505 301.381136,66.0375413 295.942927,69.6717798 C291.248685,72.8088991 288.630288,74.2602936 287.172599,74.8882018 C285.703418,75.5209541 284.496137,76.6593028 283.878585,78.1361284 C279.862379,87.7345872 279.07426,101.33967 280.051093,116.029817 L277.224628,119.651339 C270.845272,127.825651 259.6501,128.747229 252.059835,121.722165 L192.17422,66.0363303 L158.732051,110.864862 C159.615738,113.204532 228.515435,178.43978 252.546739,201.151651 C259.301101,207.534881 269.172257,207.632972 275.871578,201.384165 L292.997307,185.41156 C293.726756,188.052165 294.409632,190.437853 295.019321,192.505046 C295.559452,194.343963 296.037889,195.929174 296.43467,197.223743 C297.16291,199.597927 299.34279,201.226128 301.824491,201.253982 L309.522419,201.340569 L409.516257,202.423211 C411.774767,202.447431 413.574802,200.514055 413.360685,198.262789 C407.400491,135.638477 339.713518,60.3893945 302.833986,62.8937615 Z" id="Path" fill="#FFC30B"></path>
                            <g transform="translate(269.158345, 0.000000)">
                                <path d="M53.1379058,33.5619083 C52.6340656,29.043633 50.1886562,24.8965321 46.9279087,21.7436697 C42.488913,17.4409541 36.4936377,14.3026239 30.350174,13.5160734 C24.7849472,12.8112661 19.0116519,13.9169174 14.0760742,16.5871927 L14.0875663,16.567211 C14.0827275,16.5738716 14.0754693,16.5811376 14.0706305,16.5871927 C14.0657917,16.5926422 14.0621626,16.5962752 14.0591384,16.5999083 C13.3956177,16.9474679 12.7466134,17.3307523 12.1121255,17.7443119 C11.6306648,18.0634128 11.1564622,18.3970459 10.696776,18.7385505 C10.5782254,18.8348257 10.4524165,18.9238349 10.3483823,19.0207156 C6.59649643,20.9704404 1.44196291,23.104844 1.12441655,23.4039633 C0.731263909,23.7745321 0.717352354,24.3903303 0.93207418,24.9134862 C1.14679601,25.4366422 1.55325535,25.8901651 1.95245649,26.331578 C2.3994408,26.8262752 2.84582026,27.3209725 3.29280456,27.8150642 C3.1004622,28.2219633 2.93049929,28.6288624 2.76779458,29.043633 C2.30871327,30.2382936 1.96757775,31.477156 1.73773466,32.7456881 C1.68571755,33.0351193 1.64156348,33.3318165 1.60406277,33.6285138 C1.52966619,34.1849725 1.47825392,34.7486972 1.45587447,35.312422 C1.4189786,36.1207706 1.4262368,36.9369908 1.49277033,37.745945 C1.64095863,39.7416881 2.107903,41.7150275 2.90811983,43.562422 C3.71619971,45.4394862 4.85694722,47.1306606 6.22088445,48.6068807 C6.25778031,48.6516881 6.30253923,48.6958899 6.33943509,48.7406972 C8.96690442,51.5387339 12.433301,53.5974495 16.1609929,54.8859633 C16.5614037,56.6788624 17.073107,58.4638899 17.6997318,60.2131927 C18.6003538,62.7508624 19.7604565,65.1995229 21.1377004,67.4889358 C19.1852439,69.4846789 17.6307789,71.8733945 16.3430528,74.3632294 C15.7327589,75.5433578 13.4809016,80.0913028 14.0875663,79.7564587 C19.362465,76.8427706 25.7593609,71.9309174 30.64897,67.4677431 C31.5864879,66.8065321 32.4834807,66.0859817 33.3066819,65.2879266 C33.4397489,65.1619817 33.5661626,65.0354312 33.6326961,64.8725505 C33.6889472,64.7235963 33.6750357,64.5752477 33.6369301,64.4293211 C33.9369358,63.9001101 34.0488331,63.3218532 33.6218088,62.9446239 C33.3834979,62.7339083 33.047806,62.6812294 32.7314693,62.6515596 C32.5929586,62.6382385 32.4538431,62.6448991 32.3147275,62.6370275 C31.8429444,62.0593761 31.3856776,61.4684037 30.9647019,60.8526055 C29.9866591,59.4278532 29.1658773,57.8983486 28.484816,56.3113211 C40.9519886,55.2171743 54.691766,47.3486422 53.1379058,33.5619083 Z" id="Shape" fill="#CE8380"></path>
                                <path d="M30.9604679,60.850789 C27.4837889,61.3884771 24.0167874,61.4290459 20.9048331,60.921633 C20.3876862,60.850789 19.8711441,60.7490642 19.3539971,60.6273578 C19.3539971,60.6273578 19.3539971,60.6273578 19.3437147,60.6273578 C18.7963252,60.5056514 18.2489358,60.3736514 17.7015464,60.2113761 C17.073107,58.4657064 16.5662425,56.690367 16.1706705,54.9041284 C17.2146419,55.2692477 18.2688959,55.5635229 19.3437147,55.7972477 C19.3539971,55.7972477 19.3539971,55.7972477 19.3539971,55.7972477 C19.8711441,55.9189541 20.3876862,56.0103853 20.9048331,56.0915229 C23.2667732,56.4772294 25.8410157,56.5480734 28.4666705,56.3149541 C29.1459173,57.8977431 29.9769815,59.4199817 30.9604679,60.850789 Z" id="Path" fill="#2E2E30"></path>
                                <path d="M31.323378,40.6505505 C31.1147047,40.6505505 30.8709501,40.5355046 30.7790128,40.3641468 C30.6659058,40.1522202 30.7233666,39.8658165 30.9078459,39.7120183 C31.036679,39.604844 31.2235777,39.5660917 31.3856776,39.604844 C31.7086676,39.5224954 31.9838745,39.4371193 32.2179515,39.2978532 C32.4834807,39.1410275 32.6655407,38.9151743 32.7048559,38.6941651 C32.7683652,38.3363119 32.4713837,37.953633 32.1695635,37.7489725 C32.0104879,37.6417982 31.7588702,37.5291743 31.5211641,37.5291743 C31.2441427,37.5697431 31.0022026,37.3287523 30.988291,37.0496147 C30.9731698,36.7692661 31.1884964,36.5300917 31.4673324,36.5167706 C31.8798402,36.4907339 32.3238003,36.63 32.7350984,36.9091376 C33.4488217,37.3905138 33.8286676,38.1619266 33.7022539,38.8733945 C33.6103167,39.3886789 33.257689,39.861578 32.7338887,40.1728073 C32.3032354,40.4277248 31.8229843,40.5445872 31.4370899,40.6378349 C31.4026134,40.6457064 31.3632981,40.6505505 31.323378,40.6505505 Z" id="Path" fill="#2E2E30"></path>
                                <g transform="translate(10.282454, 21.192661)">
                                    <path d="M12.6933866,10.4352661 C12.6933866,10.4352661 12.0830927,5.23761468 9.0473495,2.96818349 C5.44909558,0.27853211 0.471783167,0.245229358 0.471783167,0.245229358 C0.471783167,0.245229358 1.71777461,5.16555963 4.70029101,7.64207339 C7.68220257,10.1179817 12.6933866,10.4352661 12.6933866,10.4352661 Z" id="Path" fill="#FFFFFF"></path>
                                    <ellipse id="Oval" fill="#2E2E30" cx="4.86843937" cy="3.71719266" rx="3.18090728" ry="3.18434862"></ellipse>
                                </g>
                                <path d="M16.2317603,17.6607523 C20.6798288,20.860844 24.2133638,25.3209908 26.3127989,30.3860367 C26.3127989,30.3860367 22.9238231,18.0028624 17.3942825,16.2244954 L16.2317603,17.6607523 Z" id="Path" fill="#2E2E30"></path>
                                <path d="M3.42889586,28.8849908 C3.27526391,28.8849908 3.12405136,28.8153578 3.02425107,28.6827523 C2.02322397,27.3536697 1.1383281,25.9246789 0.393152639,24.4345321 C0.347788873,24.3431009 0.22681883,24.1015046 0.322990014,23.822367 C0.419766049,23.5468624 0.64960913,23.433633 0.747594864,23.3864037 C4.02043937,21.8060367 7.26001712,20.0585505 10.3816491,18.1917798 C10.6223795,18.0488807 10.9332725,18.1263853 11.0778317,18.3673761 C11.2211812,18.608367 11.1419458,18.9202018 10.9024251,19.0643119 C7.82373752,20.9044404 4.63133809,22.6301284 1.4080913,24.1935413 C2.11092725,25.5662202 2.92263623,26.862 3.83414551,28.0730092 C4.00229387,28.2970459 3.9581398,28.6149358 3.73434522,28.7832661 C3.64240799,28.8510826 3.53595435,28.8849908 3.42889586,28.8849908 Z" id="Path" fill="#2E2E30"></path>
                                <path d="M26.9775292,44.6608073 C27.3513267,44.1788257 27.7880285,43.7271193 28.3378374,43.4637248 C28.9305906,43.1797431 29.6043937,43.1361468 30.2552126,43.0428991 C31.8447589,42.8152294 33.4439829,42.2236514 34.5411812,41.0501835 C35.6383795,39.8767156 36.1150014,38.0377982 35.3928103,36.6021468 C35.0722397,35.9645505 34.5502539,35.448055 34.2175863,34.8171193 C33.3605136,33.1895229 33.9181854,31.218 33.8982254,29.3778716 C33.8782653,27.5601468 33.2734151,25.8066055 32.6752183,24.0906055 C31.3391041,20.2565505 30.0023852,16.4231009 28.666271,12.5890459 C28.2549729,11.4095229 27.8376262,10.1682385 28.0414608,8.93543119 C28.1902539,8.03322936 28.6626419,7.21700917 29.195515,6.47466055 C32.2427504,2.22704587 37.6851926,-0.165908257 42.8717832,0.461394495 C43.845592,0.57946789 44.8333124,0.805926606 45.6462311,1.35633028 C47.1214608,2.35541284 47.738408,4.19675229 48.2011184,5.91880734 C48.424913,6.75198165 48.6360057,7.59726606 48.6674579,8.45950459 C48.7527418,10.822789 47.4940485,13.0256147 47.1946476,15.3713394 C46.8559315,18.024055 47.7874009,20.7312661 49.3340029,22.9122936 C50.8806049,25.0933211 53.0036291,26.8014495 55.2318973,28.2764587 C56.9660029,29.4244954 58.8144251,30.4780734 60.1620314,32.0632844 C62.5245763,34.843156 62.9455521,38.9278899 61.8731526,42.4162018 C60.8007532,45.9045138 58.4170385,48.8563486 55.7036805,51.2935046 C53.2981912,53.453945 50.5443081,55.305578 47.4450556,56.2229174 C44.8145621,57.0015963 42.0358802,57.0827339 39.2940942,57.158422 C35.5549101,57.2613578 29.5003595,58.9567706 27.0737004,55.5053945 C24.8454322,52.3373945 24.5254665,47.8203303 26.9775292,44.6608073 Z" id="Path" fill="#4B2600"></path>
                                <path d="M52.2911155,44.0922385 C51.6439258,44.545156 50.8025792,44.5954128 50.0108302,44.6329541 C49.5711041,44.6583853 49.1065792,44.6704954 48.7110071,44.4821835 C48.6541512,43.7967523 48.6481027,43.1052661 48.6795549,42.4198349 C48.6983053,41.9420917 48.7424593,41.4643486 48.8053638,40.9926606 C48.949923,41.0114312 49.1065792,41.0804587 49.2638402,41.2191193 C49.3896491,41.3323486 49.458602,41.4958349 49.5275549,41.6532661 C50.0422825,42.8091743 51.0783909,43.7210642 52.2911155,44.0922385 Z" id="Path" fill="#FFFFFF"></path>
                            </g>
                            <g transform="translate(67.743224, 53.284404)" fill="#000075" id="Path">
                                <path d="M9.52760057,45.3644037 C9.29291869,45.3644037 9.08303566,45.2021284 9.0316234,44.9641651 C8.97295292,44.6898716 9.14714979,44.420422 9.42054208,44.3604771 C18.9723367,42.301156 28.8640571,41.7822385 38.4309729,41.2796697 L68.8954636,39.6781101 C69.1876063,39.6563119 69.4144251,39.8785321 69.4277318,40.1576697 C69.4428531,40.4380183 69.2275264,40.6759817 68.9486904,40.6905138 L38.4841997,42.2920734 C28.957204,42.7922202 19.1066134,43.3105321 9.63405421,45.3535046 C9.5977632,45.3601651 9.56207703,45.3644037 9.52760057,45.3644037 Z"></path>
                                <path d="M0.610898716,39.0635229 C0.59335806,39.0635229 0.575212553,39.0623119 0.557671897,39.0604954 C0.279440799,39.0320367 0.0774208274,38.7831743 0.106453638,38.5034312 C0.364724679,35.9984587 2.00931241,33.6969358 4.29383167,32.6409358 C5.21441369,32.2164771 6.27834522,31.9530826 7.6428873,31.8126055 C9.3376776,31.6333761 10.6925421,31.7211743 11.9143395,32.082055 C13.471224,32.5410275 14.7274979,33.4613945 15.4515036,34.6724037 C16.003127,35.5970092 16.2245021,36.6415046 16.3829729,37.6327156 C16.4265221,37.9100367 16.2384137,38.1697982 15.9619971,38.2146055 C15.6825563,38.2551743 15.425495,38.0711009 15.3807361,37.7931743 C15.2392011,36.9012661 15.0444394,35.97 14.5811241,35.1931376 C13.9980485,34.2170642 12.9208103,33.4371743 11.6270357,33.0557064 C10.5370956,32.733578 9.30380599,32.6615229 7.74752639,32.8219817 C6.4960913,32.9515596 5.53437946,33.1864954 4.71843652,33.5631193 C2.75267332,34.4719817 1.33792867,36.4525872 1.11413409,38.6093945 C1.08691583,38.8697615 0.866750357,39.0635229 0.610898716,39.0635229 Z"></path>
                                <path d="M88.0268759,11.7570826 C87.8387675,11.7570826 87.6494494,11.743156 87.4595264,11.7116697 C86.1766391,11.4997431 85.1943623,10.5266972 84.5671327,9.81280734 C82.0872468,6.99418349 80.9749272,3.64998165 81.5132439,0.635174312 C81.5628417,0.358458716 81.8271612,0.179229358 82.1011583,0.224642202 C82.3775749,0.274293578 82.5602397,0.537688073 82.5112468,0.813192661 C82.03402,3.48165138 83.087669,6.59455046 85.3274294,9.14251376 C85.8965934,9.78979817 86.6726163,10.5515229 87.6258602,10.7101651 C88.3843424,10.8330826 89.2117775,10.5642385 89.9424365,10.3244587 C91.0529415,9.96176147 92.3134494,9.54941284 93.1880628,8.72289908 C93.3900827,8.52853211 93.7124679,8.53943119 93.9036006,8.74348624 C94.0959429,8.94693578 94.0868702,9.26785321 93.8830357,9.45979817 C92.843903,10.4431376 91.4696833,10.8930275 90.2569586,11.2890275 C89.6085592,11.5027706 88.8325364,11.7570826 88.0268759,11.7570826 Z"></path>
                            </g>
                            <g transform="translate(68.348074, 90.220183)" fill="#2E2E30" id="Path">
                                <path d="M344.474294,119.286826 C344.200902,119.335872 343.927509,119.364936 343.634762,119.364936 L301.265609,121.088202 C285.502608,121.729431 269.72509,120.225358 254.372177,116.59233 C242.025974,113.670771 229.443275,110.483394 229.175932,109.57211 C229.234602,108.487046 344.200902,108.536092 344.200902,108.536092 L344.474294,119.286826 Z"></path>
                                <path d="M224.754476,94.641578 C245.018773,76.1791376 245.984719,76.1761101 261.989056,53.9111009 C264.583258,50.3016881 267.693398,42.5427523 268.898864,38.2630459 C270.843458,31.3584771 269.138385,23.8332661 265.780862,17.496055 C262.423338,11.1582385 257.52768,5.79407339 252.685854,0.50559633 C252.685854,0.50559633 278.204485,18.5375229 269.718437,43.9802202 C261.232993,69.4229174 226.076679,98.3648257 226.076679,98.3648257 L224.754476,94.641578 Z"></path>
                                <path d="M192.95992,113.687725 C192.756086,113.687725 192.563138,113.563596 192.486927,113.360752 C190.207852,107.382 187.023315,101.818624 183.021626,96.8262385 C182.84622,96.6082569 182.881301,96.289156 183.099652,96.1135596 C183.316188,95.9379633 183.637364,95.9718716 183.811561,96.1916697 C187.880993,101.266404 191.118151,106.921211 193.433518,112.999872 C193.533318,113.26145 193.40267,113.555119 193.14077,113.653817 C193.08089,113.676826 193.020405,113.687725 192.95992,113.687725 Z"></path>
                                <path d="M196.884188,109.696239 C196.683983,109.696239 196.49406,109.57756 196.414825,109.380165 C195.600091,107.373523 194.895441,105.295431 194.320228,103.203413 C194.245832,102.932752 194.405512,102.653615 194.67467,102.579138 C194.948668,102.507688 195.22327,102.664514 195.298271,102.933963 C195.862596,104.987229 196.553335,107.02778 197.353552,108.997486 C197.459401,109.257248 197.334802,109.553339 197.075321,109.658697 C197.013021,109.684128 196.947698,109.696239 196.884188,109.696239 Z"></path>
                                <path d="M195.264399,38.1522385 C192.405272,38.1522385 189.606026,36.6517982 186.951943,35.0714312 C186.711213,34.9279266 186.631977,34.6166972 186.775932,34.3757064 C186.919281,34.1328991 187.232593,34.0553945 187.470904,34.1995046 C190.518745,36.0148073 193.762556,37.7186972 196.884793,36.9418349 C198.259013,36.5997248 199.498956,35.7944037 200.754625,34.9279266 C207.254345,30.4417431 213.326437,25.280422 218.801541,19.5892844 C218.997512,19.3858349 219.318083,19.3834128 219.518288,19.5753578 C219.720308,19.7697248 219.726357,20.0918532 219.5322,20.2928807 C214.009312,26.0336697 207.884599,31.2379817 201.330442,35.7629174 C199.994933,36.6844954 198.668496,37.5437064 197.129153,37.9263853 C196.506157,38.082 195.884371,38.1522385 195.264399,38.1522385 Z"></path>
                                <path d="M238.612805,100.296385 C238.382961,100.296385 238.176103,100.13956 238.119852,99.9076514 C238.054528,99.6351743 238.222071,99.3608807 238.494254,99.2954862 C261.574733,93.7351376 285.136068,88.9171376 308.521392,84.9759083 C308.789946,84.9280734 309.059104,85.1157798 309.105678,85.3918899 C309.152251,85.6686055 308.965957,85.9301835 308.690146,85.9768073 C285.327201,89.9137982 261.79006,94.7269541 238.73196,100.282459 C238.69204,100.291541 238.651515,100.296385 238.612805,100.296385 Z"></path>
                                <path d="M279.316805,88.1251376 C279.072445,88.1251376 278.857723,87.9477248 278.817198,87.6982569 C278.773649,87.4215413 278.961757,87.1611743 279.238174,87.116367 L310.562762,82.0882569 C310.833735,82.0488991 311.098054,82.2317615 311.144023,82.5096881 C311.187572,82.7864037 310.999464,83.0467706 310.723047,83.091578 L279.398459,88.1196881 C279.371241,88.1233211 279.343418,88.1251376 279.316805,88.1251376 Z"></path>
                                <g transform="translate(111.292439, 126.550459)">
                                    <path d="M1.08812553,9.43921101 C0.840741797,9.43921101 0.623600571,9.25695413 0.587309558,9.00385321 C0.547994294,8.72653211 0.739731812,8.46979817 1.01675321,8.42922936 C11.8363138,6.86218349 22.520388,4.14649541 32.773204,0.356642202 C33.0326847,0.25733945 33.3278516,0.393577982 33.423418,0.656972477 C33.520194,0.919761468 33.3865221,1.21100917 33.1234123,1.30788991 C22.8052725,5.1219633 12.0522454,7.85642202 1.16131241,9.43376147 C1.13651355,9.4373945 1.11292439,9.43921101 1.08812553,9.43921101 Z"></path>
                                    <path d="M27.6579857,10.3765321 C27.4335863,10.3765321 27.2273324,10.2257615 27.1680571,9.99809174 C27.0966847,9.72743119 27.2581797,9.45011009 27.5291526,9.37866055 L43.558893,5.15587156 C43.8274465,5.0813945 44.1074922,5.24730275 44.1776548,5.5173578 C44.2490271,5.78801835 44.0875321,6.06533945 43.8165592,6.13678899 L27.7868188,10.359578 C27.7444793,10.3716881 27.7009301,10.3765321 27.6579857,10.3765321 Z"></path>
                                </g>
                                <path d="M66.9357489,217.605028 C66.9218374,217.605028 66.9091355,217.605028 66.8964337,217.603211 C52.6842682,216.505431 37.9930613,215.365872 23.6321027,217.388862 L23.2540713,217.442147 L23.0986248,217.09156 C22.4998231,215.738862 22.2524394,214.189982 22.4024422,212.73011 C25.3293124,184.124257 17.2527475,154.429706 0.241335235,131.258862 C0.076211127,131.033009 0.124599144,130.715725 0.350208274,130.549211 C0.572793153,130.383908 0.891549215,130.431138 1.05909272,130.658202 C18.2162739,154.029468 26.3630014,183.980752 23.4101227,212.833651 C23.291572,213.996826 23.4579058,215.224183 23.8800913,216.329835 C38.2229044,214.368 52.8366904,215.498477 66.9726448,216.592624 C67.2520856,216.613211 67.4607589,216.85844 67.4389843,217.136367 C67.4196291,217.402789 67.1970442,217.605028 66.9357489,217.605028 Z"></path>
                                <path d="M24.1746534,216.753688 C24.0234408,216.753688 23.8728331,216.685266 23.7730328,216.555688 C23.6030699,216.333468 23.6441997,216.014367 23.8661797,215.84422 L49.0442796,196.478367 C49.2638402,196.30822 49.5825963,196.348789 49.7549786,196.571615 C49.9249415,196.793835 49.8838117,197.112936 49.6618317,197.283083 L24.4837318,216.648936 C24.3911897,216.719174 24.2823167,216.753688 24.1746534,216.753688 Z"></path>
                                <path d="M47.7033267,205.27211 C47.5412268,205.27211 47.3803367,205.194 47.2823509,205.046862 C47.1256947,204.814954 47.1885991,204.500092 47.4208616,204.343266 L69.1761141,189.723358 C69.4047475,189.567743 69.721689,189.626477 69.8789501,189.862018 C70.0356063,190.093927 69.9727019,190.41 69.7404394,190.565615 L47.9851869,205.185523 C47.8992981,205.244257 47.8013124,205.27211 47.7033267,205.27211 Z"></path>
                            </g>
                        </g>
                    </g>
                    <g id="Group" transform="translate(296.000000, 285.000000)">
                        <g transform="translate(0.000000, 18.150000)">
                            <polygon id="Rectangle" fill="#EEFD5F" transform="translate(106.003923, 76.738591) rotate(-89.610395) translate(-106.003923, -76.738591) " points="82.0735364 -28.6190467 129.937357 -28.6197374 129.93431 182.096229 82.0704894 182.09692"></polygon>
                            <g transform="translate(0.603716, 52.030000)" fill="#000000" id="Path">
                                <path d="M196.130456,7.628445 L194.312063,6.522505 C194.021072,6.345845 193.572511,6.377305 193.309291,6.59329 L191.663561,7.94365 C191.400341,8.159635 191.422678,8.477865 191.713669,8.65513 L193.532062,9.76107 C193.823053,9.93773 194.271614,9.90627 194.534834,9.690285 L196.179961,8.339925 C196.443785,8.123335 196.421447,7.805105 196.130456,7.628445 Z"></path>
                                <path d="M194.507064,23.621015 L192.861937,24.971375 C192.598717,25.18736 192.621054,25.50559 192.912046,25.682855 L194.730439,26.788795 C195.02143,26.965455 195.469991,26.933995 195.733211,26.71801 L197.378941,25.36765 C197.642161,25.151665 197.619824,24.833435 197.328833,24.65617 L195.51044,23.55023 C195.218845,23.37357 194.770284,23.405635 194.507064,23.621015 Z"></path>
                                <path d="M198.524794,41.685105 L196.706401,40.579165 C196.41541,40.402505 195.966849,40.433965 195.703629,40.64995 L194.057899,42.00031 C193.794679,42.216295 193.817016,42.534525 194.108007,42.71179 L195.9264,43.81773 C196.216788,43.99439 196.665952,43.96293 196.929173,43.746945 L198.574299,42.396585 C198.838123,42.179995 198.815785,41.861765 198.524794,41.685105 Z"></path>
                                <path d="M172.123686,9.32305 L170.305293,8.21711 C170.014905,8.04045 169.56574,8.07191 169.30252,8.287895 L167.65679,9.638255 C167.39357,9.85424 167.415907,10.17247 167.706899,10.349735 L169.525291,11.455675 C169.816283,11.632335 170.264844,11.600875 170.528064,11.38489 L172.173794,10.03453 C172.437014,9.818545 172.414073,9.500315 172.123686,9.32305 Z"></path>
                                <path d="M173.320855,26.35138 L171.502462,25.24544 C171.21147,25.06878 170.762909,25.10024 170.499689,25.316225 L168.854563,26.66719 C168.591343,26.883175 168.61368,27.201405 168.904671,27.37867 L170.723064,28.48461 C171.014055,28.66127 171.462616,28.62981 171.725837,28.413825 L173.371567,27.06286 C173.633579,26.846875 173.611242,26.528645 173.320855,26.35138 Z"></path>
                                <path d="M171.696858,42.344555 L170.051128,43.694915 C169.787908,43.9109 169.810245,44.22913 170.101237,44.406395 L171.919629,45.512335 C172.210621,45.688995 172.659182,45.657535 172.922402,45.44155 L174.568132,44.09119 C174.831352,43.875205 174.809015,43.556975 174.518024,43.37971 L172.699631,42.27377 C172.409243,42.09711 171.960078,42.12857 171.696858,42.344555 Z"></path>
                                <path d="M148.116311,11.01826 L146.297918,9.91232 C146.006927,9.73566 145.558366,9.76712 145.295146,9.983105 L143.649416,11.333465 C143.386196,11.54945 143.408533,11.86768 143.699524,12.044945 L145.517917,13.150885 C145.808305,13.327545 146.257469,13.296085 146.52069,13.0801 L148.16642,11.729135 C148.42964,11.51315 148.407302,11.19492 148.116311,11.01826 Z"></path>
                                <path d="M149.31348,28.04659 L147.495087,26.94065 C147.204096,26.76399 146.755535,26.79545 146.492315,27.011435 L144.847188,28.361795 C144.583968,28.57778 144.606306,28.89601 144.897297,29.073275 L146.71569,30.179215 C147.006681,30.355875 147.455242,30.324415 147.718462,30.10843 L149.364192,28.75807 C149.626809,28.542085 149.604471,28.22325 149.31348,28.04659 Z"></path>
                                <path d="M147.690088,44.039765 L146.044358,45.390125 C145.781137,45.60611 145.803475,45.92434 146.094466,46.101605 L147.912859,47.207545 C148.203246,47.384205 148.652411,47.352745 148.915631,47.13676 L150.561361,45.7864 C150.824582,45.570415 150.802244,45.252185 150.511253,45.07492 L148.69286,43.96898 C148.401869,43.791715 147.952704,43.82378 147.690088,44.039765 Z"></path>
                                <path d="M124.109541,12.712865 L122.291148,11.606925 C122.000156,11.430265 121.551595,11.461725 121.288375,11.67771 L119.643249,13.02807 C119.380029,13.244055 119.402366,13.562285 119.693357,13.73955 L121.51175,14.84549 C121.802741,15.02215 122.251302,14.99069 122.514523,14.774705 L124.160253,13.424345 C124.422265,13.20836 124.399928,12.89013 124.109541,12.712865 Z"></path>
                                <path d="M122.485544,28.70604 L120.840418,30.0564 C120.577198,30.272385 120.599535,30.590615 120.890526,30.76788 L122.708919,31.87382 C122.99991,32.05048 123.448471,32.01902 123.711692,31.803035 L125.357422,30.452675 C125.620642,30.23669 125.598304,29.91846 125.307313,29.741195 L123.48892,28.635255 C123.197326,28.458595 122.748764,28.490055 122.485544,28.70604 Z"></path>
                                <path d="M126.553383,47.481005 C126.816604,47.26502 126.794266,46.94679 126.503275,46.769525 L124.684882,45.663585 C124.393891,45.486925 123.94533,45.518385 123.68211,45.73437 L122.036379,47.08473 C121.773159,47.300715 121.795497,47.618945 122.086488,47.79621 L123.732822,48.79809 L124.937839,48.80656 L126.553383,47.481005 Z"></path>
                                <path d="M100.102166,14.408075 L98.2837733,13.302135 C97.9927821,13.125475 97.5442211,13.156935 97.2810009,13.37292 L95.6358745,14.72328 C95.3726543,14.939265 95.3949918,15.257495 95.6859829,15.43476 L97.5043758,16.5407 C97.7947633,16.71736 98.243928,16.6859 98.5071483,16.469915 L100.152878,15.119555 C100.415495,14.90357 100.393157,14.584735 100.102166,14.408075 Z"></path>
                                <path d="M98.4781699,30.40125 L96.8330435,31.75161 C96.5698233,31.967595 96.5921608,32.285825 96.883152,32.46309 L98.7015448,33.56903 C98.992536,33.74569 99.4410971,33.71423 99.7043173,33.498245 L101.350047,32.147885 C101.613268,31.9319 101.59093,31.61367 101.299939,31.436405 L99.481546,30.330465 C99.1905549,30.1532 98.7413901,30.185265 98.4781699,30.40125 Z"></path>
                                <path d="M102.496504,48.464735 L100.678111,47.358795 C100.387724,47.182135 99.9385591,47.213595 99.6753389,47.42958 L98.2209868,48.623245 L102.675204,48.653495 C102.63717,48.583315 102.582232,48.516765 102.496504,48.464735 Z"></path>
                                <path d="M72.2998324,1.20758 C72.5908236,1.38424 73.0393847,1.35278 73.3026049,1.136795 L73.9642777,0.593505 L71.2602333,0.57475 L72.2998324,1.20758 Z"></path>
                                <path d="M76.0947918,16.103285 L74.276399,14.997345 C73.9854078,14.820685 73.5368467,14.852145 73.2736265,15.06813 L71.6285001,16.419095 C71.3652799,16.63508 71.3876174,16.95331 71.6786086,17.130575 L73.4970015,18.236515 C73.7879926,18.413175 74.2365537,18.381715 74.4997739,18.16573 L76.145504,16.81537 C76.4081205,16.598175 76.385783,16.279945 76.0947918,16.103285 Z"></path>
                                <path d="M74.4713993,32.095855 L72.8256692,33.446215 C72.562449,33.6622 72.5847864,33.98043 72.8757776,34.157695 L74.6941705,35.263635 C74.9851617,35.440295 75.4337227,35.408835 75.6969429,35.19285 L77.342673,33.84249 C77.6058932,33.626505 77.5835557,33.308275 77.2925646,33.13101 L75.4741717,32.02507 C75.1831805,31.84841 74.7346195,31.87987 74.4713993,32.095855 Z"></path>
                                <path d="M46.4245605,1.084765 C46.1613403,1.30075 46.1836778,1.61898 46.4746689,1.796245 L48.2930618,2.902185 C48.584053,3.078845 49.032614,3.047385 49.2958343,2.8314 L50.9415643,1.48104 C51.2047846,1.265055 51.1824471,0.946825 50.8914559,0.76956 L50.3354334,0.431365 L47.2474255,0.41019 L46.4245605,1.084765 Z"></path>
                                <path d="M50.4923996,19.85973 L52.1381296,18.50937 C52.4013499,18.293385 52.3790124,17.975155 52.0880212,17.79789 L50.2696283,16.69195 C49.9792409,16.51529 49.5300761,16.54675 49.2668559,16.762735 L47.6217295,18.113095 C47.3585093,18.32908 47.3808468,18.64731 47.671838,18.824575 L49.4902308,19.930515 C49.7806183,20.10778 50.2291793,20.075715 50.4923996,19.85973 Z"></path>
                                <path d="M48.8684033,35.852905 L50.6867961,36.958845 C50.9771836,37.135505 51.4263484,37.104045 51.6895686,36.88806 L53.3352987,35.5377 C53.5985189,35.321715 53.5761814,35.003485 53.2851902,34.82622 L51.4667973,33.72028 C51.1758062,33.54362 50.7272451,33.57508 50.4640249,33.791065 L48.8182948,35.141425 C48.5556783,35.35741 48.5780158,35.676245 48.8684033,35.852905 Z"></path>
                                <path d="M25.2884599,4.52661 L26.9335863,3.17625 C27.1968065,2.960265 27.174469,2.642035 26.8834778,2.46477 L25.065085,1.35883 C24.7740938,1.18217 24.3255327,1.21363 24.0623125,1.429615 L22.4165824,2.779975 C22.1533622,2.99596 22.1756997,3.31419 22.4666909,3.491455 L24.2850838,4.597395 C24.5760749,4.774055 25.0252397,4.742595 25.2884599,4.52661 Z"></path>
                                <path d="M23.6644636,20.519785 L25.4828565,21.625725 C25.7732439,21.802385 26.2224087,21.770925 26.4856289,21.55494 L28.131359,20.20458 C28.3945792,19.988595 28.3722417,19.670365 28.0812506,19.4931 L26.2628577,18.38716 C25.9718665,18.2105 25.5233055,18.24196 25.2600853,18.457945 L23.6149589,19.808305 C23.3511349,20.02429 23.3734724,20.34252 23.6644636,20.519785 Z"></path>
                                <path d="M24.8616326,37.548115 L26.6800255,38.654055 C26.9710167,38.830715 27.4195777,38.799255 27.682798,38.58327 L29.3279243,37.232305 C29.5911445,37.01632 29.568807,36.69809 29.2778159,36.520825 L27.459423,35.414885 C27.1690356,35.238225 26.7198708,35.269685 26.4566506,35.48567 L24.8109205,36.83603 C24.548304,37.05262 24.5706415,37.37085 24.8616326,37.548115 Z"></path>
                                <path d="M0.17326652,6.228475 L0.278313121,6.292605 C0.56930428,6.469265 1.01786534,6.437805 1.28108556,6.22182 L2.92621193,4.87146 C3.18943215,4.655475 3.16709465,4.337245 2.87610349,4.15998 L1.0577106,3.05404 C0.811394436,2.904605 0.458220518,2.91247 0.194396584,3.04678 L0.17326652,6.228475 Z"></path>
                                <path d="M1.47548214,23.32033 C1.7664733,23.49699 2.21503436,23.46553 2.47825458,23.249545 L4.12398466,21.899185 C4.38720488,21.6832 4.36486739,21.36497 4.07387623,21.187705 L2.25548334,20.081765 C1.9650959,19.905105 1.51593112,19.936565 1.2527109,20.15255 L0.0712384995,21.122365 L0.0621827581,22.46123 L1.47548214,23.32033 Z"></path>
                                <path d="M0.854258278,39.24272 L2.67265117,40.34866 C2.96364232,40.52532 3.41220339,40.49386 3.6754236,40.277875 L5.32054997,38.927515 C5.58377019,38.71153 5.56143269,38.3933 5.27044153,38.216035 L3.45204865,37.110095 C3.16105749,36.933435 2.71249643,36.964895 2.44927621,37.18088 L0.803546126,38.53124 C0.54153334,38.74783 0.563870835,39.06606 0.854258278,39.24272 Z"></path>
                            </g>
                            <g fill="#7B5F04">
                                <polygon id="Rectangle" transform="translate(106.043855, 70.974040) rotate(-89.610395) translate(-106.043855, -70.974040) " points="105.538377 -34.3839949 106.55238 -34.3840096 106.549333 176.332075 105.53533 176.332089"></polygon>
                                <path d="M33.1319395,100.702855 C33.130732,100.702855 33.1301283,100.702855 33.1277134,100.702855 C32.8487966,100.70104 32.6236105,100.47235 32.6260254,100.192235 L32.9532395,52.336735 C32.9550506,52.058435 33.1814442,51.83398 33.4591536,51.83398 C33.460361,51.83398 33.4609647,51.83398 33.4633796,51.83398 C33.7416927,51.835795 33.9674825,52.064485 33.9650677,52.3446 L33.6378535,100.199495 C33.6354387,100.4784 33.4096489,100.702855 33.1319395,100.702855 Z" id="Path"></path>
                                <path d="M33.0933016,51.80615 C33.0184408,51.80615 32.9429763,51.78921 32.8729452,51.755935 C31.661287,51.167875 3.17011323,37.204475 0.69306608,23.445565 C0.0851239698,20.07511 1.09634843,16.98477 3.69655367,14.25864 C6.12107752,11.71764 8.708001,10.77021 11.3885005,11.45144 C23.4060731,14.493985 33.171181,49.66929 33.5811042,51.16485 C33.6336275,51.35724 33.5690299,51.56173 33.4162897,51.689385 C33.3245249,51.76622 33.2086114,51.80615 33.0933016,51.80615 Z M9.70413256,12.249435 C7.89721028,12.249435 6.15911163,13.14423 4.42765386,14.95923 C2.06350162,17.436705 1.14223086,20.231805 1.68799021,23.26467 C3.81850432,35.09 27.0839116,47.65101 32.2879443,50.325715 C30.5015484,44.23155 21.4421846,15.04151 11.1403732,12.433355 C10.6567966,12.31054 10.177446,12.249435 9.70413256,12.249435 Z" id="Shape"></path>
                                <path d="M33.0933016,51.80615 C32.9749733,51.80615 32.8578523,51.764405 32.7642763,51.684545 C32.613951,51.555075 32.5517683,51.34998 32.6073102,51.1588 C33.0383635,49.668685 43.2804071,14.630715 55.3384287,11.75273 C58.0219467,11.112035 60.6010219,12.09032 62.9917377,14.665805 C65.5545125,17.42642 66.5228731,20.530675 65.8696523,23.892055 C63.2048494,37.615875 34.5265236,51.18784 33.3076208,51.75896 C33.2394009,51.79042 33.1663513,51.80615 33.0933016,51.80615 Z M56.9370689,12.57432 C56.4873004,12.57432 56.0333059,12.62877 55.5726705,12.73888 C45.2358435,15.20607 35.7810457,44.268455 33.9125444,50.33721 C39.1521964,47.733895 62.5878516,35.491115 64.877143,23.69785 C65.4639551,20.67285 64.5807184,17.86686 62.250978,15.356715 C60.5219351,13.493315 58.7717621,12.57432 56.9370689,12.57432 Z" id="Shape"></path>
                                <path d="M33.0920942,51.80615 C32.8590598,51.80615 32.6483629,51.6428 32.5982544,51.40443 C32.3374491,50.165995 26.3075327,20.98866 35.2648684,13.505415 C39.1709116,10.242045 42.8028676,9.03991 46.006789,7.979345 C50.1368108,6.612045 53.7035655,5.43169 56.7716507,0.26378 C56.9147314,0.021175 57.2268526,-0.056265 57.4653205,0.087725 C57.7055995,0.23111 57.7846863,0.54208 57.6410019,0.78287 C54.3791238,6.27506 50.4664398,7.570365 46.3237399,8.9419 C43.0534098,10.024245 39.6701848,11.1441 35.9126558,14.28405 C27.4171629,21.381305 33.5243549,50.898045 33.5877451,51.1951 C33.6450981,51.469165 33.4712279,51.737785 33.1977445,51.795865 C33.1621253,51.801915 33.1277134,51.80615 33.0920942,51.80615 Z" id="Path"></path>
                            </g>
                        </g>
                        <g transform="translate(109.272614, 0.000000)">
                            <g transform="translate(3.018580, 18.755000)">
                                <rect id="Rectangle" fill="#F9A602" x="0.0253560761" y="0.122815" width="100.835681" height="101.050125"></rect>
                                <path d="M55.7773303,101.17294 L51.7589959,101.17294 C51.1631281,100.14807 50.4966256,99.195195 49.7673365,98.33065 C47.1538495,95.230025 43.988566,93.528765 40.3704955,93.2789 C39.3478004,93.20751 38.227907,93.19904 37.0367752,93.19904 C32.1026035,93.163345 25.9591885,93.12765 24.6611989,87.613075 C23.8431636,84.14703 25.985752,81.376735 27.8796094,78.926485 C28.3770715,78.27611 28.8485737,77.66143 29.2578933,77.05522 C31.2048777,74.15969 31.6317049,70.176975 30.4134059,66.39996 C29.1957105,62.62234 26.519437,59.646345 23.2569552,58.443605 C16.7223322,56.038125 9.76088187,59.227685 2.39071575,62.60419 C1.60829968,62.960535 0.81682788,63.325955 0.0259597922,63.6823 L0.0259597922,59.7619 C0.319365816,59.63727 0.621827581,59.49449 0.915233604,59.36139 C8.614425,55.83303 16.5714032,52.180645 24.4837063,55.10219 C28.7598275,56.679425 32.2450805,60.492135 33.8008569,65.3037 C35.3475775,70.11466 34.7613692,75.24627 32.2094613,79.04204 C31.737959,79.745655 31.2048777,80.4408 30.6893041,81.10025 C29.1510355,83.096145 27.6930611,84.98435 28.1198884,86.7933 C28.733264,89.385725 32.0585322,89.599895 37.0548867,89.63559 C38.2460185,89.63559 39.4818254,89.64406 40.6107745,89.724525 C45.1627938,90.036705 49.2698745,92.21894 52.488285,96.032255 C53.7500516,97.529025 54.861493,99.266585 55.7773303,101.17294 Z" id="Path" fill="#FFFFFF"></path>
                                <path d="M100.861037,56.724195 L100.861037,60.28825 L87.6589737,59.52232 C85.5520045,59.40616 82.3692132,59.219215 80.1994576,57.089615 C77.8437574,54.79122 77.7278439,51.369945 77.9234479,48.323165 C77.9946864,47.218435 78.0749806,46.095555 78.1637269,44.982355 C78.7239754,37.649755 79.3017318,30.07697 76.0211385,23.91202 C75.3099609,22.575575 74.4297428,21.328065 73.4963978,20.000695 C72.3765044,18.41499 71.2203881,16.77544 70.34017,14.922325 C68.2597643,10.548175 68.0110333,5.29133 69.4243327,0.124025 L73.1136417,0.124025 C71.6200481,4.783735 71.7178501,9.523305 73.5495248,13.390465 C74.2963216,14.9677 75.3184129,16.4197 76.4032908,17.952165 C77.3547473,19.306155 78.3418232,20.70552 79.1592548,22.23738 C82.9198023,29.320115 82.3064268,37.41925 81.7111627,45.25037 C81.6224164,46.3551 81.5421222,47.45983 81.4708837,48.555485 C81.3284067,50.791565 81.3549702,53.25089 82.680127,54.542565 C83.8090761,55.647295 85.774172,55.843315 87.8636335,55.967945 L100.861037,56.724195 Z" id="Path" fill="#FFFFFF"></path>
                                <path d="M100.861037,87.08733 L100.861037,90.784485 C97.9625963,89.95624 95.1981803,89.207855 92.3619221,89.08262 C87.3921312,88.85998 81.8620917,91.6575 81.5155587,96.165355 C81.3911932,97.804905 81.9514417,99.44385 82.8050963,101.172335 L78.9111274,101.172335 C78.2530769,99.550935 77.8262496,97.768605 77.9687266,95.897945 C78.4933559,89.118315 85.9257048,85.21546 92.5134548,85.518565 C95.4022364,85.652875 98.1763118,86.32987 100.861037,87.08733 Z" id="Path" fill="#FFFFFF"></path>
                                <path d="M61.3248775,26.43245 C60.960233,37.6673 49.9629405,45.52504 39.9786837,46.362965 C39.1340849,46.434355 38.2804303,46.47005 37.4273795,46.47005 C29.3816551,46.47005 20.8909919,43.316185 11.5563335,36.883825 C7.48426847,34.06876 3.62591888,30.941515 0.0253560761,27.52871 L0.0253560761,22.54835 C4.16805594,26.762175 8.70256755,30.59364 13.5655007,33.943525 C23.1941688,40.58098 31.7373553,43.485585 39.6858814,42.817665 C48.1493774,42.104975 57.4755837,35.59215 57.7780454,26.3175 C57.9024109,22.24585 56.3556903,18.3436 54.7105639,14.21871 C54.3730866,13.36324 54.0350056,12.516845 53.7059804,11.67045 C52.3633157,8.124545 51.2609302,4.20475 50.5763161,0.124025 L54.1859346,0.124025 C54.8349295,3.750395 55.8304573,7.24306 57.0306449,10.405395 C57.3506144,11.234245 57.6796397,12.06249 58.008665,12.89134 C59.7159741,17.18442 61.4848623,21.62149 61.3248775,26.43245 Z" id="Path" fill="#FFFFFF"></path>
                            </g>
                            <polygon id="Path" fill="#2C1600" points="103.879014 28.84156 103.879014 37.890545 2.60805354 28.84156"></polygon>
                            <rect id="Rectangle" fill="#F9A602" x="0.390000599" y="16.846225" width="106.145968" height="12.30449"></rect>
                            <g transform="translate(38.034114, 0.000000)" fill="#000075">
                                <path d="M14.3026381,120.43493 C14.0231175,120.43493 13.796724,120.208055 13.796724,119.92794 L13.796724,17.613365 C13.796724,17.33325 14.0231175,17.106375 14.3026381,17.106375 C14.5821586,17.106375 14.8085522,17.33325 14.8085522,17.613365 L14.8085522,119.92794 C14.8085522,120.20866 14.5821586,120.43493 14.3026381,120.43493 Z" id="Path"></path>
                                <g>
                                    <path d="M14.3026381,17.315705 C14.228381,17.315705 14.1547276,17.299975 14.0853003,17.266095 C13.5781788,17.025305 1.66625643,11.286275 0.578360022,5.47525 C0.300650617,3.989975 0.733515059,2.6257 1.86669017,1.422355 C2.93768253,0.283745 4.10164717,-0.137335 5.31572024,0.157905 C10.4436848,1.41933 14.6141556,16.048835 14.7892332,16.670775 C14.8423603,16.861955 14.7801775,17.067655 14.6280411,17.19531 C14.5356725,17.27517 14.4191553,17.315705 14.3026381,17.315705 Z M4.57737545,1.081135 C3.90664687,1.081135 3.25644463,1.423565 2.60201638,2.118105 C1.69221622,3.08671 1.35534264,4.123075 1.57268043,5.288305 C2.39011203,9.65701 10.5571834,14.29252 13.4833953,15.82559 C12.0477584,11.174955 8.55103481,1.998315 5.07483752,1.14345 C4.90760816,1.101705 4.74158623,1.081135 4.57737545,1.081135 Z" id="Shape"></path>
                                    <path d="M14.3026381,17.315705 C14.1861209,17.315705 14.0696037,17.27517 13.9766314,17.195915 C13.8244949,17.06826 13.7623122,16.861955 13.8154392,16.67138 C13.9905169,16.04944 18.1597802,1.419935 23.2877448,0.15851 C24.5048364,-0.13673 25.6669899,0.28435 26.7367748,1.42296 C27.8699499,2.6257 28.3028144,3.99058 28.025105,5.47646 C26.9372086,11.28688 15.0264937,17.02591 14.5193722,17.266095 C14.4511522,17.29937 14.3768952,17.315705 14.3026381,17.315705 Z M24.0279007,1.081135 C23.8630862,1.081135 23.6970643,1.101705 23.5292312,1.14345 C20.0524302,1.99771 16.5563103,11.174955 15.1206734,15.82559 C18.047489,14.29252 26.2145604,9.657615 27.0313883,5.288305 C27.2487261,4.123075 26.9118525,3.086105 26.0020523,2.118105 C25.3482278,1.423565 24.6980256,1.081135 24.0279007,1.081135 Z" id="Shape"></path>
                                    <path d="M36.6002884,22.328735 C36.5447466,22.328735 36.4898084,22.31966 36.4342665,22.300905 C33.8455319,21.401875 32.9719547,19.87909 32.0470616,18.267975 C31.3521844,17.057975 30.6349697,15.80865 29.1027382,14.583525 C26.262254,12.317195 17.4860331,15.37789 14.3448982,16.75003 C14.0907337,16.863165 13.7906868,16.745795 13.6789993,16.48867 C13.5673119,16.23094 13.6838291,15.93328 13.9398047,15.821355 C14.423985,15.609605 25.8342193,10.675225 29.7330178,13.79158 C31.416782,15.135285 32.2173096,16.531625 32.9242611,17.762195 C33.8231944,19.32975 34.5337682,20.56758 36.7657066,21.342585 C37.0295306,21.434545 37.168989,21.723735 37.0778279,21.98812 C37.0053819,22.196845 36.8097779,22.328735 36.6002884,22.328735 Z" id="Path"></path>
                                    <path d="M23.8691234,38.63651 C23.6548041,38.63651 23.4561816,38.49978 23.3867542,38.283795 C22.5506074,35.66959 23.2412586,34.056055 23.9717551,32.34693 C24.5199293,31.064935 25.0874224,29.738775 25.143568,27.77555 C25.2480109,24.13466 17.5355378,18.94255 14.5555951,17.249155 C14.3122975,17.11182 14.2265698,16.802665 14.3648208,16.55885 C14.5024681,16.31322 14.8133819,16.22731 15.0536609,16.36767 C15.5130889,16.62782 26.2984769,22.81334 26.1553962,27.805195 C26.0932135,29.96202 25.460519,31.441245 24.9026853,32.746835 C24.1915078,34.408165 23.6300518,35.721015 24.3514925,37.97464 C24.4366165,38.24084 24.2905172,38.5264 24.0236747,38.61231 C23.9717551,38.628645 23.9204392,38.63651 23.8691234,38.63651 Z" id="Path"></path>
                                </g>
                            </g>
                        </g>
                        <g transform="translate(120.743220, 36.300000)">
                            <rect id="Rectangle" fill="#EEFD5F" x="115.49089" y="22.15994" width="86.2529189" height="59.509615"></rect>
                            <path d="M153.904741,74.810065 C152.74138,71.037285 152.457634,66.99528 153.080669,63.096055 C153.333022,61.51761 154.014014,59.67478 155.578846,59.36502 C156.734962,59.13633 157.899531,59.92767 158.485135,60.95254 C159.07074,61.97741 159.205972,63.19104 159.32913,64.36595 C159.428743,65.31459 159.528357,66.26323 159.62797,67.21187 C159.818744,69.029895 159.996237,70.941695 159.277814,72.62178 C158.559392,74.301865 156.613012,75.605035 154.907514,74.95466 L153.904741,74.810065 Z" id="Path" fill="#F9A602"></path>
                            <path d="M160.092831,43.162515 C158.258138,38.518535 157.809577,33.54362 158.79303,28.744155 C159.190879,26.800895 160.26489,24.53275 162.734089,24.1516 C164.557915,23.86967 166.395023,24.84372 167.318709,26.10575 C168.242395,27.367175 168.45611,28.86092 168.650507,30.30687 C168.807473,31.47452 168.964439,32.64217 169.121405,33.80982 C169.422056,36.047715 169.702784,38.40056 168.569005,40.46845 C167.435226,42.53634 164.364726,44.140195 161.675775,43.33978 L160.092831,43.162515 Z" id="Path" fill="#F9A602"></path>
                            <path d="M201.744412,35.953335 L201.744412,52.519445 C196.916495,53.81596 191.9298,54.511105 186.933445,54.58552 C183.166257,54.63997 178.611219,53.805675 177.252857,50.28397 C176.251292,47.68126 177.614483,44.641135 179.755864,42.862435 C181.897245,41.078895 184.658039,40.269405 187.334916,39.504685 C189.49622,38.883955 191.657524,38.268065 193.818223,37.64673 C196.405751,36.906815 199.077798,36.161455 201.744412,35.953335 Z" id="Path" fill="#F9A602"></path>
                            <path d="M131.031146,66.13981 C129.732552,68.608815 127.492162,70.416555 125.310936,72.150485 C123.551103,73.54622 121.791271,74.946795 120.032042,76.347975 C118.569842,77.51018 117.067796,78.69235 115.491493,79.710565 L115.491493,60.19387 C116.938601,59.423705 118.415894,58.708595 119.922769,58.057615 C123.382666,56.56266 127.908122,55.58861 130.505309,58.32563 C132.423919,60.3427 132.324909,63.670805 131.031146,66.13981 Z" id="Path" fill="#F9A602"></path>
                            <path d="M146.818322,37.67577 C146.612454,39.36009 144.239246,40.02922 141.709676,39.723695 C139.188558,39.41817 136.526773,38.361235 133.963998,37.320635 C133.577016,37.16394 133.197883,37.00664 132.810297,36.858415 C131.121099,36.17295 129.431902,35.495955 127.751156,34.81049 C127.446279,34.686465 127.141403,34.563045 126.836526,34.43902 C123.153254,32.94467 119.379425,31.29302 116.479173,28.88149 C116.124791,28.5923 115.795162,28.27891 115.490286,27.964915 L115.490286,22.15994 L122.238624,22.15994 C125.822887,23.43165 129.366097,24.926 132.810297,26.61879 C135.405672,27.8905 137.952147,29.269295 140.40746,30.74731 C142.170915,31.804245 144.024323,33.10076 145.277034,34.438415 C146.315426,35.528625 146.949932,36.651505 146.818322,37.67577 Z" id="Path" fill="#F9A602"></path>
                            <path d="M201.744412,69.765575 L201.744412,79.715405 C201.233668,79.51636 200.723528,79.31308 200.217614,79.109195 C198.14566,78.2749 196.073707,77.43516 194.001753,76.600865 C190.031112,74.996405 185.867886,73.2776 182.735203,70.67005 C179.602521,68.057055 178.006295,64.2873 180.405463,62.802025 L181.312848,61.68459 C188.247131,63.5613 195.206167,66.323125 201.744412,69.765575 Z" id="Path" fill="#F9A602"></path>
                            <rect id="Rectangle" fill="#000000" x="114.250857" y="33.93445" width="88.7275512" height="1.01398"></rect>
                            <path d="M132.809693,82.18078 C132.530173,82.18078 132.303779,81.953905 132.303779,81.67379 L132.303779,22.160545 C132.303779,21.88043 132.530173,21.653555 132.809693,21.653555 C133.089214,21.653555 133.315607,21.88043 133.315607,22.160545 L133.315607,81.67379 C133.315607,81.953905 133.089214,82.18078 132.809693,82.18078 Z" id="Path" fill="#000000"></path>
                            <g fill="#000000">
                                <path d="M29.792182,36.41495 C23.2159025,36.41495 20.2860683,32.140625 17.4443766,27.99456 C14.0768483,23.08438 10.5982361,18.01206 0.914026172,19.075045 C0.634505619,19.10469 0.386378303,18.905645 0.355588782,18.62674 C0.324799261,18.34844 0.525233005,18.09797 0.80294241,18.067115 C11.0793978,16.927295 14.9075616,22.504185 18.2775049,27.42102 C21.3395529,31.887735 24.2295419,36.104585 31.538129,35.30054 C41.3823236,34.21517 43.5550979,29.073275 45.8552562,23.629485 C48.1101358,18.293385 50.4416874,12.77639 60.292523,11.551265 C68.2778758,10.560275 72.5316594,15.801995 76.6514181,20.874315 C80.1451231,25.17284 83.4679765,29.246305 88.7667927,28.989785 C95.1033969,28.696965 97.4458154,23.982805 100.158916,18.525705 C102.342557,14.12917 104.602266,9.58441 109.253899,6.988355 C111.491874,5.739635 113.979788,5.51276 116.64761,6.31378 C124.832792,8.77129 132.397959,20.274155 133.257047,21.924595 C133.386242,22.17325 133.289648,22.47938 133.042728,22.60885 C132.7946,22.736505 132.48912,22.64273 132.359925,22.394075 C131.526797,20.793245 124.209757,9.643095 116.357222,7.28541 C113.96228,6.567275 111.736983,6.7639 109.745927,7.87347 C105.367778,10.317065 103.180515,14.71965 101.063886,18.977035 C98.3278446,24.482535 95.7439397,29.681905 88.8138826,30.001345 C82.9578364,30.25605 79.3663294,25.81898 75.8665872,21.5138 C71.9194913,16.656255 67.8438039,11.64383 60.4162848,12.556775 C51.1456204,13.71051 49.0277843,18.720515 46.7861864,24.02455 C44.4733501,29.49738 42.0820306,35.157155 31.6480053,36.30726 C30.9996142,36.37986 30.3808052,36.41495 29.792182,36.41495 Z" id="Path"></path>
                                <path d="M133.031861,22.834515 C132.890591,22.834515 132.75234,22.775225 132.654538,22.665115 C132.51025,22.502975 132.484894,22.265815 132.592355,22.077055 C132.901458,21.531345 140.226949,8.710185 145.77993,7.788165 C146.892579,7.603035 147.861543,7.88194 148.683804,8.612175 C149.468032,9.310345 149.80249,10.17368 149.650354,11.11143 C148.846204,16.06638 133.868008,22.52173 133.231087,22.79398 C133.166489,22.82181 133.098873,22.834515 133.031861,22.834515 Z M146.422284,8.747695 C146.268336,8.747695 146.110163,8.76161 145.945952,8.78823 C141.86302,9.466435 136.33781,17.869885 134.283968,21.216745 C139.137242,18.98974 148.117519,14.239885 148.651204,10.94808 C148.749006,10.347315 148.546761,9.845165 148.011868,9.370845 C147.542781,8.953395 147.019963,8.747695 146.422284,8.747695 Z" id="Shape"></path>
                                <path d="M133.031861,22.834515 C132.997449,22.834515 132.962433,22.83028 132.928022,22.823625 C132.720343,22.780065 132.56217,22.611875 132.531984,22.40194 C132.432371,21.727365 130.146702,5.848535 134.423426,1.576025 C135.313908,0.68607 136.420519,0.327305 137.712472,0.529375 C138.979068,0.720555 139.867134,1.353385 140.352522,2.410925 C142.738408,7.60727 133.841444,21.987515 133.461103,22.596145 C133.366923,22.74679 133.20392,22.834515 133.031861,22.834515 Z M137.042347,1.49072 C136.303398,1.49072 135.676741,1.756315 135.137622,2.293555 C131.919212,5.508525 132.88878,16.79964 133.351227,20.82047 C136.137376,16.07969 141.066115,6.3888 139.433666,2.834425 C139.094982,2.09693 138.48221,1.67101 137.562146,1.531255 C137.382239,1.504635 137.209576,1.49072 137.042347,1.49072 Z" id="Shape"></path>
                            </g>
                        </g>
                    </g>
                </g>
            </g>
        </g>
    </g>
</svg>